{
  "asset" : {
    "generator" : "UE Viewer (umodel) build 1579 based",
    "version" : "2.0"
  },
  "scene" : 0,
  "scenes" : [
    {
      "nodes" : [ 0 ]
    }
  ],
  "nodes" : [
    {
      "name" : "SK_CH_WP21_AZ00",
      "mesh" : 0,
      "skin" : 0,
      "children" : [ 1 ]
    },
    {
      "name" : "Root_J",
      "children" : [ 2 ],
      "translation" : [ 0, 0, 0 ],
      "rotation" : [ -0, -0, -0, 1 ]
    },
    {
      "name" : "Center_J",
      "children" : [ 3, 4, 5 ],
      "translation" : [ 0.005, -0.11, -0.01 ],
      "rotation" : [ -0, -0, 0, -1 ]
    },
    {
      "name" : "L_EdgeTop",
      "translation" : [ 0.02, 0.53, -0 ],
      "rotation" : [ -0, -0, 0, -1 ]
    },
    {
      "name" : "L_EdgeBottom",
      "translation" : [ 0, -0.75, -0 ],
      "rotation" : [ -0, -0, 0, -1 ]
    },
    {
      "name" : "L_HandleBottom",
      "translation" : [ 0, -0.2, -0 ],
      "rotation" : [ -0, -0, 0, -1 ]
    }
  ],
  "skins" : [
    {
      "inverseBindMatrices" : 0,
      "skeleton" : 1,
      "joints" : [
        1,2,3,4,5
      ]
    }
  ],
  "materials" : [
    {
      "name" : "M_CH_WP21_AZ00_00",
      "pbrMetallicRoughness" : {
        "baseColorFactor" : [ 0.3, 0.3, 0.3, 1.0 ],
        "metallicFactor" : 0.1,
        "roughnessFactor" : 0.5
      }
    },
    {
      "name" : "M_CH_WP21_AZ00_00_Sphere",
      "pbrMetallicRoughness" : {
        "baseColorFactor" : [ 0.9, 0.3, 0.3, 1.0 ],
        "metallicFactor" : 0.1,
        "roughnessFactor" : 0.5
      }
    }
  ],
  "meshes" : [
    {
      "primitives" : [
        {
          "attributes" : {
            "POSITION" : 2,
            "NORMAL" : 3,
            "TANGENT" : 4,
            "COLOR_0" : 5,
            "JOINTS_0" : 6,
            "WEIGHTS_0" : 7,
            "TEXCOORD_0" : 8,
            "TEXCOORD_1" : 9
          },
          "indices" : 1,
          "material" : 0
        },
        {
          "attributes" : {
            "POSITION" : 11,
            "NORMAL" : 12,
            "TANGENT" : 13,
            "COLOR_0" : 14,
            "JOINTS_0" : 15,
            "WEIGHTS_0" : 16,
            "TEXCOORD_0" : 17,
            "TEXCOORD_1" : 18
          },
          "indices" : 10,
          "material" : 1
        }
      ],
      "name" : "SK_CH_WP21_AZ00"
    }
  ],
  "buffers" : [
    {
      "uri" : "SK_CH_WP21_AZ00.bin",
      "byteLength" : 1035800
    }
  ],
  "bufferViews" : [
    {
      "buffer" : 0,
      "byteOffset" : 0,
      "byteLength" : 320
    },
    {
      "buffer" : 0,
      "byteOffset" : 320,
      "byteLength" : 78792
    },
    {
      "buffer" : 0,
      "byteOffset" : 79112,
      "byteLength" : 155772
    },
    {
      "buffer" : 0,
      "byteOffset" : 234884,
      "byteLength" : 155772
    },
    {
      "buffer" : 0,
      "byteOffset" : 390656,
      "byteLength" : 207696
    },
    {
      "buffer" : 0,
      "byteOffset" : 598352,
      "byteLength" : 51924
    },
    {
      "buffer" : 0,
      "byteOffset" : 650276,
      "byteLength" : 103848
    },
    {
      "buffer" : 0,
      "byteOffset" : 754124,
      "byteLength" : 51924
    },
    {
      "buffer" : 0,
      "byteOffset" : 806048,
      "byteLength" : 103848
    },
    {
      "buffer" : 0,
      "byteOffset" : 909896,
      "byteLength" : 103848
    },
    {
      "buffer" : 0,
      "byteOffset" : 1013744,
      "byteLength" : 2616
    },
    {
      "buffer" : 0,
      "byteOffset" : 1016360,
      "byteLength" : 3240
    },
    {
      "buffer" : 0,
      "byteOffset" : 1019600,
      "byteLength" : 3240
    },
    {
      "buffer" : 0,
      "byteOffset" : 1022840,
      "byteLength" : 4320
    },
    {
      "buffer" : 0,
      "byteOffset" : 1027160,
      "byteLength" : 1080
    },
    {
      "buffer" : 0,
      "byteOffset" : 1028240,
      "byteLength" : 2160
    },
    {
      "buffer" : 0,
      "byteOffset" : 1030400,
      "byteLength" : 1080
    },
    {
      "buffer" : 0,
      "byteOffset" : 1031480,
      "byteLength" : 2160
    },
    {
      "buffer" : 0,
      "byteOffset" : 1033640,
      "byteLength" : 2160
    }
  ],
  "accessors" : [
    {
      "bufferView" : 0,
      "componentType" : 5126,
      "count" : 5,
      "type" : "MAT4"
    },
    {
      "bufferView" : 1,
      "componentType" : 5123,
      "count" : 39396,
      "type" : "SCALAR"
    },
    {
      "bufferView" : 2,
      "min" : [ -0.188662, -0.846612, -0.103069 ],
      "max" : [ 0.193347, 0.418006, 0.0479623 ],
      "componentType" : 5126,
      "count" : 12981,
      "type" : "VEC3"
    },
    {
      "bufferView" : 3,
      "componentType" : 5126,
      "count" : 12981,
      "type" : "VEC3"
    },
    {
      "bufferView" : 4,
      "componentType" : 5126,
      "count" : 12981,
      "type" : "VEC4"
    },
    {
      "bufferView" : 5,
      "normalized" : true,
      "componentType" : 5121,
      "count" : 12981,
      "type" : "VEC4"
    },
    {
      "bufferView" : 6,
      "componentType" : 5123,
      "count" : 12981,
      "type" : "VEC4"
    },
    {
      "bufferView" : 7,
      "normalized" : true,
      "componentType" : 5121,
      "count" : 12981,
      "type" : "VEC4"
    },
    {
      "bufferView" : 8,
      "componentType" : 5126,
      "count" : 12981,
      "type" : "VEC2"
    },
    {
      "bufferView" : 9,
      "componentType" : 5126,
      "count" : 12981,
      "type" : "VEC2"
    },
    {
      "bufferView" : 10,
      "componentType" : 5123,
      "count" : 1308,
      "type" : "SCALAR"
    },
    {
      "bufferView" : 11,
      "min" : [ -0.0283455, -0.485741, -0.0283539 ],
      "max" : [ 0.0383457, -0.41879, 0.0378899 ],
      "componentType" : 5126,
      "count" : 270,
      "type" : "VEC3"
    },
    {
      "bufferView" : 12,
      "componentType" : 5126,
      "count" : 270,
      "type" : "VEC3"
    },
    {
      "bufferView" : 13,
      "componentType" : 5126,
      "count" : 270,
      "type" : "VEC4"
    },
    {
      "bufferView" : 14,
      "normalized" : true,
      "componentType" : 5121,
      "count" : 270,
      "type" : "VEC4"
    },
    {
      "bufferView" : 15,
      "componentType" : 5123,
      "count" : 270,
      "type" : "VEC4"
    },
    {
      "bufferView" : 16,
      "normalized" : true,
      "componentType" : 5121,
      "count" : 270,
      "type" : "VEC4"
    },
    {
      "bufferView" : 17,
      "componentType" : 5126,
      "count" : 270,
      "type" : "VEC2"
    },
    {
      "bufferView" : 18,
      "componentType" : 5126,
      "count" : 270,
      "type" : "VEC2"
    }
  ]
}
