{
  "asset" : {
    "generator" : "UE Viewer (umodel) build 1579 based",
    "version" : "2.0"
  },
  "scene" : 0,
  "scenes" : [
    {
      "nodes" : [ 0 ]
    }
  ],
  "nodes" : [
    {
      "name" : "SK_CH_WP06_AS00_ball",
      "mesh" : 0,
      "skin" : 0,
      "children" : [ 1 ]
    },
    {
      "name" : "Root_J",
      "translation" : [ 0, 0, 0 ],
      "rotation" : [ -0, -0, -0, 1 ]
    }
  ],
  "skins" : [
    {
      "inverseBindMatrices" : 0,
      "skeleton" : 1,
      "joints" : [
        1
      ]
    }
  ],
  "materials" : [
    {
      "name" : "M_CH_WP06_AS00_00_Ble_ball",
      "pbrMetallicRoughness" : {
        "baseColorFactor" : [ 0.3, 0.3, 0.3, 1.0 ],
        "metallicFactor" : 0.1,
        "roughnessFactor" : 0.5
      }
    },
    {
      "name" : "M_CH_WP06_AS00_00_ball",
      "pbrMetallicRoughness" : {
        "baseColorFactor" : [ 0.9, 0.3, 0.3, 1.0 ],
        "metallicFactor" : 0.1,
        "roughnessFactor" : 0.5
      }
    }
  ],
  "meshes" : [
    {
      "primitives" : [
        {
          "attributes" : {
            "POSITION" : 2,
            "NORMAL" : 3,
            "TANGENT" : 4,
            "COLOR_0" : 5,
            "JOINTS_0" : 6,
            "WEIGHTS_0" : 7,
            "TEXCOORD_0" : 8,
            "TEXCOORD_1" : 9
          },
          "indices" : 1,
          "material" : 0
        },
        {
          "attributes" : {
            "POSITION" : 11,
            "NORMAL" : 12,
            "TANGENT" : 13,
            "COLOR_0" : 14,
            "JOINTS_0" : 15,
            "WEIGHTS_0" : 16,
            "TEXCOORD_0" : 17,
            "TEXCOORD_1" : 18
          },
          "indices" : 10,
          "material" : 1
        }
      ],
      "name" : "SK_CH_WP06_AS00_ball"
    }
  ],
  "buffers" : [
    {
      "uri" : "SK_CH_WP06_AS00_ball.bin",
      "byteLength" : 297800
    }
  ],
  "bufferViews" : [
    {
      "buffer" : 0,
      "byteOffset" : 0,
      "byteLength" : 64
    },
    {
      "buffer" : 0,
      "byteOffset" : 64,
      "byteLength" : 3764
    },
    {
      "buffer" : 0,
      "byteOffset" : 3828,
      "byteLength" : 9732
    },
    {
      "buffer" : 0,
      "byteOffset" : 13560,
      "byteLength" : 9732
    },
    {
      "buffer" : 0,
      "byteOffset" : 23292,
      "byteLength" : 12976
    },
    {
      "buffer" : 0,
      "byteOffset" : 36268,
      "byteLength" : 3244
    },
    {
      "buffer" : 0,
      "byteOffset" : 39512,
      "byteLength" : 6488
    },
    {
      "buffer" : 0,
      "byteOffset" : 46000,
      "byteLength" : 3244
    },
    {
      "buffer" : 0,
      "byteOffset" : 49244,
      "byteLength" : 6488
    },
    {
      "buffer" : 0,
      "byteOffset" : 55732,
      "byteLength" : 6488
    },
    {
      "buffer" : 0,
      "byteOffset" : 62220,
      "byteLength" : 16700
    },
    {
      "buffer" : 0,
      "byteOffset" : 78920,
      "byteLength" : 36480
    },
    {
      "buffer" : 0,
      "byteOffset" : 115400,
      "byteLength" : 36480
    },
    {
      "buffer" : 0,
      "byteOffset" : 151880,
      "byteLength" : 48640
    },
    {
      "buffer" : 0,
      "byteOffset" : 200520,
      "byteLength" : 12160
    },
    {
      "buffer" : 0,
      "byteOffset" : 212680,
      "byteLength" : 24320
    },
    {
      "buffer" : 0,
      "byteOffset" : 237000,
      "byteLength" : 12160
    },
    {
      "buffer" : 0,
      "byteOffset" : 249160,
      "byteLength" : 24320
    },
    {
      "buffer" : 0,
      "byteOffset" : 273480,
      "byteLength" : 24320
    }
  ],
  "accessors" : [
    {
      "bufferView" : 0,
      "componentType" : 5126,
      "count" : 1,
      "type" : "MAT4"
    },
    {
      "bufferView" : 1,
      "componentType" : 5123,
      "count" : 1881,
      "type" : "SCALAR"
    },
    {
      "bufferView" : 2,
      "min" : [ -0.286956, -0.468951, 0.137617 ],
      "max" : [ 0.167503, 0.161741, 0.272391 ],
      "componentType" : 5126,
      "count" : 811,
      "type" : "VEC3"
    },
    {
      "bufferView" : 3,
      "componentType" : 5126,
      "count" : 811,
      "type" : "VEC3"
    },
    {
      "bufferView" : 4,
      "componentType" : 5126,
      "count" : 811,
      "type" : "VEC4"
    },
    {
      "bufferView" : 5,
      "normalized" : true,
      "componentType" : 5121,
      "count" : 811,
      "type" : "VEC4"
    },
    {
      "bufferView" : 6,
      "componentType" : 5123,
      "count" : 811,
      "type" : "VEC4"
    },
    {
      "bufferView" : 7,
      "normalized" : true,
      "componentType" : 5121,
      "count" : 811,
      "type" : "VEC4"
    },
    {
      "bufferView" : 8,
      "componentType" : 5126,
      "count" : 811,
      "type" : "VEC2"
    },
    {
      "bufferView" : 9,
      "componentType" : 5126,
      "count" : 811,
      "type" : "VEC2"
    },
    {
      "bufferView" : 10,
      "componentType" : 5123,
      "count" : 8349,
      "type" : "SCALAR"
    },
    {
      "bufferView" : 11,
      "min" : [ -0.274459, -0.489433, -0.275507 ],
      "max" : [ 0.274459, 0.274459, 0.286745 ],
      "componentType" : 5126,
      "count" : 3040,
      "type" : "VEC3"
    },
    {
      "bufferView" : 12,
      "componentType" : 5126,
      "count" : 3040,
      "type" : "VEC3"
    },
    {
      "bufferView" : 13,
      "componentType" : 5126,
      "count" : 3040,
      "type" : "VEC4"
    },
    {
      "bufferView" : 14,
      "normalized" : true,
      "componentType" : 5121,
      "count" : 3040,
      "type" : "VEC4"
    },
    {
      "bufferView" : 15,
      "componentType" : 5123,
      "count" : 3040,
      "type" : "VEC4"
    },
    {
      "bufferView" : 16,
      "normalized" : true,
      "componentType" : 5121,
      "count" : 3040,
      "type" : "VEC4"
    },
    {
      "bufferView" : 17,
      "componentType" : 5126,
      "count" : 3040,
      "type" : "VEC2"
    },
    {
      "bufferView" : 18,
      "componentType" : 5126,
      "count" : 3040,
      "type" : "VEC2"
    }
  ]
}
