{
  "asset" : {
    "generator" : "UE Viewer (umodel) build 1579 based",
    "version" : "2.0"
  },
  "scene" : 0,
  "scenes" : [
    {
      "nodes" : [ 0 ]
    }
  ],
  "nodes" : [
    {
      "name" : "SK_CH_WP06_AS00",
      "mesh" : 0,
      "skin" : 0,
      "children" : [ 1 ]
    },
    {
      "name" : "Root_J",
      "children" : [ 2 ],
      "translation" : [ 0, 0, 0 ],
      "rotation" : [ -0, -0, -0, 1 ]
    },
    {
      "name" : "GripPoint_J",
      "children" : [ 3 ],
      "translation" : [ 0, -0.04, -0 ],
      "rotation" : [ -0, -0, 0, -1 ]
    },
    {
      "name" : "GripPivot_J",
      "children" : [ 4 ],
      "translation" : [ 0, -0.05, -0 ],
      "rotation" : [ -0, -0, 0, -1 ]
    },
    {
      "name" : "Center_J",
      "children" : [ 5, 6, 7, 8, 9 ],
      "translation" : [ 0.097, -0.195, -0 ],
      "rotation" : [ -0, -0, 0, -1 ]
    },
    {
      "name" : "R_EdgeTop",
      "translation" : [ -5.77521e-06, 0.867455, -0 ],
      "rotation" : [ -0, -0, 0.707082, -0.707132 ]
    },
    {
      "name" : "R_EdgeBottom",
      "translation" : [ 0, 0.651902, -0 ],
      "rotation" : [ -0, -0, 0, -1 ]
    },
    {
      "name" : "R_HandleBottom",
      "translation" : [ 0, -0.673485, -0 ],
      "rotation" : [ -0, -0, 0, -1 ]
    },
    {
      "name" : "LowerSlide_J",
      "translation" : [ 0, -0.523376, -0 ],
      "rotation" : [ -0, -0, 0, -1 ]
    },
    {
      "name" : "Hinge_J",
      "children" : [ 10 ],
      "translation" : [ 0.0253733, 0.494272, -0 ],
      "rotation" : [ -0, -0, 0, -1 ]
    },
    {
      "name" : "HingeSlide_J",
      "children" : [ 11, 13 ],
      "translation" : [ 7.10543e-17, 0, -0 ],
      "rotation" : [ -0, -0, 0, -1 ]
    },
    {
      "name" : "HammerRoot_J",
      "children" : [ 12 ],
      "translation" : [ 0.103445, 0.267073, -1.26893e-08 ],
      "rotation" : [ -0, -0, -0.257344, -0.96632 ]
    },
    {
      "name" : "Hammer_J",
      "translation" : [ -1.42109e-16, 0.259004, -1.93739e-09 ],
      "rotation" : [ 3.25475e-08, 1.61878e-08, 5.54627e-16, -1 ]
    },
    {
      "name" : "SlideCover_J",
      "translation" : [ -0.050729, 0.150086, -0 ],
      "rotation" : [ -0, -0, 0, -1 ]
    }
  ],
  "skins" : [
    {
      "inverseBindMatrices" : 0,
      "skeleton" : 1,
      "joints" : [
        1,2,3,4,5,6,7,8,9,10,11,12,13
      ]
    }
  ],
  "materials" : [
    {
      "name" : "M_CH_WP06_AS00_00_Ble_ball",
      "pbrMetallicRoughness" : {
        "baseColorFactor" : [ 0.3, 0.3, 0.3, 1.0 ],
        "metallicFactor" : 0.1,
        "roughnessFactor" : 0.5
      }
    },
    {
      "name" : "M_CH_WP06_AS00_00_ball",
      "pbrMetallicRoughness" : {
        "baseColorFactor" : [ 0.9, 0.3, 0.3, 1.0 ],
        "metallicFactor" : 0.1,
        "roughnessFactor" : 0.5
      }
    },
    {
      "name" : "M_CH_WP06_AS00_00",
      "pbrMetallicRoughness" : {
        "baseColorFactor" : [ 0.3, 0.9, 0.3, 1.0 ],
        "metallicFactor" : 0.1,
        "roughnessFactor" : 0.5
      }
    }
  ],
  "meshes" : [
    {
      "primitives" : [
        {
          "attributes" : {
            "POSITION" : 2,
            "NORMAL" : 3,
            "TANGENT" : 4,
            "COLOR_0" : 5,
            "JOINTS_0" : 6,
            "WEIGHTS_0" : 7,
            "TEXCOORD_0" : 8,
            "TEXCOORD_1" : 9
          },
          "indices" : 1,
          "material" : 0
        },
        {
          "attributes" : {
            "POSITION" : 11,
            "NORMAL" : 12,
            "TANGENT" : 13,
            "COLOR_0" : 14,
            "JOINTS_0" : 15,
            "WEIGHTS_0" : 16,
            "TEXCOORD_0" : 17,
            "TEXCOORD_1" : 18
          },
          "indices" : 10,
          "material" : 1
        },
        {
          "attributes" : {
            "POSITION" : 20,
            "NORMAL" : 21,
            "TANGENT" : 22,
            "COLOR_0" : 23,
            "JOINTS_0" : 24,
            "WEIGHTS_0" : 25,
            "TEXCOORD_0" : 26,
            "TEXCOORD_1" : 27
          },
          "indices" : 19,
          "material" : 2
        }
      ],
      "name" : "SK_CH_WP06_AS00"
    }
  ],
  "buffers" : [
    {
      "uri" : "SK_CH_WP06_AS00.bin",
      "byteLength" : 673252
    }
  ],
  "bufferViews" : [
    {
      "buffer" : 0,
      "byteOffset" : 0,
      "byteLength" : 832
    },
    {
      "buffer" : 0,
      "byteOffset" : 832,
      "byteLength" : 3764
    },
    {
      "buffer" : 0,
      "byteOffset" : 4596,
      "byteLength" : 9732
    },
    {
      "buffer" : 0,
      "byteOffset" : 14328,
      "byteLength" : 9732
    },
    {
      "buffer" : 0,
      "byteOffset" : 24060,
      "byteLength" : 12976
    },
    {
      "buffer" : 0,
      "byteOffset" : 37036,
      "byteLength" : 3244
    },
    {
      "buffer" : 0,
      "byteOffset" : 40280,
      "byteLength" : 6488
    },
    {
      "buffer" : 0,
      "byteOffset" : 46768,
      "byteLength" : 3244
    },
    {
      "buffer" : 0,
      "byteOffset" : 50012,
      "byteLength" : 6488
    },
    {
      "buffer" : 0,
      "byteOffset" : 56500,
      "byteLength" : 6488
    },
    {
      "buffer" : 0,
      "byteOffset" : 62988,
      "byteLength" : 16700
    },
    {
      "buffer" : 0,
      "byteOffset" : 79688,
      "byteLength" : 36480
    },
    {
      "buffer" : 0,
      "byteOffset" : 116168,
      "byteLength" : 36480
    },
    {
      "buffer" : 0,
      "byteOffset" : 152648,
      "byteLength" : 48640
    },
    {
      "buffer" : 0,
      "byteOffset" : 201288,
      "byteLength" : 12160
    },
    {
      "buffer" : 0,
      "byteOffset" : 213448,
      "byteLength" : 24320
    },
    {
      "buffer" : 0,
      "byteOffset" : 237768,
      "byteLength" : 12160
    },
    {
      "buffer" : 0,
      "byteOffset" : 249928,
      "byteLength" : 24320
    },
    {
      "buffer" : 0,
      "byteOffset" : 274248,
      "byteLength" : 24320
    },
    {
      "buffer" : 0,
      "byteOffset" : 298568,
      "byteLength" : 23324
    },
    {
      "buffer" : 0,
      "byteOffset" : 321892,
      "byteLength" : 58560
    },
    {
      "buffer" : 0,
      "byteOffset" : 380452,
      "byteLength" : 58560
    },
    {
      "buffer" : 0,
      "byteOffset" : 439012,
      "byteLength" : 78080
    },
    {
      "buffer" : 0,
      "byteOffset" : 517092,
      "byteLength" : 19520
    },
    {
      "buffer" : 0,
      "byteOffset" : 536612,
      "byteLength" : 39040
    },
    {
      "buffer" : 0,
      "byteOffset" : 575652,
      "byteLength" : 19520
    },
    {
      "buffer" : 0,
      "byteOffset" : 595172,
      "byteLength" : 39040
    },
    {
      "buffer" : 0,
      "byteOffset" : 634212,
      "byteLength" : 39040
    }
  ],
  "accessors" : [
    {
      "bufferView" : 0,
      "componentType" : 5126,
      "count" : 13,
      "type" : "MAT4"
    },
    {
      "bufferView" : 1,
      "componentType" : 5123,
      "count" : 1881,
      "type" : "SCALAR"
    },
    {
      "bufferView" : 2,
      "min" : [ -0.189955, 0.232093, 0.137617 ],
      "max" : [ 0.264505, 0.862785, 0.272391 ],
      "componentType" : 5126,
      "count" : 811,
      "type" : "VEC3"
    },
    {
      "bufferView" : 3,
      "componentType" : 5126,
      "count" : 811,
      "type" : "VEC3"
    },
    {
      "bufferView" : 4,
      "componentType" : 5126,
      "count" : 811,
      "type" : "VEC4"
    },
    {
      "bufferView" : 5,
      "normalized" : true,
      "componentType" : 5121,
      "count" : 811,
      "type" : "VEC4"
    },
    {
      "bufferView" : 6,
      "componentType" : 5123,
      "count" : 811,
      "type" : "VEC4"
    },
    {
      "bufferView" : 7,
      "normalized" : true,
      "componentType" : 5121,
      "count" : 811,
      "type" : "VEC4"
    },
    {
      "bufferView" : 8,
      "componentType" : 5126,
      "count" : 811,
      "type" : "VEC2"
    },
    {
      "bufferView" : 9,
      "componentType" : 5126,
      "count" : 811,
      "type" : "VEC2"
    },
    {
      "bufferView" : 10,
      "componentType" : 5123,
      "count" : 8349,
      "type" : "SCALAR"
    },
    {
      "bufferView" : 11,
      "min" : [ -0.177457, 0.211611, -0.275507 ],
      "max" : [ 0.371461, 0.975502, 0.286745 ],
      "componentType" : 5126,
      "count" : 3040,
      "type" : "VEC3"
    },
    {
      "bufferView" : 12,
      "componentType" : 5126,
      "count" : 3040,
      "type" : "VEC3"
    },
    {
      "bufferView" : 13,
      "componentType" : 5126,
      "count" : 3040,
      "type" : "VEC4"
    },
    {
      "bufferView" : 14,
      "normalized" : true,
      "componentType" : 5121,
      "count" : 3040,
      "type" : "VEC4"
    },
    {
      "bufferView" : 15,
      "componentType" : 5123,
      "count" : 3040,
      "type" : "VEC4"
    },
    {
      "bufferView" : 16,
      "normalized" : true,
      "componentType" : 5121,
      "count" : 3040,
      "type" : "VEC4"
    },
    {
      "bufferView" : 17,
      "componentType" : 5126,
      "count" : 3040,
      "type" : "VEC2"
    },
    {
      "bufferView" : 18,
      "componentType" : 5126,
      "count" : 3040,
      "type" : "VEC2"
    },
    {
      "bufferView" : 19,
      "componentType" : 5123,
      "count" : 11661,
      "type" : "SCALAR"
    },
    {
      "bufferView" : 20,
      "min" : [ -0.0335386, -1.04488, -0.215135 ],
      "max" : [ 0.482805, 0.738194, 0.215135 ],
      "componentType" : 5126,
      "count" : 4880,
      "type" : "VEC3"
    },
    {
      "bufferView" : 21,
      "componentType" : 5126,
      "count" : 4880,
      "type" : "VEC3"
    },
    {
      "bufferView" : 22,
      "componentType" : 5126,
      "count" : 4880,
      "type" : "VEC4"
    },
    {
      "bufferView" : 23,
      "normalized" : true,
      "componentType" : 5121,
      "count" : 4880,
      "type" : "VEC4"
    },
    {
      "bufferView" : 24,
      "componentType" : 5123,
      "count" : 4880,
      "type" : "VEC4"
    },
    {
      "bufferView" : 25,
      "normalized" : true,
      "componentType" : 5121,
      "count" : 4880,
      "type" : "VEC4"
    },
    {
      "bufferView" : 26,
      "componentType" : 5126,
      "count" : 4880,
      "type" : "VEC2"
    },
    {
      "bufferView" : 27,
      "componentType" : 5126,
      "count" : 4880,
      "type" : "VEC2"
    }
  ]
}
