{
  "asset" : {
    "generator" : "UE Viewer (umodel) build 1579 based",
    "version" : "2.0"
  },
  "scene" : 0,
  "scenes" : [
    {
      "nodes" : [ 0 ]
    }
  ],
  "nodes" : [
    {
      "name" : "SK_CH_WP06_AV00",
      "mesh" : 0,
      "skin" : 0,
      "children" : [ 1 ]
    },
    {
      "name" : "Root_J",
      "children" : [ 2 ],
      "translation" : [ 0, 0, 0 ],
      "rotation" : [ -0, -0, -0, 1 ]
    },
    {
      "name" : "GripPoint_J",
      "children" : [ 3 ],
      "translation" : [ 0, -0.04, -0 ],
      "rotation" : [ -0, -0, 0, -1 ]
    },
    {
      "name" : "GripPivot_J",
      "children" : [ 4 ],
      "translation" : [ 0, -0.05, -0 ],
      "rotation" : [ -0, -0, 0, -1 ]
    },
    {
      "name" : "Center_J",
      "children" : [ 5, 6, 7, 8, 9 ],
      "translation" : [ 0.097, -0.195, -0 ],
      "rotation" : [ -0, -0, 0, -1 ]
    },
    {
      "name" : "R_EdgeTop",
      "translation" : [ -5.77521e-06, 0.867455, -0 ],
      "rotation" : [ -0, -0, 0.707082, -0.707132 ]
    },
    {
      "name" : "R_EdgeBottom",
      "translation" : [ 0, 0.651902, -0 ],
      "rotation" : [ -0, -0, 0, -1 ]
    },
    {
      "name" : "R_HandleBottom",
      "translation" : [ 0, -0.673485, -0 ],
      "rotation" : [ -0, -0, 0, -1 ]
    },
    {
      "name" : "LowerSlide_J",
      "translation" : [ 0, -0.523376, -0 ],
      "rotation" : [ -0, -0, 0, -1 ]
    },
    {
      "name" : "Hinge_J",
      "children" : [ 10 ],
      "translation" : [ 0.0253733, 0.4943, -0 ],
      "rotation" : [ -0, -0, 0, -1 ]
    },
    {
      "name" : "HingeSlide_J",
      "children" : [ 11, 13 ],
      "translation" : [ 0, 0, -0 ],
      "rotation" : [ -0, -0, 0, -1 ]
    },
    {
      "name" : "HammerRoot_J",
      "children" : [ 12 ],
      "translation" : [ 0.103445, 0.267073, -1.26893e-08 ],
      "rotation" : [ -2.72853e-08, -7.26656e-09, -0.257348, -0.966319 ]
    },
    {
      "name" : "Hammer_J",
      "translation" : [ -7.10543e-17, 0.259004, -1.93739e-09 ],
      "rotation" : [ 2.5646e-16, -7.19598e-17, 1.05471e-15, -1 ]
    },
    {
      "name" : "SlideCover_J",
      "translation" : [ -0.050729, 0.150086, -0 ],
      "rotation" : [ -0, -0, 0.0846952, -0.996407 ]
    }
  ],
  "skins" : [
    {
      "inverseBindMatrices" : 0,
      "skeleton" : 1,
      "joints" : [
        1,2,3,4,5,6,7,8,9,10,11,12,13
      ]
    }
  ],
  "materials" : [
    {
      "name" : "M_CH_WP06_AV00_00_ball",
      "pbrMetallicRoughness" : {
        "baseColorFactor" : [ 0.3, 0.3, 0.3, 1.0 ],
        "metallicFactor" : 0.1,
        "roughnessFactor" : 0.5
      }
    },
    {
      "name" : "M_CH_WP06_AV00_00",
      "pbrMetallicRoughness" : {
        "baseColorFactor" : [ 0.9, 0.3, 0.3, 1.0 ],
        "metallicFactor" : 0.1,
        "roughnessFactor" : 0.5
      }
    }
  ],
  "meshes" : [
    {
      "primitives" : [
        {
          "attributes" : {
            "POSITION" : 2,
            "NORMAL" : 3,
            "TANGENT" : 4,
            "COLOR_0" : 5,
            "JOINTS_0" : 6,
            "WEIGHTS_0" : 7,
            "TEXCOORD_0" : 8,
            "TEXCOORD_1" : 9
          },
          "indices" : 1,
          "material" : 0
        },
        {
          "attributes" : {
            "POSITION" : 11,
            "NORMAL" : 12,
            "TANGENT" : 13,
            "COLOR_0" : 14,
            "JOINTS_0" : 15,
            "WEIGHTS_0" : 16,
            "TEXCOORD_0" : 17,
            "TEXCOORD_1" : 18
          },
          "indices" : 10,
          "material" : 1
        }
      ],
      "name" : "SK_CH_WP06_AV00"
    }
  ],
  "buffers" : [
    {
      "uri" : "SK_CH_WP06_AV00.bin",
      "byteLength" : 1192480
    }
  ],
  "bufferViews" : [
    {
      "buffer" : 0,
      "byteOffset" : 0,
      "byteLength" : 832
    },
    {
      "buffer" : 0,
      "byteOffset" : 832,
      "byteLength" : 21336
    },
    {
      "buffer" : 0,
      "byteOffset" : 22168,
      "byteLength" : 63192
    },
    {
      "buffer" : 0,
      "byteOffset" : 85360,
      "byteLength" : 63192
    },
    {
      "buffer" : 0,
      "byteOffset" : 148552,
      "byteLength" : 84256
    },
    {
      "buffer" : 0,
      "byteOffset" : 232808,
      "byteLength" : 21064
    },
    {
      "buffer" : 0,
      "byteOffset" : 253872,
      "byteLength" : 42128
    },
    {
      "buffer" : 0,
      "byteOffset" : 296000,
      "byteLength" : 21064
    },
    {
      "buffer" : 0,
      "byteOffset" : 317064,
      "byteLength" : 42128
    },
    {
      "buffer" : 0,
      "byteOffset" : 359192,
      "byteLength" : 42128
    },
    {
      "buffer" : 0,
      "byteOffset" : 401320,
      "byteLength" : 60000
    },
    {
      "buffer" : 0,
      "byteOffset" : 461320,
      "byteLength" : 121860
    },
    {
      "buffer" : 0,
      "byteOffset" : 583180,
      "byteLength" : 121860
    },
    {
      "buffer" : 0,
      "byteOffset" : 705040,
      "byteLength" : 162480
    },
    {
      "buffer" : 0,
      "byteOffset" : 867520,
      "byteLength" : 40620
    },
    {
      "buffer" : 0,
      "byteOffset" : 908140,
      "byteLength" : 81240
    },
    {
      "buffer" : 0,
      "byteOffset" : 989380,
      "byteLength" : 40620
    },
    {
      "buffer" : 0,
      "byteOffset" : 1030000,
      "byteLength" : 81240
    },
    {
      "buffer" : 0,
      "byteOffset" : 1111240,
      "byteLength" : 81240
    }
  ],
  "accessors" : [
    {
      "bufferView" : 0,
      "componentType" : 5126,
      "count" : 13,
      "type" : "MAT4"
    },
    {
      "bufferView" : 1,
      "componentType" : 5123,
      "count" : 10668,
      "type" : "SCALAR"
    },
    {
      "bufferView" : 2,
      "min" : [ -0.197925, 0.44834, -0.309149 ],
      "max" : [ 0.356386, 1.0204, 0.304655 ],
      "componentType" : 5126,
      "count" : 5266,
      "type" : "VEC3"
    },
    {
      "bufferView" : 3,
      "componentType" : 5126,
      "count" : 5266,
      "type" : "VEC3"
    },
    {
      "bufferView" : 4,
      "componentType" : 5126,
      "count" : 5266,
      "type" : "VEC4"
    },
    {
      "bufferView" : 5,
      "normalized" : true,
      "componentType" : 5121,
      "count" : 5266,
      "type" : "VEC4"
    },
    {
      "bufferView" : 6,
      "componentType" : 5123,
      "count" : 5266,
      "type" : "VEC4"
    },
    {
      "bufferView" : 7,
      "normalized" : true,
      "componentType" : 5121,
      "count" : 5266,
      "type" : "VEC4"
    },
    {
      "bufferView" : 8,
      "componentType" : 5126,
      "count" : 5266,
      "type" : "VEC2"
    },
    {
      "bufferView" : 9,
      "componentType" : 5126,
      "count" : 5266,
      "type" : "VEC2"
    },
    {
      "bufferView" : 10,
      "componentType" : 5123,
      "count" : 30000,
      "type" : "SCALAR"
    },
    {
      "bufferView" : 11,
      "min" : [ -0.0468814, -0.990732, -0.231372 ],
      "max" : [ 0.441724, 0.855078, 0.231372 ],
      "componentType" : 5126,
      "count" : 10155,
      "type" : "VEC3"
    },
    {
      "bufferView" : 12,
      "componentType" : 5126,
      "count" : 10155,
      "type" : "VEC3"
    },
    {
      "bufferView" : 13,
      "componentType" : 5126,
      "count" : 10155,
      "type" : "VEC4"
    },
    {
      "bufferView" : 14,
      "normalized" : true,
      "componentType" : 5121,
      "count" : 10155,
      "type" : "VEC4"
    },
    {
      "bufferView" : 15,
      "componentType" : 5123,
      "count" : 10155,
      "type" : "VEC4"
    },
    {
      "bufferView" : 16,
      "normalized" : true,
      "componentType" : 5121,
      "count" : 10155,
      "type" : "VEC4"
    },
    {
      "bufferView" : 17,
      "componentType" : 5126,
      "count" : 10155,
      "type" : "VEC2"
    },
    {
      "bufferView" : 18,
      "componentType" : 5126,
      "count" : 10155,
      "type" : "VEC2"
    }
  ]
}
