{
  "asset" : {
    "generator" : "UE Viewer (umodel) build 1579 based",
    "version" : "2.0"
  },
  "scene" : 0,
  "scenes" : [
    {
      "nodes" : [ 0 ]
    }
  ],
  "nodes" : [
    {
      "name" : "SK_CH_WP06_AV00_ball",
      "mesh" : 0,
      "skin" : 0,
      "children" : [ 1 ]
    },
    {
      "name" : "Root_J",
      "translation" : [ 0, 0, 0 ],
      "rotation" : [ -0, -0, -0, 1 ]
    }
  ],
  "skins" : [
    {
      "inverseBindMatrices" : 0,
      "skeleton" : 1,
      "joints" : [
        1
      ]
    }
  ],
  "materials" : [
    {
      "name" : "M_CH_WP06_AV00_00_ball",
      "pbrMetallicRoughness" : {
        "baseColorFactor" : [ 0.3, 0.3, 0.3, 1.0 ],
        "metallicFactor" : 0.1,
        "roughnessFactor" : 0.5
      }
    }
  ],
  "meshes" : [
    {
      "primitives" : [
        {
          "attributes" : {
            "POSITION" : 2,
            "NORMAL" : 3,
            "TANGENT" : 4,
            "COLOR_0" : 5,
            "JOINTS_0" : 6,
            "WEIGHTS_0" : 7,
            "TEXCOORD_0" : 8,
            "TEXCOORD_1" : 9
          },
          "indices" : 1,
          "material" : 0
        }
      ],
      "name" : "SK_CH_WP06_AV00_ball"
    }
  ],
  "buffers" : [
    {
      "uri" : "SK_CH_WP06_AV00_ball.bin",
      "byteLength" : 400552
    }
  ],
  "bufferViews" : [
    {
      "buffer" : 0,
      "byteOffset" : 0,
      "byteLength" : 64
    },
    {
      "buffer" : 0,
      "byteOffset" : 64,
      "byteLength" : 21336
    },
    {
      "buffer" : 0,
      "byteOffset" : 21400,
      "byteLength" : 63192
    },
    {
      "buffer" : 0,
      "byteOffset" : 84592,
      "byteLength" : 63192
    },
    {
      "buffer" : 0,
      "byteOffset" : 147784,
      "byteLength" : 84256
    },
    {
      "buffer" : 0,
      "byteOffset" : 232040,
      "byteLength" : 21064
    },
    {
      "buffer" : 0,
      "byteOffset" : 253104,
      "byteLength" : 42128
    },
    {
      "buffer" : 0,
      "byteOffset" : 295232,
      "byteLength" : 21064
    },
    {
      "buffer" : 0,
      "byteOffset" : 316296,
      "byteLength" : 42128
    },
    {
      "buffer" : 0,
      "byteOffset" : 358424,
      "byteLength" : 42128
    }
  ],
  "accessors" : [
    {
      "bufferView" : 0,
      "componentType" : 5126,
      "count" : 1,
      "type" : "MAT4"
    },
    {
      "bufferView" : 1,
      "componentType" : 5123,
      "count" : 10668,
      "type" : "SCALAR"
    },
    {
      "bufferView" : 2,
      "min" : [ -0.294925, -0.25273, -0.309149 ],
      "max" : [ 0.259386, 0.319331, 0.304655 ],
      "componentType" : 5126,
      "count" : 5266,
      "type" : "VEC3"
    },
    {
      "bufferView" : 3,
      "componentType" : 5126,
      "count" : 5266,
      "type" : "VEC3"
    },
    {
      "bufferView" : 4,
      "componentType" : 5126,
      "count" : 5266,
      "type" : "VEC4"
    },
    {
      "bufferView" : 5,
      "normalized" : true,
      "componentType" : 5121,
      "count" : 5266,
      "type" : "VEC4"
    },
    {
      "bufferView" : 6,
      "componentType" : 5123,
      "count" : 5266,
      "type" : "VEC4"
    },
    {
      "bufferView" : 7,
      "normalized" : true,
      "componentType" : 5121,
      "count" : 5266,
      "type" : "VEC4"
    },
    {
      "bufferView" : 8,
      "componentType" : 5126,
      "count" : 5266,
      "type" : "VEC2"
    },
    {
      "bufferView" : 9,
      "componentType" : 5126,
      "count" : 5266,
      "type" : "VEC2"
    }
  ]
}
