{
  "asset" : {
    "generator" : "UE Viewer (umodel) build 1579 based",
    "version" : "2.0"
  },
  "scene" : 0,
  "scenes" : [
    {
      "nodes" : [ 0 ]
    }
  ],
  "nodes" : [
    {
      "name" : "SK_CH_WP07_AB01",
      "mesh" : 0,
      "skin" : 0,
      "children" : [ 1 ]
    },
    {
      "name" : "Root_J",
      "children" : [ 2 ],
      "translation" : [ 0, 0, 0 ],
      "rotation" : [ -0, -0, -0, 1 ]
    },
    {
      "name" : "Center_J",
      "children" : [ 3, 4, 5, 6, 8 ],
      "translation" : [ 0, -0.0205827, -0 ],
      "rotation" : [ -0, -0, 0, -1 ]
    },
    {
      "name" : "R_EdgeTop",
      "translation" : [ -9.96934e-06, 0.589328, -0 ],
      "rotation" : [ -0, -0, 0.707082, -0.707132 ]
    },
    {
      "name" : "R_EdgeBottom",
      "translation" : [ 0, 0.276665, -0 ],
      "rotation" : [ -0, -0, 0, -1 ]
    },
    {
      "name" : "R_HandleBottom",
      "translation" : [ 0, -0.592477, -0 ],
      "rotation" : [ -0, -0, 0, -1 ]
    },
    {
      "name" : "UpperCover_J",
      "children" : [ 7 ],
      "translation" : [ 0, 0.0850613, -0 ],
      "rotation" : [ -0, -0, 0, -1 ]
    },
    {
      "name" : "R_Discharge",
      "translation" : [ 1.82372e-05, 0.114109, 1.09354e-17 ],
      "rotation" : [ -2.16497e-17, -2.16481e-17, 0.707082, -0.707132 ]
    },
    {
      "name" : "LowerSlide_J",
      "translation" : [ 0, -0.262817, -0 ],
      "rotation" : [ -0, -0, 0, -1 ]
    }
  ],
  "skins" : [
    {
      "inverseBindMatrices" : 0,
      "skeleton" : 1,
      "joints" : [
        1,2,3,4,5,6,7,8
      ]
    }
  ],
  "materials" : [
    {
      "name" : "M_CH_WP07_AB01_00",
      "pbrMetallicRoughness" : {
        "baseColorFactor" : [ 0.3, 0.3, 0.3, 1.0 ],
        "metallicFactor" : 0.1,
        "roughnessFactor" : 0.5
      }
    }
  ],
  "meshes" : [
    {
      "primitives" : [
        {
          "attributes" : {
            "POSITION" : 2,
            "NORMAL" : 3,
            "TANGENT" : 4,
            "COLOR_0" : 5,
            "JOINTS_0" : 6,
            "WEIGHTS_0" : 7,
            "TEXCOORD_0" : 8,
            "TEXCOORD_1" : 9
          },
          "indices" : 1,
          "material" : 0
        }
      ],
      "name" : "SK_CH_WP07_AB01"
    }
  ],
  "buffers" : [
    {
      "uri" : "SK_CH_WP07_AB01.bin",
      "byteLength" : 600620
    }
  ],
  "bufferViews" : [
    {
      "buffer" : 0,
      "byteOffset" : 0,
      "byteLength" : 512
    },
    {
      "buffer" : 0,
      "byteOffset" : 512,
      "byteLength" : 36348
    },
    {
      "buffer" : 0,
      "byteOffset" : 36860,
      "byteLength" : 93960
    },
    {
      "buffer" : 0,
      "byteOffset" : 130820,
      "byteLength" : 93960
    },
    {
      "buffer" : 0,
      "byteOffset" : 224780,
      "byteLength" : 125280
    },
    {
      "buffer" : 0,
      "byteOffset" : 350060,
      "byteLength" : 31320
    },
    {
      "buffer" : 0,
      "byteOffset" : 381380,
      "byteLength" : 62640
    },
    {
      "buffer" : 0,
      "byteOffset" : 444020,
      "byteLength" : 31320
    },
    {
      "buffer" : 0,
      "byteOffset" : 475340,
      "byteLength" : 62640
    },
    {
      "buffer" : 0,
      "byteOffset" : 537980,
      "byteLength" : 62640
    }
  ],
  "accessors" : [
    {
      "bufferView" : 0,
      "componentType" : 5126,
      "count" : 8,
      "type" : "MAT4"
    },
    {
      "bufferView" : 1,
      "componentType" : 5123,
      "count" : 18174,
      "type" : "SCALAR"
    },
    {
      "bufferView" : 2,
      "min" : [ -0.110652, -0.627714, -0.0223604 ],
      "max" : [ 0.110652, 0.568748, 0.0223604 ],
      "componentType" : 5126,
      "count" : 7830,
      "type" : "VEC3"
    },
    {
      "bufferView" : 3,
      "componentType" : 5126,
      "count" : 7830,
      "type" : "VEC3"
    },
    {
      "bufferView" : 4,
      "componentType" : 5126,
      "count" : 7830,
      "type" : "VEC4"
    },
    {
      "bufferView" : 5,
      "normalized" : true,
      "componentType" : 5121,
      "count" : 7830,
      "type" : "VEC4"
    },
    {
      "bufferView" : 6,
      "componentType" : 5123,
      "count" : 7830,
      "type" : "VEC4"
    },
    {
      "bufferView" : 7,
      "normalized" : true,
      "componentType" : 5121,
      "count" : 7830,
      "type" : "VEC4"
    },
    {
      "bufferView" : 8,
      "componentType" : 5126,
      "count" : 7830,
      "type" : "VEC2"
    },
    {
      "bufferView" : 9,
      "componentType" : 5126,
      "count" : 7830,
      "type" : "VEC2"
    }
  ]
}
