{
  "asset" : {
    "generator" : "UE Viewer (umodel) build 1579 based",
    "version" : "2.0"
  },
  "scene" : 0,
  "scenes" : [
    {
      "nodes" : [ 0 ]
    }
  ],
  "nodes" : [
    {
      "name" : "SK_CH_WP07_AS00",
      "mesh" : 0,
      "skin" : 0,
      "children" : [ 1 ]
    },
    {
      "name" : "Root_J",
      "children" : [ 2 ],
      "translation" : [ 0, 0, 0 ],
      "rotation" : [ -0, -0, -0, 1 ]
    },
    {
      "name" : "Center_J",
      "children" : [ 3, 4, 5, 6, 8 ],
      "translation" : [ 0, -0.0205827, -0 ],
      "rotation" : [ -0, -0, 0, -1 ]
    },
    {
      "name" : "R_EdgeTop",
      "translation" : [ -4.68924e-06, 0.514818, -0 ],
      "rotation" : [ -0, -0, 0.707082, -0.707132 ]
    },
    {
      "name" : "R_EdgeBottom",
      "translation" : [ 0, 0.273963, -0 ],
      "rotation" : [ -0, -0, 0, -1 ]
    },
    {
      "name" : "R_HandleBottom",
      "translation" : [ 0, -0.592477, -0 ],
      "rotation" : [ -0, -0, 0, -1 ]
    },
    {
      "name" : "UpperCover_J",
      "children" : [ 7 ],
      "translation" : [ 0, 0.0771827, -0 ],
      "rotation" : [ -0, -0, 0, -1 ]
    },
    {
      "name" : "R_Discharge",
      "translation" : [ 1.82372e-05, 0.114109, -0 ],
      "rotation" : [ -0, -0, 0.707082, -0.707132 ]
    },
    {
      "name" : "LowerSlide_J",
      "translation" : [ 0, -0.262817, -0 ],
      "rotation" : [ -0, -0, 0, -1 ]
    }
  ],
  "skins" : [
    {
      "inverseBindMatrices" : 0,
      "skeleton" : 1,
      "joints" : [
        1,2,3,4,5,6,7,8
      ]
    }
  ],
  "materials" : [
    {
      "name" : "M_CH_WP07_AS00_00",
      "pbrMetallicRoughness" : {
        "baseColorFactor" : [ 0.3, 0.3, 0.3, 1.0 ],
        "metallicFactor" : 0.1,
        "roughnessFactor" : 0.5
      }
    },
    {
      "name" : "M_CH_WP07_AS00_00_Ble",
      "pbrMetallicRoughness" : {
        "baseColorFactor" : [ 0.9, 0.3, 0.3, 1.0 ],
        "metallicFactor" : 0.1,
        "roughnessFactor" : 0.5
      }
    }
  ],
  "meshes" : [
    {
      "primitives" : [
        {
          "attributes" : {
            "POSITION" : 2,
            "NORMAL" : 3,
            "TANGENT" : 4,
            "COLOR_0" : 5,
            "JOINTS_0" : 6,
            "WEIGHTS_0" : 7,
            "TEXCOORD_0" : 8,
            "TEXCOORD_1" : 9
          },
          "indices" : 1,
          "material" : 0
        },
        {
          "attributes" : {
            "POSITION" : 11,
            "NORMAL" : 12,
            "TANGENT" : 13,
            "COLOR_0" : 14,
            "JOINTS_0" : 15,
            "WEIGHTS_0" : 16,
            "TEXCOORD_0" : 17,
            "TEXCOORD_1" : 18
          },
          "indices" : 10,
          "material" : 1
        }
      ],
      "name" : "SK_CH_WP07_AS00"
    }
  ],
  "buffers" : [
    {
      "uri" : "SK_CH_WP07_AS00.bin",
      "byteLength" : 703580
    }
  ],
  "bufferViews" : [
    {
      "buffer" : 0,
      "byteOffset" : 0,
      "byteLength" : 512
    },
    {
      "buffer" : 0,
      "byteOffset" : 512,
      "byteLength" : 38964
    },
    {
      "buffer" : 0,
      "byteOffset" : 39476,
      "byteLength" : 100980
    },
    {
      "buffer" : 0,
      "byteOffset" : 140456,
      "byteLength" : 100980
    },
    {
      "buffer" : 0,
      "byteOffset" : 241436,
      "byteLength" : 134640
    },
    {
      "buffer" : 0,
      "byteOffset" : 376076,
      "byteLength" : 33660
    },
    {
      "buffer" : 0,
      "byteOffset" : 409736,
      "byteLength" : 67320
    },
    {
      "buffer" : 0,
      "byteOffset" : 477056,
      "byteLength" : 33660
    },
    {
      "buffer" : 0,
      "byteOffset" : 510716,
      "byteLength" : 67320
    },
    {
      "buffer" : 0,
      "byteOffset" : 578036,
      "byteLength" : 67320
    },
    {
      "buffer" : 0,
      "byteOffset" : 645356,
      "byteLength" : 3792
    },
    {
      "buffer" : 0,
      "byteOffset" : 649148,
      "byteLength" : 9072
    },
    {
      "buffer" : 0,
      "byteOffset" : 658220,
      "byteLength" : 9072
    },
    {
      "buffer" : 0,
      "byteOffset" : 667292,
      "byteLength" : 12096
    },
    {
      "buffer" : 0,
      "byteOffset" : 679388,
      "byteLength" : 3024
    },
    {
      "buffer" : 0,
      "byteOffset" : 682412,
      "byteLength" : 6048
    },
    {
      "buffer" : 0,
      "byteOffset" : 688460,
      "byteLength" : 3024
    },
    {
      "buffer" : 0,
      "byteOffset" : 691484,
      "byteLength" : 6048
    },
    {
      "buffer" : 0,
      "byteOffset" : 697532,
      "byteLength" : 6048
    }
  ],
  "accessors" : [
    {
      "bufferView" : 0,
      "componentType" : 5126,
      "count" : 8,
      "type" : "MAT4"
    },
    {
      "bufferView" : 1,
      "componentType" : 5123,
      "count" : 19482,
      "type" : "SCALAR"
    },
    {
      "bufferView" : 2,
      "min" : [ -0.140048, -0.613956, -0.0350812 ],
      "max" : [ 0.140048, 0.559339, 0.0350812 ],
      "componentType" : 5126,
      "count" : 8415,
      "type" : "VEC3"
    },
    {
      "bufferView" : 3,
      "componentType" : 5126,
      "count" : 8415,
      "type" : "VEC3"
    },
    {
      "bufferView" : 4,
      "componentType" : 5126,
      "count" : 8415,
      "type" : "VEC4"
    },
    {
      "bufferView" : 5,
      "normalized" : true,
      "componentType" : 5121,
      "count" : 8415,
      "type" : "VEC4"
    },
    {
      "bufferView" : 6,
      "componentType" : 5123,
      "count" : 8415,
      "type" : "VEC4"
    },
    {
      "bufferView" : 7,
      "normalized" : true,
      "componentType" : 5121,
      "count" : 8415,
      "type" : "VEC4"
    },
    {
      "bufferView" : 8,
      "componentType" : 5126,
      "count" : 8415,
      "type" : "VEC2"
    },
    {
      "bufferView" : 9,
      "componentType" : 5126,
      "count" : 8415,
      "type" : "VEC2"
    },
    {
      "bufferView" : 10,
      "componentType" : 5123,
      "count" : 1896,
      "type" : "SCALAR"
    },
    {
      "bufferView" : 11,
      "min" : [ -0.157356, 0.335648, -0.0213286 ],
      "max" : [ 0.157356, 0.57358, 0.0213286 ],
      "componentType" : 5126,
      "count" : 756,
      "type" : "VEC3"
    },
    {
      "bufferView" : 12,
      "componentType" : 5126,
      "count" : 756,
      "type" : "VEC3"
    },
    {
      "bufferView" : 13,
      "componentType" : 5126,
      "count" : 756,
      "type" : "VEC4"
    },
    {
      "bufferView" : 14,
      "normalized" : true,
      "componentType" : 5121,
      "count" : 756,
      "type" : "VEC4"
    },
    {
      "bufferView" : 15,
      "componentType" : 5123,
      "count" : 756,
      "type" : "VEC4"
    },
    {
      "bufferView" : 16,
      "normalized" : true,
      "componentType" : 5121,
      "count" : 756,
      "type" : "VEC4"
    },
    {
      "bufferView" : 17,
      "componentType" : 5126,
      "count" : 756,
      "type" : "VEC2"
    },
    {
      "bufferView" : 18,
      "componentType" : 5126,
      "count" : 756,
      "type" : "VEC2"
    }
  ]
}
