{
  "asset" : {
    "generator" : "UE Viewer (umodel) build 1579 based",
    "version" : "2.0"
  },
  "scene" : 0,
  "scenes" : [
    {
      "nodes" : [ 0 ]
    }
  ],
  "nodes" : [
    {
      "name" : "SK_CH_WP14_A_00",
      "mesh" : 0,
      "skin" : 0,
      "children" : [ 1 ]
    },
    {
      "name" : "Root_J",
      "children" : [ 2 ],
      "translation" : [ 0, 0, 0 ],
      "rotation" : [ -0, -0, -0, 1 ]
    },
    {
      "name" : "Center_J",
      "translation" : [ 0, 0, -0 ],
      "rotation" : [ -0, -0, 0, -1 ]
    }
  ],
  "skins" : [
    {
      "inverseBindMatrices" : 0,
      "skeleton" : 1,
      "joints" : [
        1,2
      ]
    }
  ],
  "materials" : [
    {
      "name" : "SK_CH_WP13_A_00_MA_A1",
      "pbrMetallicRoughness" : {
        "baseColorFactor" : [ 0.3, 0.3, 0.3, 1.0 ],
        "metallicFactor" : 0.1,
        "roughnessFactor" : 0.5
      }
    }
  ],
  "meshes" : [
    {
      "primitives" : [
        {
          "attributes" : {
            "POSITION" : 2,
            "NORMAL" : 3,
            "TANGENT" : 4,
            "COLOR_0" : 5,
            "JOINTS_0" : 6,
            "WEIGHTS_0" : 7,
            "TEXCOORD_0" : 8,
            "TEXCOORD_1" : 9,
            "TEXCOORD_2" : 10
          },
          "indices" : 1,
          "material" : 0
        }
      ],
      "name" : "SK_CH_WP14_A_00"
    }
  ],
  "buffers" : [
    {
      "uri" : "SK_CH_WP14_A_00.bin",
      "byteLength" : 428092
    }
  ],
  "bufferViews" : [
    {
      "buffer" : 0,
      "byteOffset" : 0,
      "byteLength" : 128
    },
    {
      "buffer" : 0,
      "byteOffset" : 128,
      "byteLength" : 28124
    },
    {
      "buffer" : 0,
      "byteOffset" : 28252,
      "byteLength" : 59976
    },
    {
      "buffer" : 0,
      "byteOffset" : 88228,
      "byteLength" : 59976
    },
    {
      "buffer" : 0,
      "byteOffset" : 148204,
      "byteLength" : 79968
    },
    {
      "buffer" : 0,
      "byteOffset" : 228172,
      "byteLength" : 19992
    },
    {
      "buffer" : 0,
      "byteOffset" : 248164,
      "byteLength" : 39984
    },
    {
      "buffer" : 0,
      "byteOffset" : 288148,
      "byteLength" : 19992
    },
    {
      "buffer" : 0,
      "byteOffset" : 308140,
      "byteLength" : 39984
    },
    {
      "buffer" : 0,
      "byteOffset" : 348124,
      "byteLength" : 39984
    },
    {
      "buffer" : 0,
      "byteOffset" : 388108,
      "byteLength" : 39984
    }
  ],
  "accessors" : [
    {
      "bufferView" : 0,
      "componentType" : 5126,
      "count" : 2,
      "type" : "MAT4"
    },
    {
      "bufferView" : 1,
      "componentType" : 5123,
      "count" : 14061,
      "type" : "SCALAR"
    },
    {
      "bufferView" : 2,
      "min" : [ -0.0432988, -0.0535196, -0.0202271 ],
      "max" : [ 0.238276, 0.125957, 0.0202271 ],
      "componentType" : 5126,
      "count" : 4998,
      "type" : "VEC3"
    },
    {
      "bufferView" : 3,
      "componentType" : 5126,
      "count" : 4998,
      "type" : "VEC3"
    },
    {
      "bufferView" : 4,
      "componentType" : 5126,
      "count" : 4998,
      "type" : "VEC4"
    },
    {
      "bufferView" : 5,
      "normalized" : true,
      "componentType" : 5121,
      "count" : 4998,
      "type" : "VEC4"
    },
    {
      "bufferView" : 6,
      "componentType" : 5123,
      "count" : 4998,
      "type" : "VEC4"
    },
    {
      "bufferView" : 7,
      "normalized" : true,
      "componentType" : 5121,
      "count" : 4998,
      "type" : "VEC4"
    },
    {
      "bufferView" : 8,
      "componentType" : 5126,
      "count" : 4998,
      "type" : "VEC2"
    },
    {
      "bufferView" : 9,
      "componentType" : 5126,
      "count" : 4998,
      "type" : "VEC2"
    },
    {
      "bufferView" : 10,
      "componentType" : 5126,
      "count" : 4998,
      "type" : "VEC2"
    }
  ]
}
