{
  "asset" : {
    "generator" : "UE Viewer (umodel) build 1579 based",
    "version" : "2.0"
  },
  "scene" : 0,
  "scenes" : [
    {
      "nodes" : [ 0 ]
    }
  ],
  "nodes" : [
    {
      "name" : "SK_CH_WP00_AA01",
      "mesh" : 0,
      "skin" : 0,
      "children" : [ 1 ]
    },
    {
      "name" : "Root_J",
      "children" : [ 2 ],
      "translation" : [ 0, 0, 0 ],
      "rotation" : [ -0, -0, -0, 1 ]
    },
    {
      "name" : "Center_J",
      "children" : [ 3, 4, 5 ],
      "translation" : [ 0, 0.305712, -0 ],
      "rotation" : [ -0, -1, 0, 9.38711e-15 ]
    },
    {
      "name" : "R_EdgeTop",
      "translation" : [ -0.285235, 0.542241, -5.35289e-15 ],
      "rotation" : [ -0, -0, 0, -1 ]
    },
    {
      "name" : "R_EdgeBottom",
      "translation" : [ -0.295933, -0.0515641, -5.55564e-15 ],
      "rotation" : [ -0, -0, 0, -1 ]
    },
    {
      "name" : "R_HandleBottom",
      "translation" : [ -0, -0.526925, -0 ],
      "rotation" : [ -0, -0, 0, -1 ]
    }
  ],
  "skins" : [
    {
      "inverseBindMatrices" : 0,
      "skeleton" : 1,
      "joints" : [
        1,2,3,4,5
      ]
    }
  ],
  "materials" : [
    {
      "name" : "M_CH_WP00_AA01_00",
      "pbrMetallicRoughness" : {
        "baseColorFactor" : [ 0.3, 0.3, 0.3, 1.0 ],
        "metallicFactor" : 0.1,
        "roughnessFactor" : 0.5
      }
    }
  ],
  "meshes" : [
    {
      "primitives" : [
        {
          "attributes" : {
            "POSITION" : 2,
            "NORMAL" : 3,
            "TANGENT" : 4,
            "COLOR_0" : 5,
            "JOINTS_0" : 6,
            "WEIGHTS_0" : 7,
            "TEXCOORD_0" : 8,
            "TEXCOORD_1" : 9
          },
          "indices" : 1,
          "material" : 0
        }
      ],
      "name" : "SK_CH_WP00_AA01"
    }
  ],
  "buffers" : [
    {
      "uri" : "SK_CH_WP00_AA01.bin",
      "byteLength" : 476384
    }
  ],
  "bufferViews" : [
    {
      "buffer" : 0,
      "byteOffset" : 0,
      "byteLength" : 320
    },
    {
      "buffer" : 0,
      "byteOffset" : 320,
      "byteLength" : 36360
    },
    {
      "buffer" : 0,
      "byteOffset" : 36680,
      "byteLength" : 73284
    },
    {
      "buffer" : 0,
      "byteOffset" : 109964,
      "byteLength" : 73284
    },
    {
      "buffer" : 0,
      "byteOffset" : 183248,
      "byteLength" : 97712
    },
    {
      "buffer" : 0,
      "byteOffset" : 280960,
      "byteLength" : 24428
    },
    {
      "buffer" : 0,
      "byteOffset" : 305388,
      "byteLength" : 48856
    },
    {
      "buffer" : 0,
      "byteOffset" : 354244,
      "byteLength" : 24428
    },
    {
      "buffer" : 0,
      "byteOffset" : 378672,
      "byteLength" : 48856
    },
    {
      "buffer" : 0,
      "byteOffset" : 427528,
      "byteLength" : 48856
    }
  ],
  "accessors" : [
    {
      "bufferView" : 0,
      "componentType" : 5126,
      "count" : 5,
      "type" : "MAT4"
    },
    {
      "bufferView" : 1,
      "componentType" : 5123,
      "count" : 18180,
      "type" : "SCALAR"
    },
    {
      "bufferView" : 2,
      "min" : [ -0.286871, -0.249323, -0.0497837 ],
      "max" : [ 0.400542, 0.847954, 0.0497837 ],
      "componentType" : 5126,
      "count" : 6107,
      "type" : "VEC3"
    },
    {
      "bufferView" : 3,
      "componentType" : 5126,
      "count" : 6107,
      "type" : "VEC3"
    },
    {
      "bufferView" : 4,
      "componentType" : 5126,
      "count" : 6107,
      "type" : "VEC4"
    },
    {
      "bufferView" : 5,
      "normalized" : true,
      "componentType" : 5121,
      "count" : 6107,
      "type" : "VEC4"
    },
    {
      "bufferView" : 6,
      "componentType" : 5123,
      "count" : 6107,
      "type" : "VEC4"
    },
    {
      "bufferView" : 7,
      "normalized" : true,
      "componentType" : 5121,
      "count" : 6107,
      "type" : "VEC4"
    },
    {
      "bufferView" : 8,
      "componentType" : 5126,
      "count" : 6107,
      "type" : "VEC2"
    },
    {
      "bufferView" : 9,
      "componentType" : 5126,
      "count" : 6107,
      "type" : "VEC2"
    }
  ]
}
