{
  "asset" : {
    "generator" : "UE Viewer (umodel) build 1579 based",
    "version" : "2.0"
  },
  "scene" : 0,
  "scenes" : [
    {
      "nodes" : [ 0 ]
    }
  ],
  "nodes" : [
    {
      "name" : "SK_CH_WP00_AJ00",
      "mesh" : 0,
      "skin" : 0,
      "children" : [ 1 ]
    },
    {
      "name" : "Root_J",
      "children" : [ 2 ],
      "translation" : [ 0, 0, 0 ],
      "rotation" : [ -0, -0, -0, 1 ]
    },
    {
      "name" : "Center_J",
      "children" : [ 3, 4, 5 ],
      "translation" : [ 0, 0.165858, -0 ],
      "rotation" : [ -0, -1, 0, 9.38711e-15 ]
    },
    {
      "name" : "R_EdgeTop",
      "translation" : [ -0.150994, 0.582189, -1.34042e-15 ],
      "rotation" : [ -0, -0, 0, -1 ]
    },
    {
      "name" : "R_EdgeBottom",
      "translation" : [ -0.130684, 0.0217016, -2.4584e-15 ],
      "rotation" : [ -0, -0, 0, -1 ]
    },
    {
      "name" : "R_HandleBottom",
      "translation" : [ -0, -0.401689, -0 ],
      "rotation" : [ -0, -0, 0, -1 ]
    }
  ],
  "skins" : [
    {
      "inverseBindMatrices" : 0,
      "skeleton" : 1,
      "joints" : [
        1,2,3,4,5
      ]
    }
  ],
  "materials" : [
    {
      "name" : "M_CH_WP00_AJ00_00",
      "pbrMetallicRoughness" : {
        "baseColorFactor" : [ 0.3, 0.3, 0.3, 1.0 ],
        "metallicFactor" : 0.1,
        "roughnessFactor" : 0.5
      }
    }
  ],
  "meshes" : [
    {
      "primitives" : [
        {
          "attributes" : {
            "POSITION" : 2,
            "NORMAL" : 3,
            "TANGENT" : 4,
            "COLOR_0" : 5,
            "JOINTS_0" : 6,
            "WEIGHTS_0" : 7,
            "TEXCOORD_0" : 8,
            "TEXCOORD_1" : 9
          },
          "indices" : 1,
          "material" : 0
        }
      ],
      "name" : "SK_CH_WP00_AJ00"
    }
  ],
  "buffers" : [
    {
      "uri" : "SK_CH_WP00_AJ00.bin",
      "byteLength" : 728900
    }
  ],
  "bufferViews" : [
    {
      "buffer" : 0,
      "byteOffset" : 0,
      "byteLength" : 320
    },
    {
      "buffer" : 0,
      "byteOffset" : 320,
      "byteLength" : 43284
    },
    {
      "buffer" : 0,
      "byteOffset" : 43604,
      "byteLength" : 114216
    },
    {
      "buffer" : 0,
      "byteOffset" : 157820,
      "byteLength" : 114216
    },
    {
      "buffer" : 0,
      "byteOffset" : 272036,
      "byteLength" : 152288
    },
    {
      "buffer" : 0,
      "byteOffset" : 424324,
      "byteLength" : 38072
    },
    {
      "buffer" : 0,
      "byteOffset" : 462396,
      "byteLength" : 76144
    },
    {
      "buffer" : 0,
      "byteOffset" : 538540,
      "byteLength" : 38072
    },
    {
      "buffer" : 0,
      "byteOffset" : 576612,
      "byteLength" : 76144
    },
    {
      "buffer" : 0,
      "byteOffset" : 652756,
      "byteLength" : 76144
    }
  ],
  "accessors" : [
    {
      "bufferView" : 0,
      "componentType" : 5126,
      "count" : 5,
      "type" : "MAT4"
    },
    {
      "bufferView" : 1,
      "componentType" : 5123,
      "count" : 21642,
      "type" : "SCALAR"
    },
    {
      "bufferView" : 2,
      "min" : [ -0.219864, -0.252473, -0.0457988 ],
      "max" : [ 0.325006, 0.790592, 0.0457988 ],
      "componentType" : 5126,
      "count" : 9518,
      "type" : "VEC3"
    },
    {
      "bufferView" : 3,
      "componentType" : 5126,
      "count" : 9518,
      "type" : "VEC3"
    },
    {
      "bufferView" : 4,
      "componentType" : 5126,
      "count" : 9518,
      "type" : "VEC4"
    },
    {
      "bufferView" : 5,
      "normalized" : true,
      "componentType" : 5121,
      "count" : 9518,
      "type" : "VEC4"
    },
    {
      "bufferView" : 6,
      "componentType" : 5123,
      "count" : 9518,
      "type" : "VEC4"
    },
    {
      "bufferView" : 7,
      "normalized" : true,
      "componentType" : 5121,
      "count" : 9518,
      "type" : "VEC4"
    },
    {
      "bufferView" : 8,
      "componentType" : 5126,
      "count" : 9518,
      "type" : "VEC2"
    },
    {
      "bufferView" : 9,
      "componentType" : 5126,
      "count" : 9518,
      "type" : "VEC2"
    }
  ]
}
