{
  "asset" : {
    "generator" : "UE Viewer (umodel) build 1579 based",
    "version" : "2.0"
  },
  "scene" : 0,
  "scenes" : [
    {
      "nodes" : [ 0 ]
    }
  ],
  "nodes" : [
    {
      "name" : "SK_CH_WP02_AS00",
      "mesh" : 0,
      "skin" : 0,
      "children" : [ 1 ]
    },
    {
      "name" : "Root_J",
      "children" : [ 2 ],
      "translation" : [ 0, 0, 0 ],
      "rotation" : [ 3.06162e-17, -0, -0, 1 ]
    },
    {
      "name" : "Center_J",
      "children" : [ 3, 4, 5 ],
      "translation" : [ 0, 0.177282, -0 ],
      "rotation" : [ -0, -0, 0, -1 ]
    },
    {
      "name" : "R_EdgeTop",
      "translation" : [ -0.0555734, 1.32389, -7.59659e-18 ],
      "rotation" : [ -0, -0, 0, -1 ]
    },
    {
      "name" : "R_EdgeBottom",
      "translation" : [ 0.141463, 0.749553, -0 ],
      "rotation" : [ -0, -0, 0, -1 ]
    },
    {
      "name" : "R_HandleBottom",
      "translation" : [ 0, -1.27672, 7.88861e-33 ],
      "rotation" : [ -0, -0, 0, -1 ]
    }
  ],
  "skins" : [
    {
      "inverseBindMatrices" : 0,
      "skeleton" : 1,
      "joints" : [
        1,2,3,4,5
      ]
    }
  ],
  "materials" : [
    {
      "name" : "M_CH_WP02_AS00_00_Ble",
      "pbrMetallicRoughness" : {
        "baseColorFactor" : [ 0.3, 0.3, 0.3, 1.0 ],
        "metallicFactor" : 0.1,
        "roughnessFactor" : 0.5
      }
    },
    {
      "name" : "M_CH_WP02_AS00_00",
      "pbrMetallicRoughness" : {
        "baseColorFactor" : [ 0.9, 0.3, 0.3, 1.0 ],
        "metallicFactor" : 0.1,
        "roughnessFactor" : 0.5
      }
    }
  ],
  "meshes" : [
    {
      "primitives" : [
        {
          "attributes" : {
            "POSITION" : 2,
            "NORMAL" : 3,
            "TANGENT" : 4,
            "COLOR_0" : 5,
            "JOINTS_0" : 6,
            "WEIGHTS_0" : 7,
            "TEXCOORD_0" : 8,
            "TEXCOORD_1" : 9
          },
          "indices" : 1,
          "material" : 0
        },
        {
          "attributes" : {
            "POSITION" : 11,
            "NORMAL" : 12,
            "TANGENT" : 13,
            "COLOR_0" : 14,
            "JOINTS_0" : 15,
            "WEIGHTS_0" : 16,
            "TEXCOORD_0" : 17,
            "TEXCOORD_1" : 18
          },
          "indices" : 10,
          "material" : 1
        }
      ],
      "name" : "SK_CH_WP02_AS00"
    }
  ],
  "buffers" : [
    {
      "uri" : "SK_CH_WP02_AS00.bin",
      "byteLength" : 371216
    }
  ],
  "bufferViews" : [
    {
      "buffer" : 0,
      "byteOffset" : 0,
      "byteLength" : 320
    },
    {
      "buffer" : 0,
      "byteOffset" : 320,
      "byteLength" : 3360
    },
    {
      "buffer" : 0,
      "byteOffset" : 3680,
      "byteLength" : 7872
    },
    {
      "buffer" : 0,
      "byteOffset" : 11552,
      "byteLength" : 7872
    },
    {
      "buffer" : 0,
      "byteOffset" : 19424,
      "byteLength" : 10496
    },
    {
      "buffer" : 0,
      "byteOffset" : 29920,
      "byteLength" : 2624
    },
    {
      "buffer" : 0,
      "byteOffset" : 32544,
      "byteLength" : 5248
    },
    {
      "buffer" : 0,
      "byteOffset" : 37792,
      "byteLength" : 2624
    },
    {
      "buffer" : 0,
      "byteOffset" : 40416,
      "byteLength" : 5248
    },
    {
      "buffer" : 0,
      "byteOffset" : 45664,
      "byteLength" : 5248
    },
    {
      "buffer" : 0,
      "byteOffset" : 50912,
      "byteLength" : 20352
    },
    {
      "buffer" : 0,
      "byteOffset" : 71264,
      "byteLength" : 49992
    },
    {
      "buffer" : 0,
      "byteOffset" : 121256,
      "byteLength" : 49992
    },
    {
      "buffer" : 0,
      "byteOffset" : 171248,
      "byteLength" : 66656
    },
    {
      "buffer" : 0,
      "byteOffset" : 237904,
      "byteLength" : 16664
    },
    {
      "buffer" : 0,
      "byteOffset" : 254568,
      "byteLength" : 33328
    },
    {
      "buffer" : 0,
      "byteOffset" : 287896,
      "byteLength" : 16664
    },
    {
      "buffer" : 0,
      "byteOffset" : 304560,
      "byteLength" : 33328
    },
    {
      "buffer" : 0,
      "byteOffset" : 337888,
      "byteLength" : 33328
    }
  ],
  "accessors" : [
    {
      "bufferView" : 0,
      "componentType" : 5126,
      "count" : 5,
      "type" : "MAT4"
    },
    {
      "bufferView" : 1,
      "componentType" : 5123,
      "count" : 1680,
      "type" : "SCALAR"
    },
    {
      "bufferView" : 2,
      "min" : [ -0.115479, 0.439709, -0.00922407 ],
      "max" : [ 0.147759, 1.5073, 0.00922407 ],
      "componentType" : 5126,
      "count" : 656,
      "type" : "VEC3"
    },
    {
      "bufferView" : 3,
      "componentType" : 5126,
      "count" : 656,
      "type" : "VEC3"
    },
    {
      "bufferView" : 4,
      "componentType" : 5126,
      "count" : 656,
      "type" : "VEC4"
    },
    {
      "bufferView" : 5,
      "normalized" : true,
      "componentType" : 5121,
      "count" : 656,
      "type" : "VEC4"
    },
    {
      "bufferView" : 6,
      "componentType" : 5123,
      "count" : 656,
      "type" : "VEC4"
    },
    {
      "bufferView" : 7,
      "normalized" : true,
      "componentType" : 5121,
      "count" : 656,
      "type" : "VEC4"
    },
    {
      "bufferView" : 8,
      "componentType" : 5126,
      "count" : 656,
      "type" : "VEC2"
    },
    {
      "bufferView" : 9,
      "componentType" : 5126,
      "count" : 656,
      "type" : "VEC2"
    },
    {
      "bufferView" : 10,
      "componentType" : 5123,
      "count" : 10176,
      "type" : "SCALAR"
    },
    {
      "bufferView" : 11,
      "min" : [ -0.164948, -1.09065, -0.0377277 ],
      "max" : [ 0.0920552, 1.34746, 0.0377277 ],
      "componentType" : 5126,
      "count" : 4166,
      "type" : "VEC3"
    },
    {
      "bufferView" : 12,
      "componentType" : 5126,
      "count" : 4166,
      "type" : "VEC3"
    },
    {
      "bufferView" : 13,
      "componentType" : 5126,
      "count" : 4166,
      "type" : "VEC4"
    },
    {
      "bufferView" : 14,
      "normalized" : true,
      "componentType" : 5121,
      "count" : 4166,
      "type" : "VEC4"
    },
    {
      "bufferView" : 15,
      "componentType" : 5123,
      "count" : 4166,
      "type" : "VEC4"
    },
    {
      "bufferView" : 16,
      "normalized" : true,
      "componentType" : 5121,
      "count" : 4166,
      "type" : "VEC4"
    },
    {
      "bufferView" : 17,
      "componentType" : 5126,
      "count" : 4166,
      "type" : "VEC2"
    },
    {
      "bufferView" : 18,
      "componentType" : 5126,
      "count" : 4166,
      "type" : "VEC2"
    }
  ]
}
