{
  "asset" : {
    "generator" : "UE Viewer (umodel) build 1579 based",
    "version" : "2.0"
  },
  "scene" : 0,
  "scenes" : [
    {
      "nodes" : [ 0 ]
    }
  ],
  "nodes" : [
    {
      "name" : "SK_CH_WP06_AG00_ball",
      "mesh" : 0,
      "skin" : 0,
      "children" : [ 1 ]
    },
    {
      "name" : "Root_J",
      "translation" : [ 0, 0, 0 ],
      "rotation" : [ 3.06162e-17, -0, -0, 1 ]
    }
  ],
  "skins" : [
    {
      "inverseBindMatrices" : 0,
      "skeleton" : 1,
      "joints" : [
        1
      ]
    }
  ],
  "materials" : [
    {
      "name" : "M_CH_WP06_AG00_00_ball",
      "pbrMetallicRoughness" : {
        "baseColorFactor" : [ 0.3, 0.3, 0.3, 1.0 ],
        "metallicFactor" : 0.1,
        "roughnessFactor" : 0.5
      }
    }
  ],
  "meshes" : [
    {
      "primitives" : [
        {
          "attributes" : {
            "POSITION" : 2,
            "NORMAL" : 3,
            "TANGENT" : 4,
            "COLOR_0" : 5,
            "JOINTS_0" : 6,
            "WEIGHTS_0" : 7,
            "TEXCOORD_0" : 8,
            "TEXCOORD_1" : 9
          },
          "indices" : 1,
          "material" : 0
        }
      ],
      "name" : "SK_CH_WP06_AG00_ball"
    }
  ],
  "buffers" : [
    {
      "uri" : "SK_CH_WP06_AG00_ball.bin",
      "byteLength" : 311644
    }
  ],
  "bufferViews" : [
    {
      "buffer" : 0,
      "byteOffset" : 0,
      "byteLength" : 64
    },
    {
      "buffer" : 0,
      "byteOffset" : 64,
      "byteLength" : 21924
    },
    {
      "buffer" : 0,
      "byteOffset" : 21988,
      "byteLength" : 48276
    },
    {
      "buffer" : 0,
      "byteOffset" : 70264,
      "byteLength" : 48276
    },
    {
      "buffer" : 0,
      "byteOffset" : 118540,
      "byteLength" : 64368
    },
    {
      "buffer" : 0,
      "byteOffset" : 182908,
      "byteLength" : 16092
    },
    {
      "buffer" : 0,
      "byteOffset" : 199000,
      "byteLength" : 32184
    },
    {
      "buffer" : 0,
      "byteOffset" : 231184,
      "byteLength" : 16092
    },
    {
      "buffer" : 0,
      "byteOffset" : 247276,
      "byteLength" : 32184
    },
    {
      "buffer" : 0,
      "byteOffset" : 279460,
      "byteLength" : 32184
    }
  ],
  "accessors" : [
    {
      "bufferView" : 0,
      "componentType" : 5126,
      "count" : 1,
      "type" : "MAT4"
    },
    {
      "bufferView" : 1,
      "componentType" : 5123,
      "count" : 10962,
      "type" : "SCALAR"
    },
    {
      "bufferView" : 2,
      "min" : [ -0.277834, -0.27992, -0.25212 ],
      "max" : [ 0.27925, 0.277007, 0.251628 ],
      "componentType" : 5126,
      "count" : 4023,
      "type" : "VEC3"
    },
    {
      "bufferView" : 3,
      "componentType" : 5126,
      "count" : 4023,
      "type" : "VEC3"
    },
    {
      "bufferView" : 4,
      "componentType" : 5126,
      "count" : 4023,
      "type" : "VEC4"
    },
    {
      "bufferView" : 5,
      "normalized" : true,
      "componentType" : 5121,
      "count" : 4023,
      "type" : "VEC4"
    },
    {
      "bufferView" : 6,
      "componentType" : 5123,
      "count" : 4023,
      "type" : "VEC4"
    },
    {
      "bufferView" : 7,
      "normalized" : true,
      "componentType" : 5121,
      "count" : 4023,
      "type" : "VEC4"
    },
    {
      "bufferView" : 8,
      "componentType" : 5126,
      "count" : 4023,
      "type" : "VEC2"
    },
    {
      "bufferView" : 9,
      "componentType" : 5126,
      "count" : 4023,
      "type" : "VEC2"
    }
  ]
}
