{
  "asset" : {
    "generator" : "UE Viewer (umodel) build 1579 based",
    "version" : "2.0"
  },
  "scene" : 0,
  "scenes" : [
    {
      "nodes" : [ 0 ]
    }
  ],
  "nodes" : [
    {
      "name" : "SK_CH_WP05_AS00",
      "mesh" : 0,
      "skin" : 0,
      "children" : [ 1 ]
    },
    {
      "name" : "Root_J",
      "children" : [ 2 ],
      "translation" : [ 0, 0, 0 ],
      "rotation" : [ -0, -0, -0, 1 ]
    },
    {
      "name" : "Center_J",
      "children" : [ 3 ],
      "translation" : [ 0, 0, -0 ],
      "rotation" : [ -0, -0, 0, -1 ]
    },
    {
      "name" : "ArrowRest_J",
      "children" : [ 4, 7, 10 ],
      "translation" : [ 0, 0.095, -0 ],
      "rotation" : [ -0, -0, 0, -1 ]
    },
    {
      "name" : "UpperBolt_J",
      "children" : [ 5 ],
      "translation" : [ 0.128769, 0.313036, -0 ],
      "rotation" : [ 0.40558, 0.579228, 0.579228, 0.40558 ]
    },
    {
      "name" : "UpperLimb_J",
      "children" : [ 6 ],
      "translation" : [ 0, 0, -0 ],
      "rotation" : [ 7.70372e-33, -0, 3.08149e-33, -1 ]
    },
    {
      "name" : "UpperCam_J",
      "translation" : [ 0.457533, -1.45117e-17, -0.0490284 ],
      "rotation" : [ 1.54074e-33, -0, 6.16298e-33, -1 ]
    },
    {
      "name" : "LowerBolt_J",
      "children" : [ 8 ],
      "translation" : [ 0.128769, -0.313036, -0 ],
      "rotation" : [ 0.40558, -0.579228, 0.579228, -0.40558 ]
    },
    {
      "name" : "LowerLimb_J",
      "children" : [ 9 ],
      "translation" : [ 0, 0, -0 ],
      "rotation" : [ -7.70372e-33, -0, -3.08149e-33, -1 ]
    },
    {
      "name" : "LowerCam_J",
      "translation" : [ 0.457533, 1.45117e-17, -0.0490284 ],
      "rotation" : [ -1.54074e-33, -0, -6.16298e-33, -1 ]
    },
    {
      "name" : "NockingPoint_J",
      "children" : [ 11, 13 ],
      "translation" : [ -0.1, 0, -0 ],
      "rotation" : [ -0, -0, 0, -1 ]
    },
    {
      "name" : "UpperCable01_J",
      "children" : [ 12 ],
      "translation" : [ 0, 0, -0 ],
      "rotation" : [ 1.07034e-32, 2.39908e-17, -0.694237, -0.719747 ]
    },
    {
      "name" : "UpperCable02_J",
      "translation" : [ 0.72668, 0, -6.40949e-33 ],
      "rotation" : [ 1.15556e-33, -3.09575e-33, -3.4855e-18, -1 ]
    },
    {
      "name" : "LowerCable01_J",
      "children" : [ 14 ],
      "translation" : [ 0, 0, -0 ],
      "rotation" : [ -1.07034e-32, 2.39908e-17, 0.694237, -0.719747 ]
    },
    {
      "name" : "LowerCable02_J",
      "translation" : [ 0.72668, 1.77636e-17, -7.88861e-33 ],
      "rotation" : [ -1.15556e-33, -3.09575e-33, 3.4855e-18, -1 ]
    }
  ],
  "skins" : [
    {
      "inverseBindMatrices" : 0,
      "skeleton" : 1,
      "joints" : [
        1,2,3,4,5,6,7,8,9,10,11,12,13,14
      ]
    }
  ],
  "materials" : [
    {
      "name" : "M_CH_WP05_AS00_00",
      "pbrMetallicRoughness" : {
        "baseColorFactor" : [ 0.3, 0.3, 0.3, 1.0 ],
        "metallicFactor" : 0.1,
        "roughnessFactor" : 0.5
      }
    },
    {
      "name" : "M_CH_WP05_AS00_00_Ble",
      "pbrMetallicRoughness" : {
        "baseColorFactor" : [ 0.9, 0.3, 0.3, 1.0 ],
        "metallicFactor" : 0.1,
        "roughnessFactor" : 0.5
      }
    }
  ],
  "meshes" : [
    {
      "primitives" : [
        {
          "attributes" : {
            "POSITION" : 2,
            "NORMAL" : 3,
            "TANGENT" : 4,
            "COLOR_0" : 5,
            "JOINTS_0" : 6,
            "WEIGHTS_0" : 7,
            "TEXCOORD_0" : 8,
            "TEXCOORD_1" : 9
          },
          "indices" : 1,
          "material" : 0
        },
        {
          "attributes" : {
            "POSITION" : 11,
            "NORMAL" : 12,
            "TANGENT" : 13,
            "COLOR_0" : 14,
            "JOINTS_0" : 15,
            "WEIGHTS_0" : 16,
            "TEXCOORD_0" : 17,
            "TEXCOORD_1" : 18
          },
          "indices" : 10,
          "material" : 1
        }
      ],
      "name" : "SK_CH_WP05_AS00"
    }
  ],
  "buffers" : [
    {
      "uri" : "SK_CH_WP05_AS00.bin",
      "byteLength" : 755896
    }
  ],
  "bufferViews" : [
    {
      "buffer" : 0,
      "byteOffset" : 0,
      "byteLength" : 896
    },
    {
      "buffer" : 0,
      "byteOffset" : 896,
      "byteLength" : 36356
    },
    {
      "buffer" : 0,
      "byteOffset" : 37252,
      "byteLength" : 90468
    },
    {
      "buffer" : 0,
      "byteOffset" : 127720,
      "byteLength" : 90468
    },
    {
      "buffer" : 0,
      "byteOffset" : 218188,
      "byteLength" : 120624
    },
    {
      "buffer" : 0,
      "byteOffset" : 338812,
      "byteLength" : 30156
    },
    {
      "buffer" : 0,
      "byteOffset" : 368968,
      "byteLength" : 60312
    },
    {
      "buffer" : 0,
      "byteOffset" : 429280,
      "byteLength" : 30156
    },
    {
      "buffer" : 0,
      "byteOffset" : 459436,
      "byteLength" : 60312
    },
    {
      "buffer" : 0,
      "byteOffset" : 519748,
      "byteLength" : 60312
    },
    {
      "buffer" : 0,
      "byteOffset" : 580060,
      "byteLength" : 11604
    },
    {
      "buffer" : 0,
      "byteOffset" : 591664,
      "byteLength" : 27372
    },
    {
      "buffer" : 0,
      "byteOffset" : 619036,
      "byteLength" : 27372
    },
    {
      "buffer" : 0,
      "byteOffset" : 646408,
      "byteLength" : 36496
    },
    {
      "buffer" : 0,
      "byteOffset" : 682904,
      "byteLength" : 9124
    },
    {
      "buffer" : 0,
      "byteOffset" : 692028,
      "byteLength" : 18248
    },
    {
      "buffer" : 0,
      "byteOffset" : 710276,
      "byteLength" : 9124
    },
    {
      "buffer" : 0,
      "byteOffset" : 719400,
      "byteLength" : 18248
    },
    {
      "buffer" : 0,
      "byteOffset" : 737648,
      "byteLength" : 18248
    }
  ],
  "accessors" : [
    {
      "bufferView" : 0,
      "componentType" : 5126,
      "count" : 14,
      "type" : "MAT4"
    },
    {
      "bufferView" : 1,
      "componentType" : 5123,
      "count" : 18177,
      "type" : "SCALAR"
    },
    {
      "bufferView" : 2,
      "min" : [ -0.0689111, -0.699397, -0.059294 ],
      "max" : [ 0.225175, 0.888225, 0.0274716 ],
      "componentType" : 5126,
      "count" : 7539,
      "type" : "VEC3"
    },
    {
      "bufferView" : 3,
      "componentType" : 5126,
      "count" : 7539,
      "type" : "VEC3"
    },
    {
      "bufferView" : 4,
      "componentType" : 5126,
      "count" : 7539,
      "type" : "VEC4"
    },
    {
      "bufferView" : 5,
      "normalized" : true,
      "componentType" : 5121,
      "count" : 7539,
      "type" : "VEC4"
    },
    {
      "bufferView" : 6,
      "componentType" : 5123,
      "count" : 7539,
      "type" : "VEC4"
    },
    {
      "bufferView" : 7,
      "normalized" : true,
      "componentType" : 5121,
      "count" : 7539,
      "type" : "VEC4"
    },
    {
      "bufferView" : 8,
      "componentType" : 5126,
      "count" : 7539,
      "type" : "VEC2"
    },
    {
      "bufferView" : 9,
      "componentType" : 5126,
      "count" : 7539,
      "type" : "VEC2"
    },
    {
      "bufferView" : 10,
      "componentType" : 5123,
      "count" : 5802,
      "type" : "SCALAR"
    },
    {
      "bufferView" : 11,
      "min" : [ -0.0794651, -0.759873, -0.00541104 ],
      "max" : [ 0.262565, 0.948702, 0.00541104 ],
      "componentType" : 5126,
      "count" : 2281,
      "type" : "VEC3"
    },
    {
      "bufferView" : 12,
      "componentType" : 5126,
      "count" : 2281,
      "type" : "VEC3"
    },
    {
      "bufferView" : 13,
      "componentType" : 5126,
      "count" : 2281,
      "type" : "VEC4"
    },
    {
      "bufferView" : 14,
      "normalized" : true,
      "componentType" : 5121,
      "count" : 2281,
      "type" : "VEC4"
    },
    {
      "bufferView" : 15,
      "componentType" : 5123,
      "count" : 2281,
      "type" : "VEC4"
    },
    {
      "bufferView" : 16,
      "normalized" : true,
      "componentType" : 5121,
      "count" : 2281,
      "type" : "VEC4"
    },
    {
      "bufferView" : 17,
      "componentType" : 5126,
      "count" : 2281,
      "type" : "VEC2"
    },
    {
      "bufferView" : 18,
      "componentType" : 5126,
      "count" : 2281,
      "type" : "VEC2"
    }
  ]
}
