{
  "asset" : {
    "generator" : "UE Viewer (umodel) build 1579 based",
    "version" : "2.0"
  },
  "scene" : 0,
  "scenes" : [
    {
      "nodes" : [ 0 ]
    }
  ],
  "nodes" : [
    {
      "name" : "SK_CH_WP00_AB00",
      "mesh" : 0,
      "skin" : 0,
      "children" : [ 1 ]
    },
    {
      "name" : "Root_J",
      "children" : [ 2 ],
      "translation" : [ 0, 0, 0 ],
      "rotation" : [ -0, -0, -0, 1 ]
    },
    {
      "name" : "Center_J",
      "children" : [ 3, 4, 5 ],
      "translation" : [ 0, 0.165858, -0 ],
      "rotation" : [ -0, -1, 0, 9.38711e-15 ]
    },
    {
      "name" : "R_EdgeTop",
      "translation" : [ -0.129481, 0.831507, -2.38496e-15 ],
      "rotation" : [ -0, -0, 0, -1 ]
    },
    {
      "name" : "R_EdgeBottom",
      "translation" : [ -0.253435, 0.146455, -4.7603e-15 ],
      "rotation" : [ -0, -0, 0, -1 ]
    },
    {
      "name" : "R_HandleBottom",
      "translation" : [ -0, -0.416319, -0 ],
      "rotation" : [ -0, -0, 0, -1 ]
    }
  ],
  "skins" : [
    {
      "inverseBindMatrices" : 0,
      "skeleton" : 1,
      "joints" : [
        1,2,3,4,5
      ]
    }
  ],
  "materials" : [
    {
      "name" : "M_CH_WP00_AB00_00",
      "pbrMetallicRoughness" : {
        "baseColorFactor" : [ 0.3, 0.3, 0.3, 1.0 ],
        "metallicFactor" : 0.1,
        "roughnessFactor" : 0.5
      }
    }
  ],
  "meshes" : [
    {
      "primitives" : [
        {
          "attributes" : {
            "POSITION" : 2,
            "NORMAL" : 3,
            "TANGENT" : 4,
            "COLOR_0" : 5,
            "JOINTS_0" : 6,
            "WEIGHTS_0" : 7,
            "TEXCOORD_0" : 8,
            "TEXCOORD_1" : 9
          },
          "indices" : 1,
          "material" : 0
        }
      ],
      "name" : "SK_CH_WP00_AB00"
    }
  ],
  "buffers" : [
    {
      "uri" : "SK_CH_WP00_AB00.bin",
      "byteLength" : 454328
    }
  ],
  "bufferViews" : [
    {
      "buffer" : 0,
      "byteOffset" : 0,
      "byteLength" : 320
    },
    {
      "buffer" : 0,
      "byteOffset" : 320,
      "byteLength" : 29352
    },
    {
      "buffer" : 0,
      "byteOffset" : 29672,
      "byteLength" : 70776
    },
    {
      "buffer" : 0,
      "byteOffset" : 100448,
      "byteLength" : 70776
    },
    {
      "buffer" : 0,
      "byteOffset" : 171224,
      "byteLength" : 94368
    },
    {
      "buffer" : 0,
      "byteOffset" : 265592,
      "byteLength" : 23592
    },
    {
      "buffer" : 0,
      "byteOffset" : 289184,
      "byteLength" : 47184
    },
    {
      "buffer" : 0,
      "byteOffset" : 336368,
      "byteLength" : 23592
    },
    {
      "buffer" : 0,
      "byteOffset" : 359960,
      "byteLength" : 47184
    },
    {
      "buffer" : 0,
      "byteOffset" : 407144,
      "byteLength" : 47184
    }
  ],
  "accessors" : [
    {
      "bufferView" : 0,
      "componentType" : 5126,
      "count" : 5,
      "type" : "MAT4"
    },
    {
      "bufferView" : 1,
      "componentType" : 5123,
      "count" : 14676,
      "type" : "SCALAR"
    },
    {
      "bufferView" : 2,
      "min" : [ -0.334261, -0.25046, -0.0494856 ],
      "max" : [ 0.446758, 0.997366, 0.0494856 ],
      "componentType" : 5126,
      "count" : 5898,
      "type" : "VEC3"
    },
    {
      "bufferView" : 3,
      "componentType" : 5126,
      "count" : 5898,
      "type" : "VEC3"
    },
    {
      "bufferView" : 4,
      "componentType" : 5126,
      "count" : 5898,
      "type" : "VEC4"
    },
    {
      "bufferView" : 5,
      "normalized" : true,
      "componentType" : 5121,
      "count" : 5898,
      "type" : "VEC4"
    },
    {
      "bufferView" : 6,
      "componentType" : 5123,
      "count" : 5898,
      "type" : "VEC4"
    },
    {
      "bufferView" : 7,
      "normalized" : true,
      "componentType" : 5121,
      "count" : 5898,
      "type" : "VEC4"
    },
    {
      "bufferView" : 8,
      "componentType" : 5126,
      "count" : 5898,
      "type" : "VEC2"
    },
    {
      "bufferView" : 9,
      "componentType" : 5126,
      "count" : 5898,
      "type" : "VEC2"
    }
  ]
}
