{
  "asset" : {
    "generator" : "UE Viewer (umodel) build 1579 based",
    "version" : "2.0"
  },
  "scene" : 0,
  "scenes" : [
    {
      "nodes" : [ 0 ]
    }
  ],
  "nodes" : [
    {
      "name" : "SK_CH_WP01_AZ00",
      "mesh" : 0,
      "skin" : 0,
      "children" : [ 1 ]
    },
    {
      "name" : "Root_J",
      "children" : [ 2 ],
      "translation" : [ 0, 0, 0 ],
      "rotation" : [ -0, -0, -0, 1 ]
    },
    {
      "name" : "Center_J",
      "children" : [ 3, 4, 5 ],
      "translation" : [ 0, 0.65577, -0 ],
      "rotation" : [ -0, -0, 0, -1 ]
    },
    {
      "name" : "R_EdgeTop",
      "translation" : [ 5.99774e-05, 0.930261, -0 ],
      "rotation" : [ -0, -0, 0, -1 ]
    },
    {
      "name" : "R_EdgeBottom",
      "translation" : [ 0.155826, -0.297183, -0 ],
      "rotation" : [ -0, -0, 0, -1 ]
    },
    {
      "name" : "R_HandleBottom",
      "translation" : [ 0, -0.984931, -0 ],
      "rotation" : [ -0, -0, 0, -1 ]
    }
  ],
  "skins" : [
    {
      "inverseBindMatrices" : 0,
      "skeleton" : 1,
      "joints" : [
        1,2,3,4,5
      ]
    }
  ],
  "materials" : [
    {
      "name" : "M_CH_WP01_AZ00_00",
      "pbrMetallicRoughness" : {
        "baseColorFactor" : [ 0.3, 0.3, 0.3, 1.0 ],
        "metallicFactor" : 0.1,
        "roughnessFactor" : 0.5
      }
    },
    {
      "name" : "M_CH_WP01_AZ00_00_Sphere",
      "pbrMetallicRoughness" : {
        "baseColorFactor" : [ 0.9, 0.3, 0.3, 1.0 ],
        "metallicFactor" : 0.1,
        "roughnessFactor" : 0.5
      }
    }
  ],
  "meshes" : [
    {
      "primitives" : [
        {
          "attributes" : {
            "POSITION" : 2,
            "NORMAL" : 3,
            "TANGENT" : 4,
            "COLOR_0" : 5,
            "JOINTS_0" : 6,
            "WEIGHTS_0" : 7,
            "TEXCOORD_0" : 8,
            "TEXCOORD_1" : 9
          },
          "indices" : 1,
          "material" : 0
        },
        {
          "attributes" : {
            "POSITION" : 11,
            "NORMAL" : 12,
            "TANGENT" : 13,
            "COLOR_0" : 14,
            "JOINTS_0" : 15,
            "WEIGHTS_0" : 16,
            "TEXCOORD_0" : 17,
            "TEXCOORD_1" : 18
          },
          "indices" : 10,
          "material" : 1
        }
      ],
      "name" : "SK_CH_WP01_AZ00"
    }
  ],
  "buffers" : [
    {
      "uri" : "SK_CH_WP01_AZ00.bin",
      "byteLength" : 696428
    }
  ],
  "bufferViews" : [
    {
      "buffer" : 0,
      "byteOffset" : 0,
      "byteLength" : 320
    },
    {
      "buffer" : 0,
      "byteOffset" : 320,
      "byteLength" : 48084
    },
    {
      "buffer" : 0,
      "byteOffset" : 48404,
      "byteLength" : 102312
    },
    {
      "buffer" : 0,
      "byteOffset" : 150716,
      "byteLength" : 102312
    },
    {
      "buffer" : 0,
      "byteOffset" : 253028,
      "byteLength" : 136416
    },
    {
      "buffer" : 0,
      "byteOffset" : 389444,
      "byteLength" : 34104
    },
    {
      "buffer" : 0,
      "byteOffset" : 423548,
      "byteLength" : 68208
    },
    {
      "buffer" : 0,
      "byteOffset" : 491756,
      "byteLength" : 34104
    },
    {
      "buffer" : 0,
      "byteOffset" : 525860,
      "byteLength" : 68208
    },
    {
      "buffer" : 0,
      "byteOffset" : 594068,
      "byteLength" : 68208
    },
    {
      "buffer" : 0,
      "byteOffset" : 662276,
      "byteLength" : 4416
    },
    {
      "buffer" : 0,
      "byteOffset" : 666692,
      "byteLength" : 4956
    },
    {
      "buffer" : 0,
      "byteOffset" : 671648,
      "byteLength" : 4956
    },
    {
      "buffer" : 0,
      "byteOffset" : 676604,
      "byteLength" : 6608
    },
    {
      "buffer" : 0,
      "byteOffset" : 683212,
      "byteLength" : 1652
    },
    {
      "buffer" : 0,
      "byteOffset" : 684864,
      "byteLength" : 3304
    },
    {
      "buffer" : 0,
      "byteOffset" : 688168,
      "byteLength" : 1652
    },
    {
      "buffer" : 0,
      "byteOffset" : 689820,
      "byteLength" : 3304
    },
    {
      "buffer" : 0,
      "byteOffset" : 693124,
      "byteLength" : 3304
    }
  ],
  "accessors" : [
    {
      "bufferView" : 0,
      "componentType" : 5126,
      "count" : 5,
      "type" : "MAT4"
    },
    {
      "bufferView" : 1,
      "componentType" : 5123,
      "count" : 24042,
      "type" : "SCALAR"
    },
    {
      "bufferView" : 2,
      "min" : [ -0.135748, -0.34148, -0.0559971 ],
      "max" : [ 0.155826, 1.58603, 0.0559971 ],
      "componentType" : 5126,
      "count" : 8526,
      "type" : "VEC3"
    },
    {
      "bufferView" : 3,
      "componentType" : 5126,
      "count" : 8526,
      "type" : "VEC3"
    },
    {
      "bufferView" : 4,
      "componentType" : 5126,
      "count" : 8526,
      "type" : "VEC4"
    },
    {
      "bufferView" : 5,
      "normalized" : true,
      "componentType" : 5121,
      "count" : 8526,
      "type" : "VEC4"
    },
    {
      "bufferView" : 6,
      "componentType" : 5123,
      "count" : 8526,
      "type" : "VEC4"
    },
    {
      "bufferView" : 7,
      "normalized" : true,
      "componentType" : 5121,
      "count" : 8526,
      "type" : "VEC4"
    },
    {
      "bufferView" : 8,
      "componentType" : 5126,
      "count" : 8526,
      "type" : "VEC2"
    },
    {
      "bufferView" : 9,
      "componentType" : 5126,
      "count" : 8526,
      "type" : "VEC2"
    },
    {
      "bufferView" : 10,
      "componentType" : 5123,
      "count" : 2208,
      "type" : "SCALAR"
    },
    {
      "bufferView" : 11,
      "min" : [ -0.0426565, 0.335311, -0.0480682 ],
      "max" : [ 0.053678, 0.431122, 0.0480682 ],
      "componentType" : 5126,
      "count" : 413,
      "type" : "VEC3"
    },
    {
      "bufferView" : 12,
      "componentType" : 5126,
      "count" : 413,
      "type" : "VEC3"
    },
    {
      "bufferView" : 13,
      "componentType" : 5126,
      "count" : 413,
      "type" : "VEC4"
    },
    {
      "bufferView" : 14,
      "normalized" : true,
      "componentType" : 5121,
      "count" : 413,
      "type" : "VEC4"
    },
    {
      "bufferView" : 15,
      "componentType" : 5123,
      "count" : 413,
      "type" : "VEC4"
    },
    {
      "bufferView" : 16,
      "normalized" : true,
      "componentType" : 5121,
      "count" : 413,
      "type" : "VEC4"
    },
    {
      "bufferView" : 17,
      "componentType" : 5126,
      "count" : 413,
      "type" : "VEC2"
    },
    {
      "bufferView" : 18,
      "componentType" : 5126,
      "count" : 413,
      "type" : "VEC2"
    }
  ]
}
