{
  "asset" : {
    "generator" : "UE Viewer (umodel) build 1579 based",
    "version" : "2.0"
  },
  "scene" : 0,
  "scenes" : [
    {
      "nodes" : [ 0 ]
    }
  ],
  "nodes" : [
    {
      "name" : "SK_CH_WP05_AA01",
      "mesh" : 0,
      "skin" : 0,
      "children" : [ 1 ]
    },
    {
      "name" : "Root_J",
      "children" : [ 2 ],
      "translation" : [ 0, 0, 0 ],
      "rotation" : [ -0, -0, -0, 1 ]
    },
    {
      "name" : "Center_J",
      "children" : [ 3 ],
      "translation" : [ 0, 0, -0 ],
      "rotation" : [ -0, -0, 0, -1 ]
    },
    {
      "name" : "ArrowRest_J",
      "children" : [ 4, 7, 10 ],
      "translation" : [ 0, 0.095, -0 ],
      "rotation" : [ -0, -0, 0, -1 ]
    },
    {
      "name" : "UpperBolt_J",
      "children" : [ 5 ],
      "translation" : [ 0.08, 0.3, -0 ],
      "rotation" : [ -0.40558, -0.579228, -0.579228, -0.40558 ]
    },
    {
      "name" : "UpperLimb_J",
      "children" : [ 6 ],
      "translation" : [ 0, 0, -0 ],
      "rotation" : [ -1.84889e-32, -2.77556e-17, 0, -1 ]
    },
    {
      "name" : "UpperCam_J",
      "translation" : [ 0.45, 0, -0 ],
      "rotation" : [ -1.84889e-32, -2.77556e-17, 0, -1 ]
    },
    {
      "name" : "LowerBolt_J",
      "children" : [ 8 ],
      "translation" : [ 0.08, -0.3, -0 ],
      "rotation" : [ 0.40558, -0.579228, 0.579228, -0.40558 ]
    },
    {
      "name" : "LowerLimb_J",
      "children" : [ 9 ],
      "translation" : [ 0, 0, -0 ],
      "rotation" : [ 1.84889e-32, -2.77556e-17, -0, -1 ]
    },
    {
      "name" : "LowerCam_J",
      "translation" : [ 0.45, 0, -0 ],
      "rotation" : [ 1.84889e-32, -2.77556e-17, -0, -1 ]
    },
    {
      "name" : "NockingPoint_J",
      "children" : [ 11, 13 ],
      "translation" : [ -0.1, 0, -0 ],
      "rotation" : [ -0, -0, 0, -1 ]
    },
    {
      "name" : "UpperCable01_J",
      "children" : [ 12 ],
      "translation" : [ 0, 0, -0 ],
      "rotation" : [ -0, -0, -0.694237, -0.719747 ]
    },
    {
      "name" : "UpperCable02_J",
      "translation" : [ 0.72668, -3.55271e-17, -0 ],
      "rotation" : [ -0, -0, 0, -1 ]
    },
    {
      "name" : "LowerCable01_J",
      "children" : [ 14 ],
      "translation" : [ 0, 0, -0 ],
      "rotation" : [ -0, -0, 0.694237, -0.719747 ]
    },
    {
      "name" : "LowerCable02_J",
      "translation" : [ 0.72668, 1.77636e-17, -0 ],
      "rotation" : [ -0, -0, 0, -1 ]
    }
  ],
  "skins" : [
    {
      "inverseBindMatrices" : 0,
      "skeleton" : 1,
      "joints" : [
        1,2,3,4,5,6,7,8,9,10,11,12,13,14
      ]
    }
  ],
  "materials" : [
    {
      "name" : "M_CH_WP05_C_01_01",
      "pbrMetallicRoughness" : {
        "baseColorFactor" : [ 0.3, 0.3, 0.3, 1.0 ],
        "metallicFactor" : 0.1,
        "roughnessFactor" : 0.5
      }
    }
  ],
  "meshes" : [
    {
      "primitives" : [
        {
          "attributes" : {
            "POSITION" : 2,
            "NORMAL" : 3,
            "TANGENT" : 4,
            "COLOR_0" : 5,
            "JOINTS_0" : 6,
            "WEIGHTS_0" : 7,
            "TEXCOORD_0" : 8,
            "TEXCOORD_1" : 9
          },
          "indices" : 1,
          "material" : 0
        }
      ],
      "name" : "SK_CH_WP05_AA01"
    }
  ],
  "buffers" : [
    {
      "uri" : "SK_CH_WP05_AA01.bin",
      "byteLength" : 480044
    }
  ],
  "bufferViews" : [
    {
      "buffer" : 0,
      "byteOffset" : 0,
      "byteLength" : 896
    },
    {
      "buffer" : 0,
      "byteOffset" : 896,
      "byteLength" : 35628
    },
    {
      "buffer" : 0,
      "byteOffset" : 36524,
      "byteLength" : 73920
    },
    {
      "buffer" : 0,
      "byteOffset" : 110444,
      "byteLength" : 73920
    },
    {
      "buffer" : 0,
      "byteOffset" : 184364,
      "byteLength" : 98560
    },
    {
      "buffer" : 0,
      "byteOffset" : 282924,
      "byteLength" : 24640
    },
    {
      "buffer" : 0,
      "byteOffset" : 307564,
      "byteLength" : 49280
    },
    {
      "buffer" : 0,
      "byteOffset" : 356844,
      "byteLength" : 24640
    },
    {
      "buffer" : 0,
      "byteOffset" : 381484,
      "byteLength" : 49280
    },
    {
      "buffer" : 0,
      "byteOffset" : 430764,
      "byteLength" : 49280
    }
  ],
  "accessors" : [
    {
      "bufferView" : 0,
      "componentType" : 5126,
      "count" : 14,
      "type" : "MAT4"
    },
    {
      "bufferView" : 1,
      "componentType" : 5123,
      "count" : 17814,
      "type" : "SCALAR"
    },
    {
      "bufferView" : 2,
      "min" : [ -0.0923054, -0.737707, -0.089912 ],
      "max" : [ 0.146263, 0.922826, 0.0411771 ],
      "componentType" : 5126,
      "count" : 6160,
      "type" : "VEC3"
    },
    {
      "bufferView" : 3,
      "componentType" : 5126,
      "count" : 6160,
      "type" : "VEC3"
    },
    {
      "bufferView" : 4,
      "componentType" : 5126,
      "count" : 6160,
      "type" : "VEC4"
    },
    {
      "bufferView" : 5,
      "normalized" : true,
      "componentType" : 5121,
      "count" : 6160,
      "type" : "VEC4"
    },
    {
      "bufferView" : 6,
      "componentType" : 5123,
      "count" : 6160,
      "type" : "VEC4"
    },
    {
      "bufferView" : 7,
      "normalized" : true,
      "componentType" : 5121,
      "count" : 6160,
      "type" : "VEC4"
    },
    {
      "bufferView" : 8,
      "componentType" : 5126,
      "count" : 6160,
      "type" : "VEC2"
    },
    {
      "bufferView" : 9,
      "componentType" : 5126,
      "count" : 6160,
      "type" : "VEC2"
    }
  ]
}
