{
  "asset" : {
    "generator" : "UE Viewer (umodel) build 1579 based",
    "version" : "2.0"
  },
  "scene" : 0,
  "scenes" : [
    {
      "nodes" : [ 0 ]
    }
  ],
  "nodes" : [
    {
      "name" : "SK_CH_WP06_AA02_ball",
      "mesh" : 0,
      "skin" : 0,
      "children" : [ 1 ]
    },
    {
      "name" : "Root_J",
      "translation" : [ 0, 0, 0 ],
      "rotation" : [ -0, -0, -0, 1 ]
    }
  ],
  "skins" : [
    {
      "inverseBindMatrices" : 0,
      "skeleton" : 1,
      "joints" : [
        1
      ]
    }
  ],
  "materials" : [
    {
      "name" : "M_CH_WP06_AA02_00_ball",
      "pbrMetallicRoughness" : {
        "baseColorFactor" : [ 0.3, 0.3, 0.3, 1.0 ],
        "metallicFactor" : 0.1,
        "roughnessFactor" : 0.5
      }
    }
  ],
  "meshes" : [
    {
      "primitives" : [
        {
          "attributes" : {
            "POSITION" : 2,
            "NORMAL" : 3,
            "TANGENT" : 4,
            "COLOR_0" : 5,
            "JOINTS_0" : 6,
            "WEIGHTS_0" : 7,
            "TEXCOORD_0" : 8,
            "TEXCOORD_1" : 9
          },
          "indices" : 1,
          "material" : 0
        }
      ],
      "name" : "SK_CH_WP06_AA02_ball"
    }
  ],
  "buffers" : [
    {
      "uri" : "SK_CH_WP06_AA02_ball.bin",
      "byteLength" : 210820
    }
  ],
  "bufferViews" : [
    {
      "buffer" : 0,
      "byteOffset" : 0,
      "byteLength" : 64
    },
    {
      "buffer" : 0,
      "byteOffset" : 64,
      "byteLength" : 15708
    },
    {
      "buffer" : 0,
      "byteOffset" : 15772,
      "byteLength" : 32508
    },
    {
      "buffer" : 0,
      "byteOffset" : 48280,
      "byteLength" : 32508
    },
    {
      "buffer" : 0,
      "byteOffset" : 80788,
      "byteLength" : 43344
    },
    {
      "buffer" : 0,
      "byteOffset" : 124132,
      "byteLength" : 10836
    },
    {
      "buffer" : 0,
      "byteOffset" : 134968,
      "byteLength" : 21672
    },
    {
      "buffer" : 0,
      "byteOffset" : 156640,
      "byteLength" : 10836
    },
    {
      "buffer" : 0,
      "byteOffset" : 167476,
      "byteLength" : 21672
    },
    {
      "buffer" : 0,
      "byteOffset" : 189148,
      "byteLength" : 21672
    }
  ],
  "accessors" : [
    {
      "bufferView" : 0,
      "componentType" : 5126,
      "count" : 1,
      "type" : "MAT4"
    },
    {
      "bufferView" : 1,
      "componentType" : 5123,
      "count" : 7854,
      "type" : "SCALAR"
    },
    {
      "bufferView" : 2,
      "min" : [ -0.31725, -0.31179, -0.259825 ],
      "max" : [ 0.259321, 0.395244, 0.253711 ],
      "componentType" : 5126,
      "count" : 2709,
      "type" : "VEC3"
    },
    {
      "bufferView" : 3,
      "componentType" : 5126,
      "count" : 2709,
      "type" : "VEC3"
    },
    {
      "bufferView" : 4,
      "componentType" : 5126,
      "count" : 2709,
      "type" : "VEC4"
    },
    {
      "bufferView" : 5,
      "normalized" : true,
      "componentType" : 5121,
      "count" : 2709,
      "type" : "VEC4"
    },
    {
      "bufferView" : 6,
      "componentType" : 5123,
      "count" : 2709,
      "type" : "VEC4"
    },
    {
      "bufferView" : 7,
      "normalized" : true,
      "componentType" : 5121,
      "count" : 2709,
      "type" : "VEC4"
    },
    {
      "bufferView" : 8,
      "componentType" : 5126,
      "count" : 2709,
      "type" : "VEC2"
    },
    {
      "bufferView" : 9,
      "componentType" : 5126,
      "count" : 2709,
      "type" : "VEC2"
    }
  ]
}
