{
  "asset" : {
    "generator" : "UE Viewer (umodel) build 1579 based",
    "version" : "2.0"
  },
  "scene" : 0,
  "scenes" : [
    {
      "nodes" : [ 0 ]
    }
  ],
  "nodes" : [
    {
      "name" : "SK_CH_WP06_BD01_ball",
      "mesh" : 0,
      "skin" : 0,
      "children" : [ 1 ]
    },
    {
      "name" : "Root_J",
      "translation" : [ 0, 0, 0 ],
      "rotation" : [ -0, -0, -0, 1 ]
    }
  ],
  "skins" : [
    {
      "inverseBindMatrices" : 0,
      "skeleton" : 1,
      "joints" : [
        1
      ]
    }
  ],
  "materials" : [
    {
      "name" : "M_CH_WP06_BD01_00_ball",
      "pbrMetallicRoughness" : {
        "baseColorFactor" : [ 0.3, 0.3, 0.3, 1.0 ],
        "metallicFactor" : 0.1,
        "roughnessFactor" : 0.5
      }
    }
  ],
  "meshes" : [
    {
      "primitives" : [
        {
          "attributes" : {
            "POSITION" : 2,
            "NORMAL" : 3,
            "TANGENT" : 4,
            "COLOR_0" : 5,
            "JOINTS_0" : 6,
            "WEIGHTS_0" : 7,
            "TEXCOORD_0" : 8,
            "TEXCOORD_1" : 9
          },
          "indices" : 1,
          "material" : 0
        }
      ],
      "name" : "SK_CH_WP06_BD01_ball"
    }
  ],
  "buffers" : [
    {
      "uri" : "SK_CH_WP06_BD01_ball.bin",
      "byteLength" : 383680
    }
  ],
  "bufferViews" : [
    {
      "buffer" : 0,
      "byteOffset" : 0,
      "byteLength" : 64
    },
    {
      "buffer" : 0,
      "byteOffset" : 64,
      "byteLength" : 29088
    },
    {
      "buffer" : 0,
      "byteOffset" : 29152,
      "byteLength" : 59088
    },
    {
      "buffer" : 0,
      "byteOffset" : 88240,
      "byteLength" : 59088
    },
    {
      "buffer" : 0,
      "byteOffset" : 147328,
      "byteLength" : 78784
    },
    {
      "buffer" : 0,
      "byteOffset" : 226112,
      "byteLength" : 19696
    },
    {
      "buffer" : 0,
      "byteOffset" : 245808,
      "byteLength" : 39392
    },
    {
      "buffer" : 0,
      "byteOffset" : 285200,
      "byteLength" : 19696
    },
    {
      "buffer" : 0,
      "byteOffset" : 304896,
      "byteLength" : 39392
    },
    {
      "buffer" : 0,
      "byteOffset" : 344288,
      "byteLength" : 39392
    }
  ],
  "accessors" : [
    {
      "bufferView" : 0,
      "componentType" : 5126,
      "count" : 1,
      "type" : "MAT4"
    },
    {
      "bufferView" : 1,
      "componentType" : 5123,
      "count" : 14544,
      "type" : "SCALAR"
    },
    {
      "bufferView" : 2,
      "min" : [ -0.263597, -0.294927, -0.263444 ],
      "max" : [ 0.262304, 0.378521, 0.363064 ],
      "componentType" : 5126,
      "count" : 4924,
      "type" : "VEC3"
    },
    {
      "bufferView" : 3,
      "componentType" : 5126,
      "count" : 4924,
      "type" : "VEC3"
    },
    {
      "bufferView" : 4,
      "componentType" : 5126,
      "count" : 4924,
      "type" : "VEC4"
    },
    {
      "bufferView" : 5,
      "normalized" : true,
      "componentType" : 5121,
      "count" : 4924,
      "type" : "VEC4"
    },
    {
      "bufferView" : 6,
      "componentType" : 5123,
      "count" : 4924,
      "type" : "VEC4"
    },
    {
      "bufferView" : 7,
      "normalized" : true,
      "componentType" : 5121,
      "count" : 4924,
      "type" : "VEC4"
    },
    {
      "bufferView" : 8,
      "componentType" : 5126,
      "count" : 4924,
      "type" : "VEC2"
    },
    {
      "bufferView" : 9,
      "componentType" : 5126,
      "count" : 4924,
      "type" : "VEC2"
    }
  ]
}
