{
  "asset" : {
    "generator" : "UE Viewer (umodel) build 1579 based",
    "version" : "2.0"
  },
  "scene" : 0,
  "scenes" : [
    {
      "nodes" : [ 0 ]
    }
  ],
  "nodes" : [
    {
      "name" : "SK_CH_WP00_AV00",
      "mesh" : 0,
      "skin" : 0,
      "children" : [ 1 ]
    },
    {
      "name" : "Root_J",
      "children" : [ 2 ],
      "translation" : [ 0, 0, 0 ],
      "rotation" : [ -0, -0, -0, 1 ]
    },
    {
      "name" : "Center_J",
      "children" : [ 3, 4, 5 ],
      "translation" : [ 0, 0.272875, -0 ],
      "rotation" : [ -0, -1, 0, 9.38711e-15 ]
    },
    {
      "name" : "R_EdgeTop",
      "translation" : [ -0.0905923, 0.676867, 3.67819e-15 ],
      "rotation" : [ -0, -0, 0, -1 ]
    },
    {
      "name" : "R_EdgeBottom",
      "translation" : [ -0.129149, -0.208703, 2.17505e-15 ],
      "rotation" : [ -0, -0, 0, -1 ]
    },
    {
      "name" : "R_HandleBottom",
      "translation" : [ -0, -0.665506, -0 ],
      "rotation" : [ -0, -0, 0, -1 ]
    }
  ],
  "skins" : [
    {
      "inverseBindMatrices" : 0,
      "skeleton" : 1,
      "joints" : [
        1,2,3,4,5
      ]
    }
  ],
  "materials" : [
    {
      "name" : "M_CH_WP00_AV00_00",
      "pbrMetallicRoughness" : {
        "baseColorFactor" : [ 0.3, 0.3, 0.3, 1.0 ],
        "metallicFactor" : 0.1,
        "roughnessFactor" : 0.5
      }
    },
    {
      "name" : "M_CH_WP00_AV00_00_Crystal",
      "pbrMetallicRoughness" : {
        "baseColorFactor" : [ 0.9, 0.3, 0.3, 1.0 ],
        "metallicFactor" : 0.1,
        "roughnessFactor" : 0.5
      }
    }
  ],
  "meshes" : [
    {
      "primitives" : [
        {
          "attributes" : {
            "POSITION" : 2,
            "NORMAL" : 3,
            "TANGENT" : 4,
            "COLOR_0" : 5,
            "JOINTS_0" : 6,
            "WEIGHTS_0" : 7,
            "TEXCOORD_0" : 8,
            "TEXCOORD_1" : 9
          },
          "indices" : 1,
          "material" : 0
        },
        {
          "attributes" : {
            "POSITION" : 11,
            "NORMAL" : 12,
            "TANGENT" : 13,
            "COLOR_0" : 14,
            "JOINTS_0" : 15,
            "WEIGHTS_0" : 16,
            "TEXCOORD_0" : 17,
            "TEXCOORD_1" : 18
          },
          "indices" : 10,
          "material" : 1
        }
      ],
      "name" : "SK_CH_WP00_AV00"
    }
  ],
  "buffers" : [
    {
      "uri" : "SK_CH_WP00_AV00.bin",
      "byteLength" : 627008
    }
  ],
  "bufferViews" : [
    {
      "buffer" : 0,
      "byteOffset" : 0,
      "byteLength" : 320
    },
    {
      "buffer" : 0,
      "byteOffset" : 320,
      "byteLength" : 37164
    },
    {
      "buffer" : 0,
      "byteOffset" : 37484,
      "byteLength" : 78396
    },
    {
      "buffer" : 0,
      "byteOffset" : 115880,
      "byteLength" : 78396
    },
    {
      "buffer" : 0,
      "byteOffset" : 194276,
      "byteLength" : 104528
    },
    {
      "buffer" : 0,
      "byteOffset" : 298804,
      "byteLength" : 26132
    },
    {
      "buffer" : 0,
      "byteOffset" : 324936,
      "byteLength" : 52264
    },
    {
      "buffer" : 0,
      "byteOffset" : 377200,
      "byteLength" : 26132
    },
    {
      "buffer" : 0,
      "byteOffset" : 403332,
      "byteLength" : 52264
    },
    {
      "buffer" : 0,
      "byteOffset" : 455596,
      "byteLength" : 52264
    },
    {
      "buffer" : 0,
      "byteOffset" : 507860,
      "byteLength" : 9852
    },
    {
      "buffer" : 0,
      "byteOffset" : 517712,
      "byteLength" : 18216
    },
    {
      "buffer" : 0,
      "byteOffset" : 535928,
      "byteLength" : 18216
    },
    {
      "buffer" : 0,
      "byteOffset" : 554144,
      "byteLength" : 24288
    },
    {
      "buffer" : 0,
      "byteOffset" : 578432,
      "byteLength" : 6072
    },
    {
      "buffer" : 0,
      "byteOffset" : 584504,
      "byteLength" : 12144
    },
    {
      "buffer" : 0,
      "byteOffset" : 596648,
      "byteLength" : 6072
    },
    {
      "buffer" : 0,
      "byteOffset" : 602720,
      "byteLength" : 12144
    },
    {
      "buffer" : 0,
      "byteOffset" : 614864,
      "byteLength" : 12144
    }
  ],
  "accessors" : [
    {
      "bufferView" : 0,
      "componentType" : 5126,
      "count" : 5,
      "type" : "MAT4"
    },
    {
      "bufferView" : 1,
      "componentType" : 5123,
      "count" : 18582,
      "type" : "SCALAR"
    },
    {
      "bufferView" : 2,
      "min" : [ -0.40057, -0.135226, -0.0500032 ],
      "max" : [ 0.518009, 0.977578, 0.0500032 ],
      "componentType" : 5126,
      "count" : 6533,
      "type" : "VEC3"
    },
    {
      "bufferView" : 3,
      "componentType" : 5126,
      "count" : 6533,
      "type" : "VEC3"
    },
    {
      "bufferView" : 4,
      "componentType" : 5126,
      "count" : 6533,
      "type" : "VEC4"
    },
    {
      "bufferView" : 5,
      "normalized" : true,
      "componentType" : 5121,
      "count" : 6533,
      "type" : "VEC4"
    },
    {
      "bufferView" : 6,
      "componentType" : 5123,
      "count" : 6533,
      "type" : "VEC4"
    },
    {
      "bufferView" : 7,
      "normalized" : true,
      "componentType" : 5121,
      "count" : 6533,
      "type" : "VEC4"
    },
    {
      "bufferView" : 8,
      "componentType" : 5126,
      "count" : 6533,
      "type" : "VEC2"
    },
    {
      "bufferView" : 9,
      "componentType" : 5126,
      "count" : 6533,
      "type" : "VEC2"
    },
    {
      "bufferView" : 10,
      "componentType" : 5123,
      "count" : 4926,
      "type" : "SCALAR"
    },
    {
      "bufferView" : 11,
      "min" : [ -0.469867, -0.35735, -0.0628834 ],
      "max" : [ 0.179548, 0.559282, 0.0634708 ],
      "componentType" : 5126,
      "count" : 1518,
      "type" : "VEC3"
    },
    {
      "bufferView" : 12,
      "componentType" : 5126,
      "count" : 1518,
      "type" : "VEC3"
    },
    {
      "bufferView" : 13,
      "componentType" : 5126,
      "count" : 1518,
      "type" : "VEC4"
    },
    {
      "bufferView" : 14,
      "normalized" : true,
      "componentType" : 5121,
      "count" : 1518,
      "type" : "VEC4"
    },
    {
      "bufferView" : 15,
      "componentType" : 5123,
      "count" : 1518,
      "type" : "VEC4"
    },
    {
      "bufferView" : 16,
      "normalized" : true,
      "componentType" : 5121,
      "count" : 1518,
      "type" : "VEC4"
    },
    {
      "bufferView" : 17,
      "componentType" : 5126,
      "count" : 1518,
      "type" : "VEC2"
    },
    {
      "bufferView" : 18,
      "componentType" : 5126,
      "count" : 1518,
      "type" : "VEC2"
    }
  ]
}
