{
  "asset" : {
    "generator" : "UE Viewer (umodel) build 1579 based",
    "version" : "2.0"
  },
  "scene" : 0,
  "scenes" : [
    {
      "nodes" : [ 0 ]
    }
  ],
  "nodes" : [
    {
      "name" : "SK_CH_WP00_AX00",
      "mesh" : 0,
      "skin" : 0,
      "children" : [ 1 ]
    },
    {
      "name" : "Root_J",
      "children" : [ 2 ],
      "translation" : [ 0, 0, 0 ],
      "rotation" : [ -0, -0, -0, 1 ]
    },
    {
      "name" : "Center_J",
      "children" : [ 3, 4, 5 ],
      "translation" : [ 0, 0.296473, -0 ],
      "rotation" : [ -0, -1, 0, 9.38711e-15 ]
    },
    {
      "name" : "R_EdgeTop",
      "translation" : [ -0.131665, 0.551642, -5.04871e-31 ],
      "rotation" : [ -0, -0, 0, -1 ]
    },
    {
      "name" : "R_EdgeBottom",
      "translation" : [ -0.349319, -0.00535069, 1.00974e-30 ],
      "rotation" : [ -0, -0, 0, -1 ]
    },
    {
      "name" : "R_HandleBottom",
      "translation" : [ -0.0274682, -0.573043, -0 ],
      "rotation" : [ -0, -0, 0, -1 ]
    }
  ],
  "skins" : [
    {
      "inverseBindMatrices" : 0,
      "skeleton" : 1,
      "joints" : [
        1,2,3,4,5
      ]
    }
  ],
  "materials" : [
    {
      "name" : "M_CH_WP00_AX00_00",
      "pbrMetallicRoughness" : {
        "baseColorFactor" : [ 0.3, 0.3, 0.3, 1.0 ],
        "metallicFactor" : 0.1,
        "roughnessFactor" : 0.5
      }
    }
  ],
  "meshes" : [
    {
      "primitives" : [
        {
          "attributes" : {
            "POSITION" : 2,
            "NORMAL" : 3,
            "TANGENT" : 4,
            "COLOR_0" : 5,
            "JOINTS_0" : 6,
            "WEIGHTS_0" : 7,
            "TEXCOORD_0" : 8,
            "TEXCOORD_1" : 9
          },
          "indices" : 1,
          "material" : 0
        }
      ],
      "name" : "SK_CH_WP00_AX00"
    }
  ],
  "buffers" : [
    {
      "uri" : "SK_CH_WP00_AX00.bin",
      "byteLength" : 445616
    }
  ],
  "bufferViews" : [
    {
      "buffer" : 0,
      "byteOffset" : 0,
      "byteLength" : 320
    },
    {
      "buffer" : 0,
      "byteOffset" : 320,
      "byteLength" : 29424
    },
    {
      "buffer" : 0,
      "byteOffset" : 29744,
      "byteLength" : 69312
    },
    {
      "buffer" : 0,
      "byteOffset" : 99056,
      "byteLength" : 69312
    },
    {
      "buffer" : 0,
      "byteOffset" : 168368,
      "byteLength" : 92416
    },
    {
      "buffer" : 0,
      "byteOffset" : 260784,
      "byteLength" : 23104
    },
    {
      "buffer" : 0,
      "byteOffset" : 283888,
      "byteLength" : 46208
    },
    {
      "buffer" : 0,
      "byteOffset" : 330096,
      "byteLength" : 23104
    },
    {
      "buffer" : 0,
      "byteOffset" : 353200,
      "byteLength" : 46208
    },
    {
      "buffer" : 0,
      "byteOffset" : 399408,
      "byteLength" : 46208
    }
  ],
  "accessors" : [
    {
      "bufferView" : 0,
      "componentType" : 5126,
      "count" : 5,
      "type" : "MAT4"
    },
    {
      "bufferView" : 1,
      "componentType" : 5123,
      "count" : 14712,
      "type" : "SCALAR"
    },
    {
      "bufferView" : 2,
      "min" : [ -0.364355, -0.285583, -0.0518329 ],
      "max" : [ 0.406389, 0.871464, 0.0518329 ],
      "componentType" : 5126,
      "count" : 5776,
      "type" : "VEC3"
    },
    {
      "bufferView" : 3,
      "componentType" : 5126,
      "count" : 5776,
      "type" : "VEC3"
    },
    {
      "bufferView" : 4,
      "componentType" : 5126,
      "count" : 5776,
      "type" : "VEC4"
    },
    {
      "bufferView" : 5,
      "normalized" : true,
      "componentType" : 5121,
      "count" : 5776,
      "type" : "VEC4"
    },
    {
      "bufferView" : 6,
      "componentType" : 5123,
      "count" : 5776,
      "type" : "VEC4"
    },
    {
      "bufferView" : 7,
      "normalized" : true,
      "componentType" : 5121,
      "count" : 5776,
      "type" : "VEC4"
    },
    {
      "bufferView" : 8,
      "componentType" : 5126,
      "count" : 5776,
      "type" : "VEC2"
    },
    {
      "bufferView" : 9,
      "componentType" : 5126,
      "count" : 5776,
      "type" : "VEC2"
    }
  ]
}
