{
  "asset" : {
    "generator" : "UE Viewer (umodel) build 1579 based",
    "version" : "2.0"
  },
  "scene" : 0,
  "scenes" : [
    {
      "nodes" : [ 0 ]
    }
  ],
  "nodes" : [
    {
      "name" : "SK_CH_WP06_AI00_ball",
      "mesh" : 0,
      "skin" : 0,
      "children" : [ 1 ]
    },
    {
      "name" : "Root_J",
      "translation" : [ 0, 0, 0 ],
      "rotation" : [ -0, -0, -0, 1 ]
    }
  ],
  "skins" : [
    {
      "inverseBindMatrices" : 0,
      "skeleton" : 1,
      "joints" : [
        1
      ]
    }
  ],
  "materials" : [
    {
      "name" : "M_CH_WP06_AI00_00_ball",
      "pbrMetallicRoughness" : {
        "baseColorFactor" : [ 0.3, 0.3, 0.3, 1.0 ],
        "metallicFactor" : 0.1,
        "roughnessFactor" : 0.5
      }
    }
  ],
  "meshes" : [
    {
      "primitives" : [
        {
          "attributes" : {
            "POSITION" : 2,
            "NORMAL" : 3,
            "TANGENT" : 4,
            "COLOR_0" : 5,
            "JOINTS_0" : 6,
            "WEIGHTS_0" : 7,
            "TEXCOORD_0" : 8,
            "TEXCOORD_1" : 9
          },
          "indices" : 1,
          "material" : 0
        }
      ],
      "name" : "SK_CH_WP06_AI00_ball"
    }
  ],
  "buffers" : [
    {
      "uri" : "SK_CH_WP06_AI00_ball.bin",
      "byteLength" : 274252
    }
  ],
  "bufferViews" : [
    {
      "buffer" : 0,
      "byteOffset" : 0,
      "byteLength" : 64
    },
    {
      "buffer" : 0,
      "byteOffset" : 64,
      "byteLength" : 19740
    },
    {
      "buffer" : 0,
      "byteOffset" : 19804,
      "byteLength" : 42408
    },
    {
      "buffer" : 0,
      "byteOffset" : 62212,
      "byteLength" : 42408
    },
    {
      "buffer" : 0,
      "byteOffset" : 104620,
      "byteLength" : 56544
    },
    {
      "buffer" : 0,
      "byteOffset" : 161164,
      "byteLength" : 14136
    },
    {
      "buffer" : 0,
      "byteOffset" : 175300,
      "byteLength" : 28272
    },
    {
      "buffer" : 0,
      "byteOffset" : 203572,
      "byteLength" : 14136
    },
    {
      "buffer" : 0,
      "byteOffset" : 217708,
      "byteLength" : 28272
    },
    {
      "buffer" : 0,
      "byteOffset" : 245980,
      "byteLength" : 28272
    }
  ],
  "accessors" : [
    {
      "bufferView" : 0,
      "componentType" : 5126,
      "count" : 1,
      "type" : "MAT4"
    },
    {
      "bufferView" : 1,
      "componentType" : 5123,
      "count" : 9870,
      "type" : "SCALAR"
    },
    {
      "bufferView" : 2,
      "min" : [ -0.265408, -0.264229, -0.264966 ],
      "max" : [ 0.278569, 0.350715, 0.280788 ],
      "componentType" : 5126,
      "count" : 3534,
      "type" : "VEC3"
    },
    {
      "bufferView" : 3,
      "componentType" : 5126,
      "count" : 3534,
      "type" : "VEC3"
    },
    {
      "bufferView" : 4,
      "componentType" : 5126,
      "count" : 3534,
      "type" : "VEC4"
    },
    {
      "bufferView" : 5,
      "normalized" : true,
      "componentType" : 5121,
      "count" : 3534,
      "type" : "VEC4"
    },
    {
      "bufferView" : 6,
      "componentType" : 5123,
      "count" : 3534,
      "type" : "VEC4"
    },
    {
      "bufferView" : 7,
      "normalized" : true,
      "componentType" : 5121,
      "count" : 3534,
      "type" : "VEC4"
    },
    {
      "bufferView" : 8,
      "componentType" : 5126,
      "count" : 3534,
      "type" : "VEC2"
    },
    {
      "bufferView" : 9,
      "componentType" : 5126,
      "count" : 3534,
      "type" : "VEC2"
    }
  ]
}
