{
  "asset" : {
    "generator" : "UE Viewer (umodel) build 1579 based",
    "version" : "2.0"
  },
  "scene" : 0,
  "scenes" : [
    {
      "nodes" : [ 0 ]
    }
  ],
  "nodes" : [
    {
      "name" : "SK_CH_WP01_sav_01",
      "mesh" : 0,
      "skin" : 0,
      "children" : [ 1 ]
    },
    {
      "name" : "Root_J",
      "children" : [ 2 ],
      "translation" : [ 0, 0, 0 ],
      "rotation" : [ -0, -0, -0, 1 ]
    },
    {
      "name" : "Center_J",
      "children" : [ 3, 4, 5 ],
      "translation" : [ 0, 0.380418, -0 ],
      "rotation" : [ -0, -0, 0, -1 ]
    },
    {
      "name" : "R_EdgeTop",
      "translation" : [ 0.00842446, 1.29498, -0 ],
      "rotation" : [ -0, -0, 0, -1 ]
    },
    {
      "name" : "R_EdgeBottom",
      "translation" : [ 0, -0.186287, -0 ],
      "rotation" : [ -0, -0, 0, -1 ]
    },
    {
      "name" : "R_HandleBottom",
      "translation" : [ 0, -0.736698, -0 ],
      "rotation" : [ -0, -0, 0, -1 ]
    }
  ],
  "skins" : [
    {
      "inverseBindMatrices" : 0,
      "skeleton" : 1,
      "joints" : [
        1,2,3,4,5
      ]
    }
  ],
  "materials" : [
    {
      "name" : "MI1_ShadowDistortion_Sword",
      "pbrMetallicRoughness" : {
        "baseColorFactor" : [ 0.3, 0.3, 0.3, 1.0 ],
        "metallicFactor" : 0.1,
        "roughnessFactor" : 0.5
      }
    },
    {
      "name" : "M_ShadowSilhouette_Weapon",
      "pbrMetallicRoughness" : {
        "baseColorFactor" : [ 0.9, 0.3, 0.3, 1.0 ],
        "metallicFactor" : 0.1,
        "roughnessFactor" : 0.5
      }
    },
    {
      "name" : "MI1_Shadow_Sword",
      "pbrMetallicRoughness" : {
        "baseColorFactor" : [ 0.3, 0.9, 0.3, 1.0 ],
        "metallicFactor" : 0.1,
        "roughnessFactor" : 0.5
      }
    }
  ],
  "meshes" : [
    {
      "primitives" : [
        {
          "attributes" : {
            "POSITION" : 2,
            "NORMAL" : 3,
            "TANGENT" : 4,
            "JOINTS_0" : 5,
            "WEIGHTS_0" : 6,
            "TEXCOORD_0" : 7,
            "TEXCOORD_1" : 8,
            "TEXCOORD_2" : 9,
            "TEXCOORD_3" : 10
          },
          "indices" : 1,
          "material" : 0
        },
        {
          "attributes" : {
            "POSITION" : 12,
            "NORMAL" : 13,
            "TANGENT" : 14,
            "JOINTS_0" : 15,
            "WEIGHTS_0" : 16,
            "TEXCOORD_0" : 17,
            "TEXCOORD_1" : 18,
            "TEXCOORD_2" : 19,
            "TEXCOORD_3" : 20
          },
          "indices" : 11,
          "material" : 1
        },
        {
          "attributes" : {
            "POSITION" : 22,
            "NORMAL" : 23,
            "TANGENT" : 24,
            "JOINTS_0" : 25,
            "WEIGHTS_0" : 26,
            "TEXCOORD_0" : 27,
            "TEXCOORD_1" : 28,
            "TEXCOORD_2" : 29,
            "TEXCOORD_3" : 30
          },
          "indices" : 21,
          "material" : 2
        }
      ],
      "name" : "SK_CH_WP01_sav_01"
    }
  ],
  "buffers" : [
    {
      "uri" : "SK_CH_WP01_sav_01.bin",
      "byteLength" : 1162772
    }
  ],
  "bufferViews" : [
    {
      "buffer" : 0,
      "byteOffset" : 0,
      "byteLength" : 320
    },
    {
      "buffer" : 0,
      "byteOffset" : 320,
      "byteLength" : 4116
    },
    {
      "buffer" : 0,
      "byteOffset" : 4436,
      "byteLength" : 23928
    },
    {
      "buffer" : 0,
      "byteOffset" : 28364,
      "byteLength" : 23928
    },
    {
      "buffer" : 0,
      "byteOffset" : 52292,
      "byteLength" : 31904
    },
    {
      "buffer" : 0,
      "byteOffset" : 84196,
      "byteLength" : 15952
    },
    {
      "buffer" : 0,
      "byteOffset" : 100148,
      "byteLength" : 7976
    },
    {
      "buffer" : 0,
      "byteOffset" : 108124,
      "byteLength" : 15952
    },
    {
      "buffer" : 0,
      "byteOffset" : 124076,
      "byteLength" : 15952
    },
    {
      "buffer" : 0,
      "byteOffset" : 140028,
      "byteLength" : 15952
    },
    {
      "buffer" : 0,
      "byteOffset" : 155980,
      "byteLength" : 15952
    },
    {
      "buffer" : 0,
      "byteOffset" : 171932,
      "byteLength" : 4068
    },
    {
      "buffer" : 0,
      "byteOffset" : 176000,
      "byteLength" : 24360
    },
    {
      "buffer" : 0,
      "byteOffset" : 200360,
      "byteLength" : 24360
    },
    {
      "buffer" : 0,
      "byteOffset" : 224720,
      "byteLength" : 32480
    },
    {
      "buffer" : 0,
      "byteOffset" : 257200,
      "byteLength" : 16240
    },
    {
      "buffer" : 0,
      "byteOffset" : 273440,
      "byteLength" : 8120
    },
    {
      "buffer" : 0,
      "byteOffset" : 281560,
      "byteLength" : 16240
    },
    {
      "buffer" : 0,
      "byteOffset" : 297800,
      "byteLength" : 16240
    },
    {
      "buffer" : 0,
      "byteOffset" : 314040,
      "byteLength" : 16240
    },
    {
      "buffer" : 0,
      "byteOffset" : 330280,
      "byteLength" : 16240
    },
    {
      "buffer" : 0,
      "byteOffset" : 346520,
      "byteLength" : 19176
    },
    {
      "buffer" : 0,
      "byteOffset" : 365696,
      "byteLength" : 113868
    },
    {
      "buffer" : 0,
      "byteOffset" : 479564,
      "byteLength" : 113868
    },
    {
      "buffer" : 0,
      "byteOffset" : 593432,
      "byteLength" : 151824
    },
    {
      "buffer" : 0,
      "byteOffset" : 745256,
      "byteLength" : 75912
    },
    {
      "buffer" : 0,
      "byteOffset" : 821168,
      "byteLength" : 37956
    },
    {
      "buffer" : 0,
      "byteOffset" : 859124,
      "byteLength" : 75912
    },
    {
      "buffer" : 0,
      "byteOffset" : 935036,
      "byteLength" : 75912
    },
    {
      "buffer" : 0,
      "byteOffset" : 1010948,
      "byteLength" : 75912
    },
    {
      "buffer" : 0,
      "byteOffset" : 1086860,
      "byteLength" : 75912
    }
  ],
  "accessors" : [
    {
      "bufferView" : 0,
      "componentType" : 5126,
      "count" : 5,
      "type" : "MAT4"
    },
    {
      "bufferView" : 1,
      "componentType" : 5123,
      "count" : 2058,
      "type" : "SCALAR"
    },
    {
      "bufferView" : 2,
      "min" : [ -0.117797, -0.487851, -0.0482478 ],
      "max" : [ 0.11715, 1.72195, 0.0580609 ],
      "componentType" : 5126,
      "count" : 1994,
      "type" : "VEC3"
    },
    {
      "bufferView" : 3,
      "componentType" : 5126,
      "count" : 1994,
      "type" : "VEC3"
    },
    {
      "bufferView" : 4,
      "componentType" : 5126,
      "count" : 1994,
      "type" : "VEC4"
    },
    {
      "bufferView" : 5,
      "componentType" : 5123,
      "count" : 1994,
      "type" : "VEC4"
    },
    {
      "bufferView" : 6,
      "normalized" : true,
      "componentType" : 5121,
      "count" : 1994,
      "type" : "VEC4"
    },
    {
      "bufferView" : 7,
      "componentType" : 5126,
      "count" : 1994,
      "type" : "VEC2"
    },
    {
      "bufferView" : 8,
      "componentType" : 5126,
      "count" : 1994,
      "type" : "VEC2"
    },
    {
      "bufferView" : 9,
      "componentType" : 5126,
      "count" : 1994,
      "type" : "VEC2"
    },
    {
      "bufferView" : 10,
      "componentType" : 5126,
      "count" : 1994,
      "type" : "VEC2"
    },
    {
      "bufferView" : 11,
      "componentType" : 5123,
      "count" : 2034,
      "type" : "SCALAR"
    },
    {
      "bufferView" : 12,
      "min" : [ -0.0874304, -0.457943, -0.018254 ],
      "max" : [ 0.0958715, 1.692, 0.0281051 ],
      "componentType" : 5126,
      "count" : 2030,
      "type" : "VEC3"
    },
    {
      "bufferView" : 13,
      "componentType" : 5126,
      "count" : 2030,
      "type" : "VEC3"
    },
    {
      "bufferView" : 14,
      "componentType" : 5126,
      "count" : 2030,
      "type" : "VEC4"
    },
    {
      "bufferView" : 15,
      "componentType" : 5123,
      "count" : 2030,
      "type" : "VEC4"
    },
    {
      "bufferView" : 16,
      "normalized" : true,
      "componentType" : 5121,
      "count" : 2030,
      "type" : "VEC4"
    },
    {
      "bufferView" : 17,
      "componentType" : 5126,
      "count" : 2030,
      "type" : "VEC2"
    },
    {
      "bufferView" : 18,
      "componentType" : 5126,
      "count" : 2030,
      "type" : "VEC2"
    },
    {
      "bufferView" : 19,
      "componentType" : 5126,
      "count" : 2030,
      "type" : "VEC2"
    },
    {
      "bufferView" : 20,
      "componentType" : 5126,
      "count" : 2030,
      "type" : "VEC2"
    },
    {
      "bufferView" : 21,
      "componentType" : 5123,
      "count" : 9588,
      "type" : "SCALAR"
    },
    {
      "bufferView" : 22,
      "min" : [ -0.087448, -0.457943, -0.018254 ],
      "max" : [ 0.0958539, 1.692, 0.0281051 ],
      "componentType" : 5126,
      "count" : 9489,
      "type" : "VEC3"
    },
    {
      "bufferView" : 23,
      "componentType" : 5126,
      "count" : 9489,
      "type" : "VEC3"
    },
    {
      "bufferView" : 24,
      "componentType" : 5126,
      "count" : 9489,
      "type" : "VEC4"
    },
    {
      "bufferView" : 25,
      "componentType" : 5123,
      "count" : 9489,
      "type" : "VEC4"
    },
    {
      "bufferView" : 26,
      "normalized" : true,
      "componentType" : 5121,
      "count" : 9489,
      "type" : "VEC4"
    },
    {
      "bufferView" : 27,
      "componentType" : 5126,
      "count" : 9489,
      "type" : "VEC2"
    },
    {
      "bufferView" : 28,
      "componentType" : 5126,
      "count" : 9489,
      "type" : "VEC2"
    },
    {
      "bufferView" : 29,
      "componentType" : 5126,
      "count" : 9489,
      "type" : "VEC2"
    },
    {
      "bufferView" : 30,
      "componentType" : 5126,
      "count" : 9489,
      "type" : "VEC2"
    }
  ]
}
