{
  "asset" : {
    "generator" : "UE Viewer (umodel) build 1579 based",
    "version" : "2.0"
  },
  "scene" : 0,
  "scenes" : [
    {
      "nodes" : [ 0 ]
    }
  ],
  "nodes" : [
    {
      "name" : "SK_CH_WP09_AA02",
      "mesh" : 0,
      "skin" : 0,
      "children" : [ 1 ]
    },
    {
      "name" : "Root_J",
      "children" : [ 2 ],
      "translation" : [ 0, 0, 0 ],
      "rotation" : [ -0, -0, -0, 1 ]
    },
    {
      "name" : "Center_J",
      "translation" : [ 0, 0, -0.09 ],
      "rotation" : [ -0, -0, 0, -1 ]
    }
  ],
  "skins" : [
    {
      "inverseBindMatrices" : 0,
      "skeleton" : 1,
      "joints" : [
        1,2
      ]
    }
  ],
  "materials" : [
    {
      "name" : "M_CH_WP09_AA02_00",
      "pbrMetallicRoughness" : {
        "baseColorFactor" : [ 0.3, 0.3, 0.3, 1.0 ],
        "metallicFactor" : 0.1,
        "roughnessFactor" : 0.5
      }
    }
  ],
  "meshes" : [
    {
      "primitives" : [
        {
          "attributes" : {
            "POSITION" : 2,
            "NORMAL" : 3,
            "TANGENT" : 4,
            "COLOR_0" : 5,
            "JOINTS_0" : 6,
            "WEIGHTS_0" : 7,
            "TEXCOORD_0" : 8,
            "TEXCOORD_1" : 9
          },
          "indices" : 1,
          "material" : 0
        }
      ],
      "name" : "SK_CH_WP09_AA02"
    }
  ],
  "buffers" : [
    {
      "uri" : "SK_CH_WP09_AA02.bin",
      "byteLength" : 524324
    }
  ],
  "bufferViews" : [
    {
      "buffer" : 0,
      "byteOffset" : 0,
      "byteLength" : 128
    },
    {
      "buffer" : 0,
      "byteOffset" : 128,
      "byteLength" : 33588
    },
    {
      "buffer" : 0,
      "byteOffset" : 33716,
      "byteLength" : 81768
    },
    {
      "buffer" : 0,
      "byteOffset" : 115484,
      "byteLength" : 81768
    },
    {
      "buffer" : 0,
      "byteOffset" : 197252,
      "byteLength" : 109024
    },
    {
      "buffer" : 0,
      "byteOffset" : 306276,
      "byteLength" : 27256
    },
    {
      "buffer" : 0,
      "byteOffset" : 333532,
      "byteLength" : 54512
    },
    {
      "buffer" : 0,
      "byteOffset" : 388044,
      "byteLength" : 27256
    },
    {
      "buffer" : 0,
      "byteOffset" : 415300,
      "byteLength" : 54512
    },
    {
      "buffer" : 0,
      "byteOffset" : 469812,
      "byteLength" : 54512
    }
  ],
  "accessors" : [
    {
      "bufferView" : 0,
      "componentType" : 5126,
      "count" : 2,
      "type" : "MAT4"
    },
    {
      "bufferView" : 1,
      "componentType" : 5123,
      "count" : 16794,
      "type" : "SCALAR"
    },
    {
      "bufferView" : 2,
      "min" : [ -0.968236, -0.454194, -0.334181 ],
      "max" : [ 0.599273, 0.454194, -0.0615271 ],
      "componentType" : 5126,
      "count" : 6814,
      "type" : "VEC3"
    },
    {
      "bufferView" : 3,
      "componentType" : 5126,
      "count" : 6814,
      "type" : "VEC3"
    },
    {
      "bufferView" : 4,
      "componentType" : 5126,
      "count" : 6814,
      "type" : "VEC4"
    },
    {
      "bufferView" : 5,
      "normalized" : true,
      "componentType" : 5121,
      "count" : 6814,
      "type" : "VEC4"
    },
    {
      "bufferView" : 6,
      "componentType" : 5123,
      "count" : 6814,
      "type" : "VEC4"
    },
    {
      "bufferView" : 7,
      "normalized" : true,
      "componentType" : 5121,
      "count" : 6814,
      "type" : "VEC4"
    },
    {
      "bufferView" : 8,
      "componentType" : 5126,
      "count" : 6814,
      "type" : "VEC2"
    },
    {
      "bufferView" : 9,
      "componentType" : 5126,
      "count" : 6814,
      "type" : "VEC2"
    }
  ]
}
