{
  "asset" : {
    "generator" : "UE Viewer (umodel) build 1579 based",
    "version" : "2.0"
  },
  "scene" : 0,
  "scenes" : [
    {
      "nodes" : [ 0 ]
    }
  ],
  "nodes" : [
    {
      "name" : "SK_CH_WP09_AA00",
      "mesh" : 0,
      "skin" : 0,
      "children" : [ 1 ]
    },
    {
      "name" : "Root_J",
      "children" : [ 2 ],
      "translation" : [ 0, 0, 0 ],
      "rotation" : [ -0, -0, -0, 1 ]
    },
    {
      "name" : "Center_J",
      "translation" : [ 0, 0, -0.09 ],
      "rotation" : [ -0, -0, 0, -1 ]
    }
  ],
  "skins" : [
    {
      "inverseBindMatrices" : 0,
      "skeleton" : 1,
      "joints" : [
        1,2
      ]
    }
  ],
  "materials" : [
    {
      "name" : "M_CH_WP09_AA00_00",
      "pbrMetallicRoughness" : {
        "baseColorFactor" : [ 0.3, 0.3, 0.3, 1.0 ],
        "metallicFactor" : 0.1,
        "roughnessFactor" : 0.5
      }
    }
  ],
  "meshes" : [
    {
      "primitives" : [
        {
          "attributes" : {
            "POSITION" : 2,
            "NORMAL" : 3,
            "TANGENT" : 4,
            "COLOR_0" : 5,
            "JOINTS_0" : 6,
            "WEIGHTS_0" : 7,
            "TEXCOORD_0" : 8,
            "TEXCOORD_1" : 9
          },
          "indices" : 1,
          "material" : 0
        }
      ],
      "name" : "SK_CH_WP09_AA00"
    }
  ],
  "buffers" : [
    {
      "uri" : "SK_CH_WP09_AA00.bin",
      "byteLength" : 385340
    }
  ],
  "bufferViews" : [
    {
      "buffer" : 0,
      "byteOffset" : 0,
      "byteLength" : 128
    },
    {
      "buffer" : 0,
      "byteOffset" : 128,
      "byteLength" : 26364
    },
    {
      "buffer" : 0,
      "byteOffset" : 26492,
      "byteLength" : 59808
    },
    {
      "buffer" : 0,
      "byteOffset" : 86300,
      "byteLength" : 59808
    },
    {
      "buffer" : 0,
      "byteOffset" : 146108,
      "byteLength" : 79744
    },
    {
      "buffer" : 0,
      "byteOffset" : 225852,
      "byteLength" : 19936
    },
    {
      "buffer" : 0,
      "byteOffset" : 245788,
      "byteLength" : 39872
    },
    {
      "buffer" : 0,
      "byteOffset" : 285660,
      "byteLength" : 19936
    },
    {
      "buffer" : 0,
      "byteOffset" : 305596,
      "byteLength" : 39872
    },
    {
      "buffer" : 0,
      "byteOffset" : 345468,
      "byteLength" : 39872
    }
  ],
  "accessors" : [
    {
      "bufferView" : 0,
      "componentType" : 5126,
      "count" : 2,
      "type" : "MAT4"
    },
    {
      "bufferView" : 1,
      "componentType" : 5123,
      "count" : 13182,
      "type" : "SCALAR"
    },
    {
      "bufferView" : 2,
      "min" : [ -0.827841, -0.388645, -0.331613 ],
      "max" : [ 0.46946, 0.388645, -0.0398609 ],
      "componentType" : 5126,
      "count" : 4984,
      "type" : "VEC3"
    },
    {
      "bufferView" : 3,
      "componentType" : 5126,
      "count" : 4984,
      "type" : "VEC3"
    },
    {
      "bufferView" : 4,
      "componentType" : 5126,
      "count" : 4984,
      "type" : "VEC4"
    },
    {
      "bufferView" : 5,
      "normalized" : true,
      "componentType" : 5121,
      "count" : 4984,
      "type" : "VEC4"
    },
    {
      "bufferView" : 6,
      "componentType" : 5123,
      "count" : 4984,
      "type" : "VEC4"
    },
    {
      "bufferView" : 7,
      "normalized" : true,
      "componentType" : 5121,
      "count" : 4984,
      "type" : "VEC4"
    },
    {
      "bufferView" : 8,
      "componentType" : 5126,
      "count" : 4984,
      "type" : "VEC2"
    },
    {
      "bufferView" : 9,
      "componentType" : 5126,
      "count" : 4984,
      "type" : "VEC2"
    }
  ]
}
