{
  "asset" : {
    "generator" : "UE Viewer (umodel) build 1579 based",
    "version" : "2.0"
  },
  "scene" : 0,
  "scenes" : [
    {
      "nodes" : [ 0 ]
    }
  ],
  "nodes" : [
    {
      "name" : "SK_CH_WP02_AZ00",
      "mesh" : 0,
      "skin" : 0,
      "children" : [ 1 ]
    },
    {
      "name" : "Root_J",
      "children" : [ 2 ],
      "translation" : [ 0, 0, 0 ],
      "rotation" : [ -0, -0, -0, 1 ]
    },
    {
      "name" : "Center_J",
      "children" : [ 3, 4, 5 ],
      "translation" : [ 0, 0.177282, -0 ],
      "rotation" : [ -0, -0, 0, -1 ]
    },
    {
      "name" : "R_EdgeTop",
      "translation" : [ -0.00908277, 1.33504, -7.59659e-18 ],
      "rotation" : [ -0, -0, 0, -1 ]
    },
    {
      "name" : "R_EdgeBottom",
      "translation" : [ 1.44329e-17, 0.377965, -2.65799e-19 ],
      "rotation" : [ -0, -0, 0, -1 ]
    },
    {
      "name" : "R_HandleBottom",
      "translation" : [ 0, -1.23581, -0 ],
      "rotation" : [ -0, -0, 0, -1 ]
    }
  ],
  "skins" : [
    {
      "inverseBindMatrices" : 0,
      "skeleton" : 1,
      "joints" : [
        1,2,3,4,5
      ]
    }
  ],
  "materials" : [
    {
      "name" : "M_CH_WP02_AZ00_00",
      "pbrMetallicRoughness" : {
        "baseColorFactor" : [ 0.3, 0.3, 0.3, 1.0 ],
        "metallicFactor" : 0.1,
        "roughnessFactor" : 0.5
      }
    },
    {
      "name" : "M_CH_WP02_AZ00_00_Sphere",
      "pbrMetallicRoughness" : {
        "baseColorFactor" : [ 0.9, 0.3, 0.3, 1.0 ],
        "metallicFactor" : 0.1,
        "roughnessFactor" : 0.5
      }
    }
  ],
  "meshes" : [
    {
      "primitives" : [
        {
          "attributes" : {
            "POSITION" : 2,
            "NORMAL" : 3,
            "TANGENT" : 4,
            "COLOR_0" : 5,
            "JOINTS_0" : 6,
            "WEIGHTS_0" : 7,
            "TEXCOORD_0" : 8,
            "TEXCOORD_1" : 9
          },
          "indices" : 1,
          "material" : 0
        },
        {
          "attributes" : {
            "POSITION" : 11,
            "NORMAL" : 12,
            "TANGENT" : 13,
            "COLOR_0" : 14,
            "JOINTS_0" : 15,
            "WEIGHTS_0" : 16,
            "TEXCOORD_0" : 17,
            "TEXCOORD_1" : 18
          },
          "indices" : 10,
          "material" : 1
        }
      ],
      "name" : "SK_CH_WP02_AZ00"
    }
  ],
  "buffers" : [
    {
      "uri" : "SK_CH_WP02_AZ00.bin",
      "byteLength" : 708548
    }
  ],
  "bufferViews" : [
    {
      "buffer" : 0,
      "byteOffset" : 0,
      "byteLength" : 320
    },
    {
      "buffer" : 0,
      "byteOffset" : 320,
      "byteLength" : 49740
    },
    {
      "buffer" : 0,
      "byteOffset" : 50060,
      "byteLength" : 107016
    },
    {
      "buffer" : 0,
      "byteOffset" : 157076,
      "byteLength" : 107016
    },
    {
      "buffer" : 0,
      "byteOffset" : 264092,
      "byteLength" : 142688
    },
    {
      "buffer" : 0,
      "byteOffset" : 406780,
      "byteLength" : 35672
    },
    {
      "buffer" : 0,
      "byteOffset" : 442452,
      "byteLength" : 71344
    },
    {
      "buffer" : 0,
      "byteOffset" : 513796,
      "byteLength" : 35672
    },
    {
      "buffer" : 0,
      "byteOffset" : 549468,
      "byteLength" : 71344
    },
    {
      "buffer" : 0,
      "byteOffset" : 620812,
      "byteLength" : 71344
    },
    {
      "buffer" : 0,
      "byteOffset" : 692156,
      "byteLength" : 1920
    },
    {
      "buffer" : 0,
      "byteOffset" : 694076,
      "byteLength" : 2412
    },
    {
      "buffer" : 0,
      "byteOffset" : 696488,
      "byteLength" : 2412
    },
    {
      "buffer" : 0,
      "byteOffset" : 698900,
      "byteLength" : 3216
    },
    {
      "buffer" : 0,
      "byteOffset" : 702116,
      "byteLength" : 804
    },
    {
      "buffer" : 0,
      "byteOffset" : 702920,
      "byteLength" : 1608
    },
    {
      "buffer" : 0,
      "byteOffset" : 704528,
      "byteLength" : 804
    },
    {
      "buffer" : 0,
      "byteOffset" : 705332,
      "byteLength" : 1608
    },
    {
      "buffer" : 0,
      "byteOffset" : 706940,
      "byteLength" : 1608
    }
  ],
  "accessors" : [
    {
      "bufferView" : 0,
      "componentType" : 5126,
      "count" : 5,
      "type" : "MAT4"
    },
    {
      "bufferView" : 1,
      "componentType" : 5123,
      "count" : 24870,
      "type" : "SCALAR"
    },
    {
      "bufferView" : 2,
      "min" : [ -0.145566, -1.059, -0.031502 ],
      "max" : [ 0.0999133, 1.51232, 0.031502 ],
      "componentType" : 5126,
      "count" : 8918,
      "type" : "VEC3"
    },
    {
      "bufferView" : 3,
      "componentType" : 5126,
      "count" : 8918,
      "type" : "VEC3"
    },
    {
      "bufferView" : 4,
      "componentType" : 5126,
      "count" : 8918,
      "type" : "VEC4"
    },
    {
      "bufferView" : 5,
      "normalized" : true,
      "componentType" : 5121,
      "count" : 8918,
      "type" : "VEC4"
    },
    {
      "bufferView" : 6,
      "componentType" : 5123,
      "count" : 8918,
      "type" : "VEC4"
    },
    {
      "bufferView" : 7,
      "normalized" : true,
      "componentType" : 5121,
      "count" : 8918,
      "type" : "VEC4"
    },
    {
      "bufferView" : 8,
      "componentType" : 5126,
      "count" : 8918,
      "type" : "VEC2"
    },
    {
      "bufferView" : 9,
      "componentType" : 5126,
      "count" : 8918,
      "type" : "VEC2"
    },
    {
      "bufferView" : 10,
      "componentType" : 5123,
      "count" : 960,
      "type" : "SCALAR"
    },
    {
      "bufferView" : 11,
      "min" : [ -0.029726, -0.795577, -0.0297951 ],
      "max" : [ 0.029726, -0.736602, 0.0297951 ],
      "componentType" : 5126,
      "count" : 201,
      "type" : "VEC3"
    },
    {
      "bufferView" : 12,
      "componentType" : 5126,
      "count" : 201,
      "type" : "VEC3"
    },
    {
      "bufferView" : 13,
      "componentType" : 5126,
      "count" : 201,
      "type" : "VEC4"
    },
    {
      "bufferView" : 14,
      "normalized" : true,
      "componentType" : 5121,
      "count" : 201,
      "type" : "VEC4"
    },
    {
      "bufferView" : 15,
      "componentType" : 5123,
      "count" : 201,
      "type" : "VEC4"
    },
    {
      "bufferView" : 16,
      "normalized" : true,
      "componentType" : 5121,
      "count" : 201,
      "type" : "VEC4"
    },
    {
      "bufferView" : 17,
      "componentType" : 5126,
      "count" : 201,
      "type" : "VEC2"
    },
    {
      "bufferView" : 18,
      "componentType" : 5126,
      "count" : 201,
      "type" : "VEC2"
    }
  ]
}
