{
  "asset" : {
    "generator" : "UE Viewer (umodel) build 1579 based",
    "version" : "2.0"
  },
  "scene" : 0,
  "scenes" : [
    {
      "nodes" : [ 0 ]
    }
  ],
  "nodes" : [
    {
      "name" : "SK_CH_WP09_AT00",
      "mesh" : 0,
      "skin" : 0,
      "children" : [ 1 ]
    },
    {
      "name" : "Root_J",
      "children" : [ 2 ],
      "translation" : [ 0, 0, 0 ],
      "rotation" : [ -0, -0, -0, 1 ]
    },
    {
      "name" : "Center_J",
      "translation" : [ 0, 0, -0.09 ],
      "rotation" : [ -0, -0, 0, -1 ]
    }
  ],
  "skins" : [
    {
      "inverseBindMatrices" : 0,
      "skeleton" : 1,
      "joints" : [
        1,2
      ]
    }
  ],
  "materials" : [
    {
      "name" : "M_CH_WP09_AT00_00",
      "pbrMetallicRoughness" : {
        "baseColorFactor" : [ 0.3, 0.3, 0.3, 1.0 ],
        "metallicFactor" : 0.1,
        "roughnessFactor" : 0.5
      }
    }
  ],
  "meshes" : [
    {
      "primitives" : [
        {
          "attributes" : {
            "POSITION" : 2,
            "NORMAL" : 3,
            "TANGENT" : 4,
            "COLOR_0" : 5,
            "JOINTS_0" : 6,
            "WEIGHTS_0" : 7,
            "TEXCOORD_0" : 8,
            "TEXCOORD_1" : 9
          },
          "indices" : 1,
          "material" : 0
        }
      ],
      "name" : "SK_CH_WP09_AT00"
    }
  ],
  "buffers" : [
    {
      "uri" : "SK_CH_WP09_AT00.bin",
      "byteLength" : 878636
    }
  ],
  "bufferViews" : [
    {
      "buffer" : 0,
      "byteOffset" : 0,
      "byteLength" : 128
    },
    {
      "buffer" : 0,
      "byteOffset" : 128,
      "byteLength" : 55980
    },
    {
      "buffer" : 0,
      "byteOffset" : 56108,
      "byteLength" : 137088
    },
    {
      "buffer" : 0,
      "byteOffset" : 193196,
      "byteLength" : 137088
    },
    {
      "buffer" : 0,
      "byteOffset" : 330284,
      "byteLength" : 182784
    },
    {
      "buffer" : 0,
      "byteOffset" : 513068,
      "byteLength" : 45696
    },
    {
      "buffer" : 0,
      "byteOffset" : 558764,
      "byteLength" : 91392
    },
    {
      "buffer" : 0,
      "byteOffset" : 650156,
      "byteLength" : 45696
    },
    {
      "buffer" : 0,
      "byteOffset" : 695852,
      "byteLength" : 91392
    },
    {
      "buffer" : 0,
      "byteOffset" : 787244,
      "byteLength" : 91392
    }
  ],
  "accessors" : [
    {
      "bufferView" : 0,
      "componentType" : 5126,
      "count" : 2,
      "type" : "MAT4"
    },
    {
      "bufferView" : 1,
      "componentType" : 5123,
      "count" : 27990,
      "type" : "SCALAR"
    },
    {
      "bufferView" : 2,
      "min" : [ -0.617226, -0.479862, -0.311579 ],
      "max" : [ 0.479752, 0.479862, -0.158507 ],
      "componentType" : 5126,
      "count" : 11424,
      "type" : "VEC3"
    },
    {
      "bufferView" : 3,
      "componentType" : 5126,
      "count" : 11424,
      "type" : "VEC3"
    },
    {
      "bufferView" : 4,
      "componentType" : 5126,
      "count" : 11424,
      "type" : "VEC4"
    },
    {
      "bufferView" : 5,
      "normalized" : true,
      "componentType" : 5121,
      "count" : 11424,
      "type" : "VEC4"
    },
    {
      "bufferView" : 6,
      "componentType" : 5123,
      "count" : 11424,
      "type" : "VEC4"
    },
    {
      "bufferView" : 7,
      "normalized" : true,
      "componentType" : 5121,
      "count" : 11424,
      "type" : "VEC4"
    },
    {
      "bufferView" : 8,
      "componentType" : 5126,
      "count" : 11424,
      "type" : "VEC2"
    },
    {
      "bufferView" : 9,
      "componentType" : 5126,
      "count" : 11424,
      "type" : "VEC2"
    }
  ]
}
