{
  "asset" : {
    "generator" : "UE Viewer (umodel) build 1579 based",
    "version" : "2.0"
  },
  "scene" : 0,
  "scenes" : [
    {
      "nodes" : [ 0 ]
    }
  ],
  "nodes" : [
    {
      "name" : "SK_CH_WP07_AZ00",
      "mesh" : 0,
      "skin" : 0,
      "children" : [ 1 ]
    },
    {
      "name" : "Root_J",
      "children" : [ 2 ],
      "translation" : [ 0, 0, 0 ],
      "rotation" : [ -0, -0, -0, 1 ]
    },
    {
      "name" : "Center_J",
      "children" : [ 3, 4, 5, 6, 8 ],
      "translation" : [ 0, -0.0205827, -0 ],
      "rotation" : [ -0, -0, 0, -1 ]
    },
    {
      "name" : "R_EdgeTop",
      "translation" : [ -5.77521e-06, 0.530143, -0 ],
      "rotation" : [ -0, -0, 0.707082, -0.707132 ]
    },
    {
      "name" : "R_EdgeBottom",
      "translation" : [ 0, 0.273963, -0 ],
      "rotation" : [ -0, -0, 0, -1 ]
    },
    {
      "name" : "R_HandleBottom",
      "translation" : [ 0, -0.592477, -0 ],
      "rotation" : [ -0, -0, 0, -1 ]
    },
    {
      "name" : "UpperCover_J",
      "children" : [ 7 ],
      "translation" : [ 0, 0.0771827, -0 ],
      "rotation" : [ -0, -0, 0, -1 ]
    },
    {
      "name" : "R_Discharge",
      "translation" : [ 1.82372e-05, 0.114109, -0 ],
      "rotation" : [ -0, -0, 0.707082, -0.707132 ]
    },
    {
      "name" : "LowerSlide_J",
      "translation" : [ 0, -0.262817, -0 ],
      "rotation" : [ -0, -0, 0, -1 ]
    }
  ],
  "skins" : [
    {
      "inverseBindMatrices" : 0,
      "skeleton" : 1,
      "joints" : [
        1,2,3,4,5,6,7,8
      ]
    }
  ],
  "materials" : [
    {
      "name" : "M_CH_WP07_AZ00_00",
      "pbrMetallicRoughness" : {
        "baseColorFactor" : [ 0.3, 0.3, 0.3, 1.0 ],
        "metallicFactor" : 0.1,
        "roughnessFactor" : 0.5
      }
    },
    {
      "name" : "M_CH_WP07_AZ00_00_Sphere",
      "pbrMetallicRoughness" : {
        "baseColorFactor" : [ 0.9, 0.3, 0.3, 1.0 ],
        "metallicFactor" : 0.1,
        "roughnessFactor" : 0.5
      }
    }
  ],
  "meshes" : [
    {
      "primitives" : [
        {
          "attributes" : {
            "POSITION" : 2,
            "NORMAL" : 3,
            "TANGENT" : 4,
            "COLOR_0" : 5,
            "JOINTS_0" : 6,
            "WEIGHTS_0" : 7,
            "TEXCOORD_0" : 8,
            "TEXCOORD_1" : 9
          },
          "indices" : 1,
          "material" : 0
        },
        {
          "attributes" : {
            "POSITION" : 11,
            "NORMAL" : 12,
            "TANGENT" : 13,
            "COLOR_0" : 14,
            "JOINTS_0" : 15,
            "WEIGHTS_0" : 16,
            "TEXCOORD_0" : 17,
            "TEXCOORD_1" : 18
          },
          "indices" : 10,
          "material" : 1
        }
      ],
      "name" : "SK_CH_WP07_AZ00"
    }
  ],
  "buffers" : [
    {
      "uri" : "SK_CH_WP07_AZ00.bin",
      "byteLength" : 972980
    }
  ],
  "bufferViews" : [
    {
      "buffer" : 0,
      "byteOffset" : 0,
      "byteLength" : 512
    },
    {
      "buffer" : 0,
      "byteOffset" : 512,
      "byteLength" : 72012
    },
    {
      "buffer" : 0,
      "byteOffset" : 72524,
      "byteLength" : 146400
    },
    {
      "buffer" : 0,
      "byteOffset" : 218924,
      "byteLength" : 146400
    },
    {
      "buffer" : 0,
      "byteOffset" : 365324,
      "byteLength" : 195200
    },
    {
      "buffer" : 0,
      "byteOffset" : 560524,
      "byteLength" : 48800
    },
    {
      "buffer" : 0,
      "byteOffset" : 609324,
      "byteLength" : 97600
    },
    {
      "buffer" : 0,
      "byteOffset" : 706924,
      "byteLength" : 48800
    },
    {
      "buffer" : 0,
      "byteOffset" : 755724,
      "byteLength" : 97600
    },
    {
      "buffer" : 0,
      "byteOffset" : 853324,
      "byteLength" : 97600
    },
    {
      "buffer" : 0,
      "byteOffset" : 950924,
      "byteLength" : 2616
    },
    {
      "buffer" : 0,
      "byteOffset" : 953540,
      "byteLength" : 3240
    },
    {
      "buffer" : 0,
      "byteOffset" : 956780,
      "byteLength" : 3240
    },
    {
      "buffer" : 0,
      "byteOffset" : 960020,
      "byteLength" : 4320
    },
    {
      "buffer" : 0,
      "byteOffset" : 964340,
      "byteLength" : 1080
    },
    {
      "buffer" : 0,
      "byteOffset" : 965420,
      "byteLength" : 2160
    },
    {
      "buffer" : 0,
      "byteOffset" : 967580,
      "byteLength" : 1080
    },
    {
      "buffer" : 0,
      "byteOffset" : 968660,
      "byteLength" : 2160
    },
    {
      "buffer" : 0,
      "byteOffset" : 970820,
      "byteLength" : 2160
    }
  ],
  "accessors" : [
    {
      "bufferView" : 0,
      "componentType" : 5126,
      "count" : 8,
      "type" : "MAT4"
    },
    {
      "bufferView" : 1,
      "componentType" : 5123,
      "count" : 36006,
      "type" : "SCALAR"
    },
    {
      "bufferView" : 2,
      "min" : [ -0.119573, -0.6531, -0.0796325 ],
      "max" : [ 0.119573, 0.586388, 0.0277725 ],
      "componentType" : 5126,
      "count" : 12200,
      "type" : "VEC3"
    },
    {
      "bufferView" : 3,
      "componentType" : 5126,
      "count" : 12200,
      "type" : "VEC3"
    },
    {
      "bufferView" : 4,
      "componentType" : 5126,
      "count" : 12200,
      "type" : "VEC4"
    },
    {
      "bufferView" : 5,
      "normalized" : true,
      "componentType" : 5121,
      "count" : 12200,
      "type" : "VEC4"
    },
    {
      "bufferView" : 6,
      "componentType" : 5123,
      "count" : 12200,
      "type" : "VEC4"
    },
    {
      "bufferView" : 7,
      "normalized" : true,
      "componentType" : 5121,
      "count" : 12200,
      "type" : "VEC4"
    },
    {
      "bufferView" : 8,
      "componentType" : 5126,
      "count" : 12200,
      "type" : "VEC2"
    },
    {
      "bufferView" : 9,
      "componentType" : 5126,
      "count" : 12200,
      "type" : "VEC2"
    },
    {
      "bufferView" : 10,
      "componentType" : 5123,
      "count" : 1308,
      "type" : "SCALAR"
    },
    {
      "bufferView" : 11,
      "min" : [ -0.0162629, 0.348127, -0.00886515 ],
      "max" : [ 0.0162629, 0.380665, 0.0235008 ],
      "componentType" : 5126,
      "count" : 270,
      "type" : "VEC3"
    },
    {
      "bufferView" : 12,
      "componentType" : 5126,
      "count" : 270,
      "type" : "VEC3"
    },
    {
      "bufferView" : 13,
      "componentType" : 5126,
      "count" : 270,
      "type" : "VEC4"
    },
    {
      "bufferView" : 14,
      "normalized" : true,
      "componentType" : 5121,
      "count" : 270,
      "type" : "VEC4"
    },
    {
      "bufferView" : 15,
      "componentType" : 5123,
      "count" : 270,
      "type" : "VEC4"
    },
    {
      "bufferView" : 16,
      "normalized" : true,
      "componentType" : 5121,
      "count" : 270,
      "type" : "VEC4"
    },
    {
      "bufferView" : 17,
      "componentType" : 5126,
      "count" : 270,
      "type" : "VEC2"
    },
    {
      "bufferView" : 18,
      "componentType" : 5126,
      "count" : 270,
      "type" : "VEC2"
    }
  ]
}
