{
  "asset" : {
    "generator" : "UE Viewer (umodel) build 1579 based",
    "version" : "2.0"
  },
  "scene" : 0,
  "scenes" : [
    {
      "nodes" : [ 0 ]
    }
  ],
  "nodes" : [
    {
      "name" : "SK_CH_WP09_AZ00",
      "mesh" : 0,
      "skin" : 0,
      "children" : [ 1 ]
    },
    {
      "name" : "Root_J",
      "children" : [ 2 ],
      "translation" : [ 0, 0, 0 ],
      "rotation" : [ -0, -0, -0, 1 ]
    },
    {
      "name" : "Center_J",
      "translation" : [ 0, 0, -0.09 ],
      "rotation" : [ -0, -0, 0, -1 ]
    }
  ],
  "skins" : [
    {
      "inverseBindMatrices" : 0,
      "skeleton" : 1,
      "joints" : [
        1,2
      ]
    }
  ],
  "materials" : [
    {
      "name" : "M_CH_WP09_AZ00_00",
      "pbrMetallicRoughness" : {
        "baseColorFactor" : [ 0.3, 0.3, 0.3, 1.0 ],
        "metallicFactor" : 0.1,
        "roughnessFactor" : 0.5
      }
    },
    {
      "name" : "M_CH_WP09_AZ00_00_Sphere",
      "pbrMetallicRoughness" : {
        "baseColorFactor" : [ 0.9, 0.3, 0.3, 1.0 ],
        "metallicFactor" : 0.1,
        "roughnessFactor" : 0.5
      }
    }
  ],
  "meshes" : [
    {
      "primitives" : [
        {
          "attributes" : {
            "POSITION" : 2,
            "NORMAL" : 3,
            "TANGENT" : 4,
            "COLOR_0" : 5,
            "JOINTS_0" : 6,
            "WEIGHTS_0" : 7,
            "TEXCOORD_0" : 8,
            "TEXCOORD_1" : 9
          },
          "indices" : 1,
          "material" : 0
        },
        {
          "attributes" : {
            "POSITION" : 11,
            "NORMAL" : 12,
            "TANGENT" : 13,
            "COLOR_0" : 14,
            "JOINTS_0" : 15,
            "WEIGHTS_0" : 16,
            "TEXCOORD_0" : 17,
            "TEXCOORD_1" : 18
          },
          "indices" : 10,
          "material" : 1
        }
      ],
      "name" : "SK_CH_WP09_AZ00"
    }
  ],
  "buffers" : [
    {
      "uri" : "SK_CH_WP09_AZ00.bin",
      "byteLength" : 858064
    }
  ],
  "bufferViews" : [
    {
      "buffer" : 0,
      "byteOffset" : 0,
      "byteLength" : 128
    },
    {
      "buffer" : 0,
      "byteOffset" : 128,
      "byteLength" : 62672
    },
    {
      "buffer" : 0,
      "byteOffset" : 62800,
      "byteLength" : 128136
    },
    {
      "buffer" : 0,
      "byteOffset" : 190936,
      "byteLength" : 128136
    },
    {
      "buffer" : 0,
      "byteOffset" : 319072,
      "byteLength" : 170848
    },
    {
      "buffer" : 0,
      "byteOffset" : 489920,
      "byteLength" : 42712
    },
    {
      "buffer" : 0,
      "byteOffset" : 532632,
      "byteLength" : 85424
    },
    {
      "buffer" : 0,
      "byteOffset" : 618056,
      "byteLength" : 42712
    },
    {
      "buffer" : 0,
      "byteOffset" : 660768,
      "byteLength" : 85424
    },
    {
      "buffer" : 0,
      "byteOffset" : 746192,
      "byteLength" : 85424
    },
    {
      "buffer" : 0,
      "byteOffset" : 831616,
      "byteLength" : 3264
    },
    {
      "buffer" : 0,
      "byteOffset" : 834880,
      "byteLength" : 3864
    },
    {
      "buffer" : 0,
      "byteOffset" : 838744,
      "byteLength" : 3864
    },
    {
      "buffer" : 0,
      "byteOffset" : 842608,
      "byteLength" : 5152
    },
    {
      "buffer" : 0,
      "byteOffset" : 847760,
      "byteLength" : 1288
    },
    {
      "buffer" : 0,
      "byteOffset" : 849048,
      "byteLength" : 2576
    },
    {
      "buffer" : 0,
      "byteOffset" : 851624,
      "byteLength" : 1288
    },
    {
      "buffer" : 0,
      "byteOffset" : 852912,
      "byteLength" : 2576
    },
    {
      "buffer" : 0,
      "byteOffset" : 855488,
      "byteLength" : 2576
    }
  ],
  "accessors" : [
    {
      "bufferView" : 0,
      "componentType" : 5126,
      "count" : 2,
      "type" : "MAT4"
    },
    {
      "bufferView" : 1,
      "componentType" : 5123,
      "count" : 31335,
      "type" : "SCALAR"
    },
    {
      "bufferView" : 2,
      "min" : [ -0.822984, -0.440257, -0.272124 ],
      "max" : [ 0.540672, 0.340923, 0.031689 ],
      "componentType" : 5126,
      "count" : 10678,
      "type" : "VEC3"
    },
    {
      "bufferView" : 3,
      "componentType" : 5126,
      "count" : 10678,
      "type" : "VEC3"
    },
    {
      "bufferView" : 4,
      "componentType" : 5126,
      "count" : 10678,
      "type" : "VEC4"
    },
    {
      "bufferView" : 5,
      "normalized" : true,
      "componentType" : 5121,
      "count" : 10678,
      "type" : "VEC4"
    },
    {
      "bufferView" : 6,
      "componentType" : 5123,
      "count" : 10678,
      "type" : "VEC4"
    },
    {
      "bufferView" : 7,
      "normalized" : true,
      "componentType" : 5121,
      "count" : 10678,
      "type" : "VEC4"
    },
    {
      "bufferView" : 8,
      "componentType" : 5126,
      "count" : 10678,
      "type" : "VEC2"
    },
    {
      "bufferView" : 9,
      "componentType" : 5126,
      "count" : 10678,
      "type" : "VEC2"
    },
    {
      "bufferView" : 10,
      "componentType" : 5123,
      "count" : 1632,
      "type" : "SCALAR"
    },
    {
      "bufferView" : 11,
      "min" : [ -0.0322749, -0.0677783, -0.247446 ],
      "max" : [ 0.10076, 0.0654969, -0.114466 ],
      "componentType" : 5126,
      "count" : 322,
      "type" : "VEC3"
    },
    {
      "bufferView" : 12,
      "componentType" : 5126,
      "count" : 322,
      "type" : "VEC3"
    },
    {
      "bufferView" : 13,
      "componentType" : 5126,
      "count" : 322,
      "type" : "VEC4"
    },
    {
      "bufferView" : 14,
      "normalized" : true,
      "componentType" : 5121,
      "count" : 322,
      "type" : "VEC4"
    },
    {
      "bufferView" : 15,
      "componentType" : 5123,
      "count" : 322,
      "type" : "VEC4"
    },
    {
      "bufferView" : 16,
      "normalized" : true,
      "componentType" : 5121,
      "count" : 322,
      "type" : "VEC4"
    },
    {
      "bufferView" : 17,
      "componentType" : 5126,
      "count" : 322,
      "type" : "VEC2"
    },
    {
      "bufferView" : 18,
      "componentType" : 5126,
      "count" : 322,
      "type" : "VEC2"
    }
  ]
}
