{
  "asset" : {
    "generator" : "UE Viewer (umodel) build 1579 based",
    "version" : "2.0"
  },
  "scene" : 0,
  "scenes" : [
    {
      "nodes" : [ 0 ]
    }
  ],
  "nodes" : [
    {
      "name" : "SK_CH_WP02_AV00",
      "mesh" : 0,
      "skin" : 0,
      "children" : [ 1 ]
    },
    {
      "name" : "root_J",
      "children" : [ 2 ],
      "translation" : [ 0, 0, 0 ],
      "rotation" : [ -0, -0, -0, 1 ]
    },
    {
      "name" : "Center_J",
      "children" : [ 3, 4, 5 ],
      "translation" : [ 0, 0.177282, -0 ],
      "rotation" : [ -0, -0, 0, -1 ]
    },
    {
      "name" : "R_EdgeTop",
      "translation" : [ 0, 1.2784, -0 ],
      "rotation" : [ -0, -0, 0, -1 ]
    },
    {
      "name" : "R_EdgeBottom",
      "translation" : [ 0, 0.507704, -0 ],
      "rotation" : [ -0, -0, 0, -1 ]
    },
    {
      "name" : "R_HandleBottom",
      "translation" : [ 0, -1.27672, -0 ],
      "rotation" : [ -0, -0, 0, -1 ]
    }
  ],
  "skins" : [
    {
      "inverseBindMatrices" : 0,
      "skeleton" : 1,
      "joints" : [
        1,2,3,4,5
      ]
    }
  ],
  "materials" : [
    {
      "name" : "M_CH_WP02_AV00_00",
      "pbrMetallicRoughness" : {
        "baseColorFactor" : [ 0.3, 0.3, 0.3, 1.0 ],
        "metallicFactor" : 0.1,
        "roughnessFactor" : 0.5
      }
    }
  ],
  "meshes" : [
    {
      "primitives" : [
        {
          "attributes" : {
            "POSITION" : 2,
            "NORMAL" : 3,
            "TANGENT" : 4,
            "COLOR_0" : 5,
            "JOINTS_0" : 6,
            "WEIGHTS_0" : 7,
            "TEXCOORD_0" : 8,
            "TEXCOORD_1" : 9
          },
          "indices" : 1,
          "material" : 0
        }
      ],
      "name" : "SK_CH_WP02_AV00"
    }
  ],
  "buffers" : [
    {
      "uri" : "SK_CH_WP02_AV00.bin",
      "byteLength" : 382136
    }
  ],
  "bufferViews" : [
    {
      "buffer" : 0,
      "byteOffset" : 0,
      "byteLength" : 320
    },
    {
      "buffer" : 0,
      "byteOffset" : 320,
      "byteLength" : 28224
    },
    {
      "buffer" : 0,
      "byteOffset" : 28544,
      "byteLength" : 58932
    },
    {
      "buffer" : 0,
      "byteOffset" : 87476,
      "byteLength" : 58932
    },
    {
      "buffer" : 0,
      "byteOffset" : 146408,
      "byteLength" : 78576
    },
    {
      "buffer" : 0,
      "byteOffset" : 224984,
      "byteLength" : 19644
    },
    {
      "buffer" : 0,
      "byteOffset" : 244628,
      "byteLength" : 39288
    },
    {
      "buffer" : 0,
      "byteOffset" : 283916,
      "byteLength" : 19644
    },
    {
      "buffer" : 0,
      "byteOffset" : 303560,
      "byteLength" : 39288
    },
    {
      "buffer" : 0,
      "byteOffset" : 342848,
      "byteLength" : 39288
    }
  ],
  "accessors" : [
    {
      "bufferView" : 0,
      "componentType" : 5126,
      "count" : 5,
      "type" : "MAT4"
    },
    {
      "bufferView" : 1,
      "componentType" : 5123,
      "count" : 14112,
      "type" : "SCALAR"
    },
    {
      "bufferView" : 2,
      "min" : [ -0.123142, -1.10775, -0.0908656 ],
      "max" : [ 0.123142, 1.46744, 0.0221856 ],
      "componentType" : 5126,
      "count" : 4911,
      "type" : "VEC3"
    },
    {
      "bufferView" : 3,
      "componentType" : 5126,
      "count" : 4911,
      "type" : "VEC3"
    },
    {
      "bufferView" : 4,
      "componentType" : 5126,
      "count" : 4911,
      "type" : "VEC4"
    },
    {
      "bufferView" : 5,
      "normalized" : true,
      "componentType" : 5121,
      "count" : 4911,
      "type" : "VEC4"
    },
    {
      "bufferView" : 6,
      "componentType" : 5123,
      "count" : 4911,
      "type" : "VEC4"
    },
    {
      "bufferView" : 7,
      "normalized" : true,
      "componentType" : 5121,
      "count" : 4911,
      "type" : "VEC4"
    },
    {
      "bufferView" : 8,
      "componentType" : 5126,
      "count" : 4911,
      "type" : "VEC2"
    },
    {
      "bufferView" : 9,
      "componentType" : 5126,
      "count" : 4911,
      "type" : "VEC2"
    }
  ]
}
