{
  "asset" : {
    "generator" : "UE Viewer (umodel) build 1579 based",
    "version" : "2.0"
  },
  "scene" : 0,
  "scenes" : [
    {
      "nodes" : [ 0 ]
    }
  ],
  "nodes" : [
    {
      "name" : "SK_CH_WP21_AR00",
      "mesh" : 0,
      "skin" : 0,
      "children" : [ 1 ]
    },
    {
      "name" : "Root_J",
      "children" : [ 2 ],
      "translation" : [ 0, 0, 0 ],
      "rotation" : [ -0, -0, -0, 1 ]
    },
    {
      "name" : "Center_J",
      "children" : [ 3, 4, 5 ],
      "translation" : [ 0.005, -0.11, -0.01 ],
      "rotation" : [ -0, -0, 0, -1 ]
    },
    {
      "name" : "L_EdgeTop",
      "translation" : [ 0.02, 0.53, -0 ],
      "rotation" : [ -0, -0, 0, -1 ]
    },
    {
      "name" : "L_EdgeBottom",
      "translation" : [ 0, -0.75, -0 ],
      "rotation" : [ -0, -0, 0, -1 ]
    },
    {
      "name" : "L_HandleBottom",
      "translation" : [ 0, -0.2, -0 ],
      "rotation" : [ -0, -0, 0, -1 ]
    }
  ],
  "skins" : [
    {
      "inverseBindMatrices" : 0,
      "skeleton" : 1,
      "joints" : [
        1,2,3,4,5
      ]
    }
  ],
  "materials" : [
    {
      "name" : "M_CH_WP21_AR00_00",
      "pbrMetallicRoughness" : {
        "baseColorFactor" : [ 0.3, 0.3, 0.3, 1.0 ],
        "metallicFactor" : 0.1,
        "roughnessFactor" : 0.5
      }
    }
  ],
  "meshes" : [
    {
      "primitives" : [
        {
          "attributes" : {
            "POSITION" : 2,
            "NORMAL" : 3,
            "TANGENT" : 4,
            "COLOR_0" : 5,
            "JOINTS_0" : 6,
            "WEIGHTS_0" : 7,
            "TEXCOORD_0" : 8,
            "TEXCOORD_1" : 9
          },
          "indices" : 1,
          "material" : 0
        }
      ],
      "name" : "SK_CH_WP21_AR00"
    }
  ],
  "buffers" : [
    {
      "uri" : "SK_CH_WP21_AR00.bin",
      "byteLength" : 1176428
    }
  ],
  "bufferViews" : [
    {
      "buffer" : 0,
      "byteOffset" : 0,
      "byteLength" : 320
    },
    {
      "buffer" : 0,
      "byteOffset" : 320,
      "byteLength" : 76092
    },
    {
      "buffer" : 0,
      "byteOffset" : 76412,
      "byteLength" : 183336
    },
    {
      "buffer" : 0,
      "byteOffset" : 259748,
      "byteLength" : 183336
    },
    {
      "buffer" : 0,
      "byteOffset" : 443084,
      "byteLength" : 244448
    },
    {
      "buffer" : 0,
      "byteOffset" : 687532,
      "byteLength" : 61112
    },
    {
      "buffer" : 0,
      "byteOffset" : 748644,
      "byteLength" : 122224
    },
    {
      "buffer" : 0,
      "byteOffset" : 870868,
      "byteLength" : 61112
    },
    {
      "buffer" : 0,
      "byteOffset" : 931980,
      "byteLength" : 122224
    },
    {
      "buffer" : 0,
      "byteOffset" : 1054204,
      "byteLength" : 122224
    }
  ],
  "accessors" : [
    {
      "bufferView" : 0,
      "componentType" : 5126,
      "count" : 5,
      "type" : "MAT4"
    },
    {
      "bufferView" : 1,
      "componentType" : 5123,
      "count" : 38046,
      "type" : "SCALAR"
    },
    {
      "bufferView" : 2,
      "min" : [ -0.11839, -0.862427, -0.0595421 ],
      "max" : [ 0.22303, 0.433703, 0.0890878 ],
      "componentType" : 5126,
      "count" : 15278,
      "type" : "VEC3"
    },
    {
      "bufferView" : 3,
      "componentType" : 5126,
      "count" : 15278,
      "type" : "VEC3"
    },
    {
      "bufferView" : 4,
      "componentType" : 5126,
      "count" : 15278,
      "type" : "VEC4"
    },
    {
      "bufferView" : 5,
      "normalized" : true,
      "componentType" : 5121,
      "count" : 15278,
      "type" : "VEC4"
    },
    {
      "bufferView" : 6,
      "componentType" : 5123,
      "count" : 15278,
      "type" : "VEC4"
    },
    {
      "bufferView" : 7,
      "normalized" : true,
      "componentType" : 5121,
      "count" : 15278,
      "type" : "VEC4"
    },
    {
      "bufferView" : 8,
      "componentType" : 5126,
      "count" : 15278,
      "type" : "VEC2"
    },
    {
      "bufferView" : 9,
      "componentType" : 5126,
      "count" : 15278,
      "type" : "VEC2"
    }
  ]
}
