{
  "asset" : {
    "generator" : "UE Viewer (umodel) build 1579 based",
    "version" : "2.0"
  },
  "scene" : 0,
  "scenes" : [
    {
      "nodes" : [ 0 ]
    }
  ],
  "nodes" : [
    {
      "name" : "SK_CH_WP06_BC01_ball",
      "mesh" : 0,
      "skin" : 0,
      "children" : [ 1 ]
    },
    {
      "name" : "Root_J",
      "translation" : [ 0, 0, 0 ],
      "rotation" : [ -0, -0, -0, 1 ]
    }
  ],
  "skins" : [
    {
      "inverseBindMatrices" : 0,
      "skeleton" : 1,
      "joints" : [
        1
      ]
    }
  ],
  "materials" : [
    {
      "name" : "M_CH_WP06_BC01_00_ball",
      "pbrMetallicRoughness" : {
        "baseColorFactor" : [ 0.3, 0.3, 0.3, 1.0 ],
        "metallicFactor" : 0.1,
        "roughnessFactor" : 0.5
      }
    }
  ],
  "meshes" : [
    {
      "primitives" : [
        {
          "attributes" : {
            "POSITION" : 2,
            "NORMAL" : 3,
            "TANGENT" : 4,
            "COLOR_0" : 5,
            "JOINTS_0" : 6,
            "WEIGHTS_0" : 7,
            "TEXCOORD_0" : 8,
            "TEXCOORD_1" : 9
          },
          "indices" : 1,
          "material" : 0
        }
      ],
      "name" : "SK_CH_WP06_BC01_ball"
    }
  ],
  "buffers" : [
    {
      "uri" : "SK_CH_WP06_BC01_ball.bin",
      "byteLength" : 495088
    }
  ],
  "bufferViews" : [
    {
      "buffer" : 0,
      "byteOffset" : 0,
      "byteLength" : 64
    },
    {
      "buffer" : 0,
      "byteOffset" : 64,
      "byteLength" : 37032
    },
    {
      "buffer" : 0,
      "byteOffset" : 37096,
      "byteLength" : 76332
    },
    {
      "buffer" : 0,
      "byteOffset" : 113428,
      "byteLength" : 76332
    },
    {
      "buffer" : 0,
      "byteOffset" : 189760,
      "byteLength" : 101776
    },
    {
      "buffer" : 0,
      "byteOffset" : 291536,
      "byteLength" : 25444
    },
    {
      "buffer" : 0,
      "byteOffset" : 316980,
      "byteLength" : 50888
    },
    {
      "buffer" : 0,
      "byteOffset" : 367868,
      "byteLength" : 25444
    },
    {
      "buffer" : 0,
      "byteOffset" : 393312,
      "byteLength" : 50888
    },
    {
      "buffer" : 0,
      "byteOffset" : 444200,
      "byteLength" : 50888
    }
  ],
  "accessors" : [
    {
      "bufferView" : 0,
      "componentType" : 5126,
      "count" : 1,
      "type" : "MAT4"
    },
    {
      "bufferView" : 1,
      "componentType" : 5123,
      "count" : 18516,
      "type" : "SCALAR"
    },
    {
      "bufferView" : 2,
      "min" : [ -0.311949, -0.272004, -0.252979 ],
      "max" : [ 0.252542, 0.426758, 0.271651 ],
      "componentType" : 5126,
      "count" : 6361,
      "type" : "VEC3"
    },
    {
      "bufferView" : 3,
      "componentType" : 5126,
      "count" : 6361,
      "type" : "VEC3"
    },
    {
      "bufferView" : 4,
      "componentType" : 5126,
      "count" : 6361,
      "type" : "VEC4"
    },
    {
      "bufferView" : 5,
      "normalized" : true,
      "componentType" : 5121,
      "count" : 6361,
      "type" : "VEC4"
    },
    {
      "bufferView" : 6,
      "componentType" : 5123,
      "count" : 6361,
      "type" : "VEC4"
    },
    {
      "bufferView" : 7,
      "normalized" : true,
      "componentType" : 5121,
      "count" : 6361,
      "type" : "VEC4"
    },
    {
      "bufferView" : 8,
      "componentType" : 5126,
      "count" : 6361,
      "type" : "VEC2"
    },
    {
      "bufferView" : 9,
      "componentType" : 5126,
      "count" : 6361,
      "type" : "VEC2"
    }
  ]
}
