{
  "asset" : {
    "generator" : "UE Viewer (umodel) build 1579 based",
    "version" : "2.0"
  },
  "scene" : 0,
  "scenes" : [
    {
      "nodes" : [ 0 ]
    }
  ],
  "nodes" : [
    {
      "name" : "SK_CH_WP06_AE00_ball",
      "mesh" : 0,
      "skin" : 0,
      "children" : [ 1 ]
    },
    {
      "name" : "Root_J",
      "translation" : [ 0, 0, 0 ],
      "rotation" : [ 3.06162e-17, -0, -0, 1 ]
    }
  ],
  "skins" : [
    {
      "inverseBindMatrices" : 0,
      "skeleton" : 1,
      "joints" : [
        1
      ]
    }
  ],
  "materials" : [
    {
      "name" : "M_CH_WP06_AE00_00_ball",
      "pbrMetallicRoughness" : {
        "baseColorFactor" : [ 0.3, 0.3, 0.3, 1.0 ],
        "metallicFactor" : 0.1,
        "roughnessFactor" : 0.5
      }
    }
  ],
  "meshes" : [
    {
      "primitives" : [
        {
          "attributes" : {
            "POSITION" : 2,
            "NORMAL" : 3,
            "TANGENT" : 4,
            "COLOR_0" : 5,
            "JOINTS_0" : 6,
            "WEIGHTS_0" : 7,
            "TEXCOORD_0" : 8,
            "TEXCOORD_1" : 9
          },
          "indices" : 1,
          "material" : 0
        }
      ],
      "name" : "SK_CH_WP06_AE00_ball"
    }
  ],
  "buffers" : [
    {
      "uri" : "SK_CH_WP06_AE00_ball.bin",
      "byteLength" : 278680
    }
  ],
  "bufferViews" : [
    {
      "buffer" : 0,
      "byteOffset" : 0,
      "byteLength" : 64
    },
    {
      "buffer" : 0,
      "byteOffset" : 64,
      "byteLength" : 18840
    },
    {
      "buffer" : 0,
      "byteOffset" : 18904,
      "byteLength" : 43296
    },
    {
      "buffer" : 0,
      "byteOffset" : 62200,
      "byteLength" : 43296
    },
    {
      "buffer" : 0,
      "byteOffset" : 105496,
      "byteLength" : 57728
    },
    {
      "buffer" : 0,
      "byteOffset" : 163224,
      "byteLength" : 14432
    },
    {
      "buffer" : 0,
      "byteOffset" : 177656,
      "byteLength" : 28864
    },
    {
      "buffer" : 0,
      "byteOffset" : 206520,
      "byteLength" : 14432
    },
    {
      "buffer" : 0,
      "byteOffset" : 220952,
      "byteLength" : 28864
    },
    {
      "buffer" : 0,
      "byteOffset" : 249816,
      "byteLength" : 28864
    }
  ],
  "accessors" : [
    {
      "bufferView" : 0,
      "componentType" : 5126,
      "count" : 1,
      "type" : "MAT4"
    },
    {
      "bufferView" : 1,
      "componentType" : 5123,
      "count" : 9420,
      "type" : "SCALAR"
    },
    {
      "bufferView" : 2,
      "min" : [ -0.278549, -0.227993, -0.208633 ],
      "max" : [ 0.271029, 0.3422, 0.210358 ],
      "componentType" : 5126,
      "count" : 3608,
      "type" : "VEC3"
    },
    {
      "bufferView" : 3,
      "componentType" : 5126,
      "count" : 3608,
      "type" : "VEC3"
    },
    {
      "bufferView" : 4,
      "componentType" : 5126,
      "count" : 3608,
      "type" : "VEC4"
    },
    {
      "bufferView" : 5,
      "normalized" : true,
      "componentType" : 5121,
      "count" : 3608,
      "type" : "VEC4"
    },
    {
      "bufferView" : 6,
      "componentType" : 5123,
      "count" : 3608,
      "type" : "VEC4"
    },
    {
      "bufferView" : 7,
      "normalized" : true,
      "componentType" : 5121,
      "count" : 3608,
      "type" : "VEC4"
    },
    {
      "bufferView" : 8,
      "componentType" : 5126,
      "count" : 3608,
      "type" : "VEC2"
    },
    {
      "bufferView" : 9,
      "componentType" : 5126,
      "count" : 3608,
      "type" : "VEC2"
    }
  ]
}
