{
  "asset" : {
    "generator" : "UE Viewer (umodel) build 1579 based",
    "version" : "2.0"
  },
  "scene" : 0,
  "scenes" : [
    {
      "nodes" : [ 0 ]
    }
  ],
  "nodes" : [
    {
      "name" : "SK_CH_WP09_AR00",
      "mesh" : 0,
      "skin" : 0,
      "children" : [ 1 ]
    },
    {
      "name" : "Root_J",
      "children" : [ 2 ],
      "translation" : [ 0, 0, 0 ],
      "rotation" : [ -0, -0, -0, 1 ]
    },
    {
      "name" : "Center_J",
      "translation" : [ 0, 0, -0.09 ],
      "rotation" : [ -0, -0, 0, -1 ]
    }
  ],
  "skins" : [
    {
      "inverseBindMatrices" : 0,
      "skeleton" : 1,
      "joints" : [
        1,2
      ]
    }
  ],
  "materials" : [
    {
      "name" : "M_CH_WP09_AR00_00",
      "pbrMetallicRoughness" : {
        "baseColorFactor" : [ 0.3, 0.3, 0.3, 1.0 ],
        "metallicFactor" : 0.1,
        "roughnessFactor" : 0.5
      }
    }
  ],
  "meshes" : [
    {
      "primitives" : [
        {
          "attributes" : {
            "POSITION" : 2,
            "NORMAL" : 3,
            "TANGENT" : 4,
            "COLOR_0" : 5,
            "JOINTS_0" : 6,
            "WEIGHTS_0" : 7,
            "TEXCOORD_0" : 8,
            "TEXCOORD_1" : 9
          },
          "indices" : 1,
          "material" : 0
        }
      ],
      "name" : "SK_CH_WP09_AR00"
    }
  ],
  "buffers" : [
    {
      "uri" : "SK_CH_WP09_AR00.bin",
      "byteLength" : 1017860
    }
  ],
  "bufferViews" : [
    {
      "buffer" : 0,
      "byteOffset" : 0,
      "byteLength" : 128
    },
    {
      "buffer" : 0,
      "byteOffset" : 128,
      "byteLength" : 64812
    },
    {
      "buffer" : 0,
      "byteOffset" : 64940,
      "byteLength" : 158820
    },
    {
      "buffer" : 0,
      "byteOffset" : 223760,
      "byteLength" : 158820
    },
    {
      "buffer" : 0,
      "byteOffset" : 382580,
      "byteLength" : 211760
    },
    {
      "buffer" : 0,
      "byteOffset" : 594340,
      "byteLength" : 52940
    },
    {
      "buffer" : 0,
      "byteOffset" : 647280,
      "byteLength" : 105880
    },
    {
      "buffer" : 0,
      "byteOffset" : 753160,
      "byteLength" : 52940
    },
    {
      "buffer" : 0,
      "byteOffset" : 806100,
      "byteLength" : 105880
    },
    {
      "buffer" : 0,
      "byteOffset" : 911980,
      "byteLength" : 105880
    }
  ],
  "accessors" : [
    {
      "bufferView" : 0,
      "componentType" : 5126,
      "count" : 2,
      "type" : "MAT4"
    },
    {
      "bufferView" : 1,
      "componentType" : 5123,
      "count" : 32406,
      "type" : "SCALAR"
    },
    {
      "bufferView" : 2,
      "min" : [ -0.873791, -0.481522, -0.294199 ],
      "max" : [ 0.47021, 0.481522, -0.0844345 ],
      "componentType" : 5126,
      "count" : 13235,
      "type" : "VEC3"
    },
    {
      "bufferView" : 3,
      "componentType" : 5126,
      "count" : 13235,
      "type" : "VEC3"
    },
    {
      "bufferView" : 4,
      "componentType" : 5126,
      "count" : 13235,
      "type" : "VEC4"
    },
    {
      "bufferView" : 5,
      "normalized" : true,
      "componentType" : 5121,
      "count" : 13235,
      "type" : "VEC4"
    },
    {
      "bufferView" : 6,
      "componentType" : 5123,
      "count" : 13235,
      "type" : "VEC4"
    },
    {
      "bufferView" : 7,
      "normalized" : true,
      "componentType" : 5121,
      "count" : 13235,
      "type" : "VEC4"
    },
    {
      "bufferView" : 8,
      "componentType" : 5126,
      "count" : 13235,
      "type" : "VEC2"
    },
    {
      "bufferView" : 9,
      "componentType" : 5126,
      "count" : 13235,
      "type" : "VEC2"
    }
  ]
}
