{
  "asset" : {
    "generator" : "UE Viewer (umodel) build 1579 based",
    "version" : "2.0"
  },
  "scene" : 0,
  "scenes" : [
    {
      "nodes" : [ 0 ]
    }
  ],
  "nodes" : [
    {
      "name" : "SK_CH_WP16_A_00",
      "mesh" : 0,
      "skin" : 0,
      "children" : [ 1 ]
    },
    {
      "name" : "Root_J",
      "children" : [ 2 ],
      "translation" : [ 0, 0, 0 ],
      "rotation" : [ -0, -0, -0, 1 ]
    },
    {
      "name" : "Center_J",
      "children" : [ 3, 4, 5 ],
      "translation" : [ 0, 0.209486, -0 ],
      "rotation" : [ -0, -0, 0, -1 ]
    },
    {
      "name" : "R_EdgeTop",
      "translation" : [ -0.000731906, 1.21527, -8.76513e-05 ],
      "rotation" : [ -0, -0, 0, -1 ]
    },
    {
      "name" : "R_EdgeBottom",
      "translation" : [ 0, 0.416009, -0 ],
      "rotation" : [ -0, -0, 0, -1 ]
    },
    {
      "name" : "R_HandleBottom",
      "translation" : [ -0.000183754, -1.26289, 2.46167e-07 ],
      "rotation" : [ -0, -0, 0, -1 ]
    }
  ],
  "skins" : [
    {
      "inverseBindMatrices" : 0,
      "skeleton" : 1,
      "joints" : [
        1,2,3,4,5
      ]
    }
  ],
  "materials" : [
    {
      "name" : "SK_CH_WP16_A_01_MA_A1",
      "pbrMetallicRoughness" : {
        "baseColorFactor" : [ 0.3, 0.3, 0.3, 1.0 ],
        "metallicFactor" : 0.1,
        "roughnessFactor" : 0.5
      }
    }
  ],
  "meshes" : [
    {
      "primitives" : [
        {
          "attributes" : {
            "POSITION" : 2,
            "NORMAL" : 3,
            "TANGENT" : 4,
            "COLOR_0" : 5,
            "JOINTS_0" : 6,
            "WEIGHTS_0" : 7,
            "TEXCOORD_0" : 8,
            "TEXCOORD_1" : 9
          },
          "indices" : 1,
          "material" : 0
        }
      ],
      "name" : "SK_CH_WP16_A_00"
    }
  ],
  "buffers" : [
    {
      "uri" : "SK_CH_WP16_A_00.bin",
      "byteLength" : 373304
    }
  ],
  "bufferViews" : [
    {
      "buffer" : 0,
      "byteOffset" : 0,
      "byteLength" : 320
    },
    {
      "buffer" : 0,
      "byteOffset" : 320,
      "byteLength" : 26952
    },
    {
      "buffer" : 0,
      "byteOffset" : 27272,
      "byteLength" : 57672
    },
    {
      "buffer" : 0,
      "byteOffset" : 84944,
      "byteLength" : 57672
    },
    {
      "buffer" : 0,
      "byteOffset" : 142616,
      "byteLength" : 76896
    },
    {
      "buffer" : 0,
      "byteOffset" : 219512,
      "byteLength" : 19224
    },
    {
      "buffer" : 0,
      "byteOffset" : 238736,
      "byteLength" : 38448
    },
    {
      "buffer" : 0,
      "byteOffset" : 277184,
      "byteLength" : 19224
    },
    {
      "buffer" : 0,
      "byteOffset" : 296408,
      "byteLength" : 38448
    },
    {
      "buffer" : 0,
      "byteOffset" : 334856,
      "byteLength" : 38448
    }
  ],
  "accessors" : [
    {
      "bufferView" : 0,
      "componentType" : 5126,
      "count" : 5,
      "type" : "MAT4"
    },
    {
      "bufferView" : 1,
      "componentType" : 5123,
      "count" : 13476,
      "type" : "SCALAR"
    },
    {
      "bufferView" : 2,
      "min" : [ -0.134852, -1.05341, -0.0673809 ],
      "max" : [ 0.0952043, 1.42476, 0.0673809 ],
      "componentType" : 5126,
      "count" : 4806,
      "type" : "VEC3"
    },
    {
      "bufferView" : 3,
      "componentType" : 5126,
      "count" : 4806,
      "type" : "VEC3"
    },
    {
      "bufferView" : 4,
      "componentType" : 5126,
      "count" : 4806,
      "type" : "VEC4"
    },
    {
      "bufferView" : 5,
      "normalized" : true,
      "componentType" : 5121,
      "count" : 4806,
      "type" : "VEC4"
    },
    {
      "bufferView" : 6,
      "componentType" : 5123,
      "count" : 4806,
      "type" : "VEC4"
    },
    {
      "bufferView" : 7,
      "normalized" : true,
      "componentType" : 5121,
      "count" : 4806,
      "type" : "VEC4"
    },
    {
      "bufferView" : 8,
      "componentType" : 5126,
      "count" : 4806,
      "type" : "VEC2"
    },
    {
      "bufferView" : 9,
      "componentType" : 5126,
      "count" : 4806,
      "type" : "VEC2"
    }
  ]
}
