{
  "asset" : {
    "generator" : "UE Viewer (umodel) build 1579 based",
    "version" : "2.0"
  },
  "scene" : 0,
  "scenes" : [
    {
      "nodes" : [ 0 ]
    }
  ],
  "nodes" : [
    {
      "name" : "SK_CH_WP06_BA00_ball",
      "mesh" : 0,
      "skin" : 0,
      "children" : [ 1 ]
    },
    {
      "name" : "Root_J",
      "translation" : [ 0, 0, 0 ],
      "rotation" : [ -0, -0, -0, 1 ]
    }
  ],
  "skins" : [
    {
      "inverseBindMatrices" : 0,
      "skeleton" : 1,
      "joints" : [
        1
      ]
    }
  ],
  "materials" : [
    {
      "name" : "M_CH_WP06_BA00_00_ball",
      "pbrMetallicRoughness" : {
        "baseColorFactor" : [ 0.3, 0.3, 0.3, 1.0 ],
        "metallicFactor" : 0.1,
        "roughnessFactor" : 0.5
      }
    }
  ],
  "meshes" : [
    {
      "primitives" : [
        {
          "attributes" : {
            "POSITION" : 2,
            "NORMAL" : 3,
            "TANGENT" : 4,
            "COLOR_0" : 5,
            "JOINTS_0" : 6,
            "WEIGHTS_0" : 7,
            "TEXCOORD_0" : 8,
            "TEXCOORD_1" : 9
          },
          "indices" : 1,
          "material" : 0
        }
      ],
      "name" : "SK_CH_WP06_BA00_ball"
    }
  ],
  "buffers" : [
    {
      "uri" : "SK_CH_WP06_BA00_ball.bin",
      "byteLength" : 468100
    }
  ],
  "bufferViews" : [
    {
      "buffer" : 0,
      "byteOffset" : 0,
      "byteLength" : 64
    },
    {
      "buffer" : 0,
      "byteOffset" : 64,
      "byteLength" : 32580
    },
    {
      "buffer" : 0,
      "byteOffset" : 32644,
      "byteLength" : 72576
    },
    {
      "buffer" : 0,
      "byteOffset" : 105220,
      "byteLength" : 72576
    },
    {
      "buffer" : 0,
      "byteOffset" : 177796,
      "byteLength" : 96768
    },
    {
      "buffer" : 0,
      "byteOffset" : 274564,
      "byteLength" : 24192
    },
    {
      "buffer" : 0,
      "byteOffset" : 298756,
      "byteLength" : 48384
    },
    {
      "buffer" : 0,
      "byteOffset" : 347140,
      "byteLength" : 24192
    },
    {
      "buffer" : 0,
      "byteOffset" : 371332,
      "byteLength" : 48384
    },
    {
      "buffer" : 0,
      "byteOffset" : 419716,
      "byteLength" : 48384
    }
  ],
  "accessors" : [
    {
      "bufferView" : 0,
      "componentType" : 5126,
      "count" : 1,
      "type" : "MAT4"
    },
    {
      "bufferView" : 1,
      "componentType" : 5123,
      "count" : 16290,
      "type" : "SCALAR"
    },
    {
      "bufferView" : 2,
      "min" : [ -0.303014, -0.303083, -0.258423 ],
      "max" : [ 0.303089, 0.378586, 0.258423 ],
      "componentType" : 5126,
      "count" : 6048,
      "type" : "VEC3"
    },
    {
      "bufferView" : 3,
      "componentType" : 5126,
      "count" : 6048,
      "type" : "VEC3"
    },
    {
      "bufferView" : 4,
      "componentType" : 5126,
      "count" : 6048,
      "type" : "VEC4"
    },
    {
      "bufferView" : 5,
      "normalized" : true,
      "componentType" : 5121,
      "count" : 6048,
      "type" : "VEC4"
    },
    {
      "bufferView" : 6,
      "componentType" : 5123,
      "count" : 6048,
      "type" : "VEC4"
    },
    {
      "bufferView" : 7,
      "normalized" : true,
      "componentType" : 5121,
      "count" : 6048,
      "type" : "VEC4"
    },
    {
      "bufferView" : 8,
      "componentType" : 5126,
      "count" : 6048,
      "type" : "VEC2"
    },
    {
      "bufferView" : 9,
      "componentType" : 5126,
      "count" : 6048,
      "type" : "VEC2"
    }
  ]
}
