{
  "asset" : {
    "generator" : "UE Viewer (umodel) build 1579 based",
    "version" : "2.0"
  },
  "scene" : 0,
  "scenes" : [
    {
      "nodes" : [ 0 ]
    }
  ],
  "nodes" : [
    {
      "name" : "SK_CH_WP06_BE01_ball",
      "mesh" : 0,
      "skin" : 0,
      "children" : [ 1 ]
    },
    {
      "name" : "Root_J",
      "translation" : [ 0, 0, 0 ],
      "rotation" : [ -0, -0, -0, 1 ]
    }
  ],
  "skins" : [
    {
      "inverseBindMatrices" : 0,
      "skeleton" : 1,
      "joints" : [
        1
      ]
    }
  ],
  "materials" : [
    {
      "name" : "M_CH_WP06_BE01_00_ball",
      "pbrMetallicRoughness" : {
        "baseColorFactor" : [ 0.3, 0.3, 0.3, 1.0 ],
        "metallicFactor" : 0.1,
        "roughnessFactor" : 0.5
      }
    }
  ],
  "meshes" : [
    {
      "primitives" : [
        {
          "attributes" : {
            "POSITION" : 2,
            "NORMAL" : 3,
            "TANGENT" : 4,
            "COLOR_0" : 5,
            "JOINTS_0" : 6,
            "WEIGHTS_0" : 7,
            "TEXCOORD_0" : 8,
            "TEXCOORD_1" : 9
          },
          "indices" : 1,
          "material" : 0
        }
      ],
      "name" : "SK_CH_WP06_BE01_ball"
    }
  ],
  "buffers" : [
    {
      "uri" : "SK_CH_WP06_BE01_ball.bin",
      "byteLength" : 349228
    }
  ],
  "bufferViews" : [
    {
      "buffer" : 0,
      "byteOffset" : 0,
      "byteLength" : 64
    },
    {
      "buffer" : 0,
      "byteOffset" : 64,
      "byteLength" : 27324
    },
    {
      "buffer" : 0,
      "byteOffset" : 27388,
      "byteLength" : 53640
    },
    {
      "buffer" : 0,
      "byteOffset" : 81028,
      "byteLength" : 53640
    },
    {
      "buffer" : 0,
      "byteOffset" : 134668,
      "byteLength" : 71520
    },
    {
      "buffer" : 0,
      "byteOffset" : 206188,
      "byteLength" : 17880
    },
    {
      "buffer" : 0,
      "byteOffset" : 224068,
      "byteLength" : 35760
    },
    {
      "buffer" : 0,
      "byteOffset" : 259828,
      "byteLength" : 17880
    },
    {
      "buffer" : 0,
      "byteOffset" : 277708,
      "byteLength" : 35760
    },
    {
      "buffer" : 0,
      "byteOffset" : 313468,
      "byteLength" : 35760
    }
  ],
  "accessors" : [
    {
      "bufferView" : 0,
      "componentType" : 5126,
      "count" : 1,
      "type" : "MAT4"
    },
    {
      "bufferView" : 1,
      "componentType" : 5123,
      "count" : 13662,
      "type" : "SCALAR"
    },
    {
      "bufferView" : 2,
      "min" : [ -0.389577, -0.316863, -0.261486 ],
      "max" : [ 0.274606, 0.300952, 0.261486 ],
      "componentType" : 5126,
      "count" : 4470,
      "type" : "VEC3"
    },
    {
      "bufferView" : 3,
      "componentType" : 5126,
      "count" : 4470,
      "type" : "VEC3"
    },
    {
      "bufferView" : 4,
      "componentType" : 5126,
      "count" : 4470,
      "type" : "VEC4"
    },
    {
      "bufferView" : 5,
      "normalized" : true,
      "componentType" : 5121,
      "count" : 4470,
      "type" : "VEC4"
    },
    {
      "bufferView" : 6,
      "componentType" : 5123,
      "count" : 4470,
      "type" : "VEC4"
    },
    {
      "bufferView" : 7,
      "normalized" : true,
      "componentType" : 5121,
      "count" : 4470,
      "type" : "VEC4"
    },
    {
      "bufferView" : 8,
      "componentType" : 5126,
      "count" : 4470,
      "type" : "VEC2"
    },
    {
      "bufferView" : 9,
      "componentType" : 5126,
      "count" : 4470,
      "type" : "VEC2"
    }
  ]
}
