{
  "asset" : {
    "generator" : "UE Viewer (umodel) build 1579 based",
    "version" : "2.0"
  },
  "scene" : 0,
  "scenes" : [
    {
      "nodes" : [ 0 ]
    }
  ],
  "nodes" : [
    {
      "name" : "SK_CH_WP01_AQ01",
      "mesh" : 0,
      "skin" : 0,
      "children" : [ 1 ]
    },
    {
      "name" : "Root_J",
      "children" : [ 2 ],
      "translation" : [ 0, 0, 0 ],
      "rotation" : [ -0, -0, -0, 1 ]
    },
    {
      "name" : "Center_J",
      "children" : [ 3, 4, 5 ],
      "translation" : [ 0, 0.65577, -0 ],
      "rotation" : [ -0, -0, 0, -1 ]
    },
    {
      "name" : "R_EdgeTop",
      "translation" : [ 0.0275672, 0.921777, 1.06837e-16 ],
      "rotation" : [ -3.06162e-17, -0, 0, -1 ]
    },
    {
      "name" : "R_EdgeBottom",
      "translation" : [ 0.284282, -0.231704, 3.85864e-17 ],
      "rotation" : [ -3.06162e-17, -0, 0, -1 ]
    },
    {
      "name" : "R_HandleBottom",
      "translation" : [ 0, -0.944683, -1.76908e-17 ],
      "rotation" : [ -3.06162e-17, -0, 0, -1 ]
    }
  ],
  "skins" : [
    {
      "inverseBindMatrices" : 0,
      "skeleton" : 1,
      "joints" : [
        1,2,3,4,5
      ]
    }
  ],
  "materials" : [
    {
      "name" : "M_CH_WP01_AQ01_00",
      "pbrMetallicRoughness" : {
        "baseColorFactor" : [ 0.3, 0.3, 0.3, 1.0 ],
        "metallicFactor" : 0.1,
        "roughnessFactor" : 0.5
      }
    }
  ],
  "meshes" : [
    {
      "primitives" : [
        {
          "attributes" : {
            "POSITION" : 2,
            "NORMAL" : 3,
            "TANGENT" : 4,
            "COLOR_0" : 5,
            "JOINTS_0" : 6,
            "WEIGHTS_0" : 7,
            "TEXCOORD_0" : 8,
            "TEXCOORD_1" : 9
          },
          "indices" : 1,
          "material" : 0
        }
      ],
      "name" : "SK_CH_WP01_AQ01"
    }
  ],
  "buffers" : [
    {
      "uri" : "SK_CH_WP01_AQ01.bin",
      "byteLength" : 379004
    }
  ],
  "bufferViews" : [
    {
      "buffer" : 0,
      "byteOffset" : 0,
      "byteLength" : 320
    },
    {
      "buffer" : 0,
      "byteOffset" : 320,
      "byteLength" : 24300
    },
    {
      "buffer" : 0,
      "byteOffset" : 24620,
      "byteLength" : 59064
    },
    {
      "buffer" : 0,
      "byteOffset" : 83684,
      "byteLength" : 59064
    },
    {
      "buffer" : 0,
      "byteOffset" : 142748,
      "byteLength" : 78752
    },
    {
      "buffer" : 0,
      "byteOffset" : 221500,
      "byteLength" : 19688
    },
    {
      "buffer" : 0,
      "byteOffset" : 241188,
      "byteLength" : 39376
    },
    {
      "buffer" : 0,
      "byteOffset" : 280564,
      "byteLength" : 19688
    },
    {
      "buffer" : 0,
      "byteOffset" : 300252,
      "byteLength" : 39376
    },
    {
      "buffer" : 0,
      "byteOffset" : 339628,
      "byteLength" : 39376
    }
  ],
  "accessors" : [
    {
      "bufferView" : 0,
      "componentType" : 5126,
      "count" : 5,
      "type" : "MAT4"
    },
    {
      "bufferView" : 1,
      "componentType" : 5123,
      "count" : 12150,
      "type" : "SCALAR"
    },
    {
      "bufferView" : 2,
      "min" : [ -0.126696, -0.293837, -0.0229201 ],
      "max" : [ 0.284282, 1.57755, 0.0229201 ],
      "componentType" : 5126,
      "count" : 4922,
      "type" : "VEC3"
    },
    {
      "bufferView" : 3,
      "componentType" : 5126,
      "count" : 4922,
      "type" : "VEC3"
    },
    {
      "bufferView" : 4,
      "componentType" : 5126,
      "count" : 4922,
      "type" : "VEC4"
    },
    {
      "bufferView" : 5,
      "normalized" : true,
      "componentType" : 5121,
      "count" : 4922,
      "type" : "VEC4"
    },
    {
      "bufferView" : 6,
      "componentType" : 5123,
      "count" : 4922,
      "type" : "VEC4"
    },
    {
      "bufferView" : 7,
      "normalized" : true,
      "componentType" : 5121,
      "count" : 4922,
      "type" : "VEC4"
    },
    {
      "bufferView" : 8,
      "componentType" : 5126,
      "count" : 4922,
      "type" : "VEC2"
    },
    {
      "bufferView" : 9,
      "componentType" : 5126,
      "count" : 4922,
      "type" : "VEC2"
    }
  ]
}
