{
  "asset" : {
    "generator" : "UE Viewer (umodel) build 1579 based",
    "version" : "2.0"
  },
  "scene" : 0,
  "scenes" : [
    {
      "nodes" : [ 0 ]
    }
  ],
  "nodes" : [
    {
      "name" : "SK_CH_WP01_AI01",
      "mesh" : 0,
      "skin" : 0,
      "children" : [ 1 ]
    },
    {
      "name" : "Root_J",
      "children" : [ 2 ],
      "translation" : [ 0, 0, 0 ],
      "rotation" : [ -0, -0, -0, 1 ]
    },
    {
      "name" : "Center_J",
      "children" : [ 3, 4, 5 ],
      "translation" : [ 0, 0.65577, -0 ],
      "rotation" : [ -0, -0, 0, -1 ]
    },
    {
      "name" : "R_EdgeTop",
      "translation" : [ -0.0732156, 0.901947, 8.6423e-17 ],
      "rotation" : [ -3.06162e-17, -0, 0, -1 ]
    },
    {
      "name" : "R_EdgeBottom",
      "translation" : [ 0.14105, -0.231317, 3.16744e-17 ],
      "rotation" : [ -3.06162e-17, -0, 0, -1 ]
    },
    {
      "name" : "R_HandleBottom",
      "translation" : [ 0, -0.956423, -1.84097e-17 ],
      "rotation" : [ -3.06162e-17, -0, 0, -1 ]
    }
  ],
  "skins" : [
    {
      "inverseBindMatrices" : 0,
      "skeleton" : 1,
      "joints" : [
        1,2,3,4,5
      ]
    }
  ],
  "materials" : [
    {
      "name" : "M_CH_WP01_AI01_00",
      "pbrMetallicRoughness" : {
        "baseColorFactor" : [ 0.3, 0.3, 0.3, 1.0 ],
        "metallicFactor" : 0.1,
        "roughnessFactor" : 0.5
      }
    }
  ],
  "meshes" : [
    {
      "primitives" : [
        {
          "attributes" : {
            "POSITION" : 2,
            "NORMAL" : 3,
            "TANGENT" : 4,
            "COLOR_0" : 5,
            "JOINTS_0" : 6,
            "WEIGHTS_0" : 7,
            "TEXCOORD_0" : 8,
            "TEXCOORD_1" : 9
          },
          "indices" : 1,
          "material" : 0
        }
      ],
      "name" : "SK_CH_WP01_AI01"
    }
  ],
  "buffers" : [
    {
      "uri" : "SK_CH_WP01_AI01.bin",
      "byteLength" : 687644
    }
  ],
  "bufferViews" : [
    {
      "buffer" : 0,
      "byteOffset" : 0,
      "byteLength" : 320
    },
    {
      "buffer" : 0,
      "byteOffset" : 320,
      "byteLength" : 45516
    },
    {
      "buffer" : 0,
      "byteOffset" : 45836,
      "byteLength" : 106968
    },
    {
      "buffer" : 0,
      "byteOffset" : 152804,
      "byteLength" : 106968
    },
    {
      "buffer" : 0,
      "byteOffset" : 259772,
      "byteLength" : 142624
    },
    {
      "buffer" : 0,
      "byteOffset" : 402396,
      "byteLength" : 35656
    },
    {
      "buffer" : 0,
      "byteOffset" : 438052,
      "byteLength" : 71312
    },
    {
      "buffer" : 0,
      "byteOffset" : 509364,
      "byteLength" : 35656
    },
    {
      "buffer" : 0,
      "byteOffset" : 545020,
      "byteLength" : 71312
    },
    {
      "buffer" : 0,
      "byteOffset" : 616332,
      "byteLength" : 71312
    }
  ],
  "accessors" : [
    {
      "bufferView" : 0,
      "componentType" : 5126,
      "count" : 5,
      "type" : "MAT4"
    },
    {
      "bufferView" : 1,
      "componentType" : 5123,
      "count" : 22758,
      "type" : "SCALAR"
    },
    {
      "bufferView" : 2,
      "min" : [ -0.135558, -0.232067, -0.0655685 ],
      "max" : [ 0.214788, 1.56128, 0.0655685 ],
      "componentType" : 5126,
      "count" : 8914,
      "type" : "VEC3"
    },
    {
      "bufferView" : 3,
      "componentType" : 5126,
      "count" : 8914,
      "type" : "VEC3"
    },
    {
      "bufferView" : 4,
      "componentType" : 5126,
      "count" : 8914,
      "type" : "VEC4"
    },
    {
      "bufferView" : 5,
      "normalized" : true,
      "componentType" : 5121,
      "count" : 8914,
      "type" : "VEC4"
    },
    {
      "bufferView" : 6,
      "componentType" : 5123,
      "count" : 8914,
      "type" : "VEC4"
    },
    {
      "bufferView" : 7,
      "normalized" : true,
      "componentType" : 5121,
      "count" : 8914,
      "type" : "VEC4"
    },
    {
      "bufferView" : 8,
      "componentType" : 5126,
      "count" : 8914,
      "type" : "VEC2"
    },
    {
      "bufferView" : 9,
      "componentType" : 5126,
      "count" : 8914,
      "type" : "VEC2"
    }
  ]
}
