{
  "asset" : {
    "generator" : "UE Viewer (umodel) build 1579 based",
    "version" : "2.0"
  },
  "scene" : 0,
  "scenes" : [
    {
      "nodes" : [ 0 ]
    }
  ],
  "nodes" : [
    {
      "name" : "SK_CH_WP05_BC00",
      "mesh" : 0,
      "skin" : 0,
      "children" : [ 1 ]
    },
    {
      "name" : "Root_J",
      "children" : [ 2 ],
      "translation" : [ 0, 0, 0 ],
      "rotation" : [ -0, -0, -0, 1 ]
    },
    {
      "name" : "Center_J",
      "children" : [ 3 ],
      "translation" : [ 0, 0, -0 ],
      "rotation" : [ -0, -0, 0, -1 ]
    },
    {
      "name" : "ArrowRest_J",
      "children" : [ 4, 7, 10 ],
      "translation" : [ 0, 0.095, -0 ],
      "rotation" : [ -0, -0, 0, -1 ]
    },
    {
      "name" : "UpperBolt_J",
      "children" : [ 5 ],
      "translation" : [ 0.08, 0.3, -0 ],
      "rotation" : [ -0.40558, -0.579228, -0.579228, -0.40558 ]
    },
    {
      "name" : "UpperLimb_J",
      "children" : [ 6 ],
      "translation" : [ 0, 0, -0 ],
      "rotation" : [ -1.84889e-32, -2.77556e-17, 0, -1 ]
    },
    {
      "name" : "UpperCam_J",
      "translation" : [ 0.45, -2.498e-17, -1.06581e-16 ],
      "rotation" : [ -8.04061e-17, -1.38778e-16, 2.77556e-17, -1 ]
    },
    {
      "name" : "LowerBolt_J",
      "children" : [ 8 ],
      "translation" : [ 0.08, -0.3, -0 ],
      "rotation" : [ 0.40558, -0.579228, 0.579228, -0.40558 ]
    },
    {
      "name" : "LowerLimb_J",
      "children" : [ 9 ],
      "translation" : [ 0, 0, -0 ],
      "rotation" : [ 1.84889e-32, -2.77556e-17, -0, -1 ]
    },
    {
      "name" : "LowerCam_J",
      "translation" : [ 0.45, 2.498e-17, -1.24345e-16 ],
      "rotation" : [ 8.04061e-17, -1.38778e-16, -2.77556e-17, -1 ]
    },
    {
      "name" : "NockingPoint_J",
      "children" : [ 11, 13 ],
      "translation" : [ -0.1, 0, -0 ],
      "rotation" : [ -0, -0, 0, -1 ]
    },
    {
      "name" : "UpperCable01_J",
      "children" : [ 12 ],
      "translation" : [ 0, 0, -0 ],
      "rotation" : [ 1.07034e-32, 2.39908e-17, -0.694237, -0.719747 ]
    },
    {
      "name" : "UpperCable02_J",
      "translation" : [ 0.72668, 0, -6.40949e-33 ],
      "rotation" : [ 1.15556e-33, -3.09575e-33, -3.4855e-18, -1 ]
    },
    {
      "name" : "LowerCable01_J",
      "children" : [ 14 ],
      "translation" : [ 0, 0, -0 ],
      "rotation" : [ -1.07034e-32, 2.39908e-17, 0.694237, -0.719747 ]
    },
    {
      "name" : "LowerCable02_J",
      "translation" : [ 0.72668, 1.77636e-17, -7.88861e-33 ],
      "rotation" : [ -1.15556e-33, -3.09575e-33, 3.4855e-18, -1 ]
    }
  ],
  "skins" : [
    {
      "inverseBindMatrices" : 0,
      "skeleton" : 1,
      "joints" : [
        1,2,3,4,5,6,7,8,9,10,11,12,13,14
      ]
    }
  ],
  "materials" : [
    {
      "name" : "M_CH_WP07_BC00_00",
      "pbrMetallicRoughness" : {
        "baseColorFactor" : [ 0.3, 0.3, 0.3, 1.0 ],
        "metallicFactor" : 0.1,
        "roughnessFactor" : 0.5
      }
    }
  ],
  "meshes" : [
    {
      "primitives" : [
        {
          "attributes" : {
            "POSITION" : 2,
            "NORMAL" : 3,
            "TANGENT" : 4,
            "COLOR_0" : 5,
            "JOINTS_0" : 6,
            "WEIGHTS_0" : 7,
            "TEXCOORD_0" : 8,
            "TEXCOORD_1" : 9
          },
          "indices" : 1,
          "material" : 0
        }
      ],
      "name" : "SK_CH_WP05_BC00"
    }
  ],
  "buffers" : [
    {
      "uri" : "SK_CH_WP05_BC00.bin",
      "byteLength" : 1173428
    }
  ],
  "bufferViews" : [
    {
      "buffer" : 0,
      "byteOffset" : 0,
      "byteLength" : 896
    },
    {
      "buffer" : 0,
      "byteOffset" : 896,
      "byteLength" : 62868
    },
    {
      "buffer" : 0,
      "byteOffset" : 63764,
      "byteLength" : 184944
    },
    {
      "buffer" : 0,
      "byteOffset" : 248708,
      "byteLength" : 184944
    },
    {
      "buffer" : 0,
      "byteOffset" : 433652,
      "byteLength" : 246592
    },
    {
      "buffer" : 0,
      "byteOffset" : 680244,
      "byteLength" : 61648
    },
    {
      "buffer" : 0,
      "byteOffset" : 741892,
      "byteLength" : 123296
    },
    {
      "buffer" : 0,
      "byteOffset" : 865188,
      "byteLength" : 61648
    },
    {
      "buffer" : 0,
      "byteOffset" : 926836,
      "byteLength" : 123296
    },
    {
      "buffer" : 0,
      "byteOffset" : 1050132,
      "byteLength" : 123296
    }
  ],
  "accessors" : [
    {
      "bufferView" : 0,
      "componentType" : 5126,
      "count" : 14,
      "type" : "MAT4"
    },
    {
      "bufferView" : 1,
      "componentType" : 5123,
      "count" : 31434,
      "type" : "SCALAR"
    },
    {
      "bufferView" : 2,
      "min" : [ -0.0909427, -0.806122, -0.117108 ],
      "max" : [ 0.285474, 0.996122, 0.0401595 ],
      "componentType" : 5126,
      "count" : 15412,
      "type" : "VEC3"
    },
    {
      "bufferView" : 3,
      "componentType" : 5126,
      "count" : 15412,
      "type" : "VEC3"
    },
    {
      "bufferView" : 4,
      "componentType" : 5126,
      "count" : 15412,
      "type" : "VEC4"
    },
    {
      "bufferView" : 5,
      "normalized" : true,
      "componentType" : 5121,
      "count" : 15412,
      "type" : "VEC4"
    },
    {
      "bufferView" : 6,
      "componentType" : 5123,
      "count" : 15412,
      "type" : "VEC4"
    },
    {
      "bufferView" : 7,
      "normalized" : true,
      "componentType" : 5121,
      "count" : 15412,
      "type" : "VEC4"
    },
    {
      "bufferView" : 8,
      "componentType" : 5126,
      "count" : 15412,
      "type" : "VEC2"
    },
    {
      "bufferView" : 9,
      "componentType" : 5126,
      "count" : 15412,
      "type" : "VEC2"
    }
  ]
}
