{
  "asset" : {
    "generator" : "UE Viewer (umodel) build 1579 based",
    "version" : "2.0"
  },
  "scene" : 0,
  "scenes" : [
    {
      "nodes" : [ 0 ]
    }
  ],
  "nodes" : [
    {
      "name" : "SK_CH_WP06_AW00_ball",
      "mesh" : 0,
      "skin" : 0,
      "children" : [ 1 ]
    },
    {
      "name" : "Root_J",
      "translation" : [ 0, 0, 0 ],
      "rotation" : [ -0, -0, -0, 1 ]
    }
  ],
  "skins" : [
    {
      "inverseBindMatrices" : 0,
      "skeleton" : 1,
      "joints" : [
        1
      ]
    }
  ],
  "materials" : [
    {
      "name" : "M_CH_WP06_AW00_00_ball",
      "pbrMetallicRoughness" : {
        "baseColorFactor" : [ 0.3, 0.3, 0.3, 1.0 ],
        "metallicFactor" : 0.1,
        "roughnessFactor" : 0.5
      }
    }
  ],
  "meshes" : [
    {
      "primitives" : [
        {
          "attributes" : {
            "POSITION" : 2,
            "NORMAL" : 3,
            "TANGENT" : 4,
            "COLOR_0" : 5,
            "JOINTS_0" : 6,
            "WEIGHTS_0" : 7,
            "TEXCOORD_0" : 8,
            "TEXCOORD_1" : 9
          },
          "indices" : 1,
          "material" : 0
        }
      ],
      "name" : "SK_CH_WP06_AW00_ball"
    }
  ],
  "buffers" : [
    {
      "uri" : "SK_CH_WP06_AW00_ball.bin",
      "byteLength" : 422728
    }
  ],
  "bufferViews" : [
    {
      "buffer" : 0,
      "byteOffset" : 0,
      "byteLength" : 64
    },
    {
      "buffer" : 0,
      "byteOffset" : 64,
      "byteLength" : 28752
    },
    {
      "buffer" : 0,
      "byteOffset" : 28816,
      "byteLength" : 65652
    },
    {
      "buffer" : 0,
      "byteOffset" : 94468,
      "byteLength" : 65652
    },
    {
      "buffer" : 0,
      "byteOffset" : 160120,
      "byteLength" : 87536
    },
    {
      "buffer" : 0,
      "byteOffset" : 247656,
      "byteLength" : 21884
    },
    {
      "buffer" : 0,
      "byteOffset" : 269540,
      "byteLength" : 43768
    },
    {
      "buffer" : 0,
      "byteOffset" : 313308,
      "byteLength" : 21884
    },
    {
      "buffer" : 0,
      "byteOffset" : 335192,
      "byteLength" : 43768
    },
    {
      "buffer" : 0,
      "byteOffset" : 378960,
      "byteLength" : 43768
    }
  ],
  "accessors" : [
    {
      "bufferView" : 0,
      "componentType" : 5126,
      "count" : 1,
      "type" : "MAT4"
    },
    {
      "bufferView" : 1,
      "componentType" : 5123,
      "count" : 14376,
      "type" : "SCALAR"
    },
    {
      "bufferView" : 2,
      "min" : [ -0.319147, -0.330969, -0.258307 ],
      "max" : [ 0.317184, 0.333286, 0.258307 ],
      "componentType" : 5126,
      "count" : 5471,
      "type" : "VEC3"
    },
    {
      "bufferView" : 3,
      "componentType" : 5126,
      "count" : 5471,
      "type" : "VEC3"
    },
    {
      "bufferView" : 4,
      "componentType" : 5126,
      "count" : 5471,
      "type" : "VEC4"
    },
    {
      "bufferView" : 5,
      "normalized" : true,
      "componentType" : 5121,
      "count" : 5471,
      "type" : "VEC4"
    },
    {
      "bufferView" : 6,
      "componentType" : 5123,
      "count" : 5471,
      "type" : "VEC4"
    },
    {
      "bufferView" : 7,
      "normalized" : true,
      "componentType" : 5121,
      "count" : 5471,
      "type" : "VEC4"
    },
    {
      "bufferView" : 8,
      "componentType" : 5126,
      "count" : 5471,
      "type" : "VEC2"
    },
    {
      "bufferView" : 9,
      "componentType" : 5126,
      "count" : 5471,
      "type" : "VEC2"
    }
  ]
}
