{
  "asset" : {
    "generator" : "UE Viewer (umodel) build 1579 based",
    "version" : "2.0"
  },
  "scene" : 0,
  "scenes" : [
    {
      "nodes" : [ 0 ]
    }
  ],
  "nodes" : [
    {
      "name" : "SK_CH_WP21_AS00",
      "mesh" : 0,
      "skin" : 0,
      "children" : [ 1 ]
    },
    {
      "name" : "Root_J",
      "children" : [ 2 ],
      "translation" : [ 0, 0, 0 ],
      "rotation" : [ -0, -0, -0, 1 ]
    },
    {
      "name" : "Center_J",
      "children" : [ 3, 4, 5 ],
      "translation" : [ 0.005, -0.11, -0.01 ],
      "rotation" : [ -0, -0, 0, -1 ]
    },
    {
      "name" : "L_EdgeTop",
      "translation" : [ 0.02, 0.53, -0 ],
      "rotation" : [ -0, -0, 0, -1 ]
    },
    {
      "name" : "L_EdgeBottom",
      "translation" : [ 0, -0.75, -0 ],
      "rotation" : [ -0, -0, 0, -1 ]
    },
    {
      "name" : "L_HandleBottom",
      "translation" : [ 0, -0.2, -0 ],
      "rotation" : [ -0, -0, 0, -1 ]
    }
  ],
  "skins" : [
    {
      "inverseBindMatrices" : 0,
      "skeleton" : 1,
      "joints" : [
        1,2,3,4,5
      ]
    }
  ],
  "materials" : [
    {
      "name" : "M_CH_WP21_AS00_00_Ble",
      "pbrMetallicRoughness" : {
        "baseColorFactor" : [ 0.3, 0.3, 0.3, 1.0 ],
        "metallicFactor" : 0.1,
        "roughnessFactor" : 0.5
      }
    },
    {
      "name" : "M_CH_WP21_AS00_00",
      "pbrMetallicRoughness" : {
        "baseColorFactor" : [ 0.9, 0.3, 0.3, 1.0 ],
        "metallicFactor" : 0.1,
        "roughnessFactor" : 0.5
      }
    }
  ],
  "meshes" : [
    {
      "primitives" : [
        {
          "attributes" : {
            "POSITION" : 2,
            "NORMAL" : 3,
            "TANGENT" : 4,
            "COLOR_0" : 5,
            "JOINTS_0" : 6,
            "WEIGHTS_0" : 7,
            "TEXCOORD_0" : 8,
            "TEXCOORD_1" : 9
          },
          "indices" : 1,
          "material" : 0
        },
        {
          "attributes" : {
            "POSITION" : 11,
            "NORMAL" : 12,
            "TANGENT" : 13,
            "COLOR_0" : 14,
            "JOINTS_0" : 15,
            "WEIGHTS_0" : 16,
            "TEXCOORD_0" : 17,
            "TEXCOORD_1" : 18
          },
          "indices" : 10,
          "material" : 1
        }
      ],
      "name" : "SK_CH_WP21_AS00"
    }
  ],
  "buffers" : [
    {
      "uri" : "SK_CH_WP21_AS00.bin",
      "byteLength" : 1662160
    }
  ],
  "bufferViews" : [
    {
      "buffer" : 0,
      "byteOffset" : 0,
      "byteLength" : 320
    },
    {
      "buffer" : 0,
      "byteOffset" : 320,
      "byteLength" : 22092
    },
    {
      "buffer" : 0,
      "byteOffset" : 22412,
      "byteLength" : 53808
    },
    {
      "buffer" : 0,
      "byteOffset" : 76220,
      "byteLength" : 53808
    },
    {
      "buffer" : 0,
      "byteOffset" : 130028,
      "byteLength" : 71744
    },
    {
      "buffer" : 0,
      "byteOffset" : 201772,
      "byteLength" : 17936
    },
    {
      "buffer" : 0,
      "byteOffset" : 219708,
      "byteLength" : 35872
    },
    {
      "buffer" : 0,
      "byteOffset" : 255580,
      "byteLength" : 17936
    },
    {
      "buffer" : 0,
      "byteOffset" : 273516,
      "byteLength" : 35872
    },
    {
      "buffer" : 0,
      "byteOffset" : 309388,
      "byteLength" : 35872
    },
    {
      "buffer" : 0,
      "byteOffset" : 345260,
      "byteLength" : 83396
    },
    {
      "buffer" : 0,
      "byteOffset" : 428656,
      "byteLength" : 205584
    },
    {
      "buffer" : 0,
      "byteOffset" : 634240,
      "byteLength" : 205584
    },
    {
      "buffer" : 0,
      "byteOffset" : 839824,
      "byteLength" : 274112
    },
    {
      "buffer" : 0,
      "byteOffset" : 1113936,
      "byteLength" : 68528
    },
    {
      "buffer" : 0,
      "byteOffset" : 1182464,
      "byteLength" : 137056
    },
    {
      "buffer" : 0,
      "byteOffset" : 1319520,
      "byteLength" : 68528
    },
    {
      "buffer" : 0,
      "byteOffset" : 1388048,
      "byteLength" : 137056
    },
    {
      "buffer" : 0,
      "byteOffset" : 1525104,
      "byteLength" : 137056
    }
  ],
  "accessors" : [
    {
      "bufferView" : 0,
      "componentType" : 5126,
      "count" : 5,
      "type" : "MAT4"
    },
    {
      "bufferView" : 1,
      "componentType" : 5123,
      "count" : 11046,
      "type" : "SCALAR"
    },
    {
      "bufferView" : 2,
      "min" : [ -0.0609268, -0.843029, -0.0510494 ],
      "max" : [ 0.201986, 0.353232, 0.0364443 ],
      "componentType" : 5126,
      "count" : 4484,
      "type" : "VEC3"
    },
    {
      "bufferView" : 3,
      "componentType" : 5126,
      "count" : 4484,
      "type" : "VEC3"
    },
    {
      "bufferView" : 4,
      "componentType" : 5126,
      "count" : 4484,
      "type" : "VEC4"
    },
    {
      "bufferView" : 5,
      "normalized" : true,
      "componentType" : 5121,
      "count" : 4484,
      "type" : "VEC4"
    },
    {
      "bufferView" : 6,
      "componentType" : 5123,
      "count" : 4484,
      "type" : "VEC4"
    },
    {
      "bufferView" : 7,
      "normalized" : true,
      "componentType" : 5121,
      "count" : 4484,
      "type" : "VEC4"
    },
    {
      "bufferView" : 8,
      "componentType" : 5126,
      "count" : 4484,
      "type" : "VEC2"
    },
    {
      "bufferView" : 9,
      "componentType" : 5126,
      "count" : 4484,
      "type" : "VEC2"
    },
    {
      "bufferView" : 10,
      "componentType" : 5123,
      "count" : 41697,
      "type" : "SCALAR"
    },
    {
      "bufferView" : 11,
      "min" : [ -0.139364, -0.779227, -0.0558802 ],
      "max" : [ 0.154748, 0.421172, 0.0428476 ],
      "componentType" : 5126,
      "count" : 17132,
      "type" : "VEC3"
    },
    {
      "bufferView" : 12,
      "componentType" : 5126,
      "count" : 17132,
      "type" : "VEC3"
    },
    {
      "bufferView" : 13,
      "componentType" : 5126,
      "count" : 17132,
      "type" : "VEC4"
    },
    {
      "bufferView" : 14,
      "normalized" : true,
      "componentType" : 5121,
      "count" : 17132,
      "type" : "VEC4"
    },
    {
      "bufferView" : 15,
      "componentType" : 5123,
      "count" : 17132,
      "type" : "VEC4"
    },
    {
      "bufferView" : 16,
      "normalized" : true,
      "componentType" : 5121,
      "count" : 17132,
      "type" : "VEC4"
    },
    {
      "bufferView" : 17,
      "componentType" : 5126,
      "count" : 17132,
      "type" : "VEC2"
    },
    {
      "bufferView" : 18,
      "componentType" : 5126,
      "count" : 17132,
      "type" : "VEC2"
    }
  ]
}
