{
  "asset" : {
    "generator" : "UE Viewer (umodel) build 1579 based",
    "version" : "2.0"
  },
  "scene" : 0,
  "scenes" : [
    {
      "nodes" : [ 0 ]
    }
  ],
  "nodes" : [
    {
      "name" : "SK_CH_WP06_A_ball",
      "mesh" : 0,
      "skin" : 0,
      "children" : [ 1 ]
    },
    {
      "name" : "Root_J",
      "translation" : [ 0, 0, 0 ],
      "rotation" : [ -0, -0, -0, 1 ]
    }
  ],
  "skins" : [
    {
      "inverseBindMatrices" : 0,
      "skeleton" : 1,
      "joints" : [
        1
      ]
    }
  ],
  "materials" : [
    {
      "name" : "M_CH_WP06_A_01_Ball",
      "pbrMetallicRoughness" : {
        "baseColorFactor" : [ 0.3, 0.3, 0.3, 1.0 ],
        "metallicFactor" : 0.1,
        "roughnessFactor" : 0.5
      }
    }
  ],
  "meshes" : [
    {
      "primitives" : [
        {
          "attributes" : {
            "POSITION" : 2,
            "NORMAL" : 3,
            "TANGENT" : 4,
            "COLOR_0" : 5,
            "JOINTS_0" : 6,
            "WEIGHTS_0" : 7,
            "TEXCOORD_0" : 8,
            "TEXCOORD_1" : 9
          },
          "indices" : 1,
          "material" : 0
        }
      ],
      "name" : "SK_CH_WP06_A_ball"
    }
  ],
  "buffers" : [
    {
      "uri" : "SK_CH_WP06_A_ball.bin",
      "byteLength" : 61360
    }
  ],
  "bufferViews" : [
    {
      "buffer" : 0,
      "byteOffset" : 0,
      "byteLength" : 64
    },
    {
      "buffer" : 0,
      "byteOffset" : 64,
      "byteLength" : 5280
    },
    {
      "buffer" : 0,
      "byteOffset" : 5344,
      "byteLength" : 9336
    },
    {
      "buffer" : 0,
      "byteOffset" : 14680,
      "byteLength" : 9336
    },
    {
      "buffer" : 0,
      "byteOffset" : 24016,
      "byteLength" : 12448
    },
    {
      "buffer" : 0,
      "byteOffset" : 36464,
      "byteLength" : 3112
    },
    {
      "buffer" : 0,
      "byteOffset" : 39576,
      "byteLength" : 6224
    },
    {
      "buffer" : 0,
      "byteOffset" : 45800,
      "byteLength" : 3112
    },
    {
      "buffer" : 0,
      "byteOffset" : 48912,
      "byteLength" : 6224
    },
    {
      "buffer" : 0,
      "byteOffset" : 55136,
      "byteLength" : 6224
    }
  ],
  "accessors" : [
    {
      "bufferView" : 0,
      "componentType" : 5126,
      "count" : 1,
      "type" : "MAT4"
    },
    {
      "bufferView" : 1,
      "componentType" : 5123,
      "count" : 2640,
      "type" : "SCALAR"
    },
    {
      "bufferView" : 2,
      "min" : [ -0.264267, -0.262545, -0.242308 ],
      "max" : [ 0.255731, 0.257458, 0.242308 ],
      "componentType" : 5126,
      "count" : 778,
      "type" : "VEC3"
    },
    {
      "bufferView" : 3,
      "componentType" : 5126,
      "count" : 778,
      "type" : "VEC3"
    },
    {
      "bufferView" : 4,
      "componentType" : 5126,
      "count" : 778,
      "type" : "VEC4"
    },
    {
      "bufferView" : 5,
      "normalized" : true,
      "componentType" : 5121,
      "count" : 778,
      "type" : "VEC4"
    },
    {
      "bufferView" : 6,
      "componentType" : 5123,
      "count" : 778,
      "type" : "VEC4"
    },
    {
      "bufferView" : 7,
      "normalized" : true,
      "componentType" : 5121,
      "count" : 778,
      "type" : "VEC4"
    },
    {
      "bufferView" : 8,
      "componentType" : 5126,
      "count" : 778,
      "type" : "VEC2"
    },
    {
      "bufferView" : 9,
      "componentType" : 5126,
      "count" : 778,
      "type" : "VEC2"
    }
  ]
}
