{
  "asset" : {
    "generator" : "UE Viewer (umodel) build 1579 based",
    "version" : "2.0"
  },
  "scene" : 0,
  "scenes" : [
    {
      "nodes" : [ 0 ]
    }
  ],
  "nodes" : [
    {
      "name" : "SK_CH_WP02_BC00",
      "mesh" : 0,
      "skin" : 0,
      "children" : [ 1 ]
    },
    {
      "name" : "Root_J",
      "children" : [ 2 ],
      "translation" : [ 0, 0, 0 ],
      "rotation" : [ -0, -0, -0, 1 ]
    },
    {
      "name" : "Center_J",
      "children" : [ 3, 4, 5 ],
      "translation" : [ 0, 0.177282, -0 ],
      "rotation" : [ -0, -0, 0, -1 ]
    },
    {
      "name" : "R_EdgeTop",
      "translation" : [ 7.59659e-18, 1.33159, -7.59659e-18 ],
      "rotation" : [ -0, -0, 0, -1 ]
    },
    {
      "name" : "R_EdgeBottom",
      "translation" : [ 1.44329e-17, 0.377965, -2.65799e-19 ],
      "rotation" : [ -0, -0, 0, -1 ]
    },
    {
      "name" : "R_HandleBottom",
      "translation" : [ 0, -1.23581, -0 ],
      "rotation" : [ -0, -0, 0, -1 ]
    }
  ],
  "skins" : [
    {
      "inverseBindMatrices" : 0,
      "skeleton" : 1,
      "joints" : [
        1,2,3,4,5
      ]
    }
  ],
  "materials" : [
    {
      "name" : "M_CH_WP02_BC00_00",
      "pbrMetallicRoughness" : {
        "baseColorFactor" : [ 0.3, 0.3, 0.3, 1.0 ],
        "metallicFactor" : 0.1,
        "roughnessFactor" : 0.5
      }
    }
  ],
  "meshes" : [
    {
      "primitives" : [
        {
          "attributes" : {
            "POSITION" : 2,
            "NORMAL" : 3,
            "TANGENT" : 4,
            "COLOR_0" : 5,
            "JOINTS_0" : 6,
            "WEIGHTS_0" : 7,
            "TEXCOORD_0" : 8,
            "TEXCOORD_1" : 9
          },
          "indices" : 1,
          "material" : 0
        }
      ],
      "name" : "SK_CH_WP02_BC00"
    }
  ],
  "buffers" : [
    {
      "uri" : "SK_CH_WP02_BC00.bin",
      "byteLength" : 885992
    }
  ],
  "bufferViews" : [
    {
      "buffer" : 0,
      "byteOffset" : 0,
      "byteLength" : 320
    },
    {
      "buffer" : 0,
      "byteOffset" : 320,
      "byteLength" : 60984
    },
    {
      "buffer" : 0,
      "byteOffset" : 61304,
      "byteLength" : 137448
    },
    {
      "buffer" : 0,
      "byteOffset" : 198752,
      "byteLength" : 137448
    },
    {
      "buffer" : 0,
      "byteOffset" : 336200,
      "byteLength" : 183264
    },
    {
      "buffer" : 0,
      "byteOffset" : 519464,
      "byteLength" : 45816
    },
    {
      "buffer" : 0,
      "byteOffset" : 565280,
      "byteLength" : 91632
    },
    {
      "buffer" : 0,
      "byteOffset" : 656912,
      "byteLength" : 45816
    },
    {
      "buffer" : 0,
      "byteOffset" : 702728,
      "byteLength" : 91632
    },
    {
      "buffer" : 0,
      "byteOffset" : 794360,
      "byteLength" : 91632
    }
  ],
  "accessors" : [
    {
      "bufferView" : 0,
      "componentType" : 5126,
      "count" : 5,
      "type" : "MAT4"
    },
    {
      "bufferView" : 1,
      "componentType" : 5123,
      "count" : 30492,
      "type" : "SCALAR"
    },
    {
      "bufferView" : 2,
      "min" : [ -0.152912, -1.05836, -0.0639971 ],
      "max" : [ 0.152912, 1.50952, 0.0639971 ],
      "componentType" : 5126,
      "count" : 11454,
      "type" : "VEC3"
    },
    {
      "bufferView" : 3,
      "componentType" : 5126,
      "count" : 11454,
      "type" : "VEC3"
    },
    {
      "bufferView" : 4,
      "componentType" : 5126,
      "count" : 11454,
      "type" : "VEC4"
    },
    {
      "bufferView" : 5,
      "normalized" : true,
      "componentType" : 5121,
      "count" : 11454,
      "type" : "VEC4"
    },
    {
      "bufferView" : 6,
      "componentType" : 5123,
      "count" : 11454,
      "type" : "VEC4"
    },
    {
      "bufferView" : 7,
      "normalized" : true,
      "componentType" : 5121,
      "count" : 11454,
      "type" : "VEC4"
    },
    {
      "bufferView" : 8,
      "componentType" : 5126,
      "count" : 11454,
      "type" : "VEC2"
    },
    {
      "bufferView" : 9,
      "componentType" : 5126,
      "count" : 11454,
      "type" : "VEC2"
    }
  ]
}
