{
  "asset" : {
    "generator" : "UE Viewer (umodel) build 1579 based",
    "version" : "2.0"
  },
  "scene" : 0,
  "scenes" : [
    {
      "nodes" : [ 0 ]
    }
  ],
  "nodes" : [
    {
      "name" : "SK_CH_WP07_AA02",
      "mesh" : 0,
      "skin" : 0,
      "children" : [ 1 ]
    },
    {
      "name" : "Root_J",
      "children" : [ 2 ],
      "translation" : [ 0, 0, 0 ],
      "rotation" : [ -0, -0, -0, 1 ]
    },
    {
      "name" : "Center_J",
      "children" : [ 3, 4, 5, 6, 8 ],
      "translation" : [ 0, -0.0205827, -0 ],
      "rotation" : [ -0, -0, 0, -1 ]
    },
    {
      "name" : "R_EdgeTop",
      "translation" : [ -4.68924e-06, 0.514818, -0 ],
      "rotation" : [ -0, -0, 0.707082, -0.707132 ]
    },
    {
      "name" : "R_EdgeBottom",
      "translation" : [ 0, 0.273963, -0 ],
      "rotation" : [ -0, -0, 0, -1 ]
    },
    {
      "name" : "R_HandleBottom",
      "translation" : [ 0, -0.592477, -0 ],
      "rotation" : [ -0, -0, 0, -1 ]
    },
    {
      "name" : "UpperCover_J",
      "children" : [ 7 ],
      "translation" : [ 0, 0.116181, -0 ],
      "rotation" : [ -0, -0, 0, -1 ]
    },
    {
      "name" : "R_Discharge",
      "translation" : [ 4.55527e-07, 0.12513, -0 ],
      "rotation" : [ -0, -0, 0.707082, -0.707132 ]
    },
    {
      "name" : "LowerSlide_J",
      "translation" : [ 0, -0.262817, -0 ],
      "rotation" : [ -0, -0, 0, -1 ]
    }
  ],
  "skins" : [
    {
      "inverseBindMatrices" : 0,
      "skeleton" : 1,
      "joints" : [
        1,2,3,4,5,6,7,8
      ]
    }
  ],
  "materials" : [
    {
      "name" : "M_CH_WP07_AA02_00",
      "pbrMetallicRoughness" : {
        "baseColorFactor" : [ 0.3, 0.3, 0.3, 1.0 ],
        "metallicFactor" : 0.1,
        "roughnessFactor" : 0.5
      }
    }
  ],
  "meshes" : [
    {
      "primitives" : [
        {
          "attributes" : {
            "POSITION" : 2,
            "NORMAL" : 3,
            "TANGENT" : 4,
            "COLOR_0" : 5,
            "JOINTS_0" : 6,
            "WEIGHTS_0" : 7,
            "TEXCOORD_0" : 8,
            "TEXCOORD_1" : 9
          },
          "indices" : 1,
          "material" : 0
        }
      ],
      "name" : "SK_CH_WP07_AA02"
    }
  ],
  "buffers" : [
    {
      "uri" : "SK_CH_WP07_AA02.bin",
      "byteLength" : 628640
    }
  ],
  "bufferViews" : [
    {
      "buffer" : 0,
      "byteOffset" : 0,
      "byteLength" : 512
    },
    {
      "buffer" : 0,
      "byteOffset" : 512,
      "byteLength" : 45144
    },
    {
      "buffer" : 0,
      "byteOffset" : 45656,
      "byteLength" : 97164
    },
    {
      "buffer" : 0,
      "byteOffset" : 142820,
      "byteLength" : 97164
    },
    {
      "buffer" : 0,
      "byteOffset" : 239984,
      "byteLength" : 129552
    },
    {
      "buffer" : 0,
      "byteOffset" : 369536,
      "byteLength" : 32388
    },
    {
      "buffer" : 0,
      "byteOffset" : 401924,
      "byteLength" : 64776
    },
    {
      "buffer" : 0,
      "byteOffset" : 466700,
      "byteLength" : 32388
    },
    {
      "buffer" : 0,
      "byteOffset" : 499088,
      "byteLength" : 64776
    },
    {
      "buffer" : 0,
      "byteOffset" : 563864,
      "byteLength" : 64776
    }
  ],
  "accessors" : [
    {
      "bufferView" : 0,
      "componentType" : 5126,
      "count" : 8,
      "type" : "MAT4"
    },
    {
      "bufferView" : 1,
      "componentType" : 5123,
      "count" : 22572,
      "type" : "SCALAR"
    },
    {
      "bufferView" : 2,
      "min" : [ -0.0600893, -0.689476, -0.0462701 ],
      "max" : [ 0.0600893, 0.495148, 0.0462701 ],
      "componentType" : 5126,
      "count" : 8097,
      "type" : "VEC3"
    },
    {
      "bufferView" : 3,
      "componentType" : 5126,
      "count" : 8097,
      "type" : "VEC3"
    },
    {
      "bufferView" : 4,
      "componentType" : 5126,
      "count" : 8097,
      "type" : "VEC4"
    },
    {
      "bufferView" : 5,
      "normalized" : true,
      "componentType" : 5121,
      "count" : 8097,
      "type" : "VEC4"
    },
    {
      "bufferView" : 6,
      "componentType" : 5123,
      "count" : 8097,
      "type" : "VEC4"
    },
    {
      "bufferView" : 7,
      "normalized" : true,
      "componentType" : 5121,
      "count" : 8097,
      "type" : "VEC4"
    },
    {
      "bufferView" : 8,
      "componentType" : 5126,
      "count" : 8097,
      "type" : "VEC2"
    },
    {
      "bufferView" : 9,
      "componentType" : 5126,
      "count" : 8097,
      "type" : "VEC2"
    }
  ]
}
