{
  "asset" : {
    "generator" : "UE Viewer (umodel) build 1579 based",
    "version" : "2.0"
  },
  "scene" : 0,
  "scenes" : [
    {
      "nodes" : [ 0 ]
    }
  ],
  "nodes" : [
    {
      "name" : "SK_CH_WP09_BE00",
      "mesh" : 0,
      "skin" : 0,
      "children" : [ 1 ]
    },
    {
      "name" : "Root_J",
      "children" : [ 2 ],
      "translation" : [ 0, 0, 0 ],
      "rotation" : [ -0, -0, -0, 1 ]
    },
    {
      "name" : "Center_J",
      "translation" : [ 0, 0, -0.09 ],
      "rotation" : [ -0, -0, 0, -1 ]
    }
  ],
  "skins" : [
    {
      "inverseBindMatrices" : 0,
      "skeleton" : 1,
      "joints" : [
        1,2
      ]
    }
  ],
  "materials" : [
    {
      "name" : "M_CH_WP09_BE00_00",
      "pbrMetallicRoughness" : {
        "baseColorFactor" : [ 0.3, 0.3, 0.3, 1.0 ],
        "metallicFactor" : 0.1,
        "roughnessFactor" : 0.5
      }
    }
  ],
  "meshes" : [
    {
      "primitives" : [
        {
          "attributes" : {
            "POSITION" : 2,
            "NORMAL" : 3,
            "TANGENT" : 4,
            "COLOR_0" : 5,
            "JOINTS_0" : 6,
            "WEIGHTS_0" : 7,
            "TEXCOORD_0" : 8,
            "TEXCOORD_1" : 9
          },
          "indices" : 1,
          "material" : 0
        }
      ],
      "name" : "SK_CH_WP09_BE00"
    }
  ],
  "buffers" : [
    {
      "uri" : "SK_CH_WP09_BE00.bin",
      "byteLength" : 1868048
    }
  ],
  "bufferViews" : [
    {
      "buffer" : 0,
      "byteOffset" : 0,
      "byteLength" : 128
    },
    {
      "buffer" : 0,
      "byteOffset" : 128,
      "byteLength" : 157488
    },
    {
      "buffer" : 0,
      "byteOffset" : 157616,
      "byteLength" : 285072
    },
    {
      "buffer" : 0,
      "byteOffset" : 442688,
      "byteLength" : 285072
    },
    {
      "buffer" : 0,
      "byteOffset" : 727760,
      "byteLength" : 380096
    },
    {
      "buffer" : 0,
      "byteOffset" : 1107856,
      "byteLength" : 95024
    },
    {
      "buffer" : 0,
      "byteOffset" : 1202880,
      "byteLength" : 190048
    },
    {
      "buffer" : 0,
      "byteOffset" : 1392928,
      "byteLength" : 95024
    },
    {
      "buffer" : 0,
      "byteOffset" : 1487952,
      "byteLength" : 190048
    },
    {
      "buffer" : 0,
      "byteOffset" : 1678000,
      "byteLength" : 190048
    }
  ],
  "accessors" : [
    {
      "bufferView" : 0,
      "componentType" : 5126,
      "count" : 2,
      "type" : "MAT4"
    },
    {
      "bufferView" : 1,
      "componentType" : 5123,
      "count" : 78744,
      "type" : "SCALAR"
    },
    {
      "bufferView" : 2,
      "min" : [ -0.829895, -0.376983, -0.319765 ],
      "max" : [ 0.542848, 0.376983, -0.0176582 ],
      "componentType" : 5126,
      "count" : 23756,
      "type" : "VEC3"
    },
    {
      "bufferView" : 3,
      "componentType" : 5126,
      "count" : 23756,
      "type" : "VEC3"
    },
    {
      "bufferView" : 4,
      "componentType" : 5126,
      "count" : 23756,
      "type" : "VEC4"
    },
    {
      "bufferView" : 5,
      "normalized" : true,
      "componentType" : 5121,
      "count" : 23756,
      "type" : "VEC4"
    },
    {
      "bufferView" : 6,
      "componentType" : 5123,
      "count" : 23756,
      "type" : "VEC4"
    },
    {
      "bufferView" : 7,
      "normalized" : true,
      "componentType" : 5121,
      "count" : 23756,
      "type" : "VEC4"
    },
    {
      "bufferView" : 8,
      "componentType" : 5126,
      "count" : 23756,
      "type" : "VEC2"
    },
    {
      "bufferView" : 9,
      "componentType" : 5126,
      "count" : 23756,
      "type" : "VEC2"
    }
  ]
}
