{
  "asset" : {
    "generator" : "UE Viewer (umodel) build 1579 based",
    "version" : "2.0"
  },
  "scene" : 0,
  "scenes" : [
    {
      "nodes" : [ 0 ]
    }
  ],
  "nodes" : [
    {
      "name" : "SK_CH_WP06_AH01_ball",
      "mesh" : 0,
      "skin" : 0,
      "children" : [ 1 ]
    },
    {
      "name" : "Root_J",
      "translation" : [ 0, 0, 0 ],
      "rotation" : [ -0, -0, -0, 1 ]
    }
  ],
  "skins" : [
    {
      "inverseBindMatrices" : 0,
      "skeleton" : 1,
      "joints" : [
        1
      ]
    }
  ],
  "materials" : [
    {
      "name" : "M_CH_WP06_AH01_00_ball",
      "pbrMetallicRoughness" : {
        "baseColorFactor" : [ 0.3, 0.3, 0.3, 1.0 ],
        "metallicFactor" : 0.1,
        "roughnessFactor" : 0.5
      }
    }
  ],
  "meshes" : [
    {
      "primitives" : [
        {
          "attributes" : {
            "POSITION" : 2,
            "NORMAL" : 3,
            "TANGENT" : 4,
            "COLOR_0" : 5,
            "JOINTS_0" : 6,
            "WEIGHTS_0" : 7,
            "TEXCOORD_0" : 8,
            "TEXCOORD_1" : 9
          },
          "indices" : 1,
          "material" : 0
        }
      ],
      "name" : "SK_CH_WP06_AH01_ball"
    }
  ],
  "buffers" : [
    {
      "uri" : "SK_CH_WP06_AH01_ball.bin",
      "byteLength" : 352924
    }
  ],
  "bufferViews" : [
    {
      "buffer" : 0,
      "byteOffset" : 0,
      "byteLength" : 64
    },
    {
      "buffer" : 0,
      "byteOffset" : 64,
      "byteLength" : 25620
    },
    {
      "buffer" : 0,
      "byteOffset" : 25684,
      "byteLength" : 54540
    },
    {
      "buffer" : 0,
      "byteOffset" : 80224,
      "byteLength" : 54540
    },
    {
      "buffer" : 0,
      "byteOffset" : 134764,
      "byteLength" : 72720
    },
    {
      "buffer" : 0,
      "byteOffset" : 207484,
      "byteLength" : 18180
    },
    {
      "buffer" : 0,
      "byteOffset" : 225664,
      "byteLength" : 36360
    },
    {
      "buffer" : 0,
      "byteOffset" : 262024,
      "byteLength" : 18180
    },
    {
      "buffer" : 0,
      "byteOffset" : 280204,
      "byteLength" : 36360
    },
    {
      "buffer" : 0,
      "byteOffset" : 316564,
      "byteLength" : 36360
    }
  ],
  "accessors" : [
    {
      "bufferView" : 0,
      "componentType" : 5126,
      "count" : 1,
      "type" : "MAT4"
    },
    {
      "bufferView" : 1,
      "componentType" : 5123,
      "count" : 12810,
      "type" : "SCALAR"
    },
    {
      "bufferView" : 2,
      "min" : [ -0.374209, -0.320699, -0.233226 ],
      "max" : [ 0.274045, 0.533708, 0.189221 ],
      "componentType" : 5126,
      "count" : 4545,
      "type" : "VEC3"
    },
    {
      "bufferView" : 3,
      "componentType" : 5126,
      "count" : 4545,
      "type" : "VEC3"
    },
    {
      "bufferView" : 4,
      "componentType" : 5126,
      "count" : 4545,
      "type" : "VEC4"
    },
    {
      "bufferView" : 5,
      "normalized" : true,
      "componentType" : 5121,
      "count" : 4545,
      "type" : "VEC4"
    },
    {
      "bufferView" : 6,
      "componentType" : 5123,
      "count" : 4545,
      "type" : "VEC4"
    },
    {
      "bufferView" : 7,
      "normalized" : true,
      "componentType" : 5121,
      "count" : 4545,
      "type" : "VEC4"
    },
    {
      "bufferView" : 8,
      "componentType" : 5126,
      "count" : 4545,
      "type" : "VEC2"
    },
    {
      "bufferView" : 9,
      "componentType" : 5126,
      "count" : 4545,
      "type" : "VEC2"
    }
  ]
}
