{
  "asset" : {
    "generator" : "UE Viewer (umodel) build 1579 based",
    "version" : "2.0"
  },
  "scene" : 0,
  "scenes" : [
    {
      "nodes" : [ 0 ]
    }
  ],
  "nodes" : [
    {
      "name" : "SK_CH_WP06_AT00_ball",
      "mesh" : 0,
      "skin" : 0,
      "children" : [ 1 ]
    },
    {
      "name" : "Root_J",
      "translation" : [ 0, 0, 0 ],
      "rotation" : [ -0, -0, -0, 1 ]
    }
  ],
  "skins" : [
    {
      "inverseBindMatrices" : 0,
      "skeleton" : 1,
      "joints" : [
        1
      ]
    }
  ],
  "materials" : [
    {
      "name" : "M_CH_WP06_AT00_00_ball",
      "pbrMetallicRoughness" : {
        "baseColorFactor" : [ 0.3, 0.3, 0.3, 1.0 ],
        "metallicFactor" : 0.1,
        "roughnessFactor" : 0.5
      }
    }
  ],
  "meshes" : [
    {
      "primitives" : [
        {
          "attributes" : {
            "POSITION" : 2,
            "NORMAL" : 3,
            "TANGENT" : 4,
            "COLOR_0" : 5,
            "JOINTS_0" : 6,
            "WEIGHTS_0" : 7,
            "TEXCOORD_0" : 8,
            "TEXCOORD_1" : 9
          },
          "indices" : 1,
          "material" : 0
        }
      ],
      "name" : "SK_CH_WP06_AT00_ball"
    }
  ],
  "buffers" : [
    {
      "uri" : "SK_CH_WP06_AT00_ball.bin",
      "byteLength" : 288916
    }
  ],
  "bufferViews" : [
    {
      "buffer" : 0,
      "byteOffset" : 0,
      "byteLength" : 64
    },
    {
      "buffer" : 0,
      "byteOffset" : 64,
      "byteLength" : 22380
    },
    {
      "buffer" : 0,
      "byteOffset" : 22444,
      "byteLength" : 44412
    },
    {
      "buffer" : 0,
      "byteOffset" : 66856,
      "byteLength" : 44412
    },
    {
      "buffer" : 0,
      "byteOffset" : 111268,
      "byteLength" : 59216
    },
    {
      "buffer" : 0,
      "byteOffset" : 170484,
      "byteLength" : 14804
    },
    {
      "buffer" : 0,
      "byteOffset" : 185288,
      "byteLength" : 29608
    },
    {
      "buffer" : 0,
      "byteOffset" : 214896,
      "byteLength" : 14804
    },
    {
      "buffer" : 0,
      "byteOffset" : 229700,
      "byteLength" : 29608
    },
    {
      "buffer" : 0,
      "byteOffset" : 259308,
      "byteLength" : 29608
    }
  ],
  "accessors" : [
    {
      "bufferView" : 0,
      "componentType" : 5126,
      "count" : 1,
      "type" : "MAT4"
    },
    {
      "bufferView" : 1,
      "componentType" : 5123,
      "count" : 11190,
      "type" : "SCALAR"
    },
    {
      "bufferView" : 2,
      "min" : [ -0.342702, -0.260306, -0.260052 ],
      "max" : [ 0.260306, 0.397644, 0.258712 ],
      "componentType" : 5126,
      "count" : 3701,
      "type" : "VEC3"
    },
    {
      "bufferView" : 3,
      "componentType" : 5126,
      "count" : 3701,
      "type" : "VEC3"
    },
    {
      "bufferView" : 4,
      "componentType" : 5126,
      "count" : 3701,
      "type" : "VEC4"
    },
    {
      "bufferView" : 5,
      "normalized" : true,
      "componentType" : 5121,
      "count" : 3701,
      "type" : "VEC4"
    },
    {
      "bufferView" : 6,
      "componentType" : 5123,
      "count" : 3701,
      "type" : "VEC4"
    },
    {
      "bufferView" : 7,
      "normalized" : true,
      "componentType" : 5121,
      "count" : 3701,
      "type" : "VEC4"
    },
    {
      "bufferView" : 8,
      "componentType" : 5126,
      "count" : 3701,
      "type" : "VEC2"
    },
    {
      "bufferView" : 9,
      "componentType" : 5126,
      "count" : 3701,
      "type" : "VEC2"
    }
  ]
}
