{
  "asset" : {
    "generator" : "UE Viewer (umodel) build 1579 based",
    "version" : "2.0"
  },
  "scene" : 0,
  "scenes" : [
    {
      "nodes" : [ 0 ]
    }
  ],
  "nodes" : [
    {
      "name" : "SK_CH_WP09_AB01",
      "mesh" : 0,
      "skin" : 0,
      "children" : [ 1 ]
    },
    {
      "name" : "Root_J",
      "children" : [ 2 ],
      "translation" : [ 0, 0, 0 ],
      "rotation" : [ -0, -0, -0, 1 ]
    },
    {
      "name" : "Center_J",
      "translation" : [ 0, 0, -0.09 ],
      "rotation" : [ -0, -0, 0, -1 ]
    }
  ],
  "skins" : [
    {
      "inverseBindMatrices" : 0,
      "skeleton" : 1,
      "joints" : [
        1,2
      ]
    }
  ],
  "materials" : [
    {
      "name" : "M_CH_WP09_AB01_00",
      "pbrMetallicRoughness" : {
        "baseColorFactor" : [ 0.3, 0.3, 0.3, 1.0 ],
        "metallicFactor" : 0.1,
        "roughnessFactor" : 0.5
      }
    }
  ],
  "meshes" : [
    {
      "primitives" : [
        {
          "attributes" : {
            "POSITION" : 2,
            "NORMAL" : 3,
            "TANGENT" : 4,
            "COLOR_0" : 5,
            "JOINTS_0" : 6,
            "WEIGHTS_0" : 7,
            "TEXCOORD_0" : 8,
            "TEXCOORD_1" : 9
          },
          "indices" : 1,
          "material" : 0
        }
      ],
      "name" : "SK_CH_WP09_AB01"
    }
  ],
  "buffers" : [
    {
      "uri" : "SK_CH_WP09_AB01.bin",
      "byteLength" : 437180
    }
  ],
  "bufferViews" : [
    {
      "buffer" : 0,
      "byteOffset" : 0,
      "byteLength" : 128
    },
    {
      "buffer" : 0,
      "byteOffset" : 128,
      "byteLength" : 25068
    },
    {
      "buffer" : 0,
      "byteOffset" : 25196,
      "byteLength" : 68664
    },
    {
      "buffer" : 0,
      "byteOffset" : 93860,
      "byteLength" : 68664
    },
    {
      "buffer" : 0,
      "byteOffset" : 162524,
      "byteLength" : 91552
    },
    {
      "buffer" : 0,
      "byteOffset" : 254076,
      "byteLength" : 22888
    },
    {
      "buffer" : 0,
      "byteOffset" : 276964,
      "byteLength" : 45776
    },
    {
      "buffer" : 0,
      "byteOffset" : 322740,
      "byteLength" : 22888
    },
    {
      "buffer" : 0,
      "byteOffset" : 345628,
      "byteLength" : 45776
    },
    {
      "buffer" : 0,
      "byteOffset" : 391404,
      "byteLength" : 45776
    }
  ],
  "accessors" : [
    {
      "bufferView" : 0,
      "componentType" : 5126,
      "count" : 2,
      "type" : "MAT4"
    },
    {
      "bufferView" : 1,
      "componentType" : 5123,
      "count" : 12534,
      "type" : "SCALAR"
    },
    {
      "bufferView" : 2,
      "min" : [ -0.758954, -0.454745, -0.368753 ],
      "max" : [ 0.599886, 0.454745, -0.0752945 ],
      "componentType" : 5126,
      "count" : 5722,
      "type" : "VEC3"
    },
    {
      "bufferView" : 3,
      "componentType" : 5126,
      "count" : 5722,
      "type" : "VEC3"
    },
    {
      "bufferView" : 4,
      "componentType" : 5126,
      "count" : 5722,
      "type" : "VEC4"
    },
    {
      "bufferView" : 5,
      "normalized" : true,
      "componentType" : 5121,
      "count" : 5722,
      "type" : "VEC4"
    },
    {
      "bufferView" : 6,
      "componentType" : 5123,
      "count" : 5722,
      "type" : "VEC4"
    },
    {
      "bufferView" : 7,
      "normalized" : true,
      "componentType" : 5121,
      "count" : 5722,
      "type" : "VEC4"
    },
    {
      "bufferView" : 8,
      "componentType" : 5126,
      "count" : 5722,
      "type" : "VEC2"
    },
    {
      "bufferView" : 9,
      "componentType" : 5126,
      "count" : 5722,
      "type" : "VEC2"
    }
  ]
}
