{
  "asset" : {
    "generator" : "UE Viewer (umodel) build 1579 based",
    "version" : "2.0"
  },
  "scene" : 0,
  "scenes" : [
    {
      "nodes" : [ 0 ]
    }
  ],
  "nodes" : [
    {
      "name" : "SK_CH_WP22",
      "mesh" : 0,
      "skin" : 0,
      "children" : [ 1 ]
    },
    {
      "name" : "Root_J",
      "children" : [ 2 ],
      "translation" : [ 0, 0, 0 ],
      "rotation" : [ -0, -0, -0, 1 ]
    },
    {
      "name" : "Bottom_J",
      "children" : [ 3, 20, 29, 32, 35, 38 ],
      "translation" : [ 0, 0.1, -0 ],
      "rotation" : [ -0, -0, 0, -1 ]
    },
    {
      "name" : "Head_J",
      "children" : [ 4, 8, 12, 16 ],
      "translation" : [ 0, 0.66, -0 ],
      "rotation" : [ -0, -0, 0, -1 ]
    },
    {
      "name" : "F_Door01_J",
      "children" : [ 5 ],
      "translation" : [ 0.1, -0.04, 2.22045e-17 ],
      "rotation" : [ -0, -0.707107, 0, -0.707107 ]
    },
    {
      "name" : "F_Door02_J",
      "children" : [ 6 ],
      "translation" : [ 0, 0.0605826, 0.130261 ],
      "rotation" : [ -0, -0, 0, -1 ]
    },
    {
      "name" : "F_Door03_J",
      "children" : [ 7 ],
      "translation" : [ 0, -0.340583, -0.0202607 ],
      "rotation" : [ 0.076719, -0, -0, -0.997053 ]
    },
    {
      "name" : "F_Door04_J",
      "translation" : [ 0, 0, -0 ],
      "rotation" : [ -0, -0, 0, -1 ]
    },
    {
      "name" : "L_Door01_J",
      "children" : [ 9 ],
      "translation" : [ 4.44089e-17, -0.04, -0.1 ],
      "rotation" : [ -0, -1, 0, -2.83277e-16 ]
    },
    {
      "name" : "L_Door02_J",
      "children" : [ 10 ],
      "translation" : [ 1.57772e-32, 0.0605826, 0.130261 ],
      "rotation" : [ -0, -0, 0, -1 ]
    },
    {
      "name" : "L_Door03_J",
      "children" : [ 11 ],
      "translation" : [ 0, -0.340583, -0.0202607 ],
      "rotation" : [ 0.076719, -0, -0, -0.997053 ]
    },
    {
      "name" : "L_Door04_J",
      "translation" : [ 0, 0, -0 ],
      "rotation" : [ -0, -0, 0, -1 ]
    },
    {
      "name" : "R_Door01_J",
      "children" : [ 13 ],
      "translation" : [ 0, -0.04, 0.1 ],
      "rotation" : [ -0, -0, 0, -1 ]
    },
    {
      "name" : "R_Door02_J",
      "children" : [ 14 ],
      "translation" : [ 0, 0.0605826, 0.130261 ],
      "rotation" : [ -0, -0, 0, -1 ]
    },
    {
      "name" : "R_Door03_J",
      "children" : [ 15 ],
      "translation" : [ 0, -0.340583, -0.0202607 ],
      "rotation" : [ 0.076719, -0, -0, -0.997053 ]
    },
    {
      "name" : "R_Door04_J",
      "translation" : [ 0, 0, -0 ],
      "rotation" : [ -0, -0, 0, -1 ]
    },
    {
      "name" : "B_Door01_J",
      "children" : [ 17 ],
      "translation" : [ -0.1, -0.04, -6.66134e-17 ],
      "rotation" : [ -0, 0.707107, 0, -0.707107 ]
    },
    {
      "name" : "B_Door02_J",
      "children" : [ 18 ],
      "translation" : [ 0, 0.0605826, 0.130261 ],
      "rotation" : [ -0, -0, 0, -1 ]
    },
    {
      "name" : "B_Door03_J",
      "children" : [ 19 ],
      "translation" : [ 0, -0.340583, -0.0202607 ],
      "rotation" : [ 0.076719, -0, -0, -0.997053 ]
    },
    {
      "name" : "B_Door04_J",
      "translation" : [ 0, 0, -0 ],
      "rotation" : [ -0, -0, 0, -1 ]
    },
    {
      "name" : "SpeakerRoot_J",
      "children" : [ 21, 22, 23, 24, 25, 26, 27, 28 ],
      "translation" : [ 0, 0.27, -0 ],
      "rotation" : [ -0, -0, 0, -1 ]
    },
    {
      "name" : "F_Speaker01_J",
      "translation" : [ 0.13, 0.16, -0 ],
      "rotation" : [ -0, -0.707107, 0, -0.707107 ]
    },
    {
      "name" : "F_Speaker02_J",
      "translation" : [ 0.12, 0, -0 ],
      "rotation" : [ -0, -0.707107, 0, -0.707107 ]
    },
    {
      "name" : "L_Speaker01_J",
      "translation" : [ 0, 0.16, -0.13 ],
      "rotation" : [ -0, -1, 0, -2.83277e-16 ]
    },
    {
      "name" : "L_Speaker02_J",
      "translation" : [ 0, 0, -0.12 ],
      "rotation" : [ -0, -1, 0, -2.83277e-16 ]
    },
    {
      "name" : "R_Speaker01_J",
      "translation" : [ 0, 0.16, 0.13 ],
      "rotation" : [ -0, -0, 0, -1 ]
    },
    {
      "name" : "R_Speaker02_J",
      "translation" : [ 0, 0, 0.12 ],
      "rotation" : [ -0, -0, 0, -1 ]
    },
    {
      "name" : "B_Speaker01_J",
      "translation" : [ -0.13, 0.16, -0 ],
      "rotation" : [ -0, 0.707107, 0, -0.707107 ]
    },
    {
      "name" : "B_Speaker02_J",
      "translation" : [ -0.12, 0, -0 ],
      "rotation" : [ -0, 0.707107, 0, -0.707107 ]
    },
    {
      "name" : "F_Leg01_J",
      "children" : [ 30 ],
      "translation" : [ 0.22, 0.09, 4.88498e-17 ],
      "rotation" : [ -0.092296, -0.701057, 0.092296, -0.701057 ]
    },
    {
      "name" : "F_Leg02_J",
      "children" : [ 31 ],
      "translation" : [ -7.88861e-33, -0.1, -0.06 ],
      "rotation" : [ -0, -0, 0, -1 ]
    },
    {
      "name" : "F_Leg03_J",
      "translation" : [ 7.88861e-33, 0.1, 0.06 ],
      "rotation" : [ -0, -0, 0, -1 ]
    },
    {
      "name" : "L_Leg01_J",
      "children" : [ 33 ],
      "translation" : [ 9.76996e-17, 0.09, -0.22 ],
      "rotation" : [ -3.69751e-17, -0.991445, 0.130526, -2.80853e-16 ]
    },
    {
      "name" : "L_Leg02_J",
      "children" : [ 34 ],
      "translation" : [ 1.57772e-32, -0.1, -0.06 ],
      "rotation" : [ -0, -0, 0, -1 ]
    },
    {
      "name" : "L_Leg03_J",
      "translation" : [ -1.57772e-32, 0.1, 0.06 ],
      "rotation" : [ -0, -0, 0, -1 ]
    },
    {
      "name" : "R_Leg01_J",
      "children" : [ 36 ],
      "translation" : [ 0, 0.09, 0.22 ],
      "rotation" : [ -0.130526, -0, 0, -0.991445 ]
    },
    {
      "name" : "R_Leg02_J",
      "children" : [ 37 ],
      "translation" : [ 0, -0.1, -0.06 ],
      "rotation" : [ -0, -0, 0, -1 ]
    },
    {
      "name" : "R_Leg03_J",
      "translation" : [ 0, 0.1, 0.06 ],
      "rotation" : [ -0, -0, 0, -1 ]
    },
    {
      "name" : "B_Leg01_J",
      "children" : [ 39 ],
      "translation" : [ -0.22, 0.09, -1.46549e-16 ],
      "rotation" : [ -0.092296, 0.701057, -0.092296, -0.701057 ]
    },
    {
      "name" : "B_Leg02_J",
      "children" : [ 40 ],
      "translation" : [ 0, -0.1, -0.06 ],
      "rotation" : [ -0, 1.07852e-32, 1.54074e-33, -1 ]
    },
    {
      "name" : "B_Leg03_J",
      "translation" : [ 0, 0.1, 0.06 ],
      "rotation" : [ -0, 1.07852e-32, 1.54074e-33, -1 ]
    }
  ],
  "skins" : [
    {
      "inverseBindMatrices" : 0,
      "skeleton" : 1,
      "joints" : [
        1,2,3,4,5,6,7,8,9,10,11,12,13,14,15,16,17,18,19,20,21,22,23,24,25,26,27,28,29,30,31,32,
        33,34,35,36,37,38,39,40
      ]
    }
  ],
  "materials" : [
    {
      "name" : "M_CH_WP22",
      "pbrMetallicRoughness" : {
        "baseColorFactor" : [ 0.3, 0.3, 0.3, 1.0 ],
        "metallicFactor" : 0.1,
        "roughnessFactor" : 0.5
      }
    }
  ],
  "meshes" : [
    {
      "primitives" : [
        {
          "attributes" : {
            "POSITION" : 2,
            "NORMAL" : 3,
            "TANGENT" : 4,
            "COLOR_0" : 5,
            "JOINTS_0" : 6,
            "WEIGHTS_0" : 7,
            "TEXCOORD_0" : 8,
            "TEXCOORD_1" : 9
          },
          "indices" : 1,
          "material" : 0
        }
      ],
      "name" : "SK_CH_WP22"
    }
  ],
  "buffers" : [
    {
      "uri" : "SK_CH_WP22.bin",
      "byteLength" : 2124040
    }
  ],
  "bufferViews" : [
    {
      "buffer" : 0,
      "byteOffset" : 0,
      "byteLength" : 2560
    },
    {
      "buffer" : 0,
      "byteOffset" : 2560,
      "byteLength" : 169488
    },
    {
      "buffer" : 0,
      "byteOffset" : 172048,
      "byteLength" : 325332
    },
    {
      "buffer" : 0,
      "byteOffset" : 497380,
      "byteLength" : 325332
    },
    {
      "buffer" : 0,
      "byteOffset" : 822712,
      "byteLength" : 433776
    },
    {
      "buffer" : 0,
      "byteOffset" : 1256488,
      "byteLength" : 108444
    },
    {
      "buffer" : 0,
      "byteOffset" : 1364932,
      "byteLength" : 216888
    },
    {
      "buffer" : 0,
      "byteOffset" : 1581820,
      "byteLength" : 108444
    },
    {
      "buffer" : 0,
      "byteOffset" : 1690264,
      "byteLength" : 216888
    },
    {
      "buffer" : 0,
      "byteOffset" : 1907152,
      "byteLength" : 216888
    }
  ],
  "accessors" : [
    {
      "bufferView" : 0,
      "componentType" : 5126,
      "count" : 40,
      "type" : "MAT4"
    },
    {
      "bufferView" : 1,
      "componentType" : 5123,
      "count" : 84744,
      "type" : "SCALAR"
    },
    {
      "bufferView" : 2,
      "min" : [ -0.28678, 0.00682734, -0.28678 ],
      "max" : [ 0.28678, 0.821962, 0.28678 ],
      "componentType" : 5126,
      "count" : 27111,
      "type" : "VEC3"
    },
    {
      "bufferView" : 3,
      "componentType" : 5126,
      "count" : 27111,
      "type" : "VEC3"
    },
    {
      "bufferView" : 4,
      "componentType" : 5126,
      "count" : 27111,
      "type" : "VEC4"
    },
    {
      "bufferView" : 5,
      "normalized" : true,
      "componentType" : 5121,
      "count" : 27111,
      "type" : "VEC4"
    },
    {
      "bufferView" : 6,
      "componentType" : 5123,
      "count" : 27111,
      "type" : "VEC4"
    },
    {
      "bufferView" : 7,
      "normalized" : true,
      "componentType" : 5121,
      "count" : 27111,
      "type" : "VEC4"
    },
    {
      "bufferView" : 8,
      "componentType" : 5126,
      "count" : 27111,
      "type" : "VEC2"
    },
    {
      "bufferView" : 9,
      "componentType" : 5126,
      "count" : 27111,
      "type" : "VEC2"
    }
  ]
}
