{
  "asset" : {
    "generator" : "UE Viewer (umodel) build 1579 based",
    "version" : "2.0"
  },
  "scene" : 0,
  "scenes" : [
    {
      "nodes" : [ 0 ]
    }
  ],
  "nodes" : [
    {
      "name" : "SK_CH_WP11_G_01",
      "mesh" : 0,
      "skin" : 0,
      "children" : [ 1 ]
    },
    {
      "name" : "Root_J",
      "children" : [ 2 ],
      "translation" : [ 0, 0, 0 ],
      "rotation" : [ -0, -0, -0, 1 ]
    },
    {
      "name" : "Center_J",
      "children" : [ 3 ],
      "translation" : [ 0, 0.3, -0 ],
      "rotation" : [ -0, -0, 0, -1 ]
    },
    {
      "name" : "Grip_J",
      "children" : [ 4, 8, 10 ],
      "translation" : [ 0, -0.3, -0 ],
      "rotation" : [ -0, -0, 0, -1 ]
    },
    {
      "name" : "Trigger_J",
      "children" : [ 5 ],
      "translation" : [ -0.031129, 0.151931, -0 ],
      "rotation" : [ -0, -0, 0, -1 ]
    },
    {
      "name" : "Blade_J",
      "children" : [ 6, 7 ],
      "translation" : [ 0.03, 0.219739, -0 ],
      "rotation" : [ -0, -0, 0, -1 ]
    },
    {
      "name" : "R_EdgeTop",
      "translation" : [ 0.00124522, 0.619191, -1.53223e-16 ],
      "rotation" : [ -0, -0, 0, -1 ]
    },
    {
      "name" : "R_EdgeBottom",
      "translation" : [ 0.0621488, -0.10902, -1.37926e-17 ],
      "rotation" : [ -0, -0, 0, -1 ]
    },
    {
      "name" : "Hinge_J",
      "children" : [ 9 ],
      "translation" : [ 0.011342, 0.133774, -0 ],
      "rotation" : [ -0, -0, 0, -1 ]
    },
    {
      "name" : "Ridge_J",
      "translation" : [ -0.00137459, 0.106096, -0 ],
      "rotation" : [ -0, -0, 0, -1 ]
    },
    {
      "name" : "R_HandleBottom",
      "translation" : [ 0, -0.212212, -0 ],
      "rotation" : [ -0, -0, 0, -1 ]
    }
  ],
  "skins" : [
    {
      "inverseBindMatrices" : 0,
      "skeleton" : 1,
      "joints" : [
        1,2,3,4,5,6,7,8,9,10
      ]
    }
  ],
  "materials" : [
    {
      "name" : "SK_CH_WP11_G_01_MA",
      "pbrMetallicRoughness" : {
        "baseColorFactor" : [ 0.3, 0.3, 0.3, 1.0 ],
        "metallicFactor" : 0.1,
        "roughnessFactor" : 0.5
      }
    }
  ],
  "meshes" : [
    {
      "primitives" : [
        {
          "attributes" : {
            "POSITION" : 2,
            "NORMAL" : 3,
            "TANGENT" : 4,
            "COLOR_0" : 5,
            "JOINTS_0" : 6,
            "WEIGHTS_0" : 7,
            "TEXCOORD_0" : 8,
            "TEXCOORD_1" : 9
          },
          "indices" : 1,
          "material" : 0
        }
      ],
      "name" : "SK_CH_WP11_G_01"
    }
  ],
  "buffers" : [
    {
      "uri" : "SK_CH_WP11_G_01.bin",
      "byteLength" : 244528
    }
  ],
  "bufferViews" : [
    {
      "buffer" : 0,
      "byteOffset" : 0,
      "byteLength" : 640
    },
    {
      "buffer" : 0,
      "byteOffset" : 640,
      "byteLength" : 17808
    },
    {
      "buffer" : 0,
      "byteOffset" : 18448,
      "byteLength" : 37680
    },
    {
      "buffer" : 0,
      "byteOffset" : 56128,
      "byteLength" : 37680
    },
    {
      "buffer" : 0,
      "byteOffset" : 93808,
      "byteLength" : 50240
    },
    {
      "buffer" : 0,
      "byteOffset" : 144048,
      "byteLength" : 12560
    },
    {
      "buffer" : 0,
      "byteOffset" : 156608,
      "byteLength" : 25120
    },
    {
      "buffer" : 0,
      "byteOffset" : 181728,
      "byteLength" : 12560
    },
    {
      "buffer" : 0,
      "byteOffset" : 194288,
      "byteLength" : 25120
    },
    {
      "buffer" : 0,
      "byteOffset" : 219408,
      "byteLength" : 25120
    }
  ],
  "accessors" : [
    {
      "bufferView" : 0,
      "componentType" : 5126,
      "count" : 10,
      "type" : "MAT4"
    },
    {
      "bufferView" : 1,
      "componentType" : 5123,
      "count" : 8904,
      "type" : "SCALAR"
    },
    {
      "bufferView" : 2,
      "min" : [ -0.120161, -0.218807, -0.0385454 ],
      "max" : [ 0.120161, 1.00046, 0.0385454 ],
      "componentType" : 5126,
      "count" : 3140,
      "type" : "VEC3"
    },
    {
      "bufferView" : 3,
      "componentType" : 5126,
      "count" : 3140,
      "type" : "VEC3"
    },
    {
      "bufferView" : 4,
      "componentType" : 5126,
      "count" : 3140,
      "type" : "VEC4"
    },
    {
      "bufferView" : 5,
      "normalized" : true,
      "componentType" : 5121,
      "count" : 3140,
      "type" : "VEC4"
    },
    {
      "bufferView" : 6,
      "componentType" : 5123,
      "count" : 3140,
      "type" : "VEC4"
    },
    {
      "bufferView" : 7,
      "normalized" : true,
      "componentType" : 5121,
      "count" : 3140,
      "type" : "VEC4"
    },
    {
      "bufferView" : 8,
      "componentType" : 5126,
      "count" : 3140,
      "type" : "VEC2"
    },
    {
      "bufferView" : 9,
      "componentType" : 5126,
      "count" : 3140,
      "type" : "VEC2"
    }
  ]
}
