{
  "asset" : {
    "generator" : "UE Viewer (umodel) build 1579 based",
    "version" : "2.0"
  },
  "scene" : 0,
  "scenes" : [
    {
      "nodes" : [ 0 ]
    }
  ],
  "nodes" : [
    {
      "name" : "SK_CH_WP06_AQ01_ball",
      "mesh" : 0,
      "skin" : 0,
      "children" : [ 1 ]
    },
    {
      "name" : "Root_J",
      "translation" : [ 0, 0, 0 ],
      "rotation" : [ -0, -0, -0, 1 ]
    }
  ],
  "skins" : [
    {
      "inverseBindMatrices" : 0,
      "skeleton" : 1,
      "joints" : [
        1
      ]
    }
  ],
  "materials" : [
    {
      "name" : "M_CH_WP06_AQ01_00_ball",
      "pbrMetallicRoughness" : {
        "baseColorFactor" : [ 0.3, 0.3, 0.3, 1.0 ],
        "metallicFactor" : 0.1,
        "roughnessFactor" : 0.5
      }
    }
  ],
  "meshes" : [
    {
      "primitives" : [
        {
          "attributes" : {
            "POSITION" : 2,
            "NORMAL" : 3,
            "TANGENT" : 4,
            "COLOR_0" : 5,
            "JOINTS_0" : 6,
            "WEIGHTS_0" : 7,
            "TEXCOORD_0" : 8,
            "TEXCOORD_1" : 9
          },
          "indices" : 1,
          "material" : 0
        }
      ],
      "name" : "SK_CH_WP06_AQ01_ball"
    }
  ],
  "buffers" : [
    {
      "uri" : "SK_CH_WP06_AQ01_ball.bin",
      "byteLength" : 214792
    }
  ],
  "bufferViews" : [
    {
      "buffer" : 0,
      "byteOffset" : 0,
      "byteLength" : 64
    },
    {
      "buffer" : 0,
      "byteOffset" : 64,
      "byteLength" : 16440
    },
    {
      "buffer" : 0,
      "byteOffset" : 16504,
      "byteLength" : 33048
    },
    {
      "buffer" : 0,
      "byteOffset" : 49552,
      "byteLength" : 33048
    },
    {
      "buffer" : 0,
      "byteOffset" : 82600,
      "byteLength" : 44064
    },
    {
      "buffer" : 0,
      "byteOffset" : 126664,
      "byteLength" : 11016
    },
    {
      "buffer" : 0,
      "byteOffset" : 137680,
      "byteLength" : 22032
    },
    {
      "buffer" : 0,
      "byteOffset" : 159712,
      "byteLength" : 11016
    },
    {
      "buffer" : 0,
      "byteOffset" : 170728,
      "byteLength" : 22032
    },
    {
      "buffer" : 0,
      "byteOffset" : 192760,
      "byteLength" : 22032
    }
  ],
  "accessors" : [
    {
      "bufferView" : 0,
      "componentType" : 5126,
      "count" : 1,
      "type" : "MAT4"
    },
    {
      "bufferView" : 1,
      "componentType" : 5123,
      "count" : 8220,
      "type" : "SCALAR"
    },
    {
      "bufferView" : 2,
      "min" : [ -0.319802, -0.398641, -0.224641 ],
      "max" : [ 0.233397, 0.333757, 0.224641 ],
      "componentType" : 5126,
      "count" : 2754,
      "type" : "VEC3"
    },
    {
      "bufferView" : 3,
      "componentType" : 5126,
      "count" : 2754,
      "type" : "VEC3"
    },
    {
      "bufferView" : 4,
      "componentType" : 5126,
      "count" : 2754,
      "type" : "VEC4"
    },
    {
      "bufferView" : 5,
      "normalized" : true,
      "componentType" : 5121,
      "count" : 2754,
      "type" : "VEC4"
    },
    {
      "bufferView" : 6,
      "componentType" : 5123,
      "count" : 2754,
      "type" : "VEC4"
    },
    {
      "bufferView" : 7,
      "normalized" : true,
      "componentType" : 5121,
      "count" : 2754,
      "type" : "VEC4"
    },
    {
      "bufferView" : 8,
      "componentType" : 5126,
      "count" : 2754,
      "type" : "VEC2"
    },
    {
      "bufferView" : 9,
      "componentType" : 5126,
      "count" : 2754,
      "type" : "VEC2"
    }
  ]
}
