{
  "asset" : {
    "generator" : "UE Viewer (umodel) build 1579 based",
    "version" : "2.0"
  },
  "scene" : 0,
  "scenes" : [
    {
      "nodes" : [ 0 ]
    }
  ],
  "nodes" : [
    {
      "name" : "SK_CH_WP06_AE01_ball",
      "mesh" : 0,
      "skin" : 0,
      "children" : [ 1 ]
    },
    {
      "name" : "Root_J",
      "translation" : [ 0, 0, 0 ],
      "rotation" : [ 3.06162e-17, -0, -0, 1 ]
    }
  ],
  "skins" : [
    {
      "inverseBindMatrices" : 0,
      "skeleton" : 1,
      "joints" : [
        1
      ]
    }
  ],
  "materials" : [
    {
      "name" : "M_CH_WP06_AE01_00_ball",
      "pbrMetallicRoughness" : {
        "baseColorFactor" : [ 0.3, 0.3, 0.3, 1.0 ],
        "metallicFactor" : 0.1,
        "roughnessFactor" : 0.5
      }
    }
  ],
  "meshes" : [
    {
      "primitives" : [
        {
          "attributes" : {
            "POSITION" : 2,
            "NORMAL" : 3,
            "TANGENT" : 4,
            "COLOR_0" : 5,
            "JOINTS_0" : 6,
            "WEIGHTS_0" : 7,
            "TEXCOORD_0" : 8,
            "TEXCOORD_1" : 9
          },
          "indices" : 1,
          "material" : 0
        }
      ],
      "name" : "SK_CH_WP06_AE01_ball"
    }
  ],
  "buffers" : [
    {
      "uri" : "SK_CH_WP06_AE01_ball.bin",
      "byteLength" : 369844
    }
  ],
  "bufferViews" : [
    {
      "buffer" : 0,
      "byteOffset" : 0,
      "byteLength" : 64
    },
    {
      "buffer" : 0,
      "byteOffset" : 64,
      "byteLength" : 26916
    },
    {
      "buffer" : 0,
      "byteOffset" : 26980,
      "byteLength" : 57144
    },
    {
      "buffer" : 0,
      "byteOffset" : 84124,
      "byteLength" : 57144
    },
    {
      "buffer" : 0,
      "byteOffset" : 141268,
      "byteLength" : 76192
    },
    {
      "buffer" : 0,
      "byteOffset" : 217460,
      "byteLength" : 19048
    },
    {
      "buffer" : 0,
      "byteOffset" : 236508,
      "byteLength" : 38096
    },
    {
      "buffer" : 0,
      "byteOffset" : 274604,
      "byteLength" : 19048
    },
    {
      "buffer" : 0,
      "byteOffset" : 293652,
      "byteLength" : 38096
    },
    {
      "buffer" : 0,
      "byteOffset" : 331748,
      "byteLength" : 38096
    }
  ],
  "accessors" : [
    {
      "bufferView" : 0,
      "componentType" : 5126,
      "count" : 1,
      "type" : "MAT4"
    },
    {
      "bufferView" : 1,
      "componentType" : 5123,
      "count" : 13458,
      "type" : "SCALAR"
    },
    {
      "bufferView" : 2,
      "min" : [ -0.450416, -0.246196, -0.208633 ],
      "max" : [ 0.259585, 0.348544, 0.233841 ],
      "componentType" : 5126,
      "count" : 4762,
      "type" : "VEC3"
    },
    {
      "bufferView" : 3,
      "componentType" : 5126,
      "count" : 4762,
      "type" : "VEC3"
    },
    {
      "bufferView" : 4,
      "componentType" : 5126,
      "count" : 4762,
      "type" : "VEC4"
    },
    {
      "bufferView" : 5,
      "normalized" : true,
      "componentType" : 5121,
      "count" : 4762,
      "type" : "VEC4"
    },
    {
      "bufferView" : 6,
      "componentType" : 5123,
      "count" : 4762,
      "type" : "VEC4"
    },
    {
      "bufferView" : 7,
      "normalized" : true,
      "componentType" : 5121,
      "count" : 4762,
      "type" : "VEC4"
    },
    {
      "bufferView" : 8,
      "componentType" : 5126,
      "count" : 4762,
      "type" : "VEC2"
    },
    {
      "bufferView" : 9,
      "componentType" : 5126,
      "count" : 4762,
      "type" : "VEC2"
    }
  ]
}
