{
  "asset" : {
    "generator" : "UE Viewer (umodel) build 1579 based",
    "version" : "2.0"
  },
  "scene" : 0,
  "scenes" : [
    {
      "nodes" : [ 0 ]
    }
  ],
  "nodes" : [
    {
      "name" : "SK_CH_WP00_BE01",
      "mesh" : 0,
      "skin" : 0,
      "children" : [ 1 ]
    },
    {
      "name" : "Root_J",
      "children" : [ 2 ],
      "translation" : [ 0, 0, 0 ],
      "rotation" : [ -0, -0, -0, 1 ]
    },
    {
      "name" : "Center_J",
      "translation" : [ 0, 0.305712, -0 ],
      "rotation" : [ -0, -1, 0, 9.38711e-15 ]
    }
  ],
  "skins" : [
    {
      "inverseBindMatrices" : 0,
      "skeleton" : 1,
      "joints" : [
        1,2
      ]
    }
  ],
  "materials" : [
    {
      "name" : "M_CH_WP00_BE01_00",
      "pbrMetallicRoughness" : {
        "baseColorFactor" : [ 0.3, 0.3, 0.3, 1.0 ],
        "metallicFactor" : 0.1,
        "roughnessFactor" : 0.5
      }
    }
  ],
  "meshes" : [
    {
      "primitives" : [
        {
          "attributes" : {
            "POSITION" : 2,
            "NORMAL" : 3,
            "TANGENT" : 4,
            "COLOR_0" : 5,
            "JOINTS_0" : 6,
            "WEIGHTS_0" : 7,
            "TEXCOORD_0" : 8,
            "TEXCOORD_1" : 9
          },
          "indices" : 1,
          "material" : 0
        }
      ],
      "name" : "SK_CH_WP00_BE01"
    }
  ],
  "buffers" : [
    {
      "uri" : "SK_CH_WP00_BE01.bin",
      "byteLength" : 681892
    }
  ],
  "bufferViews" : [
    {
      "buffer" : 0,
      "byteOffset" : 0,
      "byteLength" : 128
    },
    {
      "buffer" : 0,
      "byteOffset" : 128,
      "byteLength" : 53636
    },
    {
      "buffer" : 0,
      "byteOffset" : 53764,
      "byteLength" : 104688
    },
    {
      "buffer" : 0,
      "byteOffset" : 158452,
      "byteLength" : 104688
    },
    {
      "buffer" : 0,
      "byteOffset" : 263140,
      "byteLength" : 139584
    },
    {
      "buffer" : 0,
      "byteOffset" : 402724,
      "byteLength" : 34896
    },
    {
      "buffer" : 0,
      "byteOffset" : 437620,
      "byteLength" : 69792
    },
    {
      "buffer" : 0,
      "byteOffset" : 507412,
      "byteLength" : 34896
    },
    {
      "buffer" : 0,
      "byteOffset" : 542308,
      "byteLength" : 69792
    },
    {
      "buffer" : 0,
      "byteOffset" : 612100,
      "byteLength" : 69792
    }
  ],
  "accessors" : [
    {
      "bufferView" : 0,
      "componentType" : 5126,
      "count" : 2,
      "type" : "MAT4"
    },
    {
      "bufferView" : 1,
      "componentType" : 5123,
      "count" : 26817,
      "type" : "SCALAR"
    },
    {
      "bufferView" : 2,
      "min" : [ -0.297775, -0.23805, -0.0857227 ],
      "max" : [ 0.447117, 0.811811, 0.0857227 ],
      "componentType" : 5126,
      "count" : 8724,
      "type" : "VEC3"
    },
    {
      "bufferView" : 3,
      "componentType" : 5126,
      "count" : 8724,
      "type" : "VEC3"
    },
    {
      "bufferView" : 4,
      "componentType" : 5126,
      "count" : 8724,
      "type" : "VEC4"
    },
    {
      "bufferView" : 5,
      "normalized" : true,
      "componentType" : 5121,
      "count" : 8724,
      "type" : "VEC4"
    },
    {
      "bufferView" : 6,
      "componentType" : 5123,
      "count" : 8724,
      "type" : "VEC4"
    },
    {
      "bufferView" : 7,
      "normalized" : true,
      "componentType" : 5121,
      "count" : 8724,
      "type" : "VEC4"
    },
    {
      "bufferView" : 8,
      "componentType" : 5126,
      "count" : 8724,
      "type" : "VEC2"
    },
    {
      "bufferView" : 9,
      "componentType" : 5126,
      "count" : 8724,
      "type" : "VEC2"
    }
  ]
}
