{
  "asset" : {
    "generator" : "UE Viewer (umodel) build 1579 based",
    "version" : "2.0"
  },
  "scene" : 0,
  "scenes" : [
    {
      "nodes" : [ 0 ]
    }
  ],
  "nodes" : [
    {
      "name" : "SK_CH_WP00_AZ00",
      "mesh" : 0,
      "skin" : 0,
      "children" : [ 1 ]
    },
    {
      "name" : "Root_J",
      "children" : [ 2 ],
      "translation" : [ 0, 0, 0 ],
      "rotation" : [ -0, -0, -0, 1 ]
    },
    {
      "name" : "Center_J",
      "children" : [ 3, 4, 5 ],
      "translation" : [ 0, 0.165858, -0 ],
      "rotation" : [ -0, -1, 0, 9.38711e-15 ]
    },
    {
      "name" : "R_EdgeTop",
      "translation" : [ 0.203717, 0.822461, -4.51185e-08 ],
      "rotation" : [ -0, -0, 0, -1 ]
    },
    {
      "name" : "R_EdgeBottom",
      "translation" : [ -0.0515813, 0.122, -4.51185e-08 ],
      "rotation" : [ -0, -0, 0, -1 ]
    },
    {
      "name" : "R_HandleBottom",
      "translation" : [ -0, -0.781209, -0 ],
      "rotation" : [ -0, -0, 0, -1 ]
    }
  ],
  "skins" : [
    {
      "inverseBindMatrices" : 0,
      "skeleton" : 1,
      "joints" : [
        1,2,3,4,5
      ]
    }
  ],
  "materials" : [
    {
      "name" : "M_CH_WP00_AZ00_00",
      "pbrMetallicRoughness" : {
        "baseColorFactor" : [ 0.3, 0.3, 0.3, 1.0 ],
        "metallicFactor" : 0.1,
        "roughnessFactor" : 0.5
      }
    },
    {
      "name" : "M_CH_WP00_AZ00_00_Sphere",
      "pbrMetallicRoughness" : {
        "baseColorFactor" : [ 0.9, 0.3, 0.3, 1.0 ],
        "metallicFactor" : 0.1,
        "roughnessFactor" : 0.5
      }
    }
  ],
  "meshes" : [
    {
      "primitives" : [
        {
          "attributes" : {
            "POSITION" : 2,
            "NORMAL" : 3,
            "TANGENT" : 4,
            "COLOR_0" : 5,
            "JOINTS_0" : 6,
            "WEIGHTS_0" : 7,
            "TEXCOORD_0" : 8,
            "TEXCOORD_1" : 9
          },
          "indices" : 1,
          "material" : 0
        },
        {
          "attributes" : {
            "POSITION" : 11,
            "NORMAL" : 12,
            "TANGENT" : 13,
            "COLOR_0" : 14,
            "JOINTS_0" : 15,
            "WEIGHTS_0" : 16,
            "TEXCOORD_0" : 17,
            "TEXCOORD_1" : 18
          },
          "indices" : 10,
          "material" : 1
        }
      ],
      "name" : "SK_CH_WP00_AZ00"
    }
  ],
  "buffers" : [
    {
      "uri" : "SK_CH_WP00_AZ00.bin",
      "byteLength" : 771896
    }
  ],
  "bufferViews" : [
    {
      "buffer" : 0,
      "byteOffset" : 0,
      "byteLength" : 320
    },
    {
      "buffer" : 0,
      "byteOffset" : 320,
      "byteLength" : 51696
    },
    {
      "buffer" : 0,
      "byteOffset" : 52016,
      "byteLength" : 115728
    },
    {
      "buffer" : 0,
      "byteOffset" : 167744,
      "byteLength" : 115728
    },
    {
      "buffer" : 0,
      "byteOffset" : 283472,
      "byteLength" : 154304
    },
    {
      "buffer" : 0,
      "byteOffset" : 437776,
      "byteLength" : 38576
    },
    {
      "buffer" : 0,
      "byteOffset" : 476352,
      "byteLength" : 77152
    },
    {
      "buffer" : 0,
      "byteOffset" : 553504,
      "byteLength" : 38576
    },
    {
      "buffer" : 0,
      "byteOffset" : 592080,
      "byteLength" : 77152
    },
    {
      "buffer" : 0,
      "byteOffset" : 669232,
      "byteLength" : 77152
    },
    {
      "buffer" : 0,
      "byteOffset" : 746384,
      "byteLength" : 3120
    },
    {
      "buffer" : 0,
      "byteOffset" : 749504,
      "byteLength" : 3732
    },
    {
      "buffer" : 0,
      "byteOffset" : 753236,
      "byteLength" : 3732
    },
    {
      "buffer" : 0,
      "byteOffset" : 756968,
      "byteLength" : 4976
    },
    {
      "buffer" : 0,
      "byteOffset" : 761944,
      "byteLength" : 1244
    },
    {
      "buffer" : 0,
      "byteOffset" : 763188,
      "byteLength" : 2488
    },
    {
      "buffer" : 0,
      "byteOffset" : 765676,
      "byteLength" : 1244
    },
    {
      "buffer" : 0,
      "byteOffset" : 766920,
      "byteLength" : 2488
    },
    {
      "buffer" : 0,
      "byteOffset" : 769408,
      "byteLength" : 2488
    }
  ],
  "accessors" : [
    {
      "bufferView" : 0,
      "componentType" : 5126,
      "count" : 5,
      "type" : "MAT4"
    },
    {
      "bufferView" : 1,
      "componentType" : 5123,
      "count" : 25848,
      "type" : "SCALAR"
    },
    {
      "bufferView" : 2,
      "min" : [ -0.264203, -0.31261, -0.105121 ],
      "max" : [ 0.300083, 0.988319, 0.105121 ],
      "componentType" : 5126,
      "count" : 9644,
      "type" : "VEC3"
    },
    {
      "bufferView" : 3,
      "componentType" : 5126,
      "count" : 9644,
      "type" : "VEC3"
    },
    {
      "bufferView" : 4,
      "componentType" : 5126,
      "count" : 9644,
      "type" : "VEC4"
    },
    {
      "bufferView" : 5,
      "normalized" : true,
      "componentType" : 5121,
      "count" : 9644,
      "type" : "VEC4"
    },
    {
      "bufferView" : 6,
      "componentType" : 5123,
      "count" : 9644,
      "type" : "VEC4"
    },
    {
      "bufferView" : 7,
      "normalized" : true,
      "componentType" : 5121,
      "count" : 9644,
      "type" : "VEC4"
    },
    {
      "bufferView" : 8,
      "componentType" : 5126,
      "count" : 9644,
      "type" : "VEC2"
    },
    {
      "bufferView" : 9,
      "componentType" : 5126,
      "count" : 9644,
      "type" : "VEC2"
    },
    {
      "bufferView" : 10,
      "componentType" : 5123,
      "count" : 1560,
      "type" : "SCALAR"
    },
    {
      "bufferView" : 11,
      "min" : [ -0.0360653, 0.614487, -0.0431288 ],
      "max" : [ 0.0499724, 0.700749, 0.0431288 ],
      "componentType" : 5126,
      "count" : 311,
      "type" : "VEC3"
    },
    {
      "bufferView" : 12,
      "componentType" : 5126,
      "count" : 311,
      "type" : "VEC3"
    },
    {
      "bufferView" : 13,
      "componentType" : 5126,
      "count" : 311,
      "type" : "VEC4"
    },
    {
      "bufferView" : 14,
      "normalized" : true,
      "componentType" : 5121,
      "count" : 311,
      "type" : "VEC4"
    },
    {
      "bufferView" : 15,
      "componentType" : 5123,
      "count" : 311,
      "type" : "VEC4"
    },
    {
      "bufferView" : 16,
      "normalized" : true,
      "componentType" : 5121,
      "count" : 311,
      "type" : "VEC4"
    },
    {
      "bufferView" : 17,
      "componentType" : 5126,
      "count" : 311,
      "type" : "VEC2"
    },
    {
      "bufferView" : 18,
      "componentType" : 5126,
      "count" : 311,
      "type" : "VEC2"
    }
  ]
}
