{
  "asset" : {
    "generator" : "UE Viewer (umodel) build 1579 based",
    "version" : "2.0"
  },
  "scene" : 0,
  "scenes" : [
    {
      "nodes" : [ 0 ]
    }
  ],
  "nodes" : [
    {
      "name" : "SK_CH_WP13_AS00",
      "mesh" : 0,
      "skin" : 0,
      "children" : [ 1 ]
    },
    {
      "name" : "Root_J",
      "children" : [ 2 ],
      "translation" : [ 2.03766e-18, 0, 0 ],
      "rotation" : [ -0, -0, -0, 1 ]
    },
    {
      "name" : "Center_J",
      "children" : [ 3 ],
      "translation" : [ 0, 0, -0.05 ],
      "rotation" : [ -0, -0, 0, -1 ]
    },
    {
      "name" : "Quiver_J",
      "translation" : [ -2.03766e-18, 0.1, -0 ],
      "rotation" : [ -0, -0, 0, -1 ]
    }
  ],
  "skins" : [
    {
      "inverseBindMatrices" : 0,
      "skeleton" : 1,
      "joints" : [
        1,2,3
      ]
    }
  ],
  "materials" : [
    {
      "name" : "M_CH_WP13_AS00_00",
      "pbrMetallicRoughness" : {
        "baseColorFactor" : [ 0.3, 0.3, 0.3, 1.0 ],
        "metallicFactor" : 0.1,
        "roughnessFactor" : 0.5
      }
    }
  ],
  "meshes" : [
    {
      "primitives" : [
        {
          "attributes" : {
            "POSITION" : 2,
            "NORMAL" : 3,
            "TANGENT" : 4,
            "COLOR_0" : 5,
            "JOINTS_0" : 6,
            "WEIGHTS_0" : 7,
            "TEXCOORD_0" : 8,
            "TEXCOORD_1" : 9
          },
          "indices" : 1,
          "material" : 0
        }
      ],
      "name" : "SK_CH_WP13_AS00"
    }
  ],
  "buffers" : [
    {
      "uri" : "SK_CH_WP13_AS00.bin",
      "byteLength" : 338336
    }
  ],
  "bufferViews" : [
    {
      "buffer" : 0,
      "byteOffset" : 0,
      "byteLength" : 192
    },
    {
      "buffer" : 0,
      "byteOffset" : 192,
      "byteLength" : 21344
    },
    {
      "buffer" : 0,
      "byteOffset" : 21536,
      "byteLength" : 52800
    },
    {
      "buffer" : 0,
      "byteOffset" : 74336,
      "byteLength" : 52800
    },
    {
      "buffer" : 0,
      "byteOffset" : 127136,
      "byteLength" : 70400
    },
    {
      "buffer" : 0,
      "byteOffset" : 197536,
      "byteLength" : 17600
    },
    {
      "buffer" : 0,
      "byteOffset" : 215136,
      "byteLength" : 35200
    },
    {
      "buffer" : 0,
      "byteOffset" : 250336,
      "byteLength" : 17600
    },
    {
      "buffer" : 0,
      "byteOffset" : 267936,
      "byteLength" : 35200
    },
    {
      "buffer" : 0,
      "byteOffset" : 303136,
      "byteLength" : 35200
    }
  ],
  "accessors" : [
    {
      "bufferView" : 0,
      "componentType" : 5126,
      "count" : 3,
      "type" : "MAT4"
    },
    {
      "bufferView" : 1,
      "componentType" : 5123,
      "count" : 10671,
      "type" : "SCALAR"
    },
    {
      "bufferView" : 2,
      "min" : [ -0.119913, -0.372078, -0.0355909 ],
      "max" : [ 0.119913, 0.150008, 0.0191642 ],
      "componentType" : 5126,
      "count" : 4400,
      "type" : "VEC3"
    },
    {
      "bufferView" : 3,
      "componentType" : 5126,
      "count" : 4400,
      "type" : "VEC3"
    },
    {
      "bufferView" : 4,
      "componentType" : 5126,
      "count" : 4400,
      "type" : "VEC4"
    },
    {
      "bufferView" : 5,
      "normalized" : true,
      "componentType" : 5121,
      "count" : 4400,
      "type" : "VEC4"
    },
    {
      "bufferView" : 6,
      "componentType" : 5123,
      "count" : 4400,
      "type" : "VEC4"
    },
    {
      "bufferView" : 7,
      "normalized" : true,
      "componentType" : 5121,
      "count" : 4400,
      "type" : "VEC4"
    },
    {
      "bufferView" : 8,
      "componentType" : 5126,
      "count" : 4400,
      "type" : "VEC2"
    },
    {
      "bufferView" : 9,
      "componentType" : 5126,
      "count" : 4400,
      "type" : "VEC2"
    }
  ]
}
