{
  "asset" : {
    "generator" : "UE Viewer (umodel) build 1579 based",
    "version" : "2.0"
  },
  "scene" : 0,
  "scenes" : [
    {
      "nodes" : [ 0 ]
    }
  ],
  "nodes" : [
    {
      "name" : "SK_CH_WP07_AF00",
      "mesh" : 0,
      "skin" : 0,
      "children" : [ 1 ]
    },
    {
      "name" : "Root_J",
      "children" : [ 2 ],
      "translation" : [ 0, 0, 0 ],
      "rotation" : [ -0, -0, -0, 1 ]
    },
    {
      "name" : "Center_J",
      "children" : [ 3, 4, 5, 6, 8 ],
      "translation" : [ 0, -0.0205827, -0 ],
      "rotation" : [ -0, -0, 0, -1 ]
    },
    {
      "name" : "R_EdgeTop",
      "translation" : [ -5.77521e-06, 0.530143, -0 ],
      "rotation" : [ -0, -0, 0.707082, -0.707132 ]
    },
    {
      "name" : "R_EdgeBottom",
      "translation" : [ 0, 0.333197, -0 ],
      "rotation" : [ -0, -0, 0, -1 ]
    },
    {
      "name" : "R_HandleBottom",
      "translation" : [ 0, -0.556406, -0 ],
      "rotation" : [ -0, -0, 0, -1 ]
    },
    {
      "name" : "UpperCover_J",
      "children" : [ 7 ],
      "translation" : [ -0.0116336, 0.201495, -0 ],
      "rotation" : [ -0, -0, 0, -1 ]
    },
    {
      "name" : "R_Discharge",
      "translation" : [ -2.22045e-18, 0.114108, -0 ],
      "rotation" : [ 8.65956e-17, 8.65956e-17, -0.707132, -0.707082 ]
    },
    {
      "name" : "LowerSlide_J",
      "translation" : [ 0, -0.262817, -0 ],
      "rotation" : [ -0, -0, 0, -1 ]
    }
  ],
  "skins" : [
    {
      "inverseBindMatrices" : 0,
      "skeleton" : 1,
      "joints" : [
        1,2,3,4,5,6,7,8
      ]
    }
  ],
  "materials" : [
    {
      "name" : "M_CH_WP07_AF_00_00",
      "pbrMetallicRoughness" : {
        "baseColorFactor" : [ 0.3, 0.3, 0.3, 1.0 ],
        "metallicFactor" : 0.1,
        "roughnessFactor" : 0.5
      }
    }
  ],
  "meshes" : [
    {
      "primitives" : [
        {
          "attributes" : {
            "POSITION" : 2,
            "NORMAL" : 3,
            "TANGENT" : 4,
            "COLOR_0" : 5,
            "JOINTS_0" : 6,
            "WEIGHTS_0" : 7,
            "TEXCOORD_0" : 8,
            "TEXCOORD_1" : 9,
            "TEXCOORD_2" : 10
          },
          "indices" : 1,
          "material" : 0
        }
      ],
      "name" : "SK_CH_WP07_AF00"
    }
  ],
  "buffers" : [
    {
      "uri" : "SK_CH_WP07_AF00.bin",
      "byteLength" : 705680
    }
  ],
  "bufferViews" : [
    {
      "buffer" : 0,
      "byteOffset" : 0,
      "byteLength" : 512
    },
    {
      "buffer" : 0,
      "byteOffset" : 512,
      "byteLength" : 44208
    },
    {
      "buffer" : 0,
      "byteOffset" : 44720,
      "byteLength" : 99144
    },
    {
      "buffer" : 0,
      "byteOffset" : 143864,
      "byteLength" : 99144
    },
    {
      "buffer" : 0,
      "byteOffset" : 243008,
      "byteLength" : 132192
    },
    {
      "buffer" : 0,
      "byteOffset" : 375200,
      "byteLength" : 33048
    },
    {
      "buffer" : 0,
      "byteOffset" : 408248,
      "byteLength" : 66096
    },
    {
      "buffer" : 0,
      "byteOffset" : 474344,
      "byteLength" : 33048
    },
    {
      "buffer" : 0,
      "byteOffset" : 507392,
      "byteLength" : 66096
    },
    {
      "buffer" : 0,
      "byteOffset" : 573488,
      "byteLength" : 66096
    },
    {
      "buffer" : 0,
      "byteOffset" : 639584,
      "byteLength" : 66096
    }
  ],
  "accessors" : [
    {
      "bufferView" : 0,
      "componentType" : 5126,
      "count" : 8,
      "type" : "MAT4"
    },
    {
      "bufferView" : 1,
      "componentType" : 5123,
      "count" : 22104,
      "type" : "SCALAR"
    },
    {
      "bufferView" : 2,
      "min" : [ -0.178236, -0.580925, -0.0606464 ],
      "max" : [ 0.103697, 0.624219, 0.0606464 ],
      "componentType" : 5126,
      "count" : 8262,
      "type" : "VEC3"
    },
    {
      "bufferView" : 3,
      "componentType" : 5126,
      "count" : 8262,
      "type" : "VEC3"
    },
    {
      "bufferView" : 4,
      "componentType" : 5126,
      "count" : 8262,
      "type" : "VEC4"
    },
    {
      "bufferView" : 5,
      "normalized" : true,
      "componentType" : 5121,
      "count" : 8262,
      "type" : "VEC4"
    },
    {
      "bufferView" : 6,
      "componentType" : 5123,
      "count" : 8262,
      "type" : "VEC4"
    },
    {
      "bufferView" : 7,
      "normalized" : true,
      "componentType" : 5121,
      "count" : 8262,
      "type" : "VEC4"
    },
    {
      "bufferView" : 8,
      "componentType" : 5126,
      "count" : 8262,
      "type" : "VEC2"
    },
    {
      "bufferView" : 9,
      "componentType" : 5126,
      "count" : 8262,
      "type" : "VEC2"
    },
    {
      "bufferView" : 10,
      "componentType" : 5126,
      "count" : 8262,
      "type" : "VEC2"
    }
  ]
}
