{
  "asset" : {
    "generator" : "UE Viewer (umodel) build 1579 based",
    "version" : "2.0"
  },
  "scene" : 0,
  "scenes" : [
    {
      "nodes" : [ 0 ]
    }
  ],
  "nodes" : [
    {
      "name" : "SK_CH_WP13_AG00",
      "mesh" : 0,
      "skin" : 0,
      "children" : [ 1 ]
    },
    {
      "name" : "Root_J",
      "children" : [ 2 ],
      "translation" : [ 2.03766e-18, 0, 0 ],
      "rotation" : [ -0, -0, -0, 1 ]
    },
    {
      "name" : "Center_J",
      "children" : [ 3 ],
      "translation" : [ 0, 0, -0.05 ],
      "rotation" : [ -0, -0, 0, -1 ]
    },
    {
      "name" : "Quiver_J",
      "translation" : [ -2.03766e-18, 0.1, -0 ],
      "rotation" : [ -0, -0, 0, -1 ]
    }
  ],
  "skins" : [
    {
      "inverseBindMatrices" : 0,
      "skeleton" : 1,
      "joints" : [
        1,2,3
      ]
    }
  ],
  "materials" : [
    {
      "name" : "M_CH_WP13_AG00_00",
      "pbrMetallicRoughness" : {
        "baseColorFactor" : [ 0.3, 0.3, 0.3, 1.0 ],
        "metallicFactor" : 0.1,
        "roughnessFactor" : 0.5
      }
    }
  ],
  "meshes" : [
    {
      "primitives" : [
        {
          "attributes" : {
            "POSITION" : 2,
            "NORMAL" : 3,
            "TANGENT" : 4,
            "COLOR_0" : 5,
            "JOINTS_0" : 6,
            "WEIGHTS_0" : 7,
            "TEXCOORD_0" : 8,
            "TEXCOORD_1" : 9
          },
          "indices" : 1,
          "material" : 0
        }
      ],
      "name" : "SK_CH_WP13_AG00"
    }
  ],
  "buffers" : [
    {
      "uri" : "SK_CH_WP13_AG00.bin",
      "byteLength" : 636708
    }
  ],
  "bufferViews" : [
    {
      "buffer" : 0,
      "byteOffset" : 0,
      "byteLength" : 192
    },
    {
      "buffer" : 0,
      "byteOffset" : 192,
      "byteLength" : 39492
    },
    {
      "buffer" : 0,
      "byteOffset" : 39684,
      "byteLength" : 99504
    },
    {
      "buffer" : 0,
      "byteOffset" : 139188,
      "byteLength" : 99504
    },
    {
      "buffer" : 0,
      "byteOffset" : 238692,
      "byteLength" : 132672
    },
    {
      "buffer" : 0,
      "byteOffset" : 371364,
      "byteLength" : 33168
    },
    {
      "buffer" : 0,
      "byteOffset" : 404532,
      "byteLength" : 66336
    },
    {
      "buffer" : 0,
      "byteOffset" : 470868,
      "byteLength" : 33168
    },
    {
      "buffer" : 0,
      "byteOffset" : 504036,
      "byteLength" : 66336
    },
    {
      "buffer" : 0,
      "byteOffset" : 570372,
      "byteLength" : 66336
    }
  ],
  "accessors" : [
    {
      "bufferView" : 0,
      "componentType" : 5126,
      "count" : 3,
      "type" : "MAT4"
    },
    {
      "bufferView" : 1,
      "componentType" : 5123,
      "count" : 19746,
      "type" : "SCALAR"
    },
    {
      "bufferView" : 2,
      "min" : [ -0.08277, -0.257448, -0.083104 ],
      "max" : [ 0.08277, 0.104108, -0.01313 ],
      "componentType" : 5126,
      "count" : 8292,
      "type" : "VEC3"
    },
    {
      "bufferView" : 3,
      "componentType" : 5126,
      "count" : 8292,
      "type" : "VEC3"
    },
    {
      "bufferView" : 4,
      "componentType" : 5126,
      "count" : 8292,
      "type" : "VEC4"
    },
    {
      "bufferView" : 5,
      "normalized" : true,
      "componentType" : 5121,
      "count" : 8292,
      "type" : "VEC4"
    },
    {
      "bufferView" : 6,
      "componentType" : 5123,
      "count" : 8292,
      "type" : "VEC4"
    },
    {
      "bufferView" : 7,
      "normalized" : true,
      "componentType" : 5121,
      "count" : 8292,
      "type" : "VEC4"
    },
    {
      "bufferView" : 8,
      "componentType" : 5126,
      "count" : 8292,
      "type" : "VEC2"
    },
    {
      "bufferView" : 9,
      "componentType" : 5126,
      "count" : 8292,
      "type" : "VEC2"
    }
  ]
}
