{
  "asset" : {
    "generator" : "UE Viewer (umodel) build 1579 based",
    "version" : "2.0"
  },
  "scene" : 0,
  "scenes" : [
    {
      "nodes" : [ 0 ]
    }
  ],
  "nodes" : [
    {
      "name" : "SK_CH_WP17_A_00",
      "mesh" : 0,
      "skin" : 0,
      "children" : [ 1 ]
    },
    {
      "name" : "Root_J",
      "children" : [ 2 ],
      "translation" : [ 0, 0, 0 ],
      "rotation" : [ -0, -0, -0, 1 ]
    },
    {
      "name" : "Center_J",
      "translation" : [ 0, 0, -0 ],
      "rotation" : [ -0, -0, 0, -1 ]
    }
  ],
  "skins" : [
    {
      "inverseBindMatrices" : 0,
      "skeleton" : 1,
      "joints" : [
        1,2
      ]
    }
  ],
  "materials" : [
    {
      "name" : "SK_CH_WP17_A_01_MA",
      "pbrMetallicRoughness" : {
        "baseColorFactor" : [ 0.3, 0.3, 0.3, 1.0 ],
        "metallicFactor" : 0.1,
        "roughnessFactor" : 0.5
      }
    }
  ],
  "meshes" : [
    {
      "primitives" : [
        {
          "attributes" : {
            "POSITION" : 2,
            "NORMAL" : 3,
            "TANGENT" : 4,
            "COLOR_0" : 5,
            "JOINTS_0" : 6,
            "WEIGHTS_0" : 7,
            "TEXCOORD_0" : 8,
            "TEXCOORD_1" : 9,
            "TEXCOORD_2" : 10
          },
          "indices" : 1,
          "material" : 0
        }
      ],
      "name" : "SK_CH_WP17_A_00"
    }
  ],
  "buffers" : [
    {
      "uri" : "SK_CH_WP17_A_00.bin",
      "byteLength" : 126960
    }
  ],
  "bufferViews" : [
    {
      "buffer" : 0,
      "byteOffset" : 0,
      "byteLength" : 128
    },
    {
      "buffer" : 0,
      "byteOffset" : 128,
      "byteLength" : 10032
    },
    {
      "buffer" : 0,
      "byteOffset" : 10160,
      "byteLength" : 17520
    },
    {
      "buffer" : 0,
      "byteOffset" : 27680,
      "byteLength" : 17520
    },
    {
      "buffer" : 0,
      "byteOffset" : 45200,
      "byteLength" : 23360
    },
    {
      "buffer" : 0,
      "byteOffset" : 68560,
      "byteLength" : 5840
    },
    {
      "buffer" : 0,
      "byteOffset" : 74400,
      "byteLength" : 11680
    },
    {
      "buffer" : 0,
      "byteOffset" : 86080,
      "byteLength" : 5840
    },
    {
      "buffer" : 0,
      "byteOffset" : 91920,
      "byteLength" : 11680
    },
    {
      "buffer" : 0,
      "byteOffset" : 103600,
      "byteLength" : 11680
    },
    {
      "buffer" : 0,
      "byteOffset" : 115280,
      "byteLength" : 11680
    }
  ],
  "accessors" : [
    {
      "bufferView" : 0,
      "componentType" : 5126,
      "count" : 2,
      "type" : "MAT4"
    },
    {
      "bufferView" : 1,
      "componentType" : 5123,
      "count" : 5016,
      "type" : "SCALAR"
    },
    {
      "bufferView" : 2,
      "min" : [ -0.0822758, -0.681617, -0.029251 ],
      "max" : [ 0.0894772, 0.363415, 0.029251 ],
      "componentType" : 5126,
      "count" : 1460,
      "type" : "VEC3"
    },
    {
      "bufferView" : 3,
      "componentType" : 5126,
      "count" : 1460,
      "type" : "VEC3"
    },
    {
      "bufferView" : 4,
      "componentType" : 5126,
      "count" : 1460,
      "type" : "VEC4"
    },
    {
      "bufferView" : 5,
      "normalized" : true,
      "componentType" : 5121,
      "count" : 1460,
      "type" : "VEC4"
    },
    {
      "bufferView" : 6,
      "componentType" : 5123,
      "count" : 1460,
      "type" : "VEC4"
    },
    {
      "bufferView" : 7,
      "normalized" : true,
      "componentType" : 5121,
      "count" : 1460,
      "type" : "VEC4"
    },
    {
      "bufferView" : 8,
      "componentType" : 5126,
      "count" : 1460,
      "type" : "VEC2"
    },
    {
      "bufferView" : 9,
      "componentType" : 5126,
      "count" : 1460,
      "type" : "VEC2"
    },
    {
      "bufferView" : 10,
      "componentType" : 5126,
      "count" : 1460,
      "type" : "VEC2"
    }
  ]
}
