{
  "asset" : {
    "generator" : "UE Viewer (umodel) build 1579 based",
    "version" : "2.0"
  },
  "scene" : 0,
  "scenes" : [
    {
      "nodes" : [ 0 ]
    }
  ],
  "nodes" : [
    {
      "name" : "SK_CH_WP01_AF01",
      "mesh" : 0,
      "skin" : 0,
      "children" : [ 1 ]
    },
    {
      "name" : "Root_J",
      "children" : [ 2 ],
      "translation" : [ 0, 0, 0 ],
      "rotation" : [ -0, -0, -0, 1 ]
    },
    {
      "name" : "Center_J",
      "children" : [ 3, 4, 5 ],
      "translation" : [ 0, 0.65577, -0 ],
      "rotation" : [ -0, -0, 0, -1 ]
    },
    {
      "name" : "R_EdgeTop",
      "translation" : [ -0.114685, 0.919387, 6.14738e-17 ],
      "rotation" : [ -3.06162e-17, -0, 0, -1 ]
    },
    {
      "name" : "R_EdgeBottom",
      "translation" : [ 0.188818, -0.339949, -1.12635e-17 ],
      "rotation" : [ -3.06162e-17, -0, 0, -1 ]
    },
    {
      "name" : "R_HandleBottom",
      "translation" : [ 0, -0.984931, -2.01553e-17 ],
      "rotation" : [ -3.06162e-17, -0, 0, -1 ]
    }
  ],
  "skins" : [
    {
      "inverseBindMatrices" : 0,
      "skeleton" : 1,
      "joints" : [
        1,2,3,4,5
      ]
    }
  ],
  "materials" : [
    {
      "name" : "M_CH_WP01_AF01_00",
      "pbrMetallicRoughness" : {
        "baseColorFactor" : [ 0.3, 0.3, 0.3, 1.0 ],
        "metallicFactor" : 0.1,
        "roughnessFactor" : 0.5
      }
    }
  ],
  "meshes" : [
    {
      "primitives" : [
        {
          "attributes" : {
            "POSITION" : 2,
            "NORMAL" : 3,
            "TANGENT" : 4,
            "COLOR_0" : 5,
            "JOINTS_0" : 6,
            "WEIGHTS_0" : 7,
            "TEXCOORD_0" : 8,
            "TEXCOORD_1" : 9
          },
          "indices" : 1,
          "material" : 0
        }
      ],
      "name" : "SK_CH_WP01_AF01"
    }
  ],
  "buffers" : [
    {
      "uri" : "SK_CH_WP01_AF01.bin",
      "byteLength" : 622772
    }
  ],
  "bufferViews" : [
    {
      "buffer" : 0,
      "byteOffset" : 0,
      "byteLength" : 320
    },
    {
      "buffer" : 0,
      "byteOffset" : 320,
      "byteLength" : 42996
    },
    {
      "buffer" : 0,
      "byteOffset" : 43316,
      "byteLength" : 96576
    },
    {
      "buffer" : 0,
      "byteOffset" : 139892,
      "byteLength" : 96576
    },
    {
      "buffer" : 0,
      "byteOffset" : 236468,
      "byteLength" : 128768
    },
    {
      "buffer" : 0,
      "byteOffset" : 365236,
      "byteLength" : 32192
    },
    {
      "buffer" : 0,
      "byteOffset" : 397428,
      "byteLength" : 64384
    },
    {
      "buffer" : 0,
      "byteOffset" : 461812,
      "byteLength" : 32192
    },
    {
      "buffer" : 0,
      "byteOffset" : 494004,
      "byteLength" : 64384
    },
    {
      "buffer" : 0,
      "byteOffset" : 558388,
      "byteLength" : 64384
    }
  ],
  "accessors" : [
    {
      "bufferView" : 0,
      "componentType" : 5126,
      "count" : 5,
      "type" : "MAT4"
    },
    {
      "bufferView" : 1,
      "componentType" : 5123,
      "count" : 21498,
      "type" : "SCALAR"
    },
    {
      "bufferView" : 2,
      "min" : [ -0.216138, -0.339078, -0.120909 ],
      "max" : [ 0.188818, 1.57516, 0.120909 ],
      "componentType" : 5126,
      "count" : 8048,
      "type" : "VEC3"
    },
    {
      "bufferView" : 3,
      "componentType" : 5126,
      "count" : 8048,
      "type" : "VEC3"
    },
    {
      "bufferView" : 4,
      "componentType" : 5126,
      "count" : 8048,
      "type" : "VEC4"
    },
    {
      "bufferView" : 5,
      "normalized" : true,
      "componentType" : 5121,
      "count" : 8048,
      "type" : "VEC4"
    },
    {
      "bufferView" : 6,
      "componentType" : 5123,
      "count" : 8048,
      "type" : "VEC4"
    },
    {
      "bufferView" : 7,
      "normalized" : true,
      "componentType" : 5121,
      "count" : 8048,
      "type" : "VEC4"
    },
    {
      "bufferView" : 8,
      "componentType" : 5126,
      "count" : 8048,
      "type" : "VEC2"
    },
    {
      "bufferView" : 9,
      "componentType" : 5126,
      "count" : 8048,
      "type" : "VEC2"
    }
  ]
}
