{
  "asset" : {
    "generator" : "UE Viewer (umodel) build 1579 based",
    "version" : "2.0"
  },
  "scene" : 0,
  "scenes" : [
    {
      "nodes" : [ 0 ]
    }
  ],
  "nodes" : [
    {
      "name" : "SK_CH_WP09_sav_01",
      "mesh" : 0,
      "skin" : 0,
      "children" : [ 1 ]
    },
    {
      "name" : "Root_J",
      "children" : [ 2 ],
      "translation" : [ 0, 0, 0 ],
      "rotation" : [ -0, -0, -0, 1 ]
    },
    {
      "name" : "Center_J",
      "translation" : [ 0, 0, -0.09 ],
      "rotation" : [ -0, -0, 0, -1 ]
    }
  ],
  "skins" : [
    {
      "inverseBindMatrices" : 0,
      "skeleton" : 1,
      "joints" : [
        1,2
      ]
    }
  ],
  "materials" : [
    {
      "name" : "MI1_Shadow_Sield",
      "pbrMetallicRoughness" : {
        "baseColorFactor" : [ 0.3, 0.3, 0.3, 1.0 ],
        "metallicFactor" : 0.1,
        "roughnessFactor" : 0.5
      }
    },
    {
      "name" : "MI1_ShadowDistortion_Shield",
      "pbrMetallicRoughness" : {
        "baseColorFactor" : [ 0.9, 0.3, 0.3, 1.0 ],
        "metallicFactor" : 0.1,
        "roughnessFactor" : 0.5
      }
    }
  ],
  "meshes" : [
    {
      "primitives" : [
        {
          "attributes" : {
            "POSITION" : 2,
            "NORMAL" : 3,
            "TANGENT" : 4,
            "JOINTS_0" : 5,
            "WEIGHTS_0" : 6,
            "TEXCOORD_0" : 7,
            "TEXCOORD_1" : 8,
            "TEXCOORD_2" : 9,
            "TEXCOORD_3" : 10
          },
          "indices" : 1,
          "material" : 0
        },
        {
          "attributes" : {
            "POSITION" : 12,
            "NORMAL" : 13,
            "TANGENT" : 14,
            "JOINTS_0" : 15,
            "WEIGHTS_0" : 16,
            "TEXCOORD_0" : 17,
            "TEXCOORD_1" : 18,
            "TEXCOORD_2" : 19,
            "TEXCOORD_3" : 20
          },
          "indices" : 11,
          "material" : 1
        }
      ],
      "name" : "SK_CH_WP09_sav_01"
    }
  ],
  "buffers" : [
    {
      "uri" : "SK_CH_WP09_sav_01.bin",
      "byteLength" : 1182980
    }
  ],
  "bufferViews" : [
    {
      "buffer" : 0,
      "byteOffset" : 0,
      "byteLength" : 128
    },
    {
      "buffer" : 0,
      "byteOffset" : 128,
      "byteLength" : 24204
    },
    {
      "buffer" : 0,
      "byteOffset" : 24332,
      "byteLength" : 139500
    },
    {
      "buffer" : 0,
      "byteOffset" : 163832,
      "byteLength" : 139500
    },
    {
      "buffer" : 0,
      "byteOffset" : 303332,
      "byteLength" : 186000
    },
    {
      "buffer" : 0,
      "byteOffset" : 489332,
      "byteLength" : 93000
    },
    {
      "buffer" : 0,
      "byteOffset" : 582332,
      "byteLength" : 46500
    },
    {
      "buffer" : 0,
      "byteOffset" : 628832,
      "byteLength" : 93000
    },
    {
      "buffer" : 0,
      "byteOffset" : 721832,
      "byteLength" : 93000
    },
    {
      "buffer" : 0,
      "byteOffset" : 814832,
      "byteLength" : 93000
    },
    {
      "buffer" : 0,
      "byteOffset" : 907832,
      "byteLength" : 93000
    },
    {
      "buffer" : 0,
      "byteOffset" : 1000832,
      "byteLength" : 4236
    },
    {
      "buffer" : 0,
      "byteOffset" : 1005068,
      "byteLength" : 25416
    },
    {
      "buffer" : 0,
      "byteOffset" : 1030484,
      "byteLength" : 25416
    },
    {
      "buffer" : 0,
      "byteOffset" : 1055900,
      "byteLength" : 33888
    },
    {
      "buffer" : 0,
      "byteOffset" : 1089788,
      "byteLength" : 16944
    },
    {
      "buffer" : 0,
      "byteOffset" : 1106732,
      "byteLength" : 8472
    },
    {
      "buffer" : 0,
      "byteOffset" : 1115204,
      "byteLength" : 16944
    },
    {
      "buffer" : 0,
      "byteOffset" : 1132148,
      "byteLength" : 16944
    },
    {
      "buffer" : 0,
      "byteOffset" : 1149092,
      "byteLength" : 16944
    },
    {
      "buffer" : 0,
      "byteOffset" : 1166036,
      "byteLength" : 16944
    }
  ],
  "accessors" : [
    {
      "bufferView" : 0,
      "componentType" : 5126,
      "count" : 2,
      "type" : "MAT4"
    },
    {
      "bufferView" : 1,
      "componentType" : 5123,
      "count" : 12102,
      "type" : "SCALAR"
    },
    {
      "bufferView" : 2,
      "min" : [ -0.550964, -0.356375, -0.180113 ],
      "max" : [ 0.54644, 0.458489, -0.0553816 ],
      "componentType" : 5126,
      "count" : 11625,
      "type" : "VEC3"
    },
    {
      "bufferView" : 3,
      "componentType" : 5126,
      "count" : 11625,
      "type" : "VEC3"
    },
    {
      "bufferView" : 4,
      "componentType" : 5126,
      "count" : 11625,
      "type" : "VEC4"
    },
    {
      "bufferView" : 5,
      "componentType" : 5123,
      "count" : 11625,
      "type" : "VEC4"
    },
    {
      "bufferView" : 6,
      "normalized" : true,
      "componentType" : 5121,
      "count" : 11625,
      "type" : "VEC4"
    },
    {
      "bufferView" : 7,
      "componentType" : 5126,
      "count" : 11625,
      "type" : "VEC2"
    },
    {
      "bufferView" : 8,
      "componentType" : 5126,
      "count" : 11625,
      "type" : "VEC2"
    },
    {
      "bufferView" : 9,
      "componentType" : 5126,
      "count" : 11625,
      "type" : "VEC2"
    },
    {
      "bufferView" : 10,
      "componentType" : 5126,
      "count" : 11625,
      "type" : "VEC2"
    },
    {
      "bufferView" : 11,
      "componentType" : 5123,
      "count" : 2118,
      "type" : "SCALAR"
    },
    {
      "bufferView" : 12,
      "min" : [ -0.579068, -0.379454, -0.210099 ],
      "max" : [ 0.576439, 0.476888, -0.0261121 ],
      "componentType" : 5126,
      "count" : 2118,
      "type" : "VEC3"
    },
    {
      "bufferView" : 13,
      "componentType" : 5126,
      "count" : 2118,
      "type" : "VEC3"
    },
    {
      "bufferView" : 14,
      "componentType" : 5126,
      "count" : 2118,
      "type" : "VEC4"
    },
    {
      "bufferView" : 15,
      "componentType" : 5123,
      "count" : 2118,
      "type" : "VEC4"
    },
    {
      "bufferView" : 16,
      "normalized" : true,
      "componentType" : 5121,
      "count" : 2118,
      "type" : "VEC4"
    },
    {
      "bufferView" : 17,
      "componentType" : 5126,
      "count" : 2118,
      "type" : "VEC2"
    },
    {
      "bufferView" : 18,
      "componentType" : 5126,
      "count" : 2118,
      "type" : "VEC2"
    },
    {
      "bufferView" : 19,
      "componentType" : 5126,
      "count" : 2118,
      "type" : "VEC2"
    },
    {
      "bufferView" : 20,
      "componentType" : 5126,
      "count" : 2118,
      "type" : "VEC2"
    }
  ]
}
