{
  "asset" : {
    "generator" : "UE Viewer (umodel) build 1579 based",
    "version" : "2.0"
  },
  "scene" : 0,
  "scenes" : [
    {
      "nodes" : [ 0 ]
    }
  ],
  "nodes" : [
    {
      "name" : "SK_CH_WP06_AX00",
      "mesh" : 0,
      "skin" : 0,
      "children" : [ 1 ]
    },
    {
      "name" : "Root_J",
      "children" : [ 2 ],
      "translation" : [ 0, 0, 0 ],
      "rotation" : [ -0, -0, -0, 1 ]
    },
    {
      "name" : "GripPoint_J",
      "children" : [ 3 ],
      "translation" : [ 0, -0.04, -0 ],
      "rotation" : [ -0, -0, 0, -1 ]
    },
    {
      "name" : "GripPivot_J",
      "children" : [ 4 ],
      "translation" : [ 0, -0.05, -0 ],
      "rotation" : [ -0, -0, 0, -1 ]
    },
    {
      "name" : "Center_J",
      "children" : [ 5, 6, 7, 8, 9 ],
      "translation" : [ 0.097, -0.195, -0 ],
      "rotation" : [ -0, -0, 0, -1 ]
    },
    {
      "name" : "R_EdgeTop",
      "translation" : [ -5.77521e-06, 0.867455, -0 ],
      "rotation" : [ -0, -0, 0.707082, -0.707132 ]
    },
    {
      "name" : "R_EdgeBottom",
      "translation" : [ 0, 0.651902, -0 ],
      "rotation" : [ -0, -0, 0, -1 ]
    },
    {
      "name" : "R_HandleBottom",
      "translation" : [ 0, -0.673485, -0 ],
      "rotation" : [ -0, -0, 0, -1 ]
    },
    {
      "name" : "LowerSlide_J",
      "translation" : [ 0, -0.523376, -0 ],
      "rotation" : [ -0, -0, 0, -1 ]
    },
    {
      "name" : "Hinge_J",
      "children" : [ 10 ],
      "translation" : [ 0.0253733, 0.49427, -0 ],
      "rotation" : [ -0, -0, 0, -1 ]
    },
    {
      "name" : "HingeSlide_J",
      "children" : [ 11, 13 ],
      "translation" : [ 0, 0, -0 ],
      "rotation" : [ -0, -0, 0, -1 ]
    },
    {
      "name" : "HammerRoot_J",
      "children" : [ 12 ],
      "translation" : [ 0.103445, 0.267073, -1.26893e-08 ],
      "rotation" : [ -2.72853e-08, -7.26656e-09, -0.257348, -0.966319 ]
    },
    {
      "name" : "Hammer_J",
      "translation" : [ 2.13163e-16, 0.259004, -1.93739e-09 ],
      "rotation" : [ 2.5646e-16, -7.19598e-17, 1.11022e-15, -1 ]
    },
    {
      "name" : "SlideCover_J",
      "translation" : [ -0.050729, 0.150086, -0 ],
      "rotation" : [ -0, -0, 0, -1 ]
    }
  ],
  "skins" : [
    {
      "inverseBindMatrices" : 0,
      "skeleton" : 1,
      "joints" : [
        1,2,3,4,5,6,7,8,9,10,11,12,13
      ]
    }
  ],
  "materials" : [
    {
      "name" : "M_CH_WP06_AX00_00",
      "pbrMetallicRoughness" : {
        "baseColorFactor" : [ 0.3, 0.3, 0.3, 1.0 ],
        "metallicFactor" : 0.1,
        "roughnessFactor" : 0.5
      }
    },
    {
      "name" : "M_CH_WP06_AX00_00_ball",
      "pbrMetallicRoughness" : {
        "baseColorFactor" : [ 0.9, 0.3, 0.3, 1.0 ],
        "metallicFactor" : 0.1,
        "roughnessFactor" : 0.5
      }
    }
  ],
  "meshes" : [
    {
      "primitives" : [
        {
          "attributes" : {
            "POSITION" : 2,
            "NORMAL" : 3,
            "TANGENT" : 4,
            "COLOR_0" : 5,
            "JOINTS_0" : 6,
            "WEIGHTS_0" : 7,
            "TEXCOORD_0" : 8,
            "TEXCOORD_1" : 9
          },
          "indices" : 1,
          "material" : 0
        },
        {
          "attributes" : {
            "POSITION" : 11,
            "NORMAL" : 12,
            "TANGENT" : 13,
            "COLOR_0" : 14,
            "JOINTS_0" : 15,
            "WEIGHTS_0" : 16,
            "TEXCOORD_0" : 17,
            "TEXCOORD_1" : 18
          },
          "indices" : 10,
          "material" : 1
        }
      ],
      "name" : "SK_CH_WP06_AX00"
    }
  ],
  "buffers" : [
    {
      "uri" : "SK_CH_WP06_AX00.bin",
      "byteLength" : 1050172
    }
  ],
  "bufferViews" : [
    {
      "buffer" : 0,
      "byteOffset" : 0,
      "byteLength" : 832
    },
    {
      "buffer" : 0,
      "byteOffset" : 832,
      "byteLength" : 34572
    },
    {
      "buffer" : 0,
      "byteOffset" : 35404,
      "byteLength" : 87912
    },
    {
      "buffer" : 0,
      "byteOffset" : 123316,
      "byteLength" : 87912
    },
    {
      "buffer" : 0,
      "byteOffset" : 211228,
      "byteLength" : 117216
    },
    {
      "buffer" : 0,
      "byteOffset" : 328444,
      "byteLength" : 29304
    },
    {
      "buffer" : 0,
      "byteOffset" : 357748,
      "byteLength" : 58608
    },
    {
      "buffer" : 0,
      "byteOffset" : 416356,
      "byteLength" : 29304
    },
    {
      "buffer" : 0,
      "byteOffset" : 445660,
      "byteLength" : 58608
    },
    {
      "buffer" : 0,
      "byteOffset" : 504268,
      "byteLength" : 58608
    },
    {
      "buffer" : 0,
      "byteOffset" : 562876,
      "byteLength" : 18432
    },
    {
      "buffer" : 0,
      "byteOffset" : 581308,
      "byteLength" : 78144
    },
    {
      "buffer" : 0,
      "byteOffset" : 659452,
      "byteLength" : 78144
    },
    {
      "buffer" : 0,
      "byteOffset" : 737596,
      "byteLength" : 104192
    },
    {
      "buffer" : 0,
      "byteOffset" : 841788,
      "byteLength" : 26048
    },
    {
      "buffer" : 0,
      "byteOffset" : 867836,
      "byteLength" : 52096
    },
    {
      "buffer" : 0,
      "byteOffset" : 919932,
      "byteLength" : 26048
    },
    {
      "buffer" : 0,
      "byteOffset" : 945980,
      "byteLength" : 52096
    },
    {
      "buffer" : 0,
      "byteOffset" : 998076,
      "byteLength" : 52096
    }
  ],
  "accessors" : [
    {
      "bufferView" : 0,
      "componentType" : 5126,
      "count" : 13,
      "type" : "MAT4"
    },
    {
      "bufferView" : 1,
      "componentType" : 5123,
      "count" : 17286,
      "type" : "SCALAR"
    },
    {
      "bufferView" : 2,
      "min" : [ -0.0483839, -1.00293, -0.171981 ],
      "max" : [ 0.526678, 0.831621, 0.171981 ],
      "componentType" : 5126,
      "count" : 7326,
      "type" : "VEC3"
    },
    {
      "bufferView" : 3,
      "componentType" : 5126,
      "count" : 7326,
      "type" : "VEC3"
    },
    {
      "bufferView" : 4,
      "componentType" : 5126,
      "count" : 7326,
      "type" : "VEC4"
    },
    {
      "bufferView" : 5,
      "normalized" : true,
      "componentType" : 5121,
      "count" : 7326,
      "type" : "VEC4"
    },
    {
      "bufferView" : 6,
      "componentType" : 5123,
      "count" : 7326,
      "type" : "VEC4"
    },
    {
      "bufferView" : 7,
      "normalized" : true,
      "componentType" : 5121,
      "count" : 7326,
      "type" : "VEC4"
    },
    {
      "bufferView" : 8,
      "componentType" : 5126,
      "count" : 7326,
      "type" : "VEC2"
    },
    {
      "bufferView" : 9,
      "componentType" : 5126,
      "count" : 7326,
      "type" : "VEC2"
    },
    {
      "bufferView" : 10,
      "componentType" : 5123,
      "count" : 9216,
      "type" : "SCALAR"
    },
    {
      "bufferView" : 11,
      "min" : [ -0.1765, 0.397506, -0.256817 ],
      "max" : [ 0.3705, 1.00457, 0.256817 ],
      "componentType" : 5126,
      "count" : 6512,
      "type" : "VEC3"
    },
    {
      "bufferView" : 12,
      "componentType" : 5126,
      "count" : 6512,
      "type" : "VEC3"
    },
    {
      "bufferView" : 13,
      "componentType" : 5126,
      "count" : 6512,
      "type" : "VEC4"
    },
    {
      "bufferView" : 14,
      "normalized" : true,
      "componentType" : 5121,
      "count" : 6512,
      "type" : "VEC4"
    },
    {
      "bufferView" : 15,
      "componentType" : 5123,
      "count" : 6512,
      "type" : "VEC4"
    },
    {
      "bufferView" : 16,
      "normalized" : true,
      "componentType" : 5121,
      "count" : 6512,
      "type" : "VEC4"
    },
    {
      "bufferView" : 17,
      "componentType" : 5126,
      "count" : 6512,
      "type" : "VEC2"
    },
    {
      "bufferView" : 18,
      "componentType" : 5126,
      "count" : 6512,
      "type" : "VEC2"
    }
  ]
}
