{
  "asset" : {
    "generator" : "UE Viewer (umodel) build 1579 based",
    "version" : "2.0"
  },
  "scene" : 0,
  "scenes" : [
    {
      "nodes" : [ 0 ]
    }
  ],
  "nodes" : [
    {
      "name" : "SK_CH_WP09_AH00",
      "mesh" : 0,
      "skin" : 0,
      "children" : [ 1 ]
    },
    {
      "name" : "Root_J",
      "children" : [ 2 ],
      "translation" : [ 0, 0, 0 ],
      "rotation" : [ -0, -0, -0, 1 ]
    },
    {
      "name" : "Center_J",
      "translation" : [ 0, 0, -0.09 ],
      "rotation" : [ -0, -0, 0, -1 ]
    }
  ],
  "skins" : [
    {
      "inverseBindMatrices" : 0,
      "skeleton" : 1,
      "joints" : [
        1,2
      ]
    }
  ],
  "materials" : [
    {
      "name" : "M_CH_WP09_AH00_00",
      "pbrMetallicRoughness" : {
        "baseColorFactor" : [ 0.3, 0.3, 0.3, 1.0 ],
        "metallicFactor" : 0.1,
        "roughnessFactor" : 0.5
      }
    }
  ],
  "meshes" : [
    {
      "primitives" : [
        {
          "attributes" : {
            "POSITION" : 2,
            "NORMAL" : 3,
            "TANGENT" : 4,
            "COLOR_0" : 5,
            "JOINTS_0" : 6,
            "WEIGHTS_0" : 7,
            "TEXCOORD_0" : 8,
            "TEXCOORD_1" : 9
          },
          "indices" : 1,
          "material" : 0
        }
      ],
      "name" : "SK_CH_WP09_AH00"
    }
  ],
  "buffers" : [
    {
      "uri" : "SK_CH_WP09_AH00.bin",
      "byteLength" : 806204
    }
  ],
  "bufferViews" : [
    {
      "buffer" : 0,
      "byteOffset" : 0,
      "byteLength" : 128
    },
    {
      "buffer" : 0,
      "byteOffset" : 128,
      "byteLength" : 46980
    },
    {
      "buffer" : 0,
      "byteOffset" : 47108,
      "byteLength" : 126516
    },
    {
      "buffer" : 0,
      "byteOffset" : 173624,
      "byteLength" : 126516
    },
    {
      "buffer" : 0,
      "byteOffset" : 300140,
      "byteLength" : 168688
    },
    {
      "buffer" : 0,
      "byteOffset" : 468828,
      "byteLength" : 42172
    },
    {
      "buffer" : 0,
      "byteOffset" : 511000,
      "byteLength" : 84344
    },
    {
      "buffer" : 0,
      "byteOffset" : 595344,
      "byteLength" : 42172
    },
    {
      "buffer" : 0,
      "byteOffset" : 637516,
      "byteLength" : 84344
    },
    {
      "buffer" : 0,
      "byteOffset" : 721860,
      "byteLength" : 84344
    }
  ],
  "accessors" : [
    {
      "bufferView" : 0,
      "componentType" : 5126,
      "count" : 2,
      "type" : "MAT4"
    },
    {
      "bufferView" : 1,
      "componentType" : 5123,
      "count" : 23490,
      "type" : "SCALAR"
    },
    {
      "bufferView" : 2,
      "min" : [ -0.807355, -0.529484, -0.377127 ],
      "max" : [ 0.482479, 0.529484, -0.0460404 ],
      "componentType" : 5126,
      "count" : 10543,
      "type" : "VEC3"
    },
    {
      "bufferView" : 3,
      "componentType" : 5126,
      "count" : 10543,
      "type" : "VEC3"
    },
    {
      "bufferView" : 4,
      "componentType" : 5126,
      "count" : 10543,
      "type" : "VEC4"
    },
    {
      "bufferView" : 5,
      "normalized" : true,
      "componentType" : 5121,
      "count" : 10543,
      "type" : "VEC4"
    },
    {
      "bufferView" : 6,
      "componentType" : 5123,
      "count" : 10543,
      "type" : "VEC4"
    },
    {
      "bufferView" : 7,
      "normalized" : true,
      "componentType" : 5121,
      "count" : 10543,
      "type" : "VEC4"
    },
    {
      "bufferView" : 8,
      "componentType" : 5126,
      "count" : 10543,
      "type" : "VEC2"
    },
    {
      "bufferView" : 9,
      "componentType" : 5126,
      "count" : 10543,
      "type" : "VEC2"
    }
  ]
}
