{
  "asset" : {
    "generator" : "UE Viewer (umodel) build 1579 based",
    "version" : "2.0"
  },
  "scene" : 0,
  "scenes" : [
    {
      "nodes" : [ 0 ]
    }
  ],
  "nodes" : [
    {
      "name" : "SK_CH_WP21_AR01",
      "mesh" : 0,
      "skin" : 0,
      "children" : [ 1 ]
    },
    {
      "name" : "Root_J",
      "children" : [ 2 ],
      "translation" : [ 0, 0, 0 ],
      "rotation" : [ -0, -0, -0, 1 ]
    },
    {
      "name" : "Center_J",
      "children" : [ 3, 4, 5 ],
      "translation" : [ 0.005, -0.11, -0.01 ],
      "rotation" : [ -0, -0, 0, -1 ]
    },
    {
      "name" : "L_EdgeTop",
      "translation" : [ 0.02, 0.53, -0 ],
      "rotation" : [ -0, -0, 0, -1 ]
    },
    {
      "name" : "L_EdgeBottom",
      "translation" : [ 0, -0.75, -0 ],
      "rotation" : [ -0, -0, 0, -1 ]
    },
    {
      "name" : "L_HandleBottom",
      "translation" : [ 0, -0.2, -0 ],
      "rotation" : [ -0, -0, 0, -1 ]
    }
  ],
  "skins" : [
    {
      "inverseBindMatrices" : 0,
      "skeleton" : 1,
      "joints" : [
        1,2,3,4,5
      ]
    }
  ],
  "materials" : [
    {
      "name" : "M_CH_WP21_AR01_00",
      "pbrMetallicRoughness" : {
        "baseColorFactor" : [ 0.3, 0.3, 0.3, 1.0 ],
        "metallicFactor" : 0.1,
        "roughnessFactor" : 0.5
      }
    }
  ],
  "meshes" : [
    {
      "primitives" : [
        {
          "attributes" : {
            "POSITION" : 2,
            "NORMAL" : 3,
            "TANGENT" : 4,
            "COLOR_0" : 5,
            "JOINTS_0" : 6,
            "WEIGHTS_0" : 7,
            "TEXCOORD_0" : 8,
            "TEXCOORD_1" : 9
          },
          "indices" : 1,
          "material" : 0
        }
      ],
      "name" : "SK_CH_WP21_AR01"
    }
  ],
  "buffers" : [
    {
      "uri" : "SK_CH_WP21_AR01.bin",
      "byteLength" : 1132184
    }
  ],
  "bufferViews" : [
    {
      "buffer" : 0,
      "byteOffset" : 0,
      "byteLength" : 320
    },
    {
      "buffer" : 0,
      "byteOffset" : 320,
      "byteLength" : 69072
    },
    {
      "buffer" : 0,
      "byteOffset" : 69392,
      "byteLength" : 177132
    },
    {
      "buffer" : 0,
      "byteOffset" : 246524,
      "byteLength" : 177132
    },
    {
      "buffer" : 0,
      "byteOffset" : 423656,
      "byteLength" : 236176
    },
    {
      "buffer" : 0,
      "byteOffset" : 659832,
      "byteLength" : 59044
    },
    {
      "buffer" : 0,
      "byteOffset" : 718876,
      "byteLength" : 118088
    },
    {
      "buffer" : 0,
      "byteOffset" : 836964,
      "byteLength" : 59044
    },
    {
      "buffer" : 0,
      "byteOffset" : 896008,
      "byteLength" : 118088
    },
    {
      "buffer" : 0,
      "byteOffset" : 1014096,
      "byteLength" : 118088
    }
  ],
  "accessors" : [
    {
      "bufferView" : 0,
      "componentType" : 5126,
      "count" : 5,
      "type" : "MAT4"
    },
    {
      "bufferView" : 1,
      "componentType" : 5123,
      "count" : 34536,
      "type" : "SCALAR"
    },
    {
      "bufferView" : 2,
      "min" : [ -0.153504, -0.852628, -0.0720847 ],
      "max" : [ 0.255507, 0.439385, 0.0468125 ],
      "componentType" : 5126,
      "count" : 14761,
      "type" : "VEC3"
    },
    {
      "bufferView" : 3,
      "componentType" : 5126,
      "count" : 14761,
      "type" : "VEC3"
    },
    {
      "bufferView" : 4,
      "componentType" : 5126,
      "count" : 14761,
      "type" : "VEC4"
    },
    {
      "bufferView" : 5,
      "normalized" : true,
      "componentType" : 5121,
      "count" : 14761,
      "type" : "VEC4"
    },
    {
      "bufferView" : 6,
      "componentType" : 5123,
      "count" : 14761,
      "type" : "VEC4"
    },
    {
      "bufferView" : 7,
      "normalized" : true,
      "componentType" : 5121,
      "count" : 14761,
      "type" : "VEC4"
    },
    {
      "bufferView" : 8,
      "componentType" : 5126,
      "count" : 14761,
      "type" : "VEC2"
    },
    {
      "bufferView" : 9,
      "componentType" : 5126,
      "count" : 14761,
      "type" : "VEC2"
    }
  ]
}
