{
  "asset" : {
    "generator" : "UE Viewer (umodel) build 1579 based",
    "version" : "2.0"
  },
  "scene" : 0,
  "scenes" : [
    {
      "nodes" : [ 0 ]
    }
  ],
  "nodes" : [
    {
      "name" : "SK_CH_WP21_AA01",
      "mesh" : 0,
      "skin" : 0,
      "children" : [ 1 ]
    },
    {
      "name" : "Root_J",
      "children" : [ 2 ],
      "translation" : [ 0, 0, 0 ],
      "rotation" : [ -0, -0, -0, 1 ]
    },
    {
      "name" : "Center_J",
      "children" : [ 3, 4, 5 ],
      "translation" : [ 0.005, -0.11, -0.01 ],
      "rotation" : [ -0, -0, 0, -1 ]
    },
    {
      "name" : "L_EdgeTop",
      "translation" : [ 0.02, 0.53, -0 ],
      "rotation" : [ -0, -0, 0, -1 ]
    },
    {
      "name" : "L_EdgeBottom",
      "translation" : [ 0, -0.75, -0 ],
      "rotation" : [ -0, -0, 0, -1 ]
    },
    {
      "name" : "L_HandleBottom",
      "translation" : [ 0, -0.2, -0 ],
      "rotation" : [ -0, -0, 0, -1 ]
    }
  ],
  "skins" : [
    {
      "inverseBindMatrices" : 0,
      "skeleton" : 1,
      "joints" : [
        1,2,3,4,5
      ]
    }
  ],
  "materials" : [
    {
      "name" : "M_CH_WP21_AA01_00",
      "pbrMetallicRoughness" : {
        "baseColorFactor" : [ 0.3, 0.3, 0.3, 1.0 ],
        "metallicFactor" : 0.1,
        "roughnessFactor" : 0.5
      }
    }
  ],
  "meshes" : [
    {
      "primitives" : [
        {
          "attributes" : {
            "POSITION" : 2,
            "NORMAL" : 3,
            "TANGENT" : 4,
            "COLOR_0" : 5,
            "JOINTS_0" : 6,
            "WEIGHTS_0" : 7,
            "TEXCOORD_0" : 8,
            "TEXCOORD_1" : 9
          },
          "indices" : 1,
          "material" : 0
        }
      ],
      "name" : "SK_CH_WP21_AA01"
    }
  ],
  "buffers" : [
    {
      "uri" : "SK_CH_WP21_AA01.bin",
      "byteLength" : 925528
    }
  ],
  "bufferViews" : [
    {
      "buffer" : 0,
      "byteOffset" : 0,
      "byteLength" : 320
    },
    {
      "buffer" : 0,
      "byteOffset" : 320,
      "byteLength" : 61352
    },
    {
      "buffer" : 0,
      "byteOffset" : 61672,
      "byteLength" : 143976
    },
    {
      "buffer" : 0,
      "byteOffset" : 205648,
      "byteLength" : 143976
    },
    {
      "buffer" : 0,
      "byteOffset" : 349624,
      "byteLength" : 191968
    },
    {
      "buffer" : 0,
      "byteOffset" : 541592,
      "byteLength" : 47992
    },
    {
      "buffer" : 0,
      "byteOffset" : 589584,
      "byteLength" : 95984
    },
    {
      "buffer" : 0,
      "byteOffset" : 685568,
      "byteLength" : 47992
    },
    {
      "buffer" : 0,
      "byteOffset" : 733560,
      "byteLength" : 95984
    },
    {
      "buffer" : 0,
      "byteOffset" : 829544,
      "byteLength" : 95984
    }
  ],
  "accessors" : [
    {
      "bufferView" : 0,
      "componentType" : 5126,
      "count" : 5,
      "type" : "MAT4"
    },
    {
      "bufferView" : 1,
      "componentType" : 5123,
      "count" : 30675,
      "type" : "SCALAR"
    },
    {
      "bufferView" : 2,
      "min" : [ -0.172014, -0.868412, -0.0599353 ],
      "max" : [ 0.240526, 0.433715, 0.0399353 ],
      "componentType" : 5126,
      "count" : 11998,
      "type" : "VEC3"
    },
    {
      "bufferView" : 3,
      "componentType" : 5126,
      "count" : 11998,
      "type" : "VEC3"
    },
    {
      "bufferView" : 4,
      "componentType" : 5126,
      "count" : 11998,
      "type" : "VEC4"
    },
    {
      "bufferView" : 5,
      "normalized" : true,
      "componentType" : 5121,
      "count" : 11998,
      "type" : "VEC4"
    },
    {
      "bufferView" : 6,
      "componentType" : 5123,
      "count" : 11998,
      "type" : "VEC4"
    },
    {
      "bufferView" : 7,
      "normalized" : true,
      "componentType" : 5121,
      "count" : 11998,
      "type" : "VEC4"
    },
    {
      "bufferView" : 8,
      "componentType" : 5126,
      "count" : 11998,
      "type" : "VEC2"
    },
    {
      "bufferView" : 9,
      "componentType" : 5126,
      "count" : 11998,
      "type" : "VEC2"
    }
  ]
}
