{
  "asset" : {
    "generator" : "UE Viewer (umodel) build 1579 based",
    "version" : "2.0"
  },
  "scene" : 0,
  "scenes" : [
    {
      "nodes" : [ 0 ]
    }
  ],
  "nodes" : [
    {
      "name" : "SK_CH_WP01_AG01",
      "mesh" : 0,
      "skin" : 0,
      "children" : [ 1 ]
    },
    {
      "name" : "Root_J",
      "children" : [ 2 ],
      "translation" : [ 0, 0, 0 ],
      "rotation" : [ -0, -0, -0, 1 ]
    },
    {
      "name" : "Center_J",
      "children" : [ 3, 4, 5 ],
      "translation" : [ 0, 0.65577, -0 ],
      "rotation" : [ -0, -0, 0, -1 ]
    },
    {
      "name" : "R_EdgeTop",
      "translation" : [ -1.9007e-17, 0.889666, -3.94961e-09 ],
      "rotation" : [ -3.06162e-17, -0, 0, -1 ]
    },
    {
      "name" : "R_EdgeBottom",
      "translation" : [ 0, -0.405458, 1.53272e-17 ],
      "rotation" : [ -3.06162e-17, -0, 0, -1 ]
    },
    {
      "name" : "R_HandleBottom",
      "translation" : [ -2.42724e-17, -0.866046, -3.95011e-09 ],
      "rotation" : [ -3.06162e-17, -0, 0, -1 ]
    }
  ],
  "skins" : [
    {
      "inverseBindMatrices" : 0,
      "skeleton" : 1,
      "joints" : [
        1,2,3,4,5
      ]
    }
  ],
  "materials" : [
    {
      "name" : "M_CH_WP01_AG01_00",
      "pbrMetallicRoughness" : {
        "baseColorFactor" : [ 0.3, 0.3, 0.3, 1.0 ],
        "metallicFactor" : 0.1,
        "roughnessFactor" : 0.5
      }
    }
  ],
  "meshes" : [
    {
      "primitives" : [
        {
          "attributes" : {
            "POSITION" : 2,
            "NORMAL" : 3,
            "TANGENT" : 4,
            "COLOR_0" : 5,
            "JOINTS_0" : 6,
            "WEIGHTS_0" : 7,
            "TEXCOORD_0" : 8,
            "TEXCOORD_1" : 9
          },
          "indices" : 1,
          "material" : 0
        }
      ],
      "name" : "SK_CH_WP01_AG01"
    }
  ],
  "buffers" : [
    {
      "uri" : "SK_CH_WP01_AG01.bin",
      "byteLength" : 720836
    }
  ],
  "bufferViews" : [
    {
      "buffer" : 0,
      "byteOffset" : 0,
      "byteLength" : 320
    },
    {
      "buffer" : 0,
      "byteOffset" : 320,
      "byteLength" : 45228
    },
    {
      "buffer" : 0,
      "byteOffset" : 45548,
      "byteLength" : 112548
    },
    {
      "buffer" : 0,
      "byteOffset" : 158096,
      "byteLength" : 112548
    },
    {
      "buffer" : 0,
      "byteOffset" : 270644,
      "byteLength" : 150064
    },
    {
      "buffer" : 0,
      "byteOffset" : 420708,
      "byteLength" : 37516
    },
    {
      "buffer" : 0,
      "byteOffset" : 458224,
      "byteLength" : 75032
    },
    {
      "buffer" : 0,
      "byteOffset" : 533256,
      "byteLength" : 37516
    },
    {
      "buffer" : 0,
      "byteOffset" : 570772,
      "byteLength" : 75032
    },
    {
      "buffer" : 0,
      "byteOffset" : 645804,
      "byteLength" : 75032
    }
  ],
  "accessors" : [
    {
      "bufferView" : 0,
      "componentType" : 5126,
      "count" : 5,
      "type" : "MAT4"
    },
    {
      "bufferView" : 1,
      "componentType" : 5123,
      "count" : 22614,
      "type" : "SCALAR"
    },
    {
      "bufferView" : 2,
      "min" : [ -0.172522, -0.210465, -0.071438 ],
      "max" : [ 0.172522, 1.54263, 0.071438 ],
      "componentType" : 5126,
      "count" : 9379,
      "type" : "VEC3"
    },
    {
      "bufferView" : 3,
      "componentType" : 5126,
      "count" : 9379,
      "type" : "VEC3"
    },
    {
      "bufferView" : 4,
      "componentType" : 5126,
      "count" : 9379,
      "type" : "VEC4"
    },
    {
      "bufferView" : 5,
      "normalized" : true,
      "componentType" : 5121,
      "count" : 9379,
      "type" : "VEC4"
    },
    {
      "bufferView" : 6,
      "componentType" : 5123,
      "count" : 9379,
      "type" : "VEC4"
    },
    {
      "bufferView" : 7,
      "normalized" : true,
      "componentType" : 5121,
      "count" : 9379,
      "type" : "VEC4"
    },
    {
      "bufferView" : 8,
      "componentType" : 5126,
      "count" : 9379,
      "type" : "VEC2"
    },
    {
      "bufferView" : 9,
      "componentType" : 5126,
      "count" : 9379,
      "type" : "VEC2"
    }
  ]
}
