{
  "asset" : {
    "generator" : "UE Viewer (umodel) build 1579 based",
    "version" : "2.0"
  },
  "scene" : 0,
  "scenes" : [
    {
      "nodes" : [ 0 ]
    }
  ],
  "nodes" : [
    {
      "name" : "SK_CH_WP09_AS00",
      "mesh" : 0,
      "skin" : 0,
      "children" : [ 1 ]
    },
    {
      "name" : "Root_J",
      "children" : [ 2 ],
      "translation" : [ 0, 0, -0.0236332 ],
      "rotation" : [ -0, -0, -0, 1 ]
    },
    {
      "name" : "Center_J",
      "translation" : [ 0, 0, -0.09 ],
      "rotation" : [ -0, -0, 0, -1 ]
    }
  ],
  "skins" : [
    {
      "inverseBindMatrices" : 0,
      "skeleton" : 1,
      "joints" : [
        1,2
      ]
    }
  ],
  "materials" : [
    {
      "name" : "M_CH_WP09_AS00_00",
      "pbrMetallicRoughness" : {
        "baseColorFactor" : [ 0.3, 0.3, 0.3, 1.0 ],
        "metallicFactor" : 0.1,
        "roughnessFactor" : 0.5
      }
    },
    {
      "name" : "M_CH_WP09_AS00_00_Ble",
      "pbrMetallicRoughness" : {
        "baseColorFactor" : [ 0.9, 0.3, 0.3, 1.0 ],
        "metallicFactor" : 0.1,
        "roughnessFactor" : 0.5
      }
    }
  ],
  "meshes" : [
    {
      "primitives" : [
        {
          "attributes" : {
            "POSITION" : 2,
            "NORMAL" : 3,
            "TANGENT" : 4,
            "COLOR_0" : 5,
            "JOINTS_0" : 6,
            "WEIGHTS_0" : 7,
            "TEXCOORD_0" : 8,
            "TEXCOORD_1" : 9
          },
          "indices" : 1,
          "material" : 0
        },
        {
          "attributes" : {
            "POSITION" : 11,
            "NORMAL" : 12,
            "TANGENT" : 13,
            "COLOR_0" : 14,
            "JOINTS_0" : 15,
            "WEIGHTS_0" : 16,
            "TEXCOORD_0" : 17,
            "TEXCOORD_1" : 18
          },
          "indices" : 10,
          "material" : 1
        }
      ],
      "name" : "SK_CH_WP09_AS00"
    }
  ],
  "buffers" : [
    {
      "uri" : "SK_CH_WP09_AS00.bin",
      "byteLength" : 550160
    }
  ],
  "bufferViews" : [
    {
      "buffer" : 0,
      "byteOffset" : 0,
      "byteLength" : 128
    },
    {
      "buffer" : 0,
      "byteOffset" : 128,
      "byteLength" : 25704
    },
    {
      "buffer" : 0,
      "byteOffset" : 25832,
      "byteLength" : 69168
    },
    {
      "buffer" : 0,
      "byteOffset" : 95000,
      "byteLength" : 69168
    },
    {
      "buffer" : 0,
      "byteOffset" : 164168,
      "byteLength" : 92224
    },
    {
      "buffer" : 0,
      "byteOffset" : 256392,
      "byteLength" : 23056
    },
    {
      "buffer" : 0,
      "byteOffset" : 279448,
      "byteLength" : 46112
    },
    {
      "buffer" : 0,
      "byteOffset" : 325560,
      "byteLength" : 23056
    },
    {
      "buffer" : 0,
      "byteOffset" : 348616,
      "byteLength" : 46112
    },
    {
      "buffer" : 0,
      "byteOffset" : 394728,
      "byteLength" : 46112
    },
    {
      "buffer" : 0,
      "byteOffset" : 440840,
      "byteLength" : 7080
    },
    {
      "buffer" : 0,
      "byteOffset" : 447920,
      "byteLength" : 17040
    },
    {
      "buffer" : 0,
      "byteOffset" : 464960,
      "byteLength" : 17040
    },
    {
      "buffer" : 0,
      "byteOffset" : 482000,
      "byteLength" : 22720
    },
    {
      "buffer" : 0,
      "byteOffset" : 504720,
      "byteLength" : 5680
    },
    {
      "buffer" : 0,
      "byteOffset" : 510400,
      "byteLength" : 11360
    },
    {
      "buffer" : 0,
      "byteOffset" : 521760,
      "byteLength" : 5680
    },
    {
      "buffer" : 0,
      "byteOffset" : 527440,
      "byteLength" : 11360
    },
    {
      "buffer" : 0,
      "byteOffset" : 538800,
      "byteLength" : 11360
    }
  ],
  "accessors" : [
    {
      "bufferView" : 0,
      "componentType" : 5126,
      "count" : 2,
      "type" : "MAT4"
    },
    {
      "bufferView" : 1,
      "componentType" : 5123,
      "count" : 12852,
      "type" : "SCALAR"
    },
    {
      "bufferView" : 2,
      "min" : [ -0.691087, -0.478134, -0.335516 ],
      "max" : [ 0.443714, 0.478134, -0.118451 ],
      "componentType" : 5126,
      "count" : 5764,
      "type" : "VEC3"
    },
    {
      "bufferView" : 3,
      "componentType" : 5126,
      "count" : 5764,
      "type" : "VEC3"
    },
    {
      "bufferView" : 4,
      "componentType" : 5126,
      "count" : 5764,
      "type" : "VEC4"
    },
    {
      "bufferView" : 5,
      "normalized" : true,
      "componentType" : 5121,
      "count" : 5764,
      "type" : "VEC4"
    },
    {
      "bufferView" : 6,
      "componentType" : 5123,
      "count" : 5764,
      "type" : "VEC4"
    },
    {
      "bufferView" : 7,
      "normalized" : true,
      "componentType" : 5121,
      "count" : 5764,
      "type" : "VEC4"
    },
    {
      "bufferView" : 8,
      "componentType" : 5126,
      "count" : 5764,
      "type" : "VEC2"
    },
    {
      "bufferView" : 9,
      "componentType" : 5126,
      "count" : 5764,
      "type" : "VEC2"
    },
    {
      "bufferView" : 10,
      "componentType" : 5123,
      "count" : 3540,
      "type" : "SCALAR"
    },
    {
      "bufferView" : 11,
      "min" : [ -0.629034, -0.430353, -0.28165 ],
      "max" : [ 0.46784, 0.430353, -0.204819 ],
      "componentType" : 5126,
      "count" : 1420,
      "type" : "VEC3"
    },
    {
      "bufferView" : 12,
      "componentType" : 5126,
      "count" : 1420,
      "type" : "VEC3"
    },
    {
      "bufferView" : 13,
      "componentType" : 5126,
      "count" : 1420,
      "type" : "VEC4"
    },
    {
      "bufferView" : 14,
      "normalized" : true,
      "componentType" : 5121,
      "count" : 1420,
      "type" : "VEC4"
    },
    {
      "bufferView" : 15,
      "componentType" : 5123,
      "count" : 1420,
      "type" : "VEC4"
    },
    {
      "bufferView" : 16,
      "normalized" : true,
      "componentType" : 5121,
      "count" : 1420,
      "type" : "VEC4"
    },
    {
      "bufferView" : 17,
      "componentType" : 5126,
      "count" : 1420,
      "type" : "VEC2"
    },
    {
      "bufferView" : 18,
      "componentType" : 5126,
      "count" : 1420,
      "type" : "VEC2"
    }
  ]
}
