{
  "asset" : {
    "generator" : "UE Viewer (umodel) build 1579 based",
    "version" : "2.0"
  },
  "scene" : 0,
  "scenes" : [
    {
      "nodes" : [ 0 ]
    }
  ],
  "nodes" : [
    {
      "name" : "SK_CH_WP09_AO03",
      "mesh" : 0,
      "skin" : 0,
      "children" : [ 1 ]
    },
    {
      "name" : "Root_J",
      "children" : [ 2 ],
      "translation" : [ 0, 0, 0 ],
      "rotation" : [ 5.01965e-07, 0.000785177, -0.00233917, 0.999997 ]
    },
    {
      "name" : "Center_J",
      "translation" : [ -1.3295e-20, 6.77626e-23, -0.09 ],
      "rotation" : [ -5.29302e-38, 1.22049e-19, 4.33681e-19, -1 ]
    }
  ],
  "skins" : [
    {
      "inverseBindMatrices" : 0,
      "skeleton" : 1,
      "joints" : [
        1,2
      ]
    }
  ],
  "materials" : [
    {
      "name" : "M_CH_WP09_AO03_00_cmn",
      "pbrMetallicRoughness" : {
        "baseColorFactor" : [ 0.3, 0.3, 0.3, 1.0 ],
        "metallicFactor" : 0.1,
        "roughnessFactor" : 0.5
      }
    },
    {
      "name" : "M_CH_WP09_AO03_00",
      "pbrMetallicRoughness" : {
        "baseColorFactor" : [ 0.9, 0.3, 0.3, 1.0 ],
        "metallicFactor" : 0.1,
        "roughnessFactor" : 0.5
      }
    }
  ],
  "meshes" : [
    {
      "primitives" : [
        {
          "attributes" : {
            "POSITION" : 2,
            "NORMAL" : 3,
            "TANGENT" : 4,
            "COLOR_0" : 5,
            "JOINTS_0" : 6,
            "WEIGHTS_0" : 7,
            "TEXCOORD_0" : 8,
            "TEXCOORD_1" : 9
          },
          "indices" : 1,
          "material" : 0
        },
        {
          "attributes" : {
            "POSITION" : 11,
            "NORMAL" : 12,
            "TANGENT" : 13,
            "COLOR_0" : 14,
            "JOINTS_0" : 15,
            "WEIGHTS_0" : 16,
            "TEXCOORD_0" : 17,
            "TEXCOORD_1" : 18
          },
          "indices" : 10,
          "material" : 1
        }
      ],
      "name" : "SK_CH_WP09_AO03"
    }
  ],
  "buffers" : [
    {
      "uri" : "SK_CH_WP09_AO03.bin",
      "byteLength" : 584204
    }
  ],
  "bufferViews" : [
    {
      "buffer" : 0,
      "byteOffset" : 0,
      "byteLength" : 128
    },
    {
      "buffer" : 0,
      "byteOffset" : 128,
      "byteLength" : 6984
    },
    {
      "buffer" : 0,
      "byteOffset" : 7112,
      "byteLength" : 22008
    },
    {
      "buffer" : 0,
      "byteOffset" : 29120,
      "byteLength" : 22008
    },
    {
      "buffer" : 0,
      "byteOffset" : 51128,
      "byteLength" : 29344
    },
    {
      "buffer" : 0,
      "byteOffset" : 80472,
      "byteLength" : 7336
    },
    {
      "buffer" : 0,
      "byteOffset" : 87808,
      "byteLength" : 14672
    },
    {
      "buffer" : 0,
      "byteOffset" : 102480,
      "byteLength" : 7336
    },
    {
      "buffer" : 0,
      "byteOffset" : 109816,
      "byteLength" : 14672
    },
    {
      "buffer" : 0,
      "byteOffset" : 124488,
      "byteLength" : 14672
    },
    {
      "buffer" : 0,
      "byteOffset" : 139160,
      "byteLength" : 27588
    },
    {
      "buffer" : 0,
      "byteOffset" : 166748,
      "byteLength" : 69576
    },
    {
      "buffer" : 0,
      "byteOffset" : 236324,
      "byteLength" : 69576
    },
    {
      "buffer" : 0,
      "byteOffset" : 305900,
      "byteLength" : 92768
    },
    {
      "buffer" : 0,
      "byteOffset" : 398668,
      "byteLength" : 23192
    },
    {
      "buffer" : 0,
      "byteOffset" : 421860,
      "byteLength" : 46384
    },
    {
      "buffer" : 0,
      "byteOffset" : 468244,
      "byteLength" : 23192
    },
    {
      "buffer" : 0,
      "byteOffset" : 491436,
      "byteLength" : 46384
    },
    {
      "buffer" : 0,
      "byteOffset" : 537820,
      "byteLength" : 46384
    }
  ],
  "accessors" : [
    {
      "bufferView" : 0,
      "componentType" : 5126,
      "count" : 2,
      "type" : "MAT4"
    },
    {
      "bufferView" : 1,
      "componentType" : 5123,
      "count" : 3492,
      "type" : "SCALAR"
    },
    {
      "bufferView" : 2,
      "min" : [ -0.41627, -0.15289, -0.12223 ],
      "max" : [ 0.227543, 0.151849, -0.00870604 ],
      "componentType" : 5126,
      "count" : 1834,
      "type" : "VEC3"
    },
    {
      "bufferView" : 3,
      "componentType" : 5126,
      "count" : 1834,
      "type" : "VEC3"
    },
    {
      "bufferView" : 4,
      "componentType" : 5126,
      "count" : 1834,
      "type" : "VEC4"
    },
    {
      "bufferView" : 5,
      "normalized" : true,
      "componentType" : 5121,
      "count" : 1834,
      "type" : "VEC4"
    },
    {
      "bufferView" : 6,
      "componentType" : 5123,
      "count" : 1834,
      "type" : "VEC4"
    },
    {
      "bufferView" : 7,
      "normalized" : true,
      "componentType" : 5121,
      "count" : 1834,
      "type" : "VEC4"
    },
    {
      "bufferView" : 8,
      "componentType" : 5126,
      "count" : 1834,
      "type" : "VEC2"
    },
    {
      "bufferView" : 9,
      "componentType" : 5126,
      "count" : 1834,
      "type" : "VEC2"
    },
    {
      "bufferView" : 10,
      "componentType" : 5123,
      "count" : 13794,
      "type" : "SCALAR"
    },
    {
      "bufferView" : 11,
      "min" : [ -0.962172, -0.516442, -0.362895 ],
      "max" : [ 0.509932, 0.51645, 0.0108196 ],
      "componentType" : 5126,
      "count" : 5798,
      "type" : "VEC3"
    },
    {
      "bufferView" : 12,
      "componentType" : 5126,
      "count" : 5798,
      "type" : "VEC3"
    },
    {
      "bufferView" : 13,
      "componentType" : 5126,
      "count" : 5798,
      "type" : "VEC4"
    },
    {
      "bufferView" : 14,
      "normalized" : true,
      "componentType" : 5121,
      "count" : 5798,
      "type" : "VEC4"
    },
    {
      "bufferView" : 15,
      "componentType" : 5123,
      "count" : 5798,
      "type" : "VEC4"
    },
    {
      "bufferView" : 16,
      "normalized" : true,
      "componentType" : 5121,
      "count" : 5798,
      "type" : "VEC4"
    },
    {
      "bufferView" : 17,
      "componentType" : 5126,
      "count" : 5798,
      "type" : "VEC2"
    },
    {
      "bufferView" : 18,
      "componentType" : 5126,
      "count" : 5798,
      "type" : "VEC2"
    }
  ]
}
