{
  "asset" : {
    "generator" : "UE Viewer (umodel) build 1579 based",
    "version" : "2.0"
  },
  "scene" : 0,
  "scenes" : [
    {
      "nodes" : [ 0 ]
    }
  ],
  "nodes" : [
    {
      "name" : "SK_CH_WP13_AZ00",
      "mesh" : 0,
      "skin" : 0,
      "children" : [ 1 ]
    },
    {
      "name" : "Root_J",
      "children" : [ 2 ],
      "translation" : [ 2.03766e-18, 0, 0 ],
      "rotation" : [ -0, -0, -0, 1 ]
    },
    {
      "name" : "Center_J",
      "children" : [ 3 ],
      "translation" : [ 0, 0, -0.05 ],
      "rotation" : [ -0, -0, 0, -1 ]
    },
    {
      "name" : "Quiver_J",
      "translation" : [ -2.03766e-18, 0.1, -0 ],
      "rotation" : [ -0, -0, 0, -1 ]
    }
  ],
  "skins" : [
    {
      "inverseBindMatrices" : 0,
      "skeleton" : 1,
      "joints" : [
        1,2,3
      ]
    }
  ],
  "materials" : [
    {
      "name" : "M_CH_WP13_AZ00_00_Sphere",
      "pbrMetallicRoughness" : {
        "baseColorFactor" : [ 0.3, 0.3, 0.3, 1.0 ],
        "metallicFactor" : 0.1,
        "roughnessFactor" : 0.5
      }
    },
    {
      "name" : "M_CH_WP13_AZ00_00",
      "pbrMetallicRoughness" : {
        "baseColorFactor" : [ 0.9, 0.3, 0.3, 1.0 ],
        "metallicFactor" : 0.1,
        "roughnessFactor" : 0.5
      }
    }
  ],
  "meshes" : [
    {
      "primitives" : [
        {
          "attributes" : {
            "POSITION" : 2,
            "NORMAL" : 3,
            "TANGENT" : 4,
            "COLOR_0" : 5,
            "JOINTS_0" : 6,
            "WEIGHTS_0" : 7,
            "TEXCOORD_0" : 8,
            "TEXCOORD_1" : 9
          },
          "indices" : 1,
          "material" : 0
        },
        {
          "attributes" : {
            "POSITION" : 11,
            "NORMAL" : 12,
            "TANGENT" : 13,
            "COLOR_0" : 14,
            "JOINTS_0" : 15,
            "WEIGHTS_0" : 16,
            "TEXCOORD_0" : 17,
            "TEXCOORD_1" : 18
          },
          "indices" : 10,
          "material" : 1
        }
      ],
      "name" : "SK_CH_WP13_AZ00"
    }
  ],
  "buffers" : [
    {
      "uri" : "SK_CH_WP13_AZ00.bin",
      "byteLength" : 1015788
    }
  ],
  "bufferViews" : [
    {
      "buffer" : 0,
      "byteOffset" : 0,
      "byteLength" : 192
    },
    {
      "buffer" : 0,
      "byteOffset" : 192,
      "byteLength" : 2304
    },
    {
      "buffer" : 0,
      "byteOffset" : 2496,
      "byteLength" : 2736
    },
    {
      "buffer" : 0,
      "byteOffset" : 5232,
      "byteLength" : 2736
    },
    {
      "buffer" : 0,
      "byteOffset" : 7968,
      "byteLength" : 3648
    },
    {
      "buffer" : 0,
      "byteOffset" : 11616,
      "byteLength" : 912
    },
    {
      "buffer" : 0,
      "byteOffset" : 12528,
      "byteLength" : 1824
    },
    {
      "buffer" : 0,
      "byteOffset" : 14352,
      "byteLength" : 912
    },
    {
      "buffer" : 0,
      "byteOffset" : 15264,
      "byteLength" : 1824
    },
    {
      "buffer" : 0,
      "byteOffset" : 17088,
      "byteLength" : 1824
    },
    {
      "buffer" : 0,
      "byteOffset" : 18912,
      "byteLength" : 74988
    },
    {
      "buffer" : 0,
      "byteOffset" : 93900,
      "byteLength" : 153648
    },
    {
      "buffer" : 0,
      "byteOffset" : 247548,
      "byteLength" : 153648
    },
    {
      "buffer" : 0,
      "byteOffset" : 401196,
      "byteLength" : 204864
    },
    {
      "buffer" : 0,
      "byteOffset" : 606060,
      "byteLength" : 51216
    },
    {
      "buffer" : 0,
      "byteOffset" : 657276,
      "byteLength" : 102432
    },
    {
      "buffer" : 0,
      "byteOffset" : 759708,
      "byteLength" : 51216
    },
    {
      "buffer" : 0,
      "byteOffset" : 810924,
      "byteLength" : 102432
    },
    {
      "buffer" : 0,
      "byteOffset" : 913356,
      "byteLength" : 102432
    }
  ],
  "accessors" : [
    {
      "bufferView" : 0,
      "componentType" : 5126,
      "count" : 3,
      "type" : "MAT4"
    },
    {
      "bufferView" : 1,
      "componentType" : 5123,
      "count" : 1152,
      "type" : "SCALAR"
    },
    {
      "bufferView" : 2,
      "min" : [ -0.0193683, -0.0263865, -0.0667912 ],
      "max" : [ 0.0193683, 0.012598, -0.0284088 ],
      "componentType" : 5126,
      "count" : 228,
      "type" : "VEC3"
    },
    {
      "bufferView" : 3,
      "componentType" : 5126,
      "count" : 228,
      "type" : "VEC3"
    },
    {
      "bufferView" : 4,
      "componentType" : 5126,
      "count" : 228,
      "type" : "VEC4"
    },
    {
      "bufferView" : 5,
      "normalized" : true,
      "componentType" : 5121,
      "count" : 228,
      "type" : "VEC4"
    },
    {
      "bufferView" : 6,
      "componentType" : 5123,
      "count" : 228,
      "type" : "VEC4"
    },
    {
      "bufferView" : 7,
      "normalized" : true,
      "componentType" : 5121,
      "count" : 228,
      "type" : "VEC4"
    },
    {
      "bufferView" : 8,
      "componentType" : 5126,
      "count" : 228,
      "type" : "VEC2"
    },
    {
      "bufferView" : 9,
      "componentType" : 5126,
      "count" : 228,
      "type" : "VEC2"
    },
    {
      "bufferView" : 10,
      "componentType" : 5123,
      "count" : 37494,
      "type" : "SCALAR"
    },
    {
      "bufferView" : 11,
      "min" : [ -0.11438, -0.453678, -0.104326 ],
      "max" : [ 0.110925, 0.260306, 0.0143864 ],
      "componentType" : 5126,
      "count" : 12804,
      "type" : "VEC3"
    },
    {
      "bufferView" : 12,
      "componentType" : 5126,
      "count" : 12804,
      "type" : "VEC3"
    },
    {
      "bufferView" : 13,
      "componentType" : 5126,
      "count" : 12804,
      "type" : "VEC4"
    },
    {
      "bufferView" : 14,
      "normalized" : true,
      "componentType" : 5121,
      "count" : 12804,
      "type" : "VEC4"
    },
    {
      "bufferView" : 15,
      "componentType" : 5123,
      "count" : 12804,
      "type" : "VEC4"
    },
    {
      "bufferView" : 16,
      "normalized" : true,
      "componentType" : 5121,
      "count" : 12804,
      "type" : "VEC4"
    },
    {
      "bufferView" : 17,
      "componentType" : 5126,
      "count" : 12804,
      "type" : "VEC2"
    },
    {
      "bufferView" : 18,
      "componentType" : 5126,
      "count" : 12804,
      "type" : "VEC2"
    }
  ]
}
