{
  "asset" : {
    "generator" : "UE Viewer (umodel) build 1579 based",
    "version" : "2.0"
  },
  "scene" : 0,
  "scenes" : [
    {
      "nodes" : [ 0 ]
    }
  ],
  "nodes" : [
    {
      "name" : "SK_CH_WP06_AZ00",
      "mesh" : 0,
      "skin" : 0,
      "children" : [ 1 ]
    },
    {
      "name" : "Root_J",
      "children" : [ 2 ],
      "translation" : [ 0, 0, 0 ],
      "rotation" : [ -0, -0, -0, 1 ]
    },
    {
      "name" : "GripPoint_J",
      "children" : [ 3 ],
      "translation" : [ 0, -0.04, -0 ],
      "rotation" : [ -0, -0, 0, -1 ]
    },
    {
      "name" : "GripPivot_J",
      "children" : [ 4 ],
      "translation" : [ 0, -0.05, -0 ],
      "rotation" : [ -0, -0, 0, -1 ]
    },
    {
      "name" : "Center_J",
      "children" : [ 5, 6, 7, 8, 9 ],
      "translation" : [ 0.097, -0.195, -0 ],
      "rotation" : [ -0, -0, 0, -1 ]
    },
    {
      "name" : "R_EdgeTop",
      "translation" : [ -5.77521e-06, 0.867455, -0 ],
      "rotation" : [ -0, -0, 0.707082, -0.707132 ]
    },
    {
      "name" : "R_EdgeBottom",
      "translation" : [ 0, 0.651902, -0 ],
      "rotation" : [ -0, -0, 0, -1 ]
    },
    {
      "name" : "R_HandleBottom",
      "translation" : [ 0, -0.673485, -0 ],
      "rotation" : [ -0, -0, 0, -1 ]
    },
    {
      "name" : "LowerSlide_J",
      "translation" : [ 0, -0.523376, -0 ],
      "rotation" : [ -0, -0, 0, -1 ]
    },
    {
      "name" : "Hinge_J",
      "children" : [ 10 ],
      "translation" : [ 0.0253733, 0.4943, -0 ],
      "rotation" : [ -0, -0, 0, -1 ]
    },
    {
      "name" : "HingeSlide_J",
      "children" : [ 11, 13 ],
      "translation" : [ 0, 0, -0 ],
      "rotation" : [ -0, -0, 0, -1 ]
    },
    {
      "name" : "HammerRoot_J",
      "children" : [ 12 ],
      "translation" : [ 0.103445, 0.267073, -1.26893e-08 ],
      "rotation" : [ -2.53501e-08, -1.41322e-16, -0.257348, -0.966319 ]
    },
    {
      "name" : "Hammer_J",
      "translation" : [ 7.10543e-17, 0.259004, -1.93739e-09 ],
      "rotation" : [ 2.56459e-16, -7.19597e-17, 1.11022e-15, -1 ]
    },
    {
      "name" : "SlideCover_J",
      "translation" : [ -0.050729, 0.150086, -0 ],
      "rotation" : [ -0, -0, 0.0846952, -0.996407 ]
    }
  ],
  "skins" : [
    {
      "inverseBindMatrices" : 0,
      "skeleton" : 1,
      "joints" : [
        1,2,3,4,5,6,7,8,9,10,11,12,13
      ]
    }
  ],
  "materials" : [
    {
      "name" : "M_CH_WP06_AZ00_00",
      "pbrMetallicRoughness" : {
        "baseColorFactor" : [ 0.3, 0.3, 0.3, 1.0 ],
        "metallicFactor" : 0.1,
        "roughnessFactor" : 0.5
      }
    },
    {
      "name" : "M_CH_WP06_AZ00_00_ball",
      "pbrMetallicRoughness" : {
        "baseColorFactor" : [ 0.9, 0.3, 0.3, 1.0 ],
        "metallicFactor" : 0.1,
        "roughnessFactor" : 0.5
      }
    },
    {
      "name" : "M_CH_WP06_AZ00_00_Sphere",
      "pbrMetallicRoughness" : {
        "baseColorFactor" : [ 0.3, 0.9, 0.3, 1.0 ],
        "metallicFactor" : 0.1,
        "roughnessFactor" : 0.5
      }
    }
  ],
  "meshes" : [
    {
      "primitives" : [
        {
          "attributes" : {
            "POSITION" : 2,
            "NORMAL" : 3,
            "TANGENT" : 4,
            "COLOR_0" : 5,
            "JOINTS_0" : 6,
            "WEIGHTS_0" : 7,
            "TEXCOORD_0" : 8,
            "TEXCOORD_1" : 9
          },
          "indices" : 1,
          "material" : 0
        },
        {
          "attributes" : {
            "POSITION" : 11,
            "NORMAL" : 12,
            "TANGENT" : 13,
            "COLOR_0" : 14,
            "JOINTS_0" : 15,
            "WEIGHTS_0" : 16,
            "TEXCOORD_0" : 17,
            "TEXCOORD_1" : 18
          },
          "indices" : 10,
          "material" : 1
        },
        {
          "attributes" : {
            "POSITION" : 20,
            "NORMAL" : 21,
            "TANGENT" : 22,
            "COLOR_0" : 23,
            "JOINTS_0" : 24,
            "WEIGHTS_0" : 25,
            "TEXCOORD_0" : 26,
            "TEXCOORD_1" : 27
          },
          "indices" : 19,
          "material" : 2
        }
      ],
      "name" : "SK_CH_WP06_AZ00"
    }
  ],
  "buffers" : [
    {
      "uri" : "SK_CH_WP06_AZ00.bin",
      "byteLength" : 1232236
    }
  ],
  "bufferViews" : [
    {
      "buffer" : 0,
      "byteOffset" : 0,
      "byteLength" : 832
    },
    {
      "buffer" : 0,
      "byteOffset" : 832,
      "byteLength" : 50772
    },
    {
      "buffer" : 0,
      "byteOffset" : 51604,
      "byteLength" : 109992
    },
    {
      "buffer" : 0,
      "byteOffset" : 161596,
      "byteLength" : 109992
    },
    {
      "buffer" : 0,
      "byteOffset" : 271588,
      "byteLength" : 146656
    },
    {
      "buffer" : 0,
      "byteOffset" : 418244,
      "byteLength" : 36664
    },
    {
      "buffer" : 0,
      "byteOffset" : 454908,
      "byteLength" : 73328
    },
    {
      "buffer" : 0,
      "byteOffset" : 528236,
      "byteLength" : 36664
    },
    {
      "buffer" : 0,
      "byteOffset" : 564900,
      "byteLength" : 73328
    },
    {
      "buffer" : 0,
      "byteOffset" : 638228,
      "byteLength" : 73328
    },
    {
      "buffer" : 0,
      "byteOffset" : 711556,
      "byteLength" : 38112
    },
    {
      "buffer" : 0,
      "byteOffset" : 749668,
      "byteLength" : 76200
    },
    {
      "buffer" : 0,
      "byteOffset" : 825868,
      "byteLength" : 76200
    },
    {
      "buffer" : 0,
      "byteOffset" : 902068,
      "byteLength" : 101600
    },
    {
      "buffer" : 0,
      "byteOffset" : 1003668,
      "byteLength" : 25400
    },
    {
      "buffer" : 0,
      "byteOffset" : 1029068,
      "byteLength" : 50800
    },
    {
      "buffer" : 0,
      "byteOffset" : 1079868,
      "byteLength" : 25400
    },
    {
      "buffer" : 0,
      "byteOffset" : 1105268,
      "byteLength" : 50800
    },
    {
      "buffer" : 0,
      "byteOffset" : 1156068,
      "byteLength" : 50800
    },
    {
      "buffer" : 0,
      "byteOffset" : 1206868,
      "byteLength" : 3120
    },
    {
      "buffer" : 0,
      "byteOffset" : 1209988,
      "byteLength" : 3708
    },
    {
      "buffer" : 0,
      "byteOffset" : 1213696,
      "byteLength" : 3708
    },
    {
      "buffer" : 0,
      "byteOffset" : 1217404,
      "byteLength" : 4944
    },
    {
      "buffer" : 0,
      "byteOffset" : 1222348,
      "byteLength" : 1236
    },
    {
      "buffer" : 0,
      "byteOffset" : 1223584,
      "byteLength" : 2472
    },
    {
      "buffer" : 0,
      "byteOffset" : 1226056,
      "byteLength" : 1236
    },
    {
      "buffer" : 0,
      "byteOffset" : 1227292,
      "byteLength" : 2472
    },
    {
      "buffer" : 0,
      "byteOffset" : 1229764,
      "byteLength" : 2472
    }
  ],
  "accessors" : [
    {
      "bufferView" : 0,
      "componentType" : 5126,
      "count" : 13,
      "type" : "MAT4"
    },
    {
      "bufferView" : 1,
      "componentType" : 5123,
      "count" : 25386,
      "type" : "SCALAR"
    },
    {
      "bufferView" : 2,
      "min" : [ -0.0566583, -0.983665, -0.137944 ],
      "max" : [ 0.482162, 0.855873, 0.137944 ],
      "componentType" : 5126,
      "count" : 9166,
      "type" : "VEC3"
    },
    {
      "bufferView" : 3,
      "componentType" : 5126,
      "count" : 9166,
      "type" : "VEC3"
    },
    {
      "bufferView" : 4,
      "componentType" : 5126,
      "count" : 9166,
      "type" : "VEC4"
    },
    {
      "bufferView" : 5,
      "normalized" : true,
      "componentType" : 5121,
      "count" : 9166,
      "type" : "VEC4"
    },
    {
      "bufferView" : 6,
      "componentType" : 5123,
      "count" : 9166,
      "type" : "VEC4"
    },
    {
      "bufferView" : 7,
      "normalized" : true,
      "componentType" : 5121,
      "count" : 9166,
      "type" : "VEC4"
    },
    {
      "bufferView" : 8,
      "componentType" : 5126,
      "count" : 9166,
      "type" : "VEC2"
    },
    {
      "bufferView" : 9,
      "componentType" : 5126,
      "count" : 9166,
      "type" : "VEC2"
    },
    {
      "bufferView" : 10,
      "componentType" : 5123,
      "count" : 19056,
      "type" : "SCALAR"
    },
    {
      "bufferView" : 11,
      "min" : [ -0.170326, 0.389146, -0.289671 ],
      "max" : [ 0.360546, 1.00576, 0.289671 ],
      "componentType" : 5126,
      "count" : 6350,
      "type" : "VEC3"
    },
    {
      "bufferView" : 12,
      "componentType" : 5126,
      "count" : 6350,
      "type" : "VEC3"
    },
    {
      "bufferView" : 13,
      "componentType" : 5126,
      "count" : 6350,
      "type" : "VEC4"
    },
    {
      "bufferView" : 14,
      "normalized" : true,
      "componentType" : 5121,
      "count" : 6350,
      "type" : "VEC4"
    },
    {
      "bufferView" : 15,
      "componentType" : 5123,
      "count" : 6350,
      "type" : "VEC4"
    },
    {
      "bufferView" : 16,
      "normalized" : true,
      "componentType" : 5121,
      "count" : 6350,
      "type" : "VEC4"
    },
    {
      "bufferView" : 17,
      "componentType" : 5126,
      "count" : 6350,
      "type" : "VEC2"
    },
    {
      "bufferView" : 18,
      "componentType" : 5126,
      "count" : 6350,
      "type" : "VEC2"
    },
    {
      "bufferView" : 19,
      "componentType" : 5123,
      "count" : 1560,
      "type" : "SCALAR"
    },
    {
      "bufferView" : 20,
      "min" : [ 0.0152291, 0.631567, -0.0965616 ],
      "max" : [ 0.21017, 0.826867, 0.096623 ],
      "componentType" : 5126,
      "count" : 309,
      "type" : "VEC3"
    },
    {
      "bufferView" : 21,
      "componentType" : 5126,
      "count" : 309,
      "type" : "VEC3"
    },
    {
      "bufferView" : 22,
      "componentType" : 5126,
      "count" : 309,
      "type" : "VEC4"
    },
    {
      "bufferView" : 23,
      "normalized" : true,
      "componentType" : 5121,
      "count" : 309,
      "type" : "VEC4"
    },
    {
      "bufferView" : 24,
      "componentType" : 5123,
      "count" : 309,
      "type" : "VEC4"
    },
    {
      "bufferView" : 25,
      "normalized" : true,
      "componentType" : 5121,
      "count" : 309,
      "type" : "VEC4"
    },
    {
      "bufferView" : 26,
      "componentType" : 5126,
      "count" : 309,
      "type" : "VEC2"
    },
    {
      "bufferView" : 27,
      "componentType" : 5126,
      "count" : 309,
      "type" : "VEC2"
    }
  ]
}
