{
  "asset" : {
    "generator" : "UE Viewer (umodel) build 1579 based",
    "version" : "2.0"
  },
  "scene" : 0,
  "scenes" : [
    {
      "nodes" : [ 0 ]
    }
  ],
  "nodes" : [
    {
      "name" : "SK_CH_WP06_AZ00_ball",
      "mesh" : 0,
      "skin" : 0,
      "children" : [ 1 ]
    },
    {
      "name" : "Root_J",
      "translation" : [ 0, 0, 0 ],
      "rotation" : [ -0, -0, -0, 1 ]
    }
  ],
  "skins" : [
    {
      "inverseBindMatrices" : 0,
      "skeleton" : 1,
      "joints" : [
        1
      ]
    }
  ],
  "materials" : [
    {
      "name" : "M_CH_WP06_AZ00_00_ball",
      "pbrMetallicRoughness" : {
        "baseColorFactor" : [ 0.3, 0.3, 0.3, 1.0 ],
        "metallicFactor" : 0.1,
        "roughnessFactor" : 0.5
      }
    },
    {
      "name" : "M_CH_WP06_AZ00_00_Sphere",
      "pbrMetallicRoughness" : {
        "baseColorFactor" : [ 0.9, 0.3, 0.3, 1.0 ],
        "metallicFactor" : 0.1,
        "roughnessFactor" : 0.5
      }
    }
  ],
  "meshes" : [
    {
      "primitives" : [
        {
          "attributes" : {
            "POSITION" : 2,
            "NORMAL" : 3,
            "TANGENT" : 4,
            "COLOR_0" : 5,
            "JOINTS_0" : 6,
            "WEIGHTS_0" : 7,
            "TEXCOORD_0" : 8,
            "TEXCOORD_1" : 9
          },
          "indices" : 1,
          "material" : 0
        },
        {
          "attributes" : {
            "POSITION" : 11,
            "NORMAL" : 12,
            "TANGENT" : 13,
            "COLOR_0" : 14,
            "JOINTS_0" : 15,
            "WEIGHTS_0" : 16,
            "TEXCOORD_0" : 17,
            "TEXCOORD_1" : 18
          },
          "indices" : 10,
          "material" : 1
        }
      ],
      "name" : "SK_CH_WP06_AZ00_ball"
    }
  ],
  "buffers" : [
    {
      "uri" : "SK_CH_WP06_AZ00_ball.bin",
      "byteLength" : 520744
    }
  ],
  "bufferViews" : [
    {
      "buffer" : 0,
      "byteOffset" : 0,
      "byteLength" : 64
    },
    {
      "buffer" : 0,
      "byteOffset" : 64,
      "byteLength" : 38112
    },
    {
      "buffer" : 0,
      "byteOffset" : 38176,
      "byteLength" : 76200
    },
    {
      "buffer" : 0,
      "byteOffset" : 114376,
      "byteLength" : 76200
    },
    {
      "buffer" : 0,
      "byteOffset" : 190576,
      "byteLength" : 101600
    },
    {
      "buffer" : 0,
      "byteOffset" : 292176,
      "byteLength" : 25400
    },
    {
      "buffer" : 0,
      "byteOffset" : 317576,
      "byteLength" : 50800
    },
    {
      "buffer" : 0,
      "byteOffset" : 368376,
      "byteLength" : 25400
    },
    {
      "buffer" : 0,
      "byteOffset" : 393776,
      "byteLength" : 50800
    },
    {
      "buffer" : 0,
      "byteOffset" : 444576,
      "byteLength" : 50800
    },
    {
      "buffer" : 0,
      "byteOffset" : 495376,
      "byteLength" : 3120
    },
    {
      "buffer" : 0,
      "byteOffset" : 498496,
      "byteLength" : 3708
    },
    {
      "buffer" : 0,
      "byteOffset" : 502204,
      "byteLength" : 3708
    },
    {
      "buffer" : 0,
      "byteOffset" : 505912,
      "byteLength" : 4944
    },
    {
      "buffer" : 0,
      "byteOffset" : 510856,
      "byteLength" : 1236
    },
    {
      "buffer" : 0,
      "byteOffset" : 512092,
      "byteLength" : 2472
    },
    {
      "buffer" : 0,
      "byteOffset" : 514564,
      "byteLength" : 1236
    },
    {
      "buffer" : 0,
      "byteOffset" : 515800,
      "byteLength" : 2472
    },
    {
      "buffer" : 0,
      "byteOffset" : 518272,
      "byteLength" : 2472
    }
  ],
  "accessors" : [
    {
      "bufferView" : 0,
      "componentType" : 5126,
      "count" : 1,
      "type" : "MAT4"
    },
    {
      "bufferView" : 1,
      "componentType" : 5123,
      "count" : 19056,
      "type" : "SCALAR"
    },
    {
      "bufferView" : 2,
      "min" : [ -0.267326, -0.311925, -0.289671 ],
      "max" : [ 0.263546, 0.304694, 0.289671 ],
      "componentType" : 5126,
      "count" : 6350,
      "type" : "VEC3"
    },
    {
      "bufferView" : 3,
      "componentType" : 5126,
      "count" : 6350,
      "type" : "VEC3"
    },
    {
      "bufferView" : 4,
      "componentType" : 5126,
      "count" : 6350,
      "type" : "VEC4"
    },
    {
      "bufferView" : 5,
      "normalized" : true,
      "componentType" : 5121,
      "count" : 6350,
      "type" : "VEC4"
    },
    {
      "bufferView" : 6,
      "componentType" : 5123,
      "count" : 6350,
      "type" : "VEC4"
    },
    {
      "bufferView" : 7,
      "normalized" : true,
      "componentType" : 5121,
      "count" : 6350,
      "type" : "VEC4"
    },
    {
      "bufferView" : 8,
      "componentType" : 5126,
      "count" : 6350,
      "type" : "VEC2"
    },
    {
      "bufferView" : 9,
      "componentType" : 5126,
      "count" : 6350,
      "type" : "VEC2"
    },
    {
      "bufferView" : 10,
      "componentType" : 5123,
      "count" : 1560,
      "type" : "SCALAR"
    },
    {
      "bufferView" : 11,
      "min" : [ -0.0817709, -0.0695038, -0.0965616 ],
      "max" : [ 0.11317, 0.125796, 0.096623 ],
      "componentType" : 5126,
      "count" : 309,
      "type" : "VEC3"
    },
    {
      "bufferView" : 12,
      "componentType" : 5126,
      "count" : 309,
      "type" : "VEC3"
    },
    {
      "bufferView" : 13,
      "componentType" : 5126,
      "count" : 309,
      "type" : "VEC4"
    },
    {
      "bufferView" : 14,
      "normalized" : true,
      "componentType" : 5121,
      "count" : 309,
      "type" : "VEC4"
    },
    {
      "bufferView" : 15,
      "componentType" : 5123,
      "count" : 309,
      "type" : "VEC4"
    },
    {
      "bufferView" : 16,
      "normalized" : true,
      "componentType" : 5121,
      "count" : 309,
      "type" : "VEC4"
    },
    {
      "bufferView" : 17,
      "componentType" : 5126,
      "count" : 309,
      "type" : "VEC2"
    },
    {
      "bufferView" : 18,
      "componentType" : 5126,
      "count" : 309,
      "type" : "VEC2"
    }
  ]
}
