{
  "asset" : {
    "generator" : "UE Viewer (umodel) build 1579 based",
    "version" : "2.0"
  },
  "scene" : 0,
  "scenes" : [
    {
      "nodes" : [ 0 ]
    }
  ],
  "nodes" : [
    {
      "name" : "SK_CH_WP00_AS00",
      "mesh" : 0,
      "skin" : 0,
      "children" : [ 1 ]
    },
    {
      "name" : "Root_J",
      "children" : [ 2 ],
      "translation" : [ 0, 0, 0 ],
      "rotation" : [ -0, -0, -0, 1 ]
    },
    {
      "name" : "Center_J",
      "children" : [ 3, 4, 5 ],
      "translation" : [ 0, 0.165858, -0 ],
      "rotation" : [ -0, -1, 0, 9.38711e-15 ]
    },
    {
      "name" : "R_EdgeTop",
      "translation" : [ -0.00172739, 0.506286, -3.85197e-17 ],
      "rotation" : [ -0, -0, 0, -1 ]
    },
    {
      "name" : "R_EdgeBottom",
      "translation" : [ -0.13506, -0.121038, -2.53514e-15 ],
      "rotation" : [ -0, -0, 0, -1 ]
    },
    {
      "name" : "R_HandleBottom",
      "translation" : [ 0, -0.396983, 6.19968e-16 ],
      "rotation" : [ -0, -0, 0, -1 ]
    }
  ],
  "skins" : [
    {
      "inverseBindMatrices" : 0,
      "skeleton" : 1,
      "joints" : [
        1,2,3,4,5
      ]
    }
  ],
  "materials" : [
    {
      "name" : "M_CH_WP00_AS00_00_Ble",
      "pbrMetallicRoughness" : {
        "baseColorFactor" : [ 0.3, 0.3, 0.3, 1.0 ],
        "metallicFactor" : 0.1,
        "roughnessFactor" : 0.5
      }
    },
    {
      "name" : "M_CH_WP00_AS00_00",
      "pbrMetallicRoughness" : {
        "baseColorFactor" : [ 0.9, 0.3, 0.3, 1.0 ],
        "metallicFactor" : 0.1,
        "roughnessFactor" : 0.5
      }
    }
  ],
  "meshes" : [
    {
      "primitives" : [
        {
          "attributes" : {
            "POSITION" : 2,
            "NORMAL" : 3,
            "TANGENT" : 4,
            "COLOR_0" : 5,
            "JOINTS_0" : 6,
            "WEIGHTS_0" : 7,
            "TEXCOORD_0" : 8,
            "TEXCOORD_1" : 9
          },
          "indices" : 1,
          "material" : 0
        },
        {
          "attributes" : {
            "POSITION" : 11,
            "NORMAL" : 12,
            "TANGENT" : 13,
            "COLOR_0" : 14,
            "JOINTS_0" : 15,
            "WEIGHTS_0" : 16,
            "TEXCOORD_0" : 17,
            "TEXCOORD_1" : 18
          },
          "indices" : 10,
          "material" : 1
        }
      ],
      "name" : "SK_CH_WP00_AS00"
    }
  ],
  "buffers" : [
    {
      "uri" : "SK_CH_WP00_AS00.bin",
      "byteLength" : 442580
    }
  ],
  "bufferViews" : [
    {
      "buffer" : 0,
      "byteOffset" : 0,
      "byteLength" : 320
    },
    {
      "buffer" : 0,
      "byteOffset" : 320,
      "byteLength" : 5292
    },
    {
      "buffer" : 0,
      "byteOffset" : 5612,
      "byteLength" : 12360
    },
    {
      "buffer" : 0,
      "byteOffset" : 17972,
      "byteLength" : 12360
    },
    {
      "buffer" : 0,
      "byteOffset" : 30332,
      "byteLength" : 16480
    },
    {
      "buffer" : 0,
      "byteOffset" : 46812,
      "byteLength" : 4120
    },
    {
      "buffer" : 0,
      "byteOffset" : 50932,
      "byteLength" : 8240
    },
    {
      "buffer" : 0,
      "byteOffset" : 59172,
      "byteLength" : 4120
    },
    {
      "buffer" : 0,
      "byteOffset" : 63292,
      "byteLength" : 8240
    },
    {
      "buffer" : 0,
      "byteOffset" : 71532,
      "byteLength" : 8240
    },
    {
      "buffer" : 0,
      "byteOffset" : 79772,
      "byteLength" : 23472
    },
    {
      "buffer" : 0,
      "byteOffset" : 103244,
      "byteLength" : 56556
    },
    {
      "buffer" : 0,
      "byteOffset" : 159800,
      "byteLength" : 56556
    },
    {
      "buffer" : 0,
      "byteOffset" : 216356,
      "byteLength" : 75408
    },
    {
      "buffer" : 0,
      "byteOffset" : 291764,
      "byteLength" : 18852
    },
    {
      "buffer" : 0,
      "byteOffset" : 310616,
      "byteLength" : 37704
    },
    {
      "buffer" : 0,
      "byteOffset" : 348320,
      "byteLength" : 18852
    },
    {
      "buffer" : 0,
      "byteOffset" : 367172,
      "byteLength" : 37704
    },
    {
      "buffer" : 0,
      "byteOffset" : 404876,
      "byteLength" : 37704
    }
  ],
  "accessors" : [
    {
      "bufferView" : 0,
      "componentType" : 5126,
      "count" : 5,
      "type" : "MAT4"
    },
    {
      "bufferView" : 1,
      "componentType" : 5123,
      "count" : 2646,
      "type" : "SCALAR"
    },
    {
      "bufferView" : 2,
      "min" : [ -0.299327, 0.0448198, -0.0161238 ],
      "max" : [ 0.268553, 0.672144, 0.0161238 ],
      "componentType" : 5126,
      "count" : 1030,
      "type" : "VEC3"
    },
    {
      "bufferView" : 3,
      "componentType" : 5126,
      "count" : 1030,
      "type" : "VEC3"
    },
    {
      "bufferView" : 4,
      "componentType" : 5126,
      "count" : 1030,
      "type" : "VEC4"
    },
    {
      "bufferView" : 5,
      "normalized" : true,
      "componentType" : 5121,
      "count" : 1030,
      "type" : "VEC4"
    },
    {
      "bufferView" : 6,
      "componentType" : 5123,
      "count" : 1030,
      "type" : "VEC4"
    },
    {
      "bufferView" : 7,
      "normalized" : true,
      "componentType" : 5121,
      "count" : 1030,
      "type" : "VEC4"
    },
    {
      "bufferView" : 8,
      "componentType" : 5126,
      "count" : 1030,
      "type" : "VEC2"
    },
    {
      "bufferView" : 9,
      "componentType" : 5126,
      "count" : 1030,
      "type" : "VEC2"
    },
    {
      "bufferView" : 10,
      "componentType" : 5123,
      "count" : 11736,
      "type" : "SCALAR"
    },
    {
      "bufferView" : 11,
      "min" : [ -0.297252, -0.231125, -0.0365671 ],
      "max" : [ 0.166108, 0.678749, 0.0365671 ],
      "componentType" : 5126,
      "count" : 4713,
      "type" : "VEC3"
    },
    {
      "bufferView" : 12,
      "componentType" : 5126,
      "count" : 4713,
      "type" : "VEC3"
    },
    {
      "bufferView" : 13,
      "componentType" : 5126,
      "count" : 4713,
      "type" : "VEC4"
    },
    {
      "bufferView" : 14,
      "normalized" : true,
      "componentType" : 5121,
      "count" : 4713,
      "type" : "VEC4"
    },
    {
      "bufferView" : 15,
      "componentType" : 5123,
      "count" : 4713,
      "type" : "VEC4"
    },
    {
      "bufferView" : 16,
      "normalized" : true,
      "componentType" : 5121,
      "count" : 4713,
      "type" : "VEC4"
    },
    {
      "bufferView" : 17,
      "componentType" : 5126,
      "count" : 4713,
      "type" : "VEC2"
    },
    {
      "bufferView" : 18,
      "componentType" : 5126,
      "count" : 4713,
      "type" : "VEC2"
    }
  ]
}
