{
  "asset" : {
    "generator" : "UE Viewer (umodel) build 1579 based",
    "version" : "2.0"
  },
  "scene" : 0,
  "scenes" : [
    {
      "nodes" : [ 0 ]
    }
  ],
  "nodes" : [
    {
      "name" : "SK_CH_WP07_AH01",
      "mesh" : 0,
      "skin" : 0,
      "children" : [ 1 ]
    },
    {
      "name" : "Root_J",
      "children" : [ 2 ],
      "translation" : [ 0, 0, 0 ],
      "rotation" : [ 3.06162e-17, -0, -0, 1 ]
    },
    {
      "name" : "Center_J",
      "children" : [ 3, 4, 5, 6, 8 ],
      "translation" : [ 0, -0.0205827, 1.26032e-18 ],
      "rotation" : [ -0, -0, 0, -1 ]
    },
    {
      "name" : "R_EdgeTop",
      "translation" : [ -5.77521e-06, 0.530143, -3.24619e-17 ],
      "rotation" : [ 2.30567e-29, 4.32963e-17, 0.707082, -0.707132 ]
    },
    {
      "name" : "R_EdgeBottom",
      "translation" : [ 0, 0.273963, -1.67754e-17 ],
      "rotation" : [ -0, -0, 0, -1 ]
    },
    {
      "name" : "R_HandleBottom",
      "translation" : [ 0, -0.592477, 3.62788e-17 ],
      "rotation" : [ -0, -0, 0, -1 ]
    },
    {
      "name" : "UpperCover_J",
      "children" : [ 7 ],
      "translation" : [ -0.036421, 0.0759078, 1.43617e-17 ],
      "rotation" : [ -0, -0, 0, -1 ]
    },
    {
      "name" : "R_Discharge",
      "translation" : [ 1.82372e-05, 0.114109, -6.98718e-18 ],
      "rotation" : [ 2.30567e-29, 4.32963e-17, 0.707082, -0.707132 ]
    },
    {
      "name" : "LowerSlide_J",
      "translation" : [ 0, -0.262817, 1.60929e-17 ],
      "rotation" : [ -0, -0, 0, -1 ]
    }
  ],
  "skins" : [
    {
      "inverseBindMatrices" : 0,
      "skeleton" : 1,
      "joints" : [
        1,2,3,4,5,6,7,8
      ]
    }
  ],
  "materials" : [
    {
      "name" : "M_CH_WP07_AH01_00",
      "pbrMetallicRoughness" : {
        "baseColorFactor" : [ 0.3, 0.3, 0.3, 1.0 ],
        "metallicFactor" : 0.1,
        "roughnessFactor" : 0.5
      }
    }
  ],
  "meshes" : [
    {
      "primitives" : [
        {
          "attributes" : {
            "POSITION" : 2,
            "NORMAL" : 3,
            "TANGENT" : 4,
            "COLOR_0" : 5,
            "JOINTS_0" : 6,
            "WEIGHTS_0" : 7,
            "TEXCOORD_0" : 8,
            "TEXCOORD_1" : 9
          },
          "indices" : 1,
          "material" : 0
        }
      ],
      "name" : "SK_CH_WP07_AH01"
    }
  ],
  "buffers" : [
    {
      "uri" : "SK_CH_WP07_AH01.bin",
      "byteLength" : 696160
    }
  ],
  "bufferViews" : [
    {
      "buffer" : 0,
      "byteOffset" : 0,
      "byteLength" : 512
    },
    {
      "buffer" : 0,
      "byteOffset" : 512,
      "byteLength" : 46712
    },
    {
      "buffer" : 0,
      "byteOffset" : 47224,
      "byteLength" : 108156
    },
    {
      "buffer" : 0,
      "byteOffset" : 155380,
      "byteLength" : 108156
    },
    {
      "buffer" : 0,
      "byteOffset" : 263536,
      "byteLength" : 144208
    },
    {
      "buffer" : 0,
      "byteOffset" : 407744,
      "byteLength" : 36052
    },
    {
      "buffer" : 0,
      "byteOffset" : 443796,
      "byteLength" : 72104
    },
    {
      "buffer" : 0,
      "byteOffset" : 515900,
      "byteLength" : 36052
    },
    {
      "buffer" : 0,
      "byteOffset" : 551952,
      "byteLength" : 72104
    },
    {
      "buffer" : 0,
      "byteOffset" : 624056,
      "byteLength" : 72104
    }
  ],
  "accessors" : [
    {
      "bufferView" : 0,
      "componentType" : 5126,
      "count" : 8,
      "type" : "MAT4"
    },
    {
      "bufferView" : 1,
      "componentType" : 5123,
      "count" : 23355,
      "type" : "SCALAR"
    },
    {
      "bufferView" : 2,
      "min" : [ -0.130924, -0.605913, -0.0353918 ],
      "max" : [ 0.136882, 0.607034, 0.0353918 ],
      "componentType" : 5126,
      "count" : 9013,
      "type" : "VEC3"
    },
    {
      "bufferView" : 3,
      "componentType" : 5126,
      "count" : 9013,
      "type" : "VEC3"
    },
    {
      "bufferView" : 4,
      "componentType" : 5126,
      "count" : 9013,
      "type" : "VEC4"
    },
    {
      "bufferView" : 5,
      "normalized" : true,
      "componentType" : 5121,
      "count" : 9013,
      "type" : "VEC4"
    },
    {
      "bufferView" : 6,
      "componentType" : 5123,
      "count" : 9013,
      "type" : "VEC4"
    },
    {
      "bufferView" : 7,
      "normalized" : true,
      "componentType" : 5121,
      "count" : 9013,
      "type" : "VEC4"
    },
    {
      "bufferView" : 8,
      "componentType" : 5126,
      "count" : 9013,
      "type" : "VEC2"
    },
    {
      "bufferView" : 9,
      "componentType" : 5126,
      "count" : 9013,
      "type" : "VEC2"
    }
  ]
}
