{
  "asset" : {
    "generator" : "UE Viewer (umodel) build 1579 based",
    "version" : "2.0"
  },
  "scene" : 0,
  "scenes" : [
    {
      "nodes" : [ 0 ]
    }
  ],
  "nodes" : [
    {
      "name" : "SK_CH_WP06_AF00",
      "mesh" : 0,
      "skin" : 0,
      "children" : [ 1 ]
    },
    {
      "name" : "Root_J",
      "children" : [ 2 ],
      "translation" : [ 0, 0, 0 ],
      "rotation" : [ -0, -0, -0, 1 ]
    },
    {
      "name" : "GripPoint_J",
      "children" : [ 3 ],
      "translation" : [ 0, -0.04, -0 ],
      "rotation" : [ -0, -0, 0, -1 ]
    },
    {
      "name" : "GripPivot_J",
      "children" : [ 4 ],
      "translation" : [ 0, -0.05, -0 ],
      "rotation" : [ -0, -0, 0, -1 ]
    },
    {
      "name" : "Center_J",
      "children" : [ 5, 6, 7, 8, 9 ],
      "translation" : [ 0.097, -0.195, -0 ],
      "rotation" : [ -0, -0, 0, -1 ]
    },
    {
      "name" : "R_EdgeTop",
      "translation" : [ -5.77521e-06, 0.867455, -0 ],
      "rotation" : [ -0, -0, 0.707082, -0.707132 ]
    },
    {
      "name" : "R_EdgeBottom",
      "translation" : [ 0, 0.651902, -0 ],
      "rotation" : [ -0, -0, 0, -1 ]
    },
    {
      "name" : "R_HandleBottom",
      "translation" : [ 0, -0.673485, -0 ],
      "rotation" : [ -0, -0, 0, -1 ]
    },
    {
      "name" : "LowerSlide_J",
      "translation" : [ 0, -0.523376, -0 ],
      "rotation" : [ -0, -0, 0, -1 ]
    },
    {
      "name" : "Hinge_J",
      "children" : [ 10 ],
      "translation" : [ 0.0253733, 0.494272, -0 ],
      "rotation" : [ -0, -0, 0, -1 ]
    },
    {
      "name" : "HingeSlide_J",
      "children" : [ 11, 13 ],
      "translation" : [ -1.77636e-17, 0, -0 ],
      "rotation" : [ -0, -0, 0, -1 ]
    },
    {
      "name" : "HammerRoot_J",
      "children" : [ 12 ],
      "translation" : [ 0.103445, 0.267073, -1.26893e-08 ],
      "rotation" : [ -0, -0, -0.257344, -0.96632 ]
    },
    {
      "name" : "Hammer_J",
      "translation" : [ 0, 0.259, -1.93739e-09 ],
      "rotation" : [ 3.25475e-08, 1.61878e-08, 4.99116e-16, -1 ]
    },
    {
      "name" : "SlideCover_J",
      "translation" : [ -0.050729, 0.150086, -0 ],
      "rotation" : [ -0, -0, 0, -1 ]
    }
  ],
  "skins" : [
    {
      "inverseBindMatrices" : 0,
      "skeleton" : 1,
      "joints" : [
        1,2,3,4,5,6,7,8,9,10,11,12,13
      ]
    }
  ],
  "materials" : [
    {
      "name" : "M_CH_WP06_AF00_00",
      "pbrMetallicRoughness" : {
        "baseColorFactor" : [ 0.3, 0.3, 0.3, 1.0 ],
        "metallicFactor" : 0.1,
        "roughnessFactor" : 0.5
      }
    },
    {
      "name" : "M_CH_WP06_AF00_00_ball",
      "pbrMetallicRoughness" : {
        "baseColorFactor" : [ 0.9, 0.3, 0.3, 1.0 ],
        "metallicFactor" : 0.1,
        "roughnessFactor" : 0.5
      }
    }
  ],
  "meshes" : [
    {
      "primitives" : [
        {
          "attributes" : {
            "POSITION" : 2,
            "NORMAL" : 3,
            "TANGENT" : 4,
            "COLOR_0" : 5,
            "JOINTS_0" : 6,
            "WEIGHTS_0" : 7,
            "TEXCOORD_0" : 8,
            "TEXCOORD_1" : 9
          },
          "indices" : 1,
          "material" : 0
        },
        {
          "attributes" : {
            "POSITION" : 11,
            "NORMAL" : 12,
            "TANGENT" : 13,
            "COLOR_0" : 14,
            "JOINTS_0" : 15,
            "WEIGHTS_0" : 16,
            "TEXCOORD_0" : 17,
            "TEXCOORD_1" : 18
          },
          "indices" : 10,
          "material" : 1
        }
      ],
      "name" : "SK_CH_WP06_AF00"
    }
  ],
  "buffers" : [
    {
      "uri" : "SK_CH_WP06_AF00.bin",
      "byteLength" : 972892
    }
  ],
  "bufferViews" : [
    {
      "buffer" : 0,
      "byteOffset" : 0,
      "byteLength" : 832
    },
    {
      "buffer" : 0,
      "byteOffset" : 832,
      "byteLength" : 37896
    },
    {
      "buffer" : 0,
      "byteOffset" : 38728,
      "byteLength" : 88272
    },
    {
      "buffer" : 0,
      "byteOffset" : 127000,
      "byteLength" : 88272
    },
    {
      "buffer" : 0,
      "byteOffset" : 215272,
      "byteLength" : 117696
    },
    {
      "buffer" : 0,
      "byteOffset" : 332968,
      "byteLength" : 29424
    },
    {
      "buffer" : 0,
      "byteOffset" : 362392,
      "byteLength" : 58848
    },
    {
      "buffer" : 0,
      "byteOffset" : 421240,
      "byteLength" : 29424
    },
    {
      "buffer" : 0,
      "byteOffset" : 450664,
      "byteLength" : 58848
    },
    {
      "buffer" : 0,
      "byteOffset" : 509512,
      "byteLength" : 58848
    },
    {
      "buffer" : 0,
      "byteOffset" : 568360,
      "byteLength" : 17604
    },
    {
      "buffer" : 0,
      "byteOffset" : 585964,
      "byteLength" : 64488
    },
    {
      "buffer" : 0,
      "byteOffset" : 650452,
      "byteLength" : 64488
    },
    {
      "buffer" : 0,
      "byteOffset" : 714940,
      "byteLength" : 85984
    },
    {
      "buffer" : 0,
      "byteOffset" : 800924,
      "byteLength" : 21496
    },
    {
      "buffer" : 0,
      "byteOffset" : 822420,
      "byteLength" : 42992
    },
    {
      "buffer" : 0,
      "byteOffset" : 865412,
      "byteLength" : 21496
    },
    {
      "buffer" : 0,
      "byteOffset" : 886908,
      "byteLength" : 42992
    },
    {
      "buffer" : 0,
      "byteOffset" : 929900,
      "byteLength" : 42992
    }
  ],
  "accessors" : [
    {
      "bufferView" : 0,
      "componentType" : 5126,
      "count" : 13,
      "type" : "MAT4"
    },
    {
      "bufferView" : 1,
      "componentType" : 5123,
      "count" : 18948,
      "type" : "SCALAR"
    },
    {
      "bufferView" : 2,
      "min" : [ -0.0359509, -1.00362, -0.0943931 ],
      "max" : [ 0.47656, 1.10513, 0.0943931 ],
      "componentType" : 5126,
      "count" : 7356,
      "type" : "VEC3"
    },
    {
      "bufferView" : 3,
      "componentType" : 5126,
      "count" : 7356,
      "type" : "VEC3"
    },
    {
      "bufferView" : 4,
      "componentType" : 5126,
      "count" : 7356,
      "type" : "VEC4"
    },
    {
      "bufferView" : 5,
      "normalized" : true,
      "componentType" : 5121,
      "count" : 7356,
      "type" : "VEC4"
    },
    {
      "bufferView" : 6,
      "componentType" : 5123,
      "count" : 7356,
      "type" : "VEC4"
    },
    {
      "bufferView" : 7,
      "normalized" : true,
      "componentType" : 5121,
      "count" : 7356,
      "type" : "VEC4"
    },
    {
      "bufferView" : 8,
      "componentType" : 5126,
      "count" : 7356,
      "type" : "VEC2"
    },
    {
      "bufferView" : 9,
      "componentType" : 5126,
      "count" : 7356,
      "type" : "VEC2"
    },
    {
      "bufferView" : 10,
      "componentType" : 5123,
      "count" : 8802,
      "type" : "SCALAR"
    },
    {
      "bufferView" : 11,
      "min" : [ -0.162391, 0.441651, -0.259241 ],
      "max" : [ 0.356395, 0.960437, 0.24707 ],
      "componentType" : 5126,
      "count" : 5374,
      "type" : "VEC3"
    },
    {
      "bufferView" : 12,
      "componentType" : 5126,
      "count" : 5374,
      "type" : "VEC3"
    },
    {
      "bufferView" : 13,
      "componentType" : 5126,
      "count" : 5374,
      "type" : "VEC4"
    },
    {
      "bufferView" : 14,
      "normalized" : true,
      "componentType" : 5121,
      "count" : 5374,
      "type" : "VEC4"
    },
    {
      "bufferView" : 15,
      "componentType" : 5123,
      "count" : 5374,
      "type" : "VEC4"
    },
    {
      "bufferView" : 16,
      "normalized" : true,
      "componentType" : 5121,
      "count" : 5374,
      "type" : "VEC4"
    },
    {
      "bufferView" : 17,
      "componentType" : 5126,
      "count" : 5374,
      "type" : "VEC2"
    },
    {
      "bufferView" : 18,
      "componentType" : 5126,
      "count" : 5374,
      "type" : "VEC2"
    }
  ]
}
